<?xml version="1.0" encoding="UTF-8"?>
<svg xmlns="http://www.w3.org/2000/svg" xmlns:xlink="http://www.w3.org/1999/xlink" width="1112px" height="100px" viewBox="0 0 1112 100" version="1.1">
<g id="surface1">
<path style=" stroke:none;fill-rule:nonzero;fill:rgb(67.058825%,9.019608%,15.294118%);fill-opacity:1;" d="M 56.855469 2.714844 L 55.03125 2.714844 C 54.9375 4.835938 53.8125 5.753906 51.695312 5.753906 C 47.445312 5.753906 40.570312 0.597656 33.28125 0.597656 C 12.542969 0.597656 0 21.027344 0 39.023438 C 0 57.140625 11.941406 75.039062 31.960938 75.039062 C 44.105469 75.039062 48.660156 69.28125 51.894531 69.28125 C 54.019531 69.28125 55.238281 71.917969 55.640625 73.425781 L 57.160156 73.425781 L 57.160156 48.632812 L 55.640625 48.632812 L 55.03125 52.078125 C 53.613281 60.277344 46.03125 73.21875 32.984375 73.21875 C 21.445312 73.21875 17.003906 62.394531 17.003906 37.808594 C 17.003906 12.027344 23.066406 2.410156 33.28125 2.410156 C 44.816406 2.410156 53.414062 16.261719 55.03125 26.59375 L 56.855469 26.59375 Z M 56.855469 2.714844 "/>
<path style=" stroke:none;fill-rule:nonzero;fill:rgb(67.058825%,9.019608%,15.294118%);fill-opacity:1;" d="M 112.019531 64.835938 L 110.222656 64.835938 C 110.222656 67.4375 109.125 70.433594 106.730469 70.433594 C 104.933594 70.433594 104.441406 68.539062 104.441406 65.445312 L 104.441406 42.484375 C 104.441406 31.109375 93.757812 28.3125 83.484375 28.3125 C 73.503906 28.3125 66.214844 33.207031 66.214844 38.792969 C 66.214844 42.292969 68.210938 45.28125 72.699219 45.28125 C 76.492188 45.28125 78.789062 42.789062 78.789062 39.289062 C 78.789062 34.507812 73.808594 34.800781 73.699219 33.101562 C 73.609375 30.90625 79.390625 30.117188 82.789062 30.117188 C 90.261719 30.117188 91.269531 33.792969 91.269531 39.789062 L 91.269531 48.167969 L 81.484375 48.96875 C 72.414062 49.667969 62.527344 52.066406 62.527344 62.441406 C 62.527344 71.128906 70.308594 74.628906 77.996094 74.628906 C 81.882812 74.628906 88.765625 73.121094 91.367188 68.339844 C 93.160156 72.523438 96.855469 74.628906 101.339844 74.628906 C 107.828125 74.628906 112.019531 70.730469 112.019531 64.839844 M 91.269531 61.554688 C 91.070312 66.84375 88.066406 71.625 83.382812 71.625 C 76.597656 71.625 76.304688 65.445312 76.304688 60.253906 C 76.304688 54.953125 76.894531 51.464844 83.382812 50.769531 L 91.269531 49.96875 Z M 91.269531 61.554688 "/>
<path style=" stroke:none;fill-rule:nonzero;fill:rgb(67.058825%,9.019608%,15.294118%);fill-opacity:1;" d="M 112.582031 73.421875 L 142.425781 73.421875 L 142.425781 71.621094 L 133.242188 71.621094 L 133.242188 46.15625 C 133.242188 38.472656 135.640625 33.085938 141.929688 30.285156 L 142.328125 30.285156 C 140.632812 32.078125 139.929688 33.667969 139.929688 36.164062 C 139.929688 40.0625 142.824219 42.660156 146.714844 42.660156 C 151.507812 42.660156 154.304688 39.179688 154.304688 35.375 C 154.304688 30.578125 151.105469 27.683594 146.417969 27.683594 C 140.03125 27.683594 135.136719 32.078125 133.242188 37.070312 L 133.042969 37.070312 L 133.042969 26.886719 C 130.945312 29.476562 123.5625 29.476562 119.472656 29.476562 L 112.582031 29.476562 L 112.582031 31.265625 L 119.472656 31.265625 L 119.472656 71.621094 L 112.582031 71.621094 Z M 112.582031 73.421875 "/>
<path style=" stroke:none;fill-rule:nonzero;fill:rgb(67.058825%,9.019608%,15.294118%);fill-opacity:1;" d="M 155.863281 73.421875 L 182.398438 73.421875 L 182.398438 71.621094 L 176.511719 71.621094 L 176.511719 44.261719 C 176.511719 39.179688 181.503906 31.878906 187.085938 31.878906 C 189.980469 31.878906 192.984375 33.085938 192.984375 40.0625 L 192.984375 71.621094 L 187.292969 71.621094 L 187.292969 73.421875 L 213.628906 73.421875 L 213.628906 71.621094 L 206.746094 71.621094 L 206.746094 43.765625 C 206.746094 32.980469 202.15625 28.285156 192.675781 28.285156 C 186 28.285156 179.40625 31.777344 176.710938 37.5625 L 176.511719 37.5625 L 176.511719 26.886719 C 174.414062 29.476562 167.042969 29.476562 162.945312 29.476562 L 155.863281 29.476562 L 155.863281 31.265625 L 162.75 31.265625 L 162.75 71.621094 L 155.863281 71.621094 Z M 155.863281 73.421875 "/>
<path style=" stroke:none;fill-rule:nonzero;fill:rgb(67.058825%,9.019608%,15.294118%);fill-opacity:1;" d="M 228.171875 49.277344 L 255.71875 49.277344 C 255.617188 38.496094 245.636719 28.121094 235.15625 28.308594 C 223.386719 28.308594 213.195312 38.5 213.195312 51.964844 C 213.195312 64.941406 222.675781 74.628906 235.460938 74.628906 C 247.734375 74.628906 253.824219 67.035156 256.015625 57.148438 L 254.222656 57.148438 C 252.03125 66.4375 246.238281 72.226562 238.453125 72.226562 C 229.167969 72.226562 228.167969 64.4375 228.167969 57.660156 Z M 228.171875 47.46875 L 228.171875 38.894531 C 228.171875 32.203125 231.070312 30.117188 234.460938 30.117188 C 239.242188 30.117188 240.75 33.398438 240.75 38.894531 L 240.75 47.46875 Z M 228.171875 47.46875 "/>
<path style=" stroke:none;fill-rule:nonzero;fill:rgb(67.058825%,9.019608%,15.294118%);fill-opacity:1;" d="M 305.273438 32.808594 C 305.273438 29.308594 301.484375 27.519531 298.484375 27.519531 C 295.199219 27.519531 292.703125 29.714844 290.800781 31.90625 C 287.902344 29.816406 283.917969 28.308594 278.332031 28.308594 C 269.949219 28.308594 260.960938 33.796875 260.960938 42.886719 C 260.960938 48.367188 263.957031 52.660156 269.25 55.054688 L 269.25 55.25 C 265.355469 55.746094 259.265625 58.445312 259.265625 66.730469 C 259.265625 71.707031 261.5625 75.507812 265.753906 76.710938 L 265.753906 76.90625 C 261.761719 77.992188 257.171875 81.984375 257.171875 86.777344 C 257.171875 94.160156 265.859375 99.855469 276.933594 99.855469 C 290.800781 99.855469 299.886719 90.472656 299.886719 78.300781 C 299.886719 68.617188 295.097656 64.234375 285.316406 64.429688 L 268.746094 64.429688 C 266.25 64.429688 262.859375 64.332031 262.859375 61.644531 C 262.859375 59.140625 267.15625 56.453125 270.945312 56.453125 C 272.042969 56.453125 273.136719 56.75 274.242188 57.042969 C 275.433594 57.445312 276.730469 57.652344 278.332031 57.652344 C 286.914062 57.652344 296.089844 52.753906 296.089844 43.277344 C 296.089844 40.085938 294.597656 35.601562 291.804688 33.207031 C 293.601562 31.410156 294.5 29.207031 298.390625 28.714844 L 298.390625 28.914062 C 296.292969 30.007812 295.699219 31.304688 295.699219 33.308594 C 295.699219 35.601562 297.292969 37.898438 300.28125 37.898438 C 303.484375 37.898438 305.269531 35.496094 305.269531 32.808594 M 267.355469 77.003906 L 283.019531 77.003906 C 292.996094 77.003906 296.292969 77.898438 296.292969 83.988281 C 296.292969 91.273438 287.316406 98.054688 277.234375 98.054688 C 268.25 98.054688 263.367188 91.96875 263.15625 87.1875 C 263.15625 82.792969 264.65625 79.898438 267.355469 77.003906 M 284.71875 42.886719 C 284.613281 55.15625 282.019531 55.851562 278.429688 55.851562 C 274.4375 55.851562 272.339844 54.550781 272.339844 42.574219 C 272.339844 34.503906 273.242188 30.113281 278.429688 30.113281 C 283.117188 30.113281 284.613281 31.410156 284.71875 42.886719 "/>
<path style=" stroke:none;fill-rule:nonzero;fill:rgb(67.058825%,9.019608%,15.294118%);fill-opacity:1;" d="M 306.832031 73.421875 L 334.394531 73.421875 L 334.394531 71.621094 L 327.503906 71.621094 L 327.503906 26.886719 C 325.40625 29.476562 318.011719 29.476562 313.925781 29.476562 L 306.832031 29.476562 L 306.832031 31.265625 L 313.714844 31.265625 L 313.714844 71.621094 L 306.832031 71.621094 Z M 306.832031 73.421875 "/>
<path style=" stroke:none;fill-rule:nonzero;fill:rgb(67.058825%,9.019608%,15.294118%);fill-opacity:1;" d="M 313.484375 14.039062 C 313.484375 17.996094 316.648438 21.171875 320.609375 21.171875 C 324.574219 21.171875 327.738281 17.996094 327.738281 14.039062 C 327.738281 10.082031 324.574219 6.917969 320.609375 6.917969 C 318.71875 6.910156 316.902344 7.65625 315.5625 8.992188 C 314.226562 10.332031 313.476562 12.148438 313.484375 14.039062 "/>
<path style=" stroke:none;fill-rule:nonzero;fill:rgb(67.058825%,9.019608%,15.294118%);fill-opacity:1;" d="M 349.363281 49.277344 L 376.902344 49.277344 C 376.8125 38.496094 366.824219 28.121094 356.34375 28.308594 C 344.570312 28.308594 334.382812 38.5 334.382812 51.964844 C 334.382812 64.941406 343.882812 74.628906 356.640625 74.628906 C 368.921875 74.628906 375.019531 67.035156 377.203125 57.148438 L 375.410156 57.148438 C 373.21875 66.4375 367.429688 72.226562 359.640625 72.226562 C 350.363281 72.226562 349.363281 64.4375 349.363281 57.660156 Z M 349.363281 47.46875 L 349.363281 38.894531 C 349.363281 32.203125 352.257812 30.117188 355.652344 30.117188 C 360.441406 30.117188 361.9375 33.398438 361.9375 38.894531 L 361.9375 47.46875 Z M 349.363281 47.46875 "/>
<path style=" stroke:none;fill-rule:nonzero;fill:rgb(67.058825%,9.019608%,15.294118%);fill-opacity:1;" d="M 394.375 73.421875 L 413.730469 73.421875 L 413.730469 71.628906 L 412.332031 71.628906 C 406.941406 71.628906 404.851562 70.230469 404.851562 62.148438 L 404.851562 5.582031 L 405.054688 5.582031 L 428.890625 73.421875 L 431.589844 73.421875 L 454.832031 6.78125 L 455.03125 6.78125 L 455.03125 71.628906 L 446.445312 71.628906 L 446.445312 73.421875 L 478.070312 73.421875 L 478.070312 71.628906 L 470.589844 71.628906 L 470.589844 4.980469 L 478.070312 4.980469 L 478.070312 3.183594 L 454.03125 3.183594 L 437.167969 51.378906 L 436.96875 51.378906 L 420.410156 3.183594 L 394.871094 3.183594 L 394.871094 4.980469 L 402.449219 4.980469 L 402.449219 63.054688 C 402.449219 67.34375 401.453125 71.628906 394.773438 71.628906 L 394.375 71.628906 Z M 394.375 73.421875 "/>
<path style=" stroke:none;fill-rule:nonzero;fill:rgb(67.058825%,9.019608%,15.294118%);fill-opacity:1;" d="M 492.042969 49.277344 L 519.585938 49.277344 C 519.492188 38.496094 509.511719 28.121094 499.03125 28.308594 C 487.257812 28.308594 477.070312 38.5 477.070312 51.964844 C 477.070312 64.941406 486.554688 74.628906 499.339844 74.628906 C 511.601562 74.628906 517.703125 67.035156 519.890625 57.148438 L 518.097656 57.148438 C 515.910156 66.4375 510.117188 72.226562 502.324219 72.226562 C 493.039062 72.226562 492.042969 64.4375 492.042969 57.660156 Z M 492.042969 47.46875 L 492.042969 38.894531 C 492.042969 32.203125 494.9375 30.117188 498.332031 30.117188 C 503.125 30.117188 504.621094 33.398438 504.621094 38.894531 L 504.621094 47.46875 Z M 492.042969 47.46875 "/>
<path style=" stroke:none;fill-rule:nonzero;fill:rgb(67.058825%,9.019608%,15.294118%);fill-opacity:1;" d="M 519.851562 73.421875 L 547.417969 73.421875 L 547.417969 71.628906 L 540.523438 71.628906 L 540.523438 0.144531 C 538.726562 3.136719 533.230469 3.136719 526.140625 3.136719 L 519.851562 3.136719 L 519.851562 4.9375 L 526.75 4.9375 L 526.75 71.628906 L 519.851562 71.628906 Z M 519.851562 73.421875 "/>
<path style=" stroke:none;fill-rule:nonzero;fill:rgb(67.058825%,9.019608%,15.294118%);fill-opacity:1;" d="M 549.164062 73.421875 L 576.730469 73.421875 L 576.730469 71.628906 L 569.84375 71.628906 L 569.84375 0.144531 C 568.039062 3.136719 562.550781 3.136719 555.460938 3.136719 L 549.164062 3.136719 L 549.164062 4.9375 L 556.050781 4.9375 L 556.050781 71.628906 L 549.164062 71.628906 Z M 549.164062 73.421875 "/>
<path style=" stroke:none;fill-rule:nonzero;fill:rgb(67.058825%,9.019608%,15.294118%);fill-opacity:1;" d="M 623.097656 51.464844 C 623.097656 37.796875 612.523438 28.308594 599.347656 28.308594 C 586.179688 28.308594 575.59375 37.796875 575.59375 51.464844 C 575.59375 65.140625 586.179688 74.628906 599.347656 74.628906 C 612.523438 74.628906 623.097656 65.140625 623.097656 51.464844 M 607.523438 62.242188 C 607.523438 69.734375 604.4375 72.824219 599.347656 72.824219 C 594.261719 72.824219 591.164062 69.734375 591.164062 62.242188 L 591.164062 40.683594 C 591.164062 33.207031 594.261719 30.117188 599.347656 30.117188 C 604.4375 30.117188 607.523438 33.207031 607.523438 40.683594 Z M 607.523438 62.242188 "/>
<path style=" stroke:none;fill-rule:nonzero;fill:rgb(67.058825%,9.019608%,15.294118%);fill-opacity:1;" d="M 623.15625 73.421875 L 649.699219 73.421875 L 649.699219 71.621094 L 643.820312 71.621094 L 643.820312 44.261719 C 643.820312 39.179688 648.808594 31.878906 654.398438 31.878906 C 657.285156 31.878906 660.285156 33.085938 660.285156 40.0625 L 660.285156 71.621094 L 654.585938 71.621094 L 654.585938 73.421875 L 680.941406 73.421875 L 680.941406 71.621094 L 674.042969 71.621094 L 674.042969 43.765625 C 674.042969 32.980469 669.460938 28.285156 659.980469 28.285156 C 653.300781 28.285156 646.710938 31.777344 644.011719 37.5625 L 643.820312 37.5625 L 643.820312 26.886719 C 641.726562 29.476562 634.339844 29.476562 630.246094 29.476562 L 623.15625 29.476562 L 623.15625 31.265625 L 630.046875 31.265625 L 630.046875 71.621094 L 623.15625 71.621094 Z M 623.15625 73.421875 "/>
<path style=" stroke:none;fill-rule:nonzero;fill:rgb(67.058825%,9.019608%,15.294118%);fill-opacity:1;" d="M 694.839844 4.980469 L 702.625 4.980469 L 702.625 50.183594 C 702.625 65.644531 713.285156 75.023438 729.558594 75.023438 C 747.914062 75.023438 755.890625 65.339844 755.890625 50.667969 L 755.890625 13.363281 C 755.890625 7.574219 757.484375 4.980469 761.082031 4.980469 L 763.675781 4.980469 L 763.675781 3.1875 L 743.925781 3.1875 L 743.925781 4.980469 L 746.820312 4.980469 C 751.910156 4.980469 753.507812 7.574219 753.507812 13.363281 L 753.507812 51.28125 C 753.507812 64.835938 745.316406 71.425781 735.636719 71.425781 C 721.070312 71.425781 718.183594 61.652344 718.183594 48.882812 L 718.183594 4.980469 L 726.261719 4.980469 L 726.261719 3.183594 L 694.839844 3.183594 Z M 694.839844 4.980469 "/>
<path style=" stroke:none;fill-rule:nonzero;fill:rgb(67.058825%,9.019608%,15.294118%);fill-opacity:1;" d="M 759.792969 73.421875 L 786.332031 73.421875 L 786.332031 71.621094 L 780.449219 71.621094 L 780.449219 44.261719 C 780.449219 39.179688 785.425781 31.878906 791.011719 31.878906 C 793.917969 31.878906 796.90625 33.085938 796.90625 40.0625 L 796.90625 71.621094 L 791.222656 71.621094 L 791.222656 73.421875 L 817.5625 73.421875 L 817.5625 71.621094 L 810.6875 71.621094 L 810.6875 43.765625 C 810.6875 32.980469 806.085938 28.285156 796.613281 28.285156 C 789.933594 28.285156 783.339844 31.777344 780.648438 37.5625 L 780.449219 37.5625 L 780.449219 26.886719 C 778.347656 29.476562 770.96875 29.476562 766.867188 29.476562 L 759.792969 29.476562 L 759.792969 31.265625 L 766.667969 31.265625 L 766.667969 71.621094 L 759.792969 71.621094 Z M 759.792969 73.421875 "/>
<path style=" stroke:none;fill-rule:nonzero;fill:rgb(67.058825%,9.019608%,15.294118%);fill-opacity:1;" d="M 819.019531 73.421875 L 846.582031 73.421875 L 846.582031 71.621094 L 839.699219 71.621094 L 839.699219 26.886719 C 837.59375 29.476562 830.210938 29.476562 826.109375 29.476562 L 819.019531 29.476562 L 819.019531 31.265625 L 825.921875 31.265625 L 825.921875 71.621094 L 819.019531 71.621094 Z M 819.019531 73.421875 "/>
<path style=" stroke:none;fill-rule:nonzero;fill:rgb(67.058825%,9.019608%,15.294118%);fill-opacity:1;" d="M 825.675781 14.039062 C 825.675781 17.996094 828.847656 21.171875 832.8125 21.171875 C 836.761719 21.171875 839.925781 17.996094 839.925781 14.039062 C 839.925781 10.082031 836.761719 6.917969 832.8125 6.917969 C 828.847656 6.917969 825.675781 10.082031 825.675781 14.039062 "/>
<path style=" stroke:none;fill-rule:nonzero;fill:rgb(67.058825%,9.019608%,15.294118%);fill-opacity:1;" d="M 866.800781 74.628906 L 869.496094 74.628906 L 884.261719 39.691406 C 886.757812 34.101562 888.847656 31.40625 891.144531 31.308594 L 892.050781 31.308594 L 892.050781 29.507812 L 876.480469 29.507812 L 876.480469 31.308594 L 878.386719 31.308594 C 881.273438 31.308594 882.96875 32.402344 882.96875 34.996094 C 882.96875 36.605469 882.472656 38.789062 881.273438 41.582031 L 874.488281 57.554688 L 862.808594 31.308594 L 868.800781 31.308594 L 868.800781 29.507812 L 843.753906 29.507812 L 843.753906 31.308594 L 848.042969 31.308594 Z M 866.800781 74.628906 "/>
<path style=" stroke:none;fill-rule:nonzero;fill:rgb(67.058825%,9.019608%,15.294118%);fill-opacity:1;" d="M 902.996094 49.277344 L 930.542969 49.277344 C 930.449219 38.496094 920.46875 28.121094 909.992188 28.308594 C 898.207031 28.308594 888.027344 38.5 888.027344 51.964844 C 888.027344 64.941406 897.511719 74.628906 910.296875 74.628906 C 922.566406 74.628906 928.648438 67.035156 930.847656 57.148438 L 929.066406 57.148438 C 926.855469 66.4375 921.074219 72.226562 913.289062 72.226562 C 904 72.226562 903.6875 64.4375 903.6875 57.660156 Z M 902.996094 47.46875 L 902.996094 38.894531 C 902.996094 32.203125 905.894531 30.117188 909.289062 30.117188 C 914.078125 30.117188 915.570312 33.398438 915.570312 38.894531 L 915.570312 47.46875 Z M 902.996094 47.46875 "/>
<path style=" stroke:none;fill-rule:nonzero;fill:rgb(67.058825%,9.019608%,15.294118%);fill-opacity:1;" d="M 930.777344 73.421875 L 960.617188 73.421875 L 960.617188 71.621094 L 951.441406 71.621094 L 951.441406 46.15625 C 951.441406 38.472656 953.835938 33.085938 960.125 30.285156 L 960.523438 30.285156 C 958.828125 32.078125 958.125 33.667969 958.125 36.164062 C 958.125 40.0625 961.015625 42.660156 964.914062 42.660156 C 969.707031 42.660156 972.5 39.179688 972.5 35.375 C 972.5 30.578125 969.308594 27.683594 964.609375 27.683594 C 958.226562 27.683594 953.332031 32.078125 951.441406 37.070312 L 951.242188 37.070312 L 951.242188 26.886719 C 949.144531 29.476562 941.761719 29.476562 937.667969 29.476562 L 930.777344 29.476562 L 930.777344 31.265625 L 937.667969 31.265625 L 937.667969 71.621094 L 930.777344 71.621094 Z M 930.777344 73.421875 "/>
<path style=" stroke:none;fill-rule:nonzero;fill:rgb(67.058825%,9.019608%,15.294118%);fill-opacity:1;" d="M 974.667969 74.628906 L 976.46875 74.628906 C 976.96875 73.019531 978.566406 72.226562 980.566406 72.226562 C 983.152344 72.226562 986.246094 74.628906 991.839844 74.628906 C 1001.328125 74.628906 1007.808594 66.4375 1007.808594 58.253906 C 1007.808594 46.078125 999.433594 45.179688 988.742188 43.683594 C 983.152344 42.882812 979.664062 41.980469 979.664062 37.585938 C 979.664062 32.898438 983.757812 30.117188 989.144531 30.117188 C 996.628906 30.117188 1000.625 35.996094 1003.125 42.484375 L 1004.714844 42.484375 L 1004.113281 28.308594 L 1002.617188 28.308594 C 1002.617188 29.507812 1001.429688 30.507812 999.527344 30.507812 C 996.328125 30.507812 993.734375 28.308594 989.144531 28.308594 C 979.167969 28.308594 974.28125 36.800781 974.28125 43.1875 C 974.28125 56.0625 984.054688 57.148438 991.636719 58.050781 C 998.832031 58.957031 1001.824219 59.644531 1001.824219 64.242188 C 1001.824219 69.535156 997.441406 72.820312 992.039062 72.820312 C 984.457031 72.820312 978.265625 65.140625 976.46875 57.855469 L 974.667969 57.855469 Z M 974.667969 74.628906 "/>
<path style=" stroke:none;fill-rule:nonzero;fill:rgb(67.058825%,9.019608%,15.294118%);fill-opacity:1;" d="M 1009.570312 73.421875 L 1037.125 73.421875 L 1037.125 71.621094 L 1030.246094 71.621094 L 1030.246094 26.886719 C 1028.148438 29.476562 1020.757812 29.476562 1016.667969 29.476562 L 1009.570312 29.476562 L 1009.570312 31.265625 L 1016.46875 31.265625 L 1016.46875 71.621094 L 1009.570312 71.621094 Z M 1009.570312 73.421875 "/>
<path style=" stroke:none;fill-rule:nonzero;fill:rgb(67.058825%,9.019608%,15.294118%);fill-opacity:1;" d="M 1016.238281 14.039062 C 1016.238281 17.996094 1019.390625 21.171875 1023.351562 21.171875 C 1027.320312 21.171875 1030.484375 17.996094 1030.484375 14.039062 C 1030.484375 10.082031 1027.320312 6.917969 1023.351562 6.917969 C 1019.390625 6.917969 1016.238281 10.082031 1016.238281 14.039062 "/>
<path style=" stroke:none;fill-rule:nonzero;fill:rgb(67.058825%,9.019608%,15.294118%);fill-opacity:1;" d="M 1041.082031 31.3125 L 1041.082031 63.246094 C 1041.082031 72.726562 1049.261719 74.625 1052.058594 74.625 C 1058.148438 74.625 1062.238281 72.128906 1065.335938 66.941406 L 1064.046875 66.238281 C 1062.84375 68.035156 1061.234375 70.4375 1058.746094 70.4375 C 1056.15625 70.4375 1054.859375 68.535156 1054.859375 65.25 L 1054.859375 31.3125 L 1064.046875 31.3125 L 1064.046875 29.523438 L 1054.859375 29.523438 L 1054.859375 8.066406 L 1053.058594 8.066406 C 1053.058594 18.644531 1045.867188 29.523438 1035.785156 29.523438 L 1035.785156 31.3125 Z M 1041.082031 31.3125 "/>
<path style=" stroke:none;fill-rule:nonzero;fill:rgb(67.058825%,9.019608%,15.294118%);fill-opacity:1;" d="M 1063.707031 31.308594 L 1067.894531 31.308594 L 1087.046875 75.703125 L 1086.457031 79.6875 C 1086.054688 82.589844 1084.054688 93.96875 1080.765625 94.957031 L 1080.765625 94.664062 C 1081.160156 93.261719 1081.265625 92.175781 1081.265625 91.273438 C 1081.265625 87.878906 1078.875 85.28125 1074.675781 85.28125 C 1070.289062 85.28125 1068.097656 88.28125 1068.097656 92.070312 C 1068.097656 96.160156 1071.890625 99.058594 1076.269531 99.058594 C 1084.160156 99.058594 1086.152344 90.367188 1087.046875 86.183594 L 1089.746094 74.011719 L 1094.9375 61.042969 L 1104.8125 38.78125 C 1107.015625 33.710938 1109 31.308594 1111.199219 31.308594 L 1112 31.308594 L 1112 29.507812 L 1096.441406 29.507812 L 1096.441406 31.308594 L 1098.53125 31.308594 C 1101.71875 31.308594 1103.121094 33.105469 1103.121094 34.800781 C 1103.121094 36.785156 1101.816406 40.085938 1100.226562 43.875 L 1094.441406 57.546875 L 1082.761719 31.308594 L 1089.351562 31.308594 L 1089.351562 29.507812 L 1063.707031 29.507812 Z M 1063.707031 31.308594 "/>
</g>
</svg>
