<?xml version="1.0" encoding="UTF-8"?>
<svg xmlns="http://www.w3.org/2000/svg" xmlns:xlink="http://www.w3.org/1999/xlink" width="625px" height="100px" viewBox="0 0 625 100" version="1.1">
<defs>
<linearGradient id="linear0" gradientUnits="userSpaceOnUse" x1="146.673004" y1="371.534607" x2="212.431198" y2="303.787415" gradientTransform="matrix(1.04145,0,0,-1.04145,-24.474068,394.355348)">
<stop offset="0.21" style="stop-color:rgb(94.509804%,35.294119%,14.117648%);stop-opacity:1;"/>
<stop offset="0.6841" style="stop-color:rgb(98.431373%,69.01961%,23.137255%);stop-opacity:1;"/>
</linearGradient>
<linearGradient id="linear1" gradientUnits="userSpaceOnUse" x1="96.118103" y1="289.790192" x2="30.359501" y2="357.537292" gradientTransform="matrix(1.04145,0,0,-1.04145,-24.474068,394.355348)">
<stop offset="0.21" style="stop-color:rgb(92.941177%,11.764706%,47.450981%);stop-opacity:1;"/>
<stop offset="0.8929" style="stop-color:rgb(32.156864%,15.294118%,52.156866%);stop-opacity:1;"/>
</linearGradient>
</defs>
<g id="surface1">
<path style=" stroke:none;fill-rule:nonzero;fill:rgb(24.705882%,25.098041%,26.274511%);fill-opacity:1;" d="M 622.578125 29.742188 C 623.621094 29.742188 624.347656 30.160156 624.765625 30.890625 C 624.972656 31.304688 625.285156 32.140625 624.453125 33.285156 L 612.683594 51.300781 L 612.683594 63.589844 C 612.683594 65.257812 611.644531 66.296875 610.082031 66.296875 L 608.414062 66.296875 C 606.75 66.296875 605.8125 65.257812 605.8125 63.589844 L 605.8125 51.300781 L 593.9375 33.285156 C 593.210938 32.035156 593.417969 31.203125 593.625 30.785156 C 593.9375 30.054688 594.773438 29.640625 595.8125 29.640625 L 598 29.640625 C 599.355469 29.640625 600.1875 30.160156 600.8125 31.304688 L 609.25 44.949219 L 617.789062 31.304688 C 618.414062 30.265625 619.351562 29.742188 620.601562 29.742188 Z M 336.074219 29.742188 L 317.539062 29.742188 C 315.871094 29.742188 314.933594 30.785156 314.933594 32.453125 L 314.933594 63.695312 C 314.933594 65.363281 315.976562 66.402344 317.539062 66.402344 L 319.203125 66.402344 C 320.871094 66.402344 321.808594 65.363281 321.808594 63.695312 L 321.808594 51.40625 L 333.890625 51.40625 C 335.554688 51.40625 336.492188 50.261719 336.492188 48.699219 L 336.492188 47.96875 C 336.492188 46.304688 335.449219 45.261719 333.890625 45.261719 L 321.808594 45.261719 L 321.808594 35.679688 L 336.074219 35.679688 C 337.742188 35.679688 338.679688 34.636719 338.679688 32.972656 L 338.679688 32.242188 C 338.785156 30.679688 337.742188 29.742188 336.074219 29.742188 Z M 264.320312 29.742188 L 254.84375 29.742188 C 253.175781 29.742188 252.238281 30.785156 252.238281 32.453125 L 252.238281 63.695312 C 252.238281 65.363281 253.28125 66.402344 254.84375 66.402344 L 264.425781 66.402344 C 275.464844 66.402344 283.066406 58.90625 283.066406 48.175781 C 282.960938 37.242188 275.359375 29.742188 264.320312 29.742188 Z M 275.878906 47.96875 C 275.878906 55.15625 271.089844 60.152344 264.214844 60.152344 L 259.113281 60.152344 L 259.113281 35.679688 L 264.214844 35.679688 C 271.089844 35.785156 275.878906 40.78125 275.878906 47.96875 Z M 380.648438 29.742188 L 382.316406 29.742188 C 383.984375 29.742188 384.917969 30.785156 384.917969 32.453125 L 384.917969 63.695312 C 384.917969 65.363281 383.878906 66.402344 382.316406 66.402344 L 380.648438 66.402344 C 378.984375 66.402344 378.046875 65.363281 378.046875 63.695312 L 378.046875 32.453125 C 377.941406 30.679688 378.984375 29.742188 380.648438 29.742188 Z M 450.425781 29.742188 L 448.761719 29.742188 C 447.09375 29.742188 446.15625 30.785156 446.15625 32.453125 L 446.15625 53.28125 L 430.015625 31.304688 C 429.285156 30.265625 428.347656 29.847656 427.203125 29.847656 L 426.472656 29.847656 C 424.808594 29.847656 423.871094 30.890625 423.871094 32.554688 L 423.871094 63.800781 C 423.871094 65.464844 424.910156 66.507812 426.472656 66.507812 L 428.140625 66.507812 C 429.804688 66.507812 430.742188 65.464844 430.742188 63.800781 L 430.742188 42.867188 L 446.886719 64.945312 C 447.613281 65.984375 448.550781 66.402344 449.699219 66.402344 L 450.425781 66.402344 C 452.09375 66.402344 453.03125 65.363281 453.03125 63.695312 L 453.03125 32.453125 C 453.03125 30.679688 451.988281 29.742188 450.425781 29.742188 Z M 494.480469 29.742188 L 496.148438 29.742188 C 497.707031 29.742188 498.75 30.785156 498.75 32.453125 L 498.75 63.695312 C 498.75 65.363281 497.707031 66.402344 496.148438 66.402344 L 494.480469 66.402344 C 492.8125 66.402344 491.875 65.363281 491.875 63.695312 L 491.875 32.453125 C 491.875 30.679688 492.8125 29.742188 494.480469 29.742188 Z M 561.964844 29.742188 L 537.492188 29.742188 C 535.929688 29.742188 534.886719 30.785156 534.886719 32.453125 L 534.886719 33.179688 C 534.886719 34.742188 535.929688 35.886719 537.492188 35.886719 L 546.242188 35.886719 L 546.242188 63.695312 C 546.242188 65.363281 547.28125 66.402344 548.84375 66.402344 L 550.511719 66.402344 C 552.175781 66.402344 553.113281 65.363281 553.113281 63.695312 L 553.113281 35.886719 L 561.863281 35.886719 C 563.527344 35.886719 564.464844 34.847656 564.464844 33.179688 L 564.464844 32.453125 C 564.675781 30.679688 563.632812 29.742188 561.964844 29.742188 Z M 561.964844 29.742188 "/>
<path style=" stroke:none;fill-rule:nonzero;fill:url(#linear0);" d="M 154.34375 0.0625 C 142.992188 0.0625 130.597656 6.101562 117.476562 18.078125 C 111.226562 23.703125 105.8125 29.742188 101.855469 34.636719 C 101.855469 34.636719 108.207031 41.824219 115.183594 49.53125 C 118.933594 44.84375 124.453125 38.492188 130.703125 32.765625 C 142.367188 22.140625 149.96875 19.953125 154.34375 19.953125 C 170.695312 19.953125 184.023438 33.390625 184.023438 50.050781 C 184.023438 66.507812 170.796875 79.941406 154.34375 80.148438 C 153.613281 80.148438 152.574219 80.046875 151.53125 79.835938 C 156.320312 82.023438 161.425781 83.585938 166.320312 83.585938 C 196.3125 83.585938 202.144531 63.277344 202.5625 61.820312 C 203.394531 58.070312 203.914062 54.21875 203.914062 50.15625 C 203.707031 22.453125 181.628906 0.0625 154.34375 0.0625 Z M 154.34375 0.0625 "/>
<path style=" stroke:none;fill-rule:nonzero;fill:url(#linear1);" d="M 49.574219 99.9375 C 60.925781 99.9375 73.316406 93.898438 86.441406 81.921875 C 92.6875 76.296875 98.105469 70.257812 102.0625 65.363281 C 102.0625 65.363281 95.710938 58.175781 88.730469 50.46875 C 84.980469 55.15625 79.460938 61.507812 73.214844 67.234375 C 61.550781 77.859375 53.945312 80.046875 49.574219 80.046875 C 33.222656 80.046875 19.890625 66.609375 19.890625 49.949219 C 19.890625 33.492188 33.117188 20.058594 49.574219 19.851562 C 50.300781 19.851562 51.34375 19.953125 52.386719 20.164062 C 47.59375 17.976562 42.492188 16.414062 37.597656 16.414062 C 7.601562 16.414062 1.769531 36.722656 1.355469 38.179688 C 0.519531 41.929688 0 45.78125 0 49.84375 C 0.105469 77.441406 22.285156 99.9375 49.574219 99.9375 Z M 49.574219 99.9375 "/>
<path style=" stroke:none;fill-rule:nonzero;fill:rgb(16.078432%,67.058825%,88.627452%);fill-opacity:1;" d="M 72.378906 33.179688 C 69.152344 30.054688 53.113281 17.351562 37.699219 16.933594 C 10.308594 16.308594 2.292969 35.679688 1.667969 38.285156 C 6.875 16.414062 26.453125 0.167969 49.675781 0.0625 C 68.632812 0.0625 87.691406 18.183594 101.855469 34.636719 C 101.855469 34.636719 101.855469 34.535156 101.957031 34.535156 C 101.957031 34.535156 108.3125 41.71875 115.289062 49.425781 C 115.289062 49.425781 123.203125 58.59375 131.640625 66.714844 C 134.867188 69.839844 150.90625 82.441406 166.214844 82.859375 C 194.335938 83.585938 202.042969 63.070312 202.5625 61.507812 C 197.355469 83.484375 177.777344 99.832031 154.550781 99.9375 C 135.597656 99.9375 116.539062 81.710938 102.269531 65.363281 C 102.269531 65.363281 102.167969 65.464844 102.167969 65.464844 C 102.167969 65.464844 95.8125 58.28125 88.835938 50.574219 C 88.730469 50.46875 80.816406 41.304688 72.378906 33.179688 Z M 1.5625 38.386719 C 1.5625 38.386719 1.5625 38.285156 1.5625 38.179688 C 1.667969 38.285156 1.667969 38.386719 1.5625 38.386719 Z M 1.5625 38.386719 "/>
</g>
</svg>
