<?xml version="1.0" encoding="UTF-8"?>
<svg xmlns="http://www.w3.org/2000/svg" xmlns:xlink="http://www.w3.org/1999/xlink" width="188px" height="100px" viewBox="0 0 188 100" version="1.1">
<defs>
<clipPath id="clip1">
  <path d="M 94 0.0507812 L 160.667969 0.0507812 L 160.667969 52.5625 L 94 52.5625 Z M 94 0.0507812 "/>
</clipPath>
<clipPath id="clip2">
  <path d="M 104.113281 11.425781 C 100.496094 14.640625 97.117188 18.121094 94.007812 21.832031 C 94.007812 21.832031 98.175781 26.367188 102.765625 31.199219 C 105.839844 27.433594 109.195312 23.90625 112.808594 20.65625 C 120.382812 14 125.378906 12.582031 128.203125 12.582031 C 138.746094 12.453125 147.398438 20.917969 147.53125 31.488281 C 147.53125 41.859375 138.828125 50.34375 128.203125 50.40625 C 127.566406 50.398438 126.9375 50.316406 126.320312 50.164062 C 129.347656 51.570312 132.621094 52.351562 135.953125 52.460938 C 155.515625 52.460938 159.332031 39.683594 159.574219 38.742188 C 160.164062 36.351562 160.457031 33.898438 160.449219 31.433594 C 160.359375 14.167969 145.894531 0.117188 128.144531 0.117188 C 120.746094 0.117188 112.664062 3.953125 104.113281 11.425781 "/>
</clipPath>
<linearGradient id="linear0" gradientUnits="userSpaceOnUse" x1="-0.41658" y1="0" x2="1.238054" y2="0" gradientTransform="matrix(43.826494,28.083093,35.647168,-34.526825,111.864373,12.202896)">
<stop offset="0" style="stop-color:rgb(94.509804%,35.294119%,14.117648%);stop-opacity:1;"/>
<stop offset="0.25" style="stop-color:rgb(94.509804%,35.294119%,14.117648%);stop-opacity:1;"/>
<stop offset="0.375" style="stop-color:rgb(94.509804%,35.294119%,14.117648%);stop-opacity:1;"/>
<stop offset="0.378906" style="stop-color:rgb(94.509804%,35.686275%,14.117648%);stop-opacity:1;"/>
<stop offset="0.382812" style="stop-color:rgb(94.509804%,35.686275%,14.117648%);stop-opacity:1;"/>
<stop offset="0.386719" style="stop-color:rgb(94.509804%,36.078432%,14.509805%);stop-opacity:1;"/>
<stop offset="0.390625" style="stop-color:rgb(94.509804%,36.862746%,14.509805%);stop-opacity:1;"/>
<stop offset="0.394531" style="stop-color:rgb(94.901961%,37.254903%,14.509805%);stop-opacity:1;"/>
<stop offset="0.398438" style="stop-color:rgb(94.901961%,37.64706%,14.901961%);stop-opacity:1;"/>
<stop offset="0.402344" style="stop-color:rgb(94.901961%,38.039216%,14.901961%);stop-opacity:1;"/>
<stop offset="0.40625" style="stop-color:rgb(94.901961%,38.431373%,14.901961%);stop-opacity:1;"/>
<stop offset="0.410156" style="stop-color:rgb(94.901961%,39.215687%,15.294118%);stop-opacity:1;"/>
<stop offset="0.414062" style="stop-color:rgb(94.901961%,39.607844%,15.294118%);stop-opacity:1;"/>
<stop offset="0.417969" style="stop-color:rgb(94.901961%,40.000001%,15.294118%);stop-opacity:1;"/>
<stop offset="0.421875" style="stop-color:rgb(95.294118%,40.392157%,15.294118%);stop-opacity:1;"/>
<stop offset="0.425781" style="stop-color:rgb(95.294118%,40.784314%,15.686275%);stop-opacity:1;"/>
<stop offset="0.429687" style="stop-color:rgb(95.294118%,41.176471%,15.686275%);stop-opacity:1;"/>
<stop offset="0.433594" style="stop-color:rgb(95.294118%,41.960785%,15.686275%);stop-opacity:1;"/>
<stop offset="0.4375" style="stop-color:rgb(95.294118%,42.352942%,16.078432%);stop-opacity:1;"/>
<stop offset="0.441406" style="stop-color:rgb(95.294118%,42.745098%,16.078432%);stop-opacity:1;"/>
<stop offset="0.445313" style="stop-color:rgb(95.294118%,43.137255%,16.078432%);stop-opacity:1;"/>
<stop offset="0.449219" style="stop-color:rgb(95.294118%,43.529412%,16.470589%);stop-opacity:1;"/>
<stop offset="0.453125" style="stop-color:rgb(95.686275%,44.313726%,16.470589%);stop-opacity:1;"/>
<stop offset="0.457031" style="stop-color:rgb(95.686275%,44.705883%,16.470589%);stop-opacity:1;"/>
<stop offset="0.460938" style="stop-color:rgb(95.686275%,45.09804%,16.862746%);stop-opacity:1;"/>
<stop offset="0.464844" style="stop-color:rgb(95.686275%,45.490196%,16.862746%);stop-opacity:1;"/>
<stop offset="0.46875" style="stop-color:rgb(95.686275%,45.882353%,16.862746%);stop-opacity:1;"/>
<stop offset="0.472656" style="stop-color:rgb(95.686275%,46.27451%,17.254902%);stop-opacity:1;"/>
<stop offset="0.476562" style="stop-color:rgb(95.686275%,47.058824%,17.254902%);stop-opacity:1;"/>
<stop offset="0.480469" style="stop-color:rgb(96.078432%,47.450981%,17.254902%);stop-opacity:1;"/>
<stop offset="0.484375" style="stop-color:rgb(96.078432%,47.843137%,17.647059%);stop-opacity:1;"/>
<stop offset="0.488281" style="stop-color:rgb(96.078432%,48.235294%,17.647059%);stop-opacity:1;"/>
<stop offset="0.492188" style="stop-color:rgb(96.078432%,48.627451%,17.647059%);stop-opacity:1;"/>
<stop offset="0.496094" style="stop-color:rgb(96.078432%,49.411765%,18.039216%);stop-opacity:1;"/>
<stop offset="0.5" style="stop-color:rgb(96.078432%,49.803922%,18.039216%);stop-opacity:1;"/>
<stop offset="0.503906" style="stop-color:rgb(96.078432%,50.196081%,18.039216%);stop-opacity:1;"/>
<stop offset="0.507812" style="stop-color:rgb(96.470588%,50.588238%,18.039216%);stop-opacity:1;"/>
<stop offset="0.511719" style="stop-color:rgb(96.470588%,50.980395%,18.431373%);stop-opacity:1;"/>
<stop offset="0.515625" style="stop-color:rgb(96.470588%,51.372552%,18.431373%);stop-opacity:1;"/>
<stop offset="0.519531" style="stop-color:rgb(96.470588%,52.156866%,18.431373%);stop-opacity:1;"/>
<stop offset="0.523438" style="stop-color:rgb(96.470588%,52.549022%,18.82353%);stop-opacity:1;"/>
<stop offset="0.527344" style="stop-color:rgb(96.470588%,52.941179%,18.82353%);stop-opacity:1;"/>
<stop offset="0.53125" style="stop-color:rgb(96.470588%,53.333336%,18.82353%);stop-opacity:1;"/>
<stop offset="0.535156" style="stop-color:rgb(96.862745%,53.725493%,19.215687%);stop-opacity:1;"/>
<stop offset="0.539062" style="stop-color:rgb(96.862745%,54.509807%,19.215687%);stop-opacity:1;"/>
<stop offset="0.542969" style="stop-color:rgb(96.862745%,54.901963%,19.215687%);stop-opacity:1;"/>
<stop offset="0.546875" style="stop-color:rgb(96.862745%,55.29412%,19.607843%);stop-opacity:1;"/>
<stop offset="0.550781" style="stop-color:rgb(96.862745%,55.686277%,19.607843%);stop-opacity:1;"/>
<stop offset="0.554688" style="stop-color:rgb(96.862745%,56.078434%,19.607843%);stop-opacity:1;"/>
<stop offset="0.558594" style="stop-color:rgb(96.862745%,56.470591%,20%);stop-opacity:1;"/>
<stop offset="0.5625" style="stop-color:rgb(96.862745%,57.254905%,20%);stop-opacity:1;"/>
<stop offset="0.566406" style="stop-color:rgb(97.254902%,57.647061%,20%);stop-opacity:1;"/>
<stop offset="0.570312" style="stop-color:rgb(97.254902%,58.039218%,20.392157%);stop-opacity:1;"/>
<stop offset="0.574219" style="stop-color:rgb(97.254902%,58.431375%,20.392157%);stop-opacity:1;"/>
<stop offset="0.578125" style="stop-color:rgb(97.254902%,58.823532%,20.392157%);stop-opacity:1;"/>
<stop offset="0.582031" style="stop-color:rgb(97.254902%,59.607846%,20.392157%);stop-opacity:1;"/>
<stop offset="0.585938" style="stop-color:rgb(97.254902%,60.000002%,20.784314%);stop-opacity:1;"/>
<stop offset="0.589844" style="stop-color:rgb(97.254902%,60.392159%,20.784314%);stop-opacity:1;"/>
<stop offset="0.59375" style="stop-color:rgb(97.647059%,60.784316%,20.784314%);stop-opacity:1;"/>
<stop offset="0.597656" style="stop-color:rgb(97.647059%,61.176473%,21.176471%);stop-opacity:1;"/>
<stop offset="0.601562" style="stop-color:rgb(97.647059%,61.56863%,21.176471%);stop-opacity:1;"/>
<stop offset="0.605469" style="stop-color:rgb(97.647059%,62.352943%,21.176471%);stop-opacity:1;"/>
<stop offset="0.609375" style="stop-color:rgb(97.647059%,62.7451%,21.568628%);stop-opacity:1;"/>
<stop offset="0.613281" style="stop-color:rgb(97.647059%,63.137257%,21.568628%);stop-opacity:1;"/>
<stop offset="0.617188" style="stop-color:rgb(97.647059%,63.529414%,21.568628%);stop-opacity:1;"/>
<stop offset="0.621094" style="stop-color:rgb(98.039216%,63.921571%,21.960784%);stop-opacity:1;"/>
<stop offset="0.625" style="stop-color:rgb(98.039216%,64.705884%,21.960784%);stop-opacity:1;"/>
<stop offset="0.628906" style="stop-color:rgb(98.039216%,65.098041%,21.960784%);stop-opacity:1;"/>
<stop offset="0.632812" style="stop-color:rgb(98.039216%,65.490198%,22.352941%);stop-opacity:1;"/>
<stop offset="0.636719" style="stop-color:rgb(98.039216%,65.882355%,22.352941%);stop-opacity:1;"/>
<stop offset="0.640625" style="stop-color:rgb(98.039216%,66.274512%,22.352941%);stop-opacity:1;"/>
<stop offset="0.644531" style="stop-color:rgb(98.039216%,66.666669%,22.745098%);stop-opacity:1;"/>
<stop offset="0.648438" style="stop-color:rgb(98.039216%,67.450982%,22.745098%);stop-opacity:1;"/>
<stop offset="0.652344" style="stop-color:rgb(98.431373%,67.843139%,22.745098%);stop-opacity:1;"/>
<stop offset="0.65625" style="stop-color:rgb(98.431373%,68.235296%,22.745098%);stop-opacity:1;"/>
<stop offset="0.660156" style="stop-color:rgb(98.431373%,68.627453%,23.137255%);stop-opacity:1;"/>
<stop offset="0.664062" style="stop-color:rgb(98.431373%,69.01961%,23.137255%);stop-opacity:1;"/>
<stop offset="0.671875" style="stop-color:rgb(98.431373%,69.01961%,23.137255%);stop-opacity:1;"/>
<stop offset="0.6875" style="stop-color:rgb(98.431373%,69.01961%,23.137255%);stop-opacity:1;"/>
<stop offset="0.75" style="stop-color:rgb(98.431373%,69.01961%,23.137255%);stop-opacity:1;"/>
<stop offset="1" style="stop-color:rgb(98.431373%,69.01961%,23.137255%);stop-opacity:1;"/>
</linearGradient>
<clipPath id="clip3">
  <path d="M 27.585938 10.554688 L 94.253906 10.554688 L 94.253906 63 L 27.585938 63 Z M 27.585938 10.554688 "/>
</clipPath>
<clipPath id="clip4">
  <path d="M 28.558594 24.246094 C 27.96875 26.632812 27.671875 29.085938 27.675781 31.546875 C 27.652344 48.8125 42.128906 62.953125 59.933594 62.953125 C 67.34375 62.953125 75.417969 59.125 83.964844 51.640625 C 87.605469 48.421875 91.003906 44.9375 94.128906 41.214844 C 94.128906 41.214844 89.960938 36.679688 85.382812 31.84375 C 82.285156 35.613281 78.90625 39.136719 75.273438 42.390625 C 67.6875 49.042969 62.699219 50.464844 59.878906 50.464844 C 54.8125 50.527344 49.933594 48.566406 46.304688 45.019531 C 42.679688 41.472656 40.609375 36.625 40.546875 31.546875 C 40.546875 21.175781 49.242188 12.691406 59.878906 12.636719 C 60.511719 12.644531 61.144531 12.722656 61.757812 12.871094 C 58.730469 11.464844 55.453125 10.683594 52.117188 10.574219 C 32.617188 10.574219 28.792969 23.304688 28.558594 24.246094 "/>
</clipPath>
<linearGradient id="linear1" gradientUnits="userSpaceOnUse" x1="-0.417235" y1="0" x2="1.237599" y2="0" gradientTransform="matrix(-43.826428,-28.109546,-35.663897,34.543084,76.215837,50.861301)">
<stop offset="0" style="stop-color:rgb(92.941177%,11.764706%,47.450981%);stop-opacity:1;"/>
<stop offset="0.25" style="stop-color:rgb(92.941177%,11.764706%,47.450981%);stop-opacity:1;"/>
<stop offset="0.375" style="stop-color:rgb(92.941177%,11.764706%,47.450981%);stop-opacity:1;"/>
<stop offset="0.378906" style="stop-color:rgb(92.54902%,11.764706%,47.450981%);stop-opacity:1;"/>
<stop offset="0.382812" style="stop-color:rgb(92.54902%,11.764706%,47.450981%);stop-opacity:1;"/>
<stop offset="0.386719" style="stop-color:rgb(91.764706%,11.764706%,47.450981%);stop-opacity:1;"/>
<stop offset="0.390625" style="stop-color:rgb(91.37255%,11.764706%,47.450981%);stop-opacity:1;"/>
<stop offset="0.394531" style="stop-color:rgb(90.588236%,11.764706%,47.450981%);stop-opacity:1;"/>
<stop offset="0.398438" style="stop-color:rgb(90.196079%,11.764706%,47.843137%);stop-opacity:1;"/>
<stop offset="0.402344" style="stop-color:rgb(89.411765%,12.156863%,47.843137%);stop-opacity:1;"/>
<stop offset="0.40625" style="stop-color:rgb(89.019608%,12.156863%,47.843137%);stop-opacity:1;"/>
<stop offset="0.410156" style="stop-color:rgb(88.235295%,12.156863%,47.843137%);stop-opacity:1;"/>
<stop offset="0.414062" style="stop-color:rgb(87.843138%,12.156863%,47.843137%);stop-opacity:1;"/>
<stop offset="0.417969" style="stop-color:rgb(87.058824%,12.156863%,47.843137%);stop-opacity:1;"/>
<stop offset="0.421875" style="stop-color:rgb(86.666667%,12.156863%,47.843137%);stop-opacity:1;"/>
<stop offset="0.425781" style="stop-color:rgb(85.882354%,12.156863%,47.843137%);stop-opacity:1;"/>
<stop offset="0.429688" style="stop-color:rgb(85.490197%,12.156863%,47.843137%);stop-opacity:1;"/>
<stop offset="0.433594" style="stop-color:rgb(84.705883%,12.156863%,48.235294%);stop-opacity:1;"/>
<stop offset="0.4375" style="stop-color:rgb(84.313726%,12.156863%,48.235294%);stop-opacity:1;"/>
<stop offset="0.441406" style="stop-color:rgb(83.529413%,12.156863%,48.235294%);stop-opacity:1;"/>
<stop offset="0.445313" style="stop-color:rgb(83.137256%,12.156863%,48.235294%);stop-opacity:1;"/>
<stop offset="0.449219" style="stop-color:rgb(82.745099%,12.54902%,48.235294%);stop-opacity:1;"/>
<stop offset="0.453125" style="stop-color:rgb(81.960785%,12.54902%,48.235294%);stop-opacity:1;"/>
<stop offset="0.457031" style="stop-color:rgb(81.568629%,12.54902%,48.235294%);stop-opacity:1;"/>
<stop offset="0.460938" style="stop-color:rgb(80.784315%,12.54902%,48.235294%);stop-opacity:1;"/>
<stop offset="0.464844" style="stop-color:rgb(80.392158%,12.54902%,48.627451%);stop-opacity:1;"/>
<stop offset="0.46875" style="stop-color:rgb(79.607844%,12.54902%,48.627451%);stop-opacity:1;"/>
<stop offset="0.472656" style="stop-color:rgb(79.215688%,12.54902%,48.627451%);stop-opacity:1;"/>
<stop offset="0.476562" style="stop-color:rgb(78.431374%,12.54902%,48.627451%);stop-opacity:1;"/>
<stop offset="0.480469" style="stop-color:rgb(78.039217%,12.54902%,48.627451%);stop-opacity:1;"/>
<stop offset="0.484375" style="stop-color:rgb(77.254903%,12.54902%,48.627451%);stop-opacity:1;"/>
<stop offset="0.488281" style="stop-color:rgb(76.862746%,12.54902%,48.627451%);stop-opacity:1;"/>
<stop offset="0.492188" style="stop-color:rgb(76.078433%,12.54902%,48.627451%);stop-opacity:1;"/>
<stop offset="0.496094" style="stop-color:rgb(75.686276%,12.941177%,48.627451%);stop-opacity:1;"/>
<stop offset="0.5" style="stop-color:rgb(74.901962%,12.941177%,49.019608%);stop-opacity:1;"/>
<stop offset="0.503906" style="stop-color:rgb(74.509805%,12.941177%,49.019608%);stop-opacity:1;"/>
<stop offset="0.507812" style="stop-color:rgb(73.725492%,12.941177%,49.019608%);stop-opacity:1;"/>
<stop offset="0.511719" style="stop-color:rgb(73.333335%,12.941177%,49.019608%);stop-opacity:1;"/>
<stop offset="0.515625" style="stop-color:rgb(72.549021%,12.941177%,49.019608%);stop-opacity:1;"/>
<stop offset="0.519531" style="stop-color:rgb(72.156864%,12.941177%,49.019608%);stop-opacity:1;"/>
<stop offset="0.523438" style="stop-color:rgb(71.764708%,12.941177%,49.019608%);stop-opacity:1;"/>
<stop offset="0.527344" style="stop-color:rgb(70.980394%,12.941177%,49.019608%);stop-opacity:1;"/>
<stop offset="0.53125" style="stop-color:rgb(70.588237%,12.941177%,49.019608%);stop-opacity:1;"/>
<stop offset="0.535156" style="stop-color:rgb(69.803923%,12.941177%,49.411765%);stop-opacity:1;"/>
<stop offset="0.539062" style="stop-color:rgb(69.411767%,13.333334%,49.411765%);stop-opacity:1;"/>
<stop offset="0.542969" style="stop-color:rgb(68.627453%,13.333334%,49.411765%);stop-opacity:1;"/>
<stop offset="0.546875" style="stop-color:rgb(68.235296%,13.333334%,49.411765%);stop-opacity:1;"/>
<stop offset="0.550781" style="stop-color:rgb(67.450982%,13.333334%,49.411765%);stop-opacity:1;"/>
<stop offset="0.554688" style="stop-color:rgb(67.058825%,13.333334%,49.411765%);stop-opacity:1;"/>
<stop offset="0.558594" style="stop-color:rgb(66.274512%,13.333334%,49.411765%);stop-opacity:1;"/>
<stop offset="0.5625" style="stop-color:rgb(65.882355%,13.333334%,49.411765%);stop-opacity:1;"/>
<stop offset="0.566406" style="stop-color:rgb(65.098041%,13.333334%,49.411765%);stop-opacity:1;"/>
<stop offset="0.570312" style="stop-color:rgb(64.705884%,13.333334%,49.803922%);stop-opacity:1;"/>
<stop offset="0.574219" style="stop-color:rgb(63.921571%,13.333334%,49.803922%);stop-opacity:1;"/>
<stop offset="0.578125" style="stop-color:rgb(63.529414%,13.333334%,49.803922%);stop-opacity:1;"/>
<stop offset="0.582031" style="stop-color:rgb(62.7451%,13.333334%,49.803922%);stop-opacity:1;"/>
<stop offset="0.585938" style="stop-color:rgb(62.352943%,13.725491%,49.803922%);stop-opacity:1;"/>
<stop offset="0.589844" style="stop-color:rgb(61.56863%,13.725491%,49.803922%);stop-opacity:1;"/>
<stop offset="0.59375" style="stop-color:rgb(61.176473%,13.725491%,49.803922%);stop-opacity:1;"/>
<stop offset="0.597656" style="stop-color:rgb(60.784316%,13.725491%,49.803922%);stop-opacity:1;"/>
<stop offset="0.601562" style="stop-color:rgb(60.000002%,13.725491%,49.803922%);stop-opacity:1;"/>
<stop offset="0.605469" style="stop-color:rgb(59.607846%,13.725491%,50.196081%);stop-opacity:1;"/>
<stop offset="0.609375" style="stop-color:rgb(58.823532%,13.725491%,50.196081%);stop-opacity:1;"/>
<stop offset="0.613281" style="stop-color:rgb(58.431375%,13.725491%,50.196081%);stop-opacity:1;"/>
<stop offset="0.617188" style="stop-color:rgb(57.647061%,13.725491%,50.196081%);stop-opacity:1;"/>
<stop offset="0.621094" style="stop-color:rgb(57.254905%,13.725491%,50.196081%);stop-opacity:1;"/>
<stop offset="0.625" style="stop-color:rgb(56.470591%,13.725491%,50.196081%);stop-opacity:1;"/>
<stop offset="0.628906" style="stop-color:rgb(56.078434%,13.725491%,50.196081%);stop-opacity:1;"/>
<stop offset="0.632812" style="stop-color:rgb(55.29412%,14.117648%,50.196081%);stop-opacity:1;"/>
<stop offset="0.636719" style="stop-color:rgb(54.901963%,14.117648%,50.588238%);stop-opacity:1;"/>
<stop offset="0.640625" style="stop-color:rgb(54.11765%,14.117648%,50.588238%);stop-opacity:1;"/>
<stop offset="0.644531" style="stop-color:rgb(53.725493%,14.117648%,50.588238%);stop-opacity:1;"/>
<stop offset="0.648438" style="stop-color:rgb(52.941179%,14.117648%,50.588238%);stop-opacity:1;"/>
<stop offset="0.652344" style="stop-color:rgb(52.549022%,14.117648%,50.588238%);stop-opacity:1;"/>
<stop offset="0.65625" style="stop-color:rgb(51.764709%,14.117648%,50.588238%);stop-opacity:1;"/>
<stop offset="0.660156" style="stop-color:rgb(51.372552%,14.117648%,50.588238%);stop-opacity:1;"/>
<stop offset="0.664062" style="stop-color:rgb(50.588238%,14.117648%,50.588238%);stop-opacity:1;"/>
<stop offset="0.667969" style="stop-color:rgb(50.196081%,14.117648%,50.588238%);stop-opacity:1;"/>
<stop offset="0.671875" style="stop-color:rgb(49.803922%,14.117648%,50.980395%);stop-opacity:1;"/>
<stop offset="0.675781" style="stop-color:rgb(49.019608%,14.117648%,50.980395%);stop-opacity:1;"/>
<stop offset="0.679687" style="stop-color:rgb(48.627451%,14.509805%,50.980395%);stop-opacity:1;"/>
<stop offset="0.683594" style="stop-color:rgb(47.843137%,14.509805%,50.980395%);stop-opacity:1;"/>
<stop offset="0.6875" style="stop-color:rgb(47.450981%,14.509805%,50.980395%);stop-opacity:1;"/>
<stop offset="0.691406" style="stop-color:rgb(46.666667%,14.509805%,50.980395%);stop-opacity:1;"/>
<stop offset="0.695312" style="stop-color:rgb(46.27451%,14.509805%,50.980395%);stop-opacity:1;"/>
<stop offset="0.699219" style="stop-color:rgb(45.490196%,14.509805%,50.980395%);stop-opacity:1;"/>
<stop offset="0.703125" style="stop-color:rgb(45.09804%,14.509805%,50.980395%);stop-opacity:1;"/>
<stop offset="0.707031" style="stop-color:rgb(44.313726%,14.509805%,51.372552%);stop-opacity:1;"/>
<stop offset="0.710938" style="stop-color:rgb(43.921569%,14.509805%,51.372552%);stop-opacity:1;"/>
<stop offset="0.714844" style="stop-color:rgb(43.137255%,14.509805%,51.372552%);stop-opacity:1;"/>
<stop offset="0.71875" style="stop-color:rgb(42.745098%,14.509805%,51.372552%);stop-opacity:1;"/>
<stop offset="0.722656" style="stop-color:rgb(41.960785%,14.901961%,51.372552%);stop-opacity:1;"/>
<stop offset="0.726562" style="stop-color:rgb(41.568628%,14.901961%,51.372552%);stop-opacity:1;"/>
<stop offset="0.730469" style="stop-color:rgb(40.784314%,14.901961%,51.372552%);stop-opacity:1;"/>
<stop offset="0.734375" style="stop-color:rgb(40.392157%,14.901961%,51.372552%);stop-opacity:1;"/>
<stop offset="0.738281" style="stop-color:rgb(39.607844%,14.901961%,51.372552%);stop-opacity:1;"/>
<stop offset="0.742188" style="stop-color:rgb(39.215687%,14.901961%,51.764709%);stop-opacity:1;"/>
<stop offset="0.746094" style="stop-color:rgb(38.82353%,14.901961%,51.764709%);stop-opacity:1;"/>
<stop offset="0.75" style="stop-color:rgb(38.039216%,14.901961%,51.764709%);stop-opacity:1;"/>
<stop offset="0.753906" style="stop-color:rgb(37.64706%,14.901961%,51.764709%);stop-opacity:1;"/>
<stop offset="0.757812" style="stop-color:rgb(36.862746%,14.901961%,51.764709%);stop-opacity:1;"/>
<stop offset="0.761719" style="stop-color:rgb(36.470589%,14.901961%,51.764709%);stop-opacity:1;"/>
<stop offset="0.765625" style="stop-color:rgb(35.686275%,14.901961%,51.764709%);stop-opacity:1;"/>
<stop offset="0.769531" style="stop-color:rgb(35.294119%,15.294118%,51.764709%);stop-opacity:1;"/>
<stop offset="0.773437" style="stop-color:rgb(34.509805%,15.294118%,52.156866%);stop-opacity:1;"/>
<stop offset="0.777344" style="stop-color:rgb(34.117648%,15.294118%,52.156866%);stop-opacity:1;"/>
<stop offset="0.78125" style="stop-color:rgb(33.333334%,15.294118%,52.156866%);stop-opacity:1;"/>
<stop offset="0.785156" style="stop-color:rgb(32.941177%,15.294118%,52.156866%);stop-opacity:1;"/>
<stop offset="0.789062" style="stop-color:rgb(32.156864%,15.294118%,52.156866%);stop-opacity:1;"/>
<stop offset="0.796875" style="stop-color:rgb(32.156864%,15.294118%,52.156866%);stop-opacity:1;"/>
<stop offset="0.8125" style="stop-color:rgb(32.156864%,15.294118%,52.156866%);stop-opacity:1;"/>
<stop offset="0.875" style="stop-color:rgb(32.156864%,15.294118%,52.156866%);stop-opacity:1;"/>
<stop offset="1" style="stop-color:rgb(32.156864%,15.294118%,52.156866%);stop-opacity:1;"/>
</linearGradient>
</defs>
<g id="surface1">
<path style=" stroke:none;fill-rule:nonzero;fill:rgb(0%,0%,0%);fill-opacity:1;" d="M 12.050781 90.640625 C 12.15625 92.269531 11.574219 93.867188 10.445312 95.046875 C 9.320312 96.222656 7.75 96.871094 6.121094 96.828125 L 3.535156 96.828125 L 3.535156 84.453125 L 6.121094 84.453125 C 7.75 84.40625 9.324219 85.050781 10.453125 86.230469 C 11.582031 87.410156 12.164062 89.011719 12.050781 90.640625 M 6.175781 81.394531 L 1.355469 81.394531 C 0.988281 81.367188 0.632812 81.5 0.371094 81.761719 C 0.113281 82.019531 -0.0195312 82.378906 0.0078125 82.746094 L 0.0078125 98.539062 C -0.03125 98.910156 0.0976562 99.277344 0.359375 99.546875 C 0.617188 99.816406 0.984375 99.953125 1.355469 99.921875 L 6.175781 99.921875 C 11.707031 99.921875 15.632812 96.152344 15.632812 90.675781 C 15.632812 85.195312 11.761719 81.394531 6.175781 81.394531 "/>
<path style=" stroke:none;fill-rule:nonzero;fill:rgb(0%,0%,0%);fill-opacity:1;" d="M 42.429688 81.394531 L 32.972656 81.394531 C 32.605469 81.367188 32.246094 81.5 31.988281 81.761719 C 31.726562 82.019531 31.589844 82.378906 31.613281 82.746094 L 31.613281 98.539062 C 31.585938 98.90625 31.722656 99.269531 31.984375 99.527344 C 32.242188 99.789062 32.605469 99.921875 32.972656 99.890625 L 33.847656 99.890625 C 34.214844 99.921875 34.574219 99.789062 34.835938 99.527344 C 35.09375 99.265625 35.226562 98.90625 35.195312 98.539062 L 35.195312 92.351562 L 41.367188 92.351562 C 41.730469 92.375 42.089844 92.242188 42.347656 91.984375 C 42.609375 91.722656 42.742188 91.363281 42.714844 90.996094 L 42.714844 90.707031 C 42.746094 90.339844 42.613281 89.976562 42.355469 89.714844 C 42.09375 89.453125 41.734375 89.316406 41.367188 89.34375 L 35.140625 89.34375 L 35.140625 84.519531 L 42.429688 84.519531 C 42.792969 84.542969 43.152344 84.40625 43.414062 84.144531 C 43.671875 83.882812 43.804688 83.523438 43.777344 83.15625 L 43.777344 82.8125 C 43.722656 81.925781 43.246094 81.394531 42.429688 81.394531 "/>
<path style=" stroke:none;fill-rule:nonzero;fill:rgb(0%,0%,0%);fill-opacity:1;" d="M 64.691406 81.394531 L 63.816406 81.394531 C 63.449219 81.367188 63.089844 81.5 62.832031 81.761719 C 62.574219 82.019531 62.441406 82.378906 62.46875 82.746094 L 62.46875 98.539062 C 62.425781 98.910156 62.554688 99.28125 62.816406 99.550781 C 63.078125 99.820312 63.445312 99.957031 63.816406 99.925781 L 64.691406 99.925781 C 65.058594 99.953125 65.417969 99.820312 65.679688 99.5625 C 65.941406 99.300781 66.078125 98.941406 66.050781 98.570312 L 66.050781 82.746094 C 66.074219 82.378906 65.9375 82.019531 65.675781 81.761719 C 65.414062 81.5 65.054688 81.367188 64.691406 81.394531 "/>
<path style=" stroke:none;fill-rule:nonzero;fill:rgb(0%,0%,0%);fill-opacity:1;" d="M 98.429688 81.394531 L 97.546875 81.394531 C 97.179688 81.367188 96.820312 81.5 96.5625 81.761719 C 96.304688 82.019531 96.167969 82.378906 96.195312 82.746094 L 96.195312 93.269531 L 87.96875 82.179688 C 87.632812 81.714844 87.082031 81.445312 86.507812 81.472656 L 86.15625 81.472656 C 85.785156 81.445312 85.425781 81.578125 85.164062 81.839844 C 84.902344 82.101562 84.769531 82.464844 84.792969 82.835938 L 84.792969 98.59375 C 84.769531 98.964844 84.902344 99.324219 85.164062 99.585938 C 85.425781 99.847656 85.785156 99.984375 86.15625 99.957031 L 87.027344 99.957031 C 87.398438 99.984375 87.757812 99.847656 88.019531 99.585938 C 88.28125 99.324219 88.414062 98.964844 88.390625 98.59375 L 88.390625 87.992188 L 96.605469 99.191406 C 96.949219 99.65625 97.5 99.917969 98.078125 99.890625 L 98.429688 99.890625 C 98.796875 99.917969 99.15625 99.785156 99.414062 99.523438 C 99.671875 99.265625 99.804688 98.902344 99.78125 98.539062 L 99.78125 82.746094 C 99.804688 82.378906 99.671875 82.019531 99.414062 81.761719 C 99.15625 81.5 98.796875 81.367188 98.429688 81.394531 "/>
<path style=" stroke:none;fill-rule:nonzero;fill:rgb(0%,0%,0%);fill-opacity:1;" d="M 120.691406 81.394531 L 119.863281 81.394531 C 119.496094 81.367188 119.136719 81.5 118.878906 81.761719 C 118.621094 82.019531 118.488281 82.378906 118.515625 82.746094 L 118.515625 98.539062 C 118.488281 98.902344 118.621094 99.265625 118.878906 99.523438 C 119.136719 99.785156 119.496094 99.917969 119.863281 99.890625 L 120.746094 99.890625 C 121.113281 99.917969 121.472656 99.785156 121.730469 99.523438 C 121.988281 99.265625 122.121094 98.902344 122.097656 98.539062 L 122.097656 82.746094 C 122.101562 82.375 121.953125 82.019531 121.6875 81.765625 C 121.417969 81.511719 121.058594 81.375 120.691406 81.394531 "/>
<path style=" stroke:none;fill-rule:nonzero;fill:rgb(0%,0%,0%);fill-opacity:1;" d="M 154.589844 81.394531 L 142.136719 81.394531 C 141.769531 81.367188 141.410156 81.5 141.152344 81.761719 C 140.894531 82.019531 140.761719 82.378906 140.785156 82.746094 L 140.785156 83.101562 C 140.753906 83.46875 140.886719 83.832031 141.148438 84.089844 C 141.40625 84.351562 141.769531 84.484375 142.136719 84.453125 L 146.558594 84.453125 L 146.558594 98.539062 C 146.527344 98.90625 146.660156 99.265625 146.921875 99.527344 C 147.179688 99.789062 147.542969 99.921875 147.90625 99.890625 L 148.726562 99.890625 C 149.09375 99.921875 149.453125 99.789062 149.714844 99.527344 C 149.972656 99.265625 150.105469 98.90625 150.078125 98.539062 L 150.078125 84.453125 L 154.5 84.453125 C 154.863281 84.480469 155.222656 84.347656 155.480469 84.085938 C 155.742188 83.828125 155.875 83.46875 155.847656 83.101562 L 155.847656 82.746094 C 155.871094 82.394531 155.75 82.050781 155.511719 81.792969 C 155.273438 81.539062 154.9375 81.390625 154.589844 81.394531 "/>
<path style=" stroke:none;fill-rule:nonzero;fill:rgb(0%,0%,0%);fill-opacity:1;" d="M 187.898438 81.980469 C 187.667969 81.597656 187.234375 81.386719 186.789062 81.449219 L 185.683594 81.449219 C 185.078125 81.425781 184.507812 81.75 184.214844 82.28125 L 179.867188 89.234375 L 175.578125 82.335938 C 175.292969 81.792969 174.714844 81.472656 174.105469 81.515625 L 173 81.515625 C 172.566406 81.492188 172.148438 81.691406 171.894531 82.046875 C 171.699219 82.457031 171.765625 82.941406 172.070312 83.277344 L 178.132812 92.417969 L 178.132812 98.59375 C 178.101562 98.960938 178.234375 99.324219 178.492188 99.585938 C 178.753906 99.847656 179.113281 99.984375 179.480469 99.957031 L 180.300781 99.957031 C 180.667969 99.984375 181.027344 99.847656 181.289062 99.585938 C 181.546875 99.324219 181.679688 98.960938 181.648438 98.59375 L 181.648438 92.417969 L 187.644531 83.277344 C 188.140625 82.570312 188.007812 82.179688 187.898438 81.980469 "/>
<g clip-path="url(#clip1)" clip-rule="nonzero">
<g clip-path="url(#clip2)" clip-rule="nonzero">
<path style=" stroke:none;fill-rule:nonzero;fill:url(#linear0);" d="M 61.480469 31.621094 L 120.464844 -25.507812 L 192.980469 20.957031 L 134 78.085938 Z M 61.480469 31.621094 "/>
</g>
</g>
<g clip-path="url(#clip3)" clip-rule="nonzero">
<g clip-path="url(#clip4)" clip-rule="nonzero">
<path style=" stroke:none;fill-rule:nonzero;fill:url(#linear1);" d="M 126.660156 31.441406 L 67.644531 88.601562 L -4.878906 42.085938 L 54.136719 -15.078125 Z M 126.660156 31.441406 "/>
</g>
</g>
<path style=" stroke:none;fill-rule:nonzero;fill:rgb(15.686275%,67.058825%,88.235295%);fill-opacity:1;" d="M 135.84375 52.171875 C 125.890625 51.9375 115.460938 44.042969 113.339844 42.035156 C 107.875 36.96875 95.191406 23.183594 94.25 22.074219 C 84.960938 11.707031 72.386719 0.0390625 59.96875 0.0390625 C 44.75 0.160156 31.945312 10.40625 28.59375 24.203125 C 28.824219 23.316406 33.824219 10.296875 52.214844 10.707031 C 62.167969 10.941406 72.664062 18.957031 74.777344 20.953125 C 80.238281 26.023438 92.933594 39.808594 93.875 40.914062 C 103.152344 51.285156 115.671875 62.953125 128.15625 62.953125 C 142.851562 63.007812 155.726562 53.101562 159.476562 38.851562 C 159.253906 39.683594 154.179688 52.636719 135.84375 52.171875 "/>
</g>
</svg>
