<?xml version="1.0" encoding="UTF-8"?>
<svg xmlns="http://www.w3.org/2000/svg" xmlns:xlink="http://www.w3.org/1999/xlink" width="295px" height="100px" viewBox="0 0 295 100" version="1.1">
<g id="surface1">
<path style=" stroke:none;fill-rule:nonzero;fill:rgb(91.764706%,26.274511%,20.784314%);fill-opacity:1;" d="M 125.539062 51.28125 C 125.539062 65.164062 114.703125 75.390625 101.40625 75.390625 C 88.109375 75.390625 77.273438 65.164062 77.273438 51.28125 C 77.273438 37.304688 88.109375 27.175781 101.40625 27.175781 C 114.703125 27.175781 125.539062 37.304688 125.539062 51.28125 Z M 114.972656 51.28125 C 114.972656 42.609375 108.695312 36.675781 101.40625 36.675781 C 94.117188 36.675781 87.839844 42.609375 87.839844 51.28125 C 87.839844 59.871094 94.117188 65.890625 101.40625 65.890625 C 108.695312 65.890625 114.972656 59.859375 114.972656 51.28125 Z M 114.972656 51.28125 "/>
<path style=" stroke:none;fill-rule:nonzero;fill:rgb(98.431373%,73.725492%,1.960784%);fill-opacity:1;" d="M 177.597656 51.28125 C 177.597656 65.164062 166.761719 75.390625 153.464844 75.390625 C 140.167969 75.390625 129.332031 65.164062 129.332031 51.28125 C 129.332031 37.316406 140.167969 27.175781 153.464844 27.175781 C 166.761719 27.175781 177.597656 37.304688 177.597656 51.28125 Z M 167.03125 51.28125 C 167.03125 42.609375 160.753906 36.675781 153.464844 36.675781 C 146.175781 36.675781 139.898438 42.609375 139.898438 51.28125 C 139.898438 59.871094 146.175781 65.890625 153.464844 65.890625 C 160.753906 65.890625 167.03125 59.859375 167.03125 51.28125 Z M 167.03125 51.28125 "/>
<path style=" stroke:none;fill-rule:nonzero;fill:rgb(25.882354%,52.156866%,95.686275%);fill-opacity:1;" d="M 227.484375 28.628906 L 227.484375 71.914062 C 227.484375 89.71875 217.007812 96.988281 204.625 96.988281 C 192.964844 96.988281 185.949219 89.175781 183.300781 82.78125 L 192.5 78.945312 C 194.136719 82.871094 198.148438 87.5 204.613281 87.5 C 212.539062 87.5 217.453125 82.597656 217.453125 73.371094 L 217.453125 69.902344 L 217.085938 69.902344 C 214.722656 72.824219 210.164062 75.378906 204.417969 75.378906 C 192.390625 75.378906 181.371094 64.878906 181.371094 51.371094 C 181.371094 37.761719 192.390625 27.175781 204.417969 27.175781 C 210.15625 27.175781 214.710938 29.726562 217.085938 32.566406 L 217.453125 32.566406 L 217.453125 28.640625 L 227.484375 28.640625 Z M 218.203125 51.371094 C 218.203125 42.878906 212.550781 36.675781 205.359375 36.675781 C 198.074219 36.675781 191.96875 42.878906 191.96875 51.371094 C 191.96875 59.773438 198.074219 65.890625 205.359375 65.890625 C 212.550781 65.890625 218.203125 59.773438 218.203125 51.371094 Z M 218.203125 51.371094 "/>
<path style=" stroke:none;fill-rule:nonzero;fill:rgb(20.392157%,65.882355%,32.549021%);fill-opacity:1;" d="M 244.027344 3.261719 L 244.027344 73.914062 L 233.722656 73.914062 L 233.722656 3.261719 Z M 244.027344 3.261719 "/>
<path style=" stroke:none;fill-rule:nonzero;fill:rgb(91.764706%,26.274511%,20.784314%);fill-opacity:1;" d="M 284.175781 59.21875 L 292.375 64.695312 C 289.730469 68.621094 283.351562 75.378906 272.332031 75.378906 C 258.667969 75.378906 248.460938 64.792969 248.460938 51.273438 C 248.460938 36.933594 258.753906 27.164062 271.152344 27.164062 C 283.632812 27.164062 289.738281 37.121094 291.734375 42.5 L 292.832031 45.238281 L 260.671875 58.585938 C 263.136719 63.425781 266.964844 65.890625 272.332031 65.890625 C 277.710938 65.890625 281.441406 63.238281 284.175781 59.21875 Z M 258.9375 50.542969 L 280.433594 41.597656 C 279.253906 38.585938 275.695312 36.488281 271.507812 36.488281 C 266.140625 36.488281 258.667969 41.238281 258.9375 50.542969 Z M 258.9375 50.542969 "/>
<path style=" stroke:none;fill-rule:nonzero;fill:rgb(25.882354%,52.156866%,95.686275%);fill-opacity:1;" d="M 38.273438 45.011719 L 38.273438 34.78125 L 72.664062 34.78125 C 73 36.566406 73.175781 38.675781 73.175781 40.957031 C 73.175781 48.628906 71.082031 58.121094 64.335938 64.878906 C 57.773438 71.726562 49.390625 75.378906 38.285156 75.378906 C 17.699219 75.378906 0.390625 58.574219 0.390625 37.945312 C 0.390625 17.316406 17.699219 0.511719 38.285156 0.511719 C 49.671875 0.511719 57.785156 4.988281 63.878906 10.824219 L 56.679688 18.042969 C 52.308594 13.933594 46.386719 10.738281 38.273438 10.738281 C 23.242188 10.738281 11.484375 22.878906 11.484375 37.945312 C 11.484375 53.011719 23.242188 65.152344 38.273438 65.152344 C 48.023438 65.152344 53.578125 61.226562 57.132812 57.664062 C 60.019531 54.773438 61.917969 50.640625 62.664062 45 Z M 38.273438 45.011719 "/>
</g>
</svg>
