<?xml version="1.0" encoding="UTF-8" standalone="no"?>
<svg
   xmlns:dc="http://purl.org/dc/elements/1.1/"
   xmlns:cc="http://creativecommons.org/ns#"
   xmlns:rdf="http://www.w3.org/1999/02/22-rdf-syntax-ns#"
   xmlns:svg="http://www.w3.org/2000/svg"
   xmlns="http://www.w3.org/2000/svg"
   xmlns:sodipodi="http://sodipodi.sourceforge.net/DTD/sodipodi-0.dtd"
   xmlns:inkscape="http://www.inkscape.org/namespaces/inkscape"
   width="98.115448"
   height="100"
   viewBox="0 0 98.115448 100"
   version="1.1"
   id="svg7"
   sodipodi:docname="huawei.svg"
   inkscape:version="0.92.5 (2060ec1f9f, 2020-04-08)">
  <metadata
     id="metadata13">
    <rdf:RDF>
      <cc:Work
         rdf:about="">
        <dc:format>image/svg+xml</dc:format>
        <dc:type
           rdf:resource="http://purl.org/dc/dcmitype/StillImage" />
        <dc:title></dc:title>
      </cc:Work>
    </rdf:RDF>
  </metadata>
  <defs
     id="defs11" />
  <sodipodi:namedview
     pagecolor="#ffffff"
     bordercolor="#666666"
     borderopacity="1"
     objecttolerance="10"
     gridtolerance="10"
     guidetolerance="10"
     inkscape:pageopacity="0"
     inkscape:pageshadow="2"
     inkscape:window-width="832"
     inkscape:window-height="480"
     id="namedview9"
     showgrid="false"
     fit-margin-top="0"
     fit-margin-left="0"
     fit-margin-right="0"
     fit-margin-bottom="0"
     inkscape:zoom="2.0144928"
     inkscape:cx="-29.871207"
     inkscape:cy="50"
     inkscape:window-x="57"
     inkscape:window-y="24"
     inkscape:window-maximized="0"
     inkscape:current-layer="svg7" />
  <g
     id="surface1"
     transform="translate(-88.943149)">
    <path
       style="fill:#212326;fill-opacity:1;fill-rule:nonzero;stroke:none"
       d="m 119.06641,83.429688 v 9.34375 c 0,2.65625 -1.31641,4.070312 -3.70313,4.070312 -2.40234,0 -3.72265,-1.457031 -3.72265,-4.183594 V 83.4375 h -3.30469 v 9.335938 c 0,4.59375 2.54687,7.226562 6.98437,7.226562 4.48047,0 7.05078,-2.683594 7.05078,-7.359375 v -9.210937 z m 12.15625,0 -7.17578,16.316406 h 3.37109 l 1.38672,-3.160156 0.0977,-0.238282 h 7.45313 l 1.46484,3.398438 h 3.46485 l -7.10938,-16.21875 -0.0664,-0.09766 z m 19.64453,0 -3.69922,11.226562 -3.59766,-11.21875 h -3.51562 l 5.67578,16.320312 h 2.73437 l 3.70703,-10.722656 3.69922,10.722656 h 2.76172 L 164.29297,83.4375 h -3.42578 l -3.60547,11.21875 -3.69922,-11.226562 z m 32.33203,0 v 16.300781 h 3.26172 V 83.429688 Z m -93.515626,0 v 16.324218 h 3.304687 V 93.125 h 7.460939 v 6.628906 h 3.30469 V 83.429688 h -3.30469 v 6.585937 h -7.460939 v -6.585937 z m 77.273436,0.01172 V 99.74219 h 12.30078 v -2.972657 h -9.03906 v -4.039062 h 6.01172 v -2.976563 h -6.01172 v -3.339844 h 8.72656 v -2.972656 z m -34.33594,4.117188 2.35547,5.46875 h -0.008 l 0.16016,0.375 h -4.9961 l 0.15625,-0.375 h -0.004 z m 0,0"
       id="path2"
       inkscape:connector-curvature="0" />
    <path
       style="fill:#cf072b;fill-opacity:1;fill-rule:nonzero;stroke:none"
       d="m 130.83594,0 c -1.3086,0.117188 -4.85156,0.925781 -4.85156,0.925781 h -0.004 c -7.98438,2.066407 -9.87109,9.328125 -9.87109,9.328125 -0.39063,1.222656 -0.56641,2.472656 -0.61719,3.652344 v 1.605469 c 0.10547,2.480469 0.65625,4.332031 0.65625,4.332031 2.66406,11.851562 15.77734,31.328125 18.59765,35.417969 0.19922,0.199219 0.35938,0.128906 0.35938,0.128906 0.30469,-0.08594 0.28125,-0.378906 0.28125,-0.378906 l 0.004,0.0039 C 139.73437,11.527344 130.83594,0 130.83594,0 Z m 14.34375,0 c 0,0 -8.9336,11.535156 -4.58985,55.046875 h 0.004 c 0.0352,0.273437 0.23047,0.332031 0.23047,0.332031 0.28906,0.113282 0.4375,-0.167968 0.4375,-0.167968 l 0.004,0.0039 c 2.89063,-4.195313 15.92969,-23.566406 18.58204,-35.371094 0,0 1.4414,-5.714844 0.0508,-9.589844 0,0 -1.97266,-7.375 -9.96875,-9.324218 0,0 -2.30469,-0.585938 -4.75,-0.929688 z m -41.21485,13.054688 c 0,0 -7.609371,7.238281 -7.988278,14.910156 h 0.0039 v 1.164062 c 0.0078,0.08594 0.01172,0.175782 0.01563,0.261719 0.328125,6.1875 4.972658,9.851563 4.972658,9.851563 7.48047,7.308593 25.59766,16.535156 29.80859,18.628906 0.0586,0.01953 0.27735,0.09375 0.40235,-0.07031 0,0 0.0664,-0.05078 0.0977,-0.140625 V 57.46875 c -0.004,-0.01172 -0.008,-0.02344 -0.0156,-0.03516 h 0.004 C 119.73438,32.191406 103.96484,13.054688 103.96484,13.054688 Z m 68.07032,0 c 0,0 -15.72657,19.078124 -27.25,44.269531 l 0.004,-0.0039 c 0,0 -0.13672,0.292969 0.0859,0.480469 0,0 0.0664,0.05078 0.15625,0.07031 h 0.16016 c 0.0273,-0.0078 0.0586,-0.01953 0.0898,-0.03906 v 0.0039 c 4.32422,-2.152344 22.29687,-11.320313 29.74609,-18.59375 0,0 4.71485,-3.796876 4.96094,-9.890626 0.54688,-8.464843 -7.95312,-16.296874 -7.95312,-16.296874 z m 14.15234,25.058593 c 0,0 -25.63672,13.789063 -38.89063,22.75 v 0.0039 h 0.004 c 0,0 -0.24219,0.160156 -0.15625,0.441406 0,0 0.125,0.230468 0.30859,0.230468 4.7461,0.0078 22.71094,0.02734 23.16407,-0.05469 0,0 2.32031,-0.09375 5.1914,-1.199219 0,0 6.39063,-2.035156 9.71094,-9.308594 0,0 1.51563,-3.039062 1.53906,-7.3125 v -0.179687 c -0.0117,-1.648437 -0.24218,-3.472656 -0.87109,-5.371094 z m -96.382812,0.06641 c -2.332032,7.238281 0.808593,13.066406 0.8125,13.078124 3.273437,6.929688 9.519532,9.027344 9.519532,9.027344 2.88281,1.1875 5.76562,1.269532 5.76562,1.269532 0.45313,0.08203 17.9375,0.0078 22.625,-0.01172 0.19922,-0.0039 0.30469,-0.203125 0.30469,-0.203125 0.0156,-0.01953 0.0273,-0.04297 0.0352,-0.0625 v -0.179688 c -0.0391,-0.125 -0.14453,-0.207031 -0.14453,-0.207031 l 0.004,-0.0039 C 115.47656,51.929688 89.804688,38.179688 89.804688,38.179688 Z m 38.187502,25.585937 -30.156252,1.0625 c 3.269532,5.84375 8.777342,10.382813 14.515622,8.988281 3.95703,-0.992187 12.92578,-7.261718 15.89063,-9.382812 l -0.0117,-0.0078 c 0.23047,-0.207031 0.14844,-0.375 0.14844,-0.375 -0.0742,-0.269531 -0.38672,-0.269531 -0.38672,-0.269531 z m 19.97265,0.02344 -0.004,0.01172 c 0,0 -0.26172,0.03125 -0.33594,0.230469 0,0 -0.0664,0.273438 0.11328,0.40625 l -0.004,0.0039 c 2.88672,2.074219 11.64063,8.207032 15.85547,9.398438 0,0 0.64063,0.21875 1.71094,0.257812 h 0.64063 c 2.82812,-0.09766 7.75,-1.554687 12.21875,-9.253906 z m 0,0"
       id="path4"
       inkscape:connector-curvature="0" />
  </g>
</svg>
