<?xml version="1.0" encoding="UTF-8"?>
<svg xmlns="http://www.w3.org/2000/svg" xmlns:xlink="http://www.w3.org/1999/xlink" width="286px" height="100px" viewBox="0 0 286 100" version="1.1">
<g id="surface1">
<path style=" stroke:none;fill-rule:nonzero;fill:rgb(47.058824%,11.764706%,9.803922%);fill-opacity:1;" d="M 50.238281 99.898438 C 39.394531 99.898438 28.890625 96.335938 20.082031 89.886719 C 14.488281 85.8125 9.914062 80.554688 6.527344 74.445312 C 3.308594 68.84375 1.105469 62.566406 0.425781 56.117188 C -0.929688 45.765625 1.105469 35.246094 6.019531 26.082031 C 9.238281 20.144531 13.8125 14.710938 19.234375 10.640625 C 39.734375 -5.480469 69.046875 -3.105469 87.007812 15.898438 C 96.664062 26.25 101.578125 40.167969 100.390625 54.25 C 99.542969 65.109375 95.140625 75.292969 87.851562 83.4375 C 83.957031 87.679688 79.550781 91.242188 74.46875 93.957031 C 70.234375 96.164062 65.65625 97.863281 60.746094 98.878906 C 57.1875 99.558594 53.628906 99.898438 50.238281 99.898438 Z M 50.238281 99.898438 "/>
<path style=" stroke:none;fill-rule:nonzero;fill:rgb(63.529414%,42.352942%,41.568628%);fill-opacity:1;" d="M 50.75 99.898438 C 51.085938 99.898438 51.257812 99.726562 51.59375 99.898438 Z M 50.75 99.898438 "/>
<path style=" stroke:none;fill-rule:nonzero;fill:rgb(66.666669%,46.666667%,45.882353%);fill-opacity:1;" d="M 49.394531 99.898438 L 48.714844 99.898438 C 48.882812 99.726562 49.222656 99.898438 49.394531 99.898438 Z M 49.394531 99.898438 "/>
<path style=" stroke:none;fill-rule:nonzero;fill:rgb(83.92157%,74.117649%,73.333335%);fill-opacity:1;" d="M 52.441406 99.898438 L 51.933594 99.898438 C 52.101562 99.726562 52.273438 99.898438 52.441406 99.898438 Z M 52.441406 99.898438 "/>
<path style=" stroke:none;fill-rule:nonzero;fill:rgb(100%,100%,100%);fill-opacity:1;" d="M 50.238281 89.039062 C 41.769531 89.039062 33.636719 86.324219 26.859375 81.230469 C 22.453125 78.007812 18.894531 73.933594 16.183594 69.183594 C 13.644531 64.773438 11.949219 59.851562 11.441406 54.761719 C 10.421875 46.613281 11.949219 38.46875 15.84375 31.34375 C 18.386719 26.589844 21.945312 22.519531 26.011719 19.292969 C 42.105469 6.738281 64.980469 8.433594 78.875 23.367188 C 86.5 31.34375 90.226562 42.203125 89.207031 53.234375 C 88.53125 61.71875 85.144531 69.691406 79.382812 75.972656 C 76.332031 79.367188 72.773438 82.082031 68.878906 84.285156 C 65.488281 86.152344 61.929688 87.339844 58.203125 88.1875 C 55.660156 88.699219 52.949219 89.039062 50.238281 89.039062 Z M 50.238281 89.039062 "/>
<path style=" stroke:none;fill-rule:nonzero;fill:rgb(100%,100%,100%);fill-opacity:1;" d="M 54.8125 93.449219 C 54.8125 92.769531 54.8125 92.769531 55.492188 92.601562 C 55.324219 92.261719 55.152344 91.921875 54.644531 92.09375 C 54.304688 92.261719 53.96875 92.09375 53.96875 91.753906 C 53.628906 91.242188 53.289062 90.90625 52.78125 90.394531 C 52.441406 90.054688 51.933594 89.886719 51.425781 89.714844 C 50.75 89.546875 50.070312 90.054688 49.902344 90.734375 C 49.902344 90.90625 49.902344 91.074219 49.902344 91.242188 C 49.902344 91.582031 50.070312 91.753906 50.238281 92.09375 C 47.699219 92.09375 45.15625 91.921875 42.617188 91.414062 C 42.785156 91.753906 42.785156 92.09375 43.125 92.09375 C 43.800781 92.261719 43.800781 92.261719 43.632812 92.941406 L 43.632812 93.109375 C 43.460938 93.449219 43.632812 93.957031 43.292969 94.128906 C 42.953125 94.296875 42.617188 93.957031 42.277344 93.957031 C 41.9375 93.957031 41.9375 93.789062 41.9375 93.621094 C 41.9375 93.28125 42.105469 92.941406 42.105469 92.429688 C 42.277344 91.753906 41.9375 91.074219 41.597656 90.734375 C 41.261719 90.394531 40.75 90.394531 40.414062 90.734375 C 40.414062 90.90625 40.242188 90.90625 40.074219 90.90625 C 39.734375 90.734375 39.394531 90.734375 39.058594 90.566406 C 38.886719 90.566406 38.886719 90.394531 38.886719 90.394531 C 38.71875 89.546875 38.378906 88.699219 37.871094 88.019531 C 37.53125 87.511719 37.023438 87.339844 36.515625 87.171875 C 36.007812 87 35.328125 87.511719 35.160156 88.019531 C 34.992188 88.359375 34.992188 88.867188 34.992188 89.207031 C 34.3125 88.867188 33.636719 88.699219 32.957031 88.359375 C 32.789062 88.1875 32.789062 88.1875 32.789062 88.019531 C 32.789062 87.339844 32.617188 86.492188 32.28125 85.984375 C 32.109375 85.644531 31.941406 85.304688 31.601562 84.964844 C 31.09375 84.457031 30.246094 84.457031 29.738281 84.964844 C 29.570312 85.136719 29.398438 85.304688 29.398438 85.472656 C 29.230469 85.8125 29.230469 85.984375 29.230469 86.324219 L 28.042969 85.644531 C 28.042969 86.152344 28.042969 86.492188 28.550781 86.660156 C 28.722656 86.660156 28.722656 86.832031 28.722656 87 C 28.042969 88.019531 27.535156 89.039062 26.859375 90.054688 C 26.6875 90.226562 26.6875 90.394531 26.859375 90.566406 C 27.027344 90.734375 27.195312 90.90625 27.195312 91.074219 L 29.398438 87.339844 C 29.738281 87.679688 30.246094 87.851562 30.753906 88.019531 C 30.925781 88.019531 31.09375 88.1875 30.925781 88.359375 C 30.925781 88.699219 30.753906 89.039062 30.417969 89.378906 C 30.246094 89.546875 29.90625 89.714844 29.90625 89.207031 C 29.90625 89.039062 29.738281 88.867188 29.570312 88.867188 C 29.398438 88.867188 29.230469 89.039062 29.230469 89.207031 C 29.230469 89.378906 29.230469 89.546875 29.230469 89.714844 C 29.398438 90.734375 29.570312 91.582031 29.90625 92.601562 C 29.90625 92.769531 30.078125 92.769531 30.246094 92.769531 C 30.417969 92.769531 30.585938 92.601562 30.417969 92.429688 C 30.078125 92.09375 29.90625 91.582031 29.90625 91.074219 C 29.738281 90.734375 29.738281 90.566406 30.246094 90.566406 C 30.417969 90.566406 30.585938 90.394531 30.753906 90.226562 C 30.925781 90.054688 30.925781 90.054688 31.09375 90.226562 C 31.261719 90.734375 31.773438 91.242188 32.449219 91.414062 C 32.28125 91.753906 32.109375 92.261719 31.941406 92.601562 C 31.773438 92.769531 31.773438 92.941406 31.941406 93.109375 C 32.109375 93.28125 32.109375 93.449219 32.28125 93.621094 L 33.804688 90.394531 C 33.804688 90.226562 33.972656 90.054688 34.144531 89.886719 C 34.3125 89.714844 34.484375 90.054688 34.820312 90.054688 C 35.160156 90.054688 35.160156 90.226562 34.992188 90.394531 C 34.652344 91.242188 34.3125 92.261719 33.972656 93.109375 C 33.636719 93.621094 33.804688 94.128906 34.3125 94.46875 C 34.3125 94.46875 34.3125 94.296875 34.484375 94.296875 C 34.820312 93.28125 35.328125 92.09375 35.667969 91.074219 C 35.839844 90.90625 35.839844 90.566406 36.007812 90.566406 C 36.175781 90.394531 36.347656 90.734375 36.515625 90.734375 C 37.53125 91.074219 38.550781 91.414062 39.566406 91.582031 C 39.90625 91.753906 39.734375 91.921875 39.734375 91.921875 C 39.734375 91.921875 39.566406 92.261719 39.394531 92.261719 C 39.058594 92.09375 38.886719 92.09375 38.550781 91.921875 C 38.039062 91.753906 37.703125 91.753906 37.195312 92.09375 C 36.855469 92.429688 36.855469 92.941406 37.195312 93.28125 C 37.195312 93.449219 37.195312 93.449219 37.023438 93.621094 C 36.855469 93.789062 36.515625 93.621094 36.515625 93.449219 C 36.347656 93.28125 36.515625 93.109375 36.683594 92.941406 C 36.855469 92.769531 36.855469 92.769531 36.683594 92.601562 C 36.515625 92.429688 36.515625 92.261719 36.347656 92.261719 C 36.347656 92.09375 36.175781 92.09375 36.175781 92.09375 C 35.839844 92.261719 35.5 92.769531 35.667969 93.109375 L 35.667969 93.28125 C 35.839844 93.449219 36.007812 93.621094 36.175781 93.789062 C 36.347656 93.957031 36.347656 93.957031 36.347656 94.128906 C 36.175781 94.296875 36.175781 94.636719 36.347656 94.808594 C 36.683594 95.484375 37.53125 95.824219 38.378906 95.65625 C 38.71875 95.65625 38.886719 95.316406 39.058594 95.316406 C 39.226562 95.484375 39.226562 95.824219 39.394531 96.164062 C 39.394531 96.335938 39.566406 96.335938 39.734375 96.335938 C 39.90625 96.335938 39.90625 96.164062 39.90625 95.996094 C 39.734375 95.65625 39.566406 95.484375 39.394531 95.148438 C 39.226562 94.976562 39.058594 94.808594 39.566406 94.636719 C 39.90625 94.46875 39.90625 94.296875 39.90625 93.957031 C 39.90625 93.621094 39.566406 93.449219 39.226562 93.449219 C 38.886719 93.449219 38.71875 93.449219 38.71875 93.789062 C 38.71875 93.957031 38.550781 93.957031 38.550781 93.957031 C 38.378906 93.957031 38.210938 93.789062 37.871094 93.789062 C 37.53125 93.621094 37.363281 93.28125 37.53125 92.941406 C 37.703125 92.601562 38.039062 92.429688 38.378906 92.601562 C 38.71875 92.601562 38.886719 92.769531 39.226562 92.769531 C 39.566406 92.941406 39.90625 93.109375 40.242188 92.941406 C 40.582031 92.769531 40.414062 92.261719 40.582031 91.921875 C 40.582031 91.753906 40.582031 91.582031 40.75 91.582031 C 40.921875 91.582031 41.089844 91.753906 41.089844 91.921875 C 41.089844 92.261719 41.429688 92.429688 41.597656 92.601562 C 41.9375 92.769531 41.9375 93.109375 41.9375 93.449219 C 41.9375 93.789062 41.769531 93.789062 41.597656 93.789062 C 41.261719 93.789062 41.089844 93.789062 41.089844 94.128906 C 41.089844 94.636719 41.429688 95.148438 41.9375 95.484375 C 42.277344 95.65625 42.445312 95.484375 42.445312 95.316406 C 42.445312 94.636719 42.785156 94.808594 43.125 94.808594 C 43.292969 94.808594 43.292969 94.808594 43.460938 94.808594 C 43.972656 94.976562 43.972656 94.976562 43.800781 95.316406 C 43.632812 96.164062 43.632812 96.164062 44.308594 96.675781 C 44.480469 95.484375 44.648438 94.296875 44.988281 93.109375 C 44.988281 92.941406 44.988281 92.601562 45.15625 92.429688 C 45.328125 92.261719 45.496094 92.429688 45.664062 92.429688 L 45.835938 92.429688 L 48.375 92.601562 C 48.546875 92.601562 48.546875 92.601562 48.546875 92.769531 C 48.546875 93.28125 48.546875 93.789062 48.375 94.296875 C 48.207031 94.128906 48.039062 93.957031 47.867188 93.789062 C 47.527344 93.449219 47.191406 93.28125 46.683594 93.28125 C 46.003906 93.109375 45.496094 93.621094 45.328125 94.128906 C 45.328125 94.296875 45.328125 94.296875 45.328125 94.46875 C 45.496094 95.484375 46.511719 95.996094 47.527344 95.824219 L 47.699219 95.824219 C 47.867188 95.65625 48.039062 95.65625 48.207031 95.65625 C 48.039062 96.335938 48.207031 96.84375 48.882812 97.011719 C 48.882812 95.824219 49.054688 94.636719 49.222656 93.449219 C 49.222656 93.28125 49.222656 92.941406 49.222656 92.769531 C 49.394531 92.429688 49.730469 92.769531 49.902344 92.601562 C 50.238281 92.429688 50.238281 92.601562 50.238281 92.941406 C 50.238281 93.957031 50.238281 94.976562 50.238281 95.824219 C 50.238281 96.675781 50.238281 96.675781 51.085938 97.011719 C 51.085938 95.65625 51.085938 94.296875 51.085938 93.109375 C 51.085938 92.769531 51.085938 92.601562 51.59375 92.601562 C 52.441406 92.601562 53.121094 92.429688 53.96875 92.429688 C 54.8125 92.429688 54.476562 92.261719 54.644531 92.941406 C 54.644531 93.109375 54.644531 93.28125 54.304688 93.28125 C 53.96875 93.28125 53.457031 93.449219 52.949219 93.28125 C 52.273438 93.28125 51.765625 93.621094 51.765625 94.296875 C 51.765625 94.636719 51.765625 94.808594 51.933594 95.148438 C 52.273438 95.65625 52.613281 96.164062 53.121094 96.503906 C 53.289062 96.675781 53.289062 96.84375 53.457031 96.675781 C 53.628906 96.503906 53.457031 96.335938 53.289062 96.335938 C 52.78125 95.996094 52.613281 95.484375 52.441406 94.976562 C 52.441406 94.636719 52.613281 94.296875 52.949219 94.296875 L 53.121094 94.296875 C 53.457031 94.296875 53.96875 94.296875 54.304688 94.128906 C 54.476562 94.128906 54.644531 94.128906 54.644531 94.296875 C 54.644531 94.636719 54.8125 95.148438 54.644531 95.65625 C 54.644531 96.335938 54.984375 96.675781 55.492188 96.675781 C 55.492188 96.503906 55.492188 96.335938 55.492188 96.164062 C 54.984375 95.484375 54.984375 94.46875 54.8125 93.449219 Z M 29.230469 86.660156 C 29.0625 86.660156 29.0625 86.492188 29.0625 86.324219 C 29.398438 85.644531 30.246094 84.964844 31.09375 85.8125 C 31.601562 86.492188 31.941406 87.339844 32.109375 88.1875 C 31.09375 87.851562 30.246094 87.339844 29.230469 86.660156 Z M 32.617188 89.378906 C 32.449219 89.714844 32.28125 89.886719 32.28125 90.226562 C 32.109375 90.566406 31.941406 90.566406 31.601562 90.566406 C 31.09375 90.566406 30.585938 90.226562 30.585938 89.714844 C 30.585938 89.546875 30.585938 89.546875 30.585938 89.378906 C 30.753906 89.039062 30.753906 88.867188 30.753906 88.527344 C 30.753906 88.359375 30.753906 88.359375 30.925781 88.359375 C 31.433594 88.527344 31.773438 88.867188 32.28125 89.039062 C 32.617188 89.207031 32.617188 89.207031 32.617188 89.378906 Z M 35.328125 89.546875 C 35.160156 89.378906 35.160156 89.378906 35.160156 89.207031 C 35.5 88.359375 36.007812 87.679688 37.195312 88.527344 C 37.871094 89.039062 38.378906 89.886719 38.550781 90.566406 C 37.363281 90.394531 36.347656 90.054688 35.328125 89.546875 Z M 36.855469 94.128906 C 37.195312 94.296875 37.363281 94.46875 37.703125 94.46875 C 37.363281 94.808594 37.023438 94.976562 36.683594 94.976562 C 36.515625 94.976562 36.175781 94.976562 36.175781 94.636719 C 36.175781 94.46875 36.175781 94.296875 36.347656 94.128906 C 36.347656 94.128906 36.683594 94.128906 36.855469 94.128906 Z M 41.261719 92.429688 C 41.089844 92.601562 40.75 92.09375 40.75 91.753906 C 40.75 91.414062 40.921875 91.242188 41.261719 91.242188 C 41.429688 91.242188 41.597656 91.414062 41.597656 91.582031 C 41.429688 91.921875 41.429688 92.261719 41.261719 92.429688 Z M 47.699219 94.976562 C 47.359375 95.148438 46.851562 95.316406 46.511719 95.484375 C 46.003906 95.484375 45.664062 95.316406 45.496094 94.976562 C 45.496094 94.636719 45.835938 94.296875 46.34375 94.128906 C 46.511719 94.128906 46.511719 94.128906 46.683594 94.128906 C 47.191406 94.128906 47.527344 94.46875 47.699219 94.976562 C 47.867188 94.976562 47.699219 94.976562 47.699219 94.976562 Z M 52.613281 92.261719 C 51.933594 92.261719 51.257812 92.429688 50.578125 92.261719 C 50.410156 92.261719 50.238281 92.261719 50.238281 91.921875 C 50.070312 91.242188 50.410156 90.734375 51.085938 90.566406 C 51.257812 90.566406 51.59375 90.566406 51.765625 90.566406 C 52.613281 90.90625 53.289062 91.414062 53.796875 92.09375 C 53.289062 92.09375 52.949219 92.261719 52.613281 92.261719 Z M 52.613281 92.261719 "/>
<path style=" stroke:none;fill-rule:nonzero;fill:rgb(100%,100%,100%);fill-opacity:1;" d="M 72.265625 87.679688 C 71.925781 87.171875 71.925781 87.171875 72.433594 86.832031 C 72.097656 86.492188 71.589844 86.492188 71.25 86.832031 C 70.742188 87.171875 70.0625 87.511719 69.554688 87.851562 C 67.859375 88.527344 66.335938 89.378906 64.640625 89.886719 C 62.609375 90.566406 60.574219 91.242188 58.542969 91.582031 C 57.695312 91.753906 56.847656 91.921875 56.167969 92.09375 C 56.339844 92.429688 56.847656 92.601562 57.355469 92.429688 C 57.863281 92.261719 58.542969 92.261719 59.050781 92.09375 C 59.21875 92.09375 59.21875 92.09375 59.390625 92.261719 C 59.390625 92.601562 59.558594 93.109375 59.558594 93.449219 C 58.542969 92.941406 58.371094 92.941406 57.863281 93.109375 C 57.355469 93.28125 57.1875 93.621094 57.1875 94.128906 C 57.355469 94.976562 58.203125 95.484375 59.050781 95.148438 C 59.21875 95.148438 59.390625 94.976562 59.558594 94.808594 C 59.726562 95.316406 59.726562 95.996094 60.40625 96.164062 C 60.574219 96.164062 60.574219 95.996094 60.574219 95.824219 C 60.40625 95.316406 60.40625 94.976562 60.234375 94.46875 C 60.066406 93.957031 60.40625 93.621094 60.746094 93.28125 C 61.082031 93.109375 61.421875 93.109375 61.589844 93.449219 C 61.589844 93.621094 61.761719 93.621094 61.761719 93.789062 C 61.761719 94.128906 61.761719 94.46875 61.589844 94.808594 C 61.421875 94.976562 61.589844 95.148438 61.761719 95.148438 C 61.929688 95.148438 61.929688 95.316406 62.101562 95.316406 C 62.269531 95.484375 62.269531 95.316406 62.4375 95.148438 C 62.609375 94.808594 62.609375 94.296875 62.609375 93.957031 C 62.269531 92.769531 61.253906 92.261719 60.40625 92.941406 C 60.40625 92.769531 60.40625 92.769531 60.40625 92.601562 C 60.234375 91.753906 60.234375 91.753906 61.082031 91.582031 C 61.589844 91.582031 62.101562 91.414062 62.609375 91.074219 C 62.777344 90.90625 62.777344 91.074219 62.945312 91.242188 C 63.117188 91.582031 63.285156 92.09375 63.285156 92.429688 C 63.457031 92.769531 63.457031 92.769531 63.117188 92.941406 C 62.777344 93.109375 62.777344 93.28125 62.945312 93.621094 C 63.285156 93.957031 63.457031 94.128906 63.964844 94.296875 C 64.132812 94.46875 64.472656 94.46875 64.640625 94.296875 C 64.8125 94.128906 64.640625 93.957031 64.640625 93.621094 C 64.640625 93.28125 64.640625 93.28125 64.8125 93.28125 C 65.148438 93.109375 65.488281 93.109375 65.828125 92.941406 C 65.996094 92.941406 66.167969 92.941406 66.167969 93.109375 C 66.167969 93.28125 66.167969 93.28125 66.335938 93.449219 C 66.503906 94.128906 66.675781 94.128906 67.523438 94.128906 C 67.523438 93.957031 67.351562 93.789062 67.351562 93.789062 C 67.011719 92.601562 66.503906 91.414062 66.167969 90.226562 C 66.167969 90.226562 65.996094 90.054688 66.167969 89.886719 C 67.351562 89.378906 68.539062 88.867188 69.722656 88.359375 C 70.0625 88.1875 70.0625 88.1875 70.234375 88.527344 C 70.234375 88.699219 70.234375 88.699219 70.402344 88.867188 C 70.570312 89.207031 70.570312 89.207031 70.234375 89.378906 C 69.554688 89.714844 68.878906 90.054688 68.199219 90.394531 C 68.539062 90.566406 68.707031 90.566406 69.046875 90.734375 C 69.386719 90.90625 69.554688 91.074219 69.894531 91.242188 C 70.0625 91.414062 70.234375 91.753906 69.894531 92.09375 C 69.722656 92.261719 69.554688 92.261719 69.386719 92.261719 C 69.046875 92.261719 68.707031 92.261719 68.539062 92.09375 C 68.199219 91.921875 67.859375 91.582031 67.523438 91.242188 C 67.523438 91.242188 67.351562 91.074219 67.351562 91.242188 C 67.183594 91.242188 67.183594 91.414062 67.351562 91.414062 C 68.03125 92.261719 68.878906 92.769531 70.0625 92.941406 C 70.570312 92.941406 71.078125 92.601562 71.078125 92.09375 C 71.078125 91.753906 70.910156 91.414062 70.742188 91.242188 C 70.402344 91.074219 70.234375 90.90625 69.894531 90.734375 C 70.234375 90.566406 70.570312 90.394531 70.910156 90.226562 C 71.078125 90.054688 71.25 90.226562 71.25 90.394531 C 71.417969 90.90625 71.757812 91.414062 71.925781 91.921875 C 71.925781 92.09375 72.097656 92.261719 72.265625 92.261719 C 72.433594 92.261719 72.605469 92.261719 72.945312 92.261719 C 72.945312 92.09375 72.945312 91.921875 72.773438 91.921875 C 72.265625 90.90625 71.925781 89.886719 71.417969 89.039062 C 71.25 88.867188 71.25 88.699219 71.078125 88.527344 C 71.078125 88.1875 71.417969 88.359375 71.589844 88.1875 C 71.757812 87.851562 71.925781 88.019531 71.925781 88.1875 C 72.433594 89.039062 72.945312 89.886719 73.453125 90.734375 C 73.789062 91.414062 73.960938 91.414062 74.636719 91.242188 Z M 59.726562 93.957031 C 59.558594 94.296875 59.21875 94.46875 58.878906 94.636719 C 58.710938 94.808594 58.371094 94.636719 58.203125 94.46875 C 58.203125 94.296875 58.203125 94.128906 58.203125 94.128906 C 58.542969 93.621094 59.050781 93.449219 59.726562 93.957031 C 59.726562 93.789062 59.726562 93.789062 59.726562 93.957031 Z M 65.488281 92.09375 C 65.488281 92.261719 65.488281 92.261719 65.488281 92.09375 C 64.980469 92.261719 64.472656 92.601562 64.132812 92.429688 C 63.792969 92.261719 63.792969 91.753906 63.625 91.414062 C 63.285156 90.734375 63.457031 90.734375 64.132812 90.566406 C 64.8125 90.226562 64.8125 90.226562 65.148438 91.074219 L 65.488281 92.09375 C 65.65625 92.09375 65.65625 92.09375 65.488281 92.09375 Z M 65.488281 92.09375 "/>
<path style=" stroke:none;fill-rule:nonzero;fill:rgb(100%,100%,100%);fill-opacity:1;" d="M 93.273438 49.839844 C 94.292969 50.179688 95.308594 50.347656 96.15625 50.6875 C 96.496094 50.855469 97.171875 50.855469 97.339844 51.027344 C 97.511719 51.367188 97.339844 51.875 97.511719 52.214844 C 97.679688 52.554688 97.339844 52.722656 97.003906 52.722656 C 95.308594 52.722656 93.785156 52.894531 92.089844 53.0625 C 91.75 53.0625 91.582031 53.0625 91.582031 52.722656 C 91.582031 51.875 91.582031 51.875 92.429688 51.707031 C 93.613281 51.707031 94.800781 51.535156 96.15625 51.535156 C 94.800781 51.195312 93.445312 50.855469 92.257812 50.347656 C 92.089844 50.347656 91.75 50.347656 91.75 50.179688 C 91.75 49.839844 91.75 49.5 91.75 49.328125 C 91.75 49.160156 91.917969 49.160156 92.089844 49.160156 C 93.273438 48.820312 94.628906 48.3125 95.816406 48.140625 C 95.984375 48.140625 95.984375 48.140625 96.15625 47.972656 L 92.9375 47.800781 C 92.597656 47.800781 92.257812 47.800781 91.917969 47.800781 C 91.75 47.800781 91.582031 47.800781 91.582031 47.464844 C 91.410156 46.445312 91.410156 46.445312 92.429688 46.445312 C 93.953125 46.445312 95.648438 46.613281 97.171875 46.613281 C 97.339844 46.613281 97.511719 46.613281 97.511719 46.953125 C 97.511719 47.464844 97.679688 47.972656 97.511719 48.3125 C 97.339844 48.652344 96.664062 48.652344 96.15625 48.820312 C 95.308594 49.328125 94.292969 49.667969 93.273438 49.839844 Z M 93.273438 49.839844 "/>
<path style=" stroke:none;fill-rule:nonzero;fill:rgb(100%,100%,100%);fill-opacity:1;" d="M 15.675781 76.140625 L 13.472656 78.007812 C 13.472656 78.007812 13.304688 78.007812 13.304688 78.175781 C 13.132812 78.347656 12.796875 78.6875 12.625 78.6875 C 12.289062 78.515625 12.117188 78.175781 11.949219 78.007812 C 11.777344 77.839844 11.949219 77.839844 11.949219 77.667969 C 13.304688 76.480469 14.828125 75.292969 16.351562 74.273438 C 16.523438 74.105469 16.523438 74.273438 16.691406 74.273438 C 16.863281 74.613281 17.03125 74.785156 17.199219 74.953125 C 17.371094 75.121094 17.371094 75.292969 17.199219 75.292969 C 16.691406 76.3125 16.351562 77.328125 15.84375 78.515625 C 15.675781 78.855469 15.507812 79.195312 15.335938 79.535156 C 15.675781 79.367188 15.84375 79.195312 16.015625 79.027344 C 16.863281 78.347656 17.707031 77.667969 18.386719 76.988281 C 18.554688 76.820312 18.726562 76.820312 18.726562 76.988281 C 19.402344 77.667969 19.402344 77.667969 18.554688 78.347656 C 17.707031 79.027344 16.691406 79.875 15.84375 80.554688 C 15.675781 80.722656 15.507812 80.722656 15.335938 80.890625 C 15 81.0625 14.660156 81.570312 14.660156 81.402344 C 14.320312 81.0625 13.980469 80.722656 13.644531 80.382812 C 13.644531 80.214844 13.644531 80.214844 13.644531 80.042969 C 14.152344 78.855469 14.660156 77.667969 15.167969 76.480469 C 15.675781 76.3125 15.675781 76.3125 15.675781 76.140625 Z M 15.675781 76.140625 "/>
<path style=" stroke:none;fill-rule:nonzero;fill:rgb(100%,100%,100%);fill-opacity:1;" d="M 7.710938 41.863281 C 6.527344 41.695312 5.339844 41.523438 3.984375 41.355469 C 3.816406 41.355469 3.644531 41.355469 3.644531 41.015625 C 3.816406 40.167969 3.816406 39.996094 4.664062 40.167969 C 6.1875 40.335938 7.710938 40.675781 9.40625 40.84375 C 9.746094 40.84375 9.746094 40.84375 9.746094 41.183594 C 9.578125 42.203125 9.578125 42.203125 8.558594 42.542969 C 7.882812 42.710938 7.375 43.050781 6.695312 43.222656 C 6.019531 43.390625 5.511719 43.558594 4.832031 43.898438 C 5.339844 43.898438 5.847656 44.070312 6.355469 44.070312 C 7.203125 44.238281 7.882812 44.238281 8.730469 44.410156 C 8.898438 44.410156 9.066406 44.578125 9.066406 44.746094 C 8.898438 45.597656 8.898438 45.597656 8.050781 45.597656 C 6.527344 45.257812 5 45.085938 3.308594 44.917969 C 2.96875 44.917969 2.96875 44.746094 2.96875 44.578125 C 2.96875 43.730469 3.476562 43.050781 4.324219 42.882812 C 5.339844 42.542969 6.355469 42.203125 7.375 41.863281 C 7.542969 42.03125 7.710938 42.03125 7.710938 41.863281 Z M 7.710938 41.863281 "/>
<path style=" stroke:none;fill-rule:nonzero;fill:rgb(100%,100%,100%);fill-opacity:1;" d="M 5.171875 57.136719 C 6.019531 56.964844 7.035156 56.796875 7.882812 56.796875 C 8.390625 56.796875 8.898438 56.625 9.40625 56.625 C 9.578125 56.625 9.578125 56.625 9.746094 56.796875 C 9.914062 57.8125 9.914062 57.8125 8.898438 57.984375 C 7.375 58.152344 5.847656 58.324219 4.15625 58.492188 C 3.816406 58.492188 3.816406 58.492188 3.816406 58.152344 C 3.476562 57.476562 3.816406 56.625 4.492188 56.285156 C 5.511719 55.777344 6.355469 54.929688 7.375 54.421875 C 7.035156 54.421875 6.867188 54.589844 6.527344 54.589844 C 5.511719 54.761719 4.664062 54.929688 3.644531 54.929688 C 3.476562 54.929688 3.308594 54.929688 3.308594 54.761719 C 3.136719 53.742188 3.136719 53.910156 4.15625 53.742188 C 5.679688 53.570312 7.203125 53.402344 8.898438 53.0625 C 9.238281 53.0625 9.238281 53.0625 9.238281 53.402344 C 9.578125 54.082031 9.238281 54.761719 8.558594 55.097656 C 7.882812 55.4375 7.375 55.949219 6.695312 56.457031 C 6.019531 56.625 5.679688 56.964844 5.171875 57.136719 Z M 5.171875 57.136719 "/>
<path style=" stroke:none;fill-rule:nonzero;fill:rgb(100%,100%,100%);fill-opacity:1;" d="M 75.144531 15.050781 C 75.316406 14.882812 75.484375 14.710938 75.484375 14.710938 C 75.992188 13.863281 76.671875 12.847656 77.179688 11.996094 C 77.347656 11.828125 77.347656 11.828125 77.519531 11.996094 C 78.367188 12.507812 78.367188 12.507812 77.855469 13.355469 C 77.011719 14.710938 76.164062 15.898438 75.316406 17.257812 C 75.144531 17.425781 75.144531 17.597656 74.808594 17.425781 C 73.960938 16.75 73.960938 16.75 73.960938 15.730469 C 73.960938 14.710938 74.128906 13.355469 74.300781 12.167969 C 74.128906 12.167969 74.128906 12.335938 73.960938 12.507812 C 73.28125 13.523438 72.605469 14.542969 72.097656 15.390625 C 71.925781 15.5625 71.925781 15.730469 71.589844 15.5625 C 70.910156 15.050781 70.910156 15.050781 71.25 14.375 C 72.097656 13.015625 72.945312 11.828125 73.789062 10.46875 C 73.960938 10.300781 74.128906 10.128906 74.300781 10.300781 C 74.46875 10.300781 74.46875 10.46875 74.636719 10.46875 C 75.316406 10.640625 75.316406 11.148438 75.316406 11.828125 C 75.484375 12.675781 75.484375 13.863281 75.144531 15.050781 Z M 75.144531 15.050781 "/>
<path style=" stroke:none;fill-rule:nonzero;fill:rgb(100%,100%,100%);fill-opacity:1;" d="M 95.476562 62.734375 C 93.785156 62.226562 92.089844 61.546875 90.394531 61.039062 C 90.226562 61.039062 90.226562 60.867188 90.054688 61.039062 C 89.546875 62.054688 89.207031 63.074219 89.207031 64.09375 C 89.207031 64.09375 89.207031 64.261719 89.207031 64.433594 L 89.207031 64.601562 C 89.546875 65.789062 90.5625 66.636719 91.75 66.808594 C 92.9375 67.148438 94.121094 66.636719 94.628906 65.621094 C 95.140625 64.773438 95.476562 63.753906 95.648438 62.90625 C 95.648438 62.734375 95.648438 62.734375 95.476562 62.734375 Z M 94.292969 63.921875 C 94.121094 64.773438 93.613281 65.449219 92.765625 65.621094 C 91.75 65.789062 90.902344 65.28125 90.394531 64.433594 C 90.226562 64.261719 90.226562 63.921875 90.226562 63.753906 C 90.226562 63.582031 90.226562 63.582031 90.226562 63.414062 C 90.394531 62.394531 90.394531 62.394531 91.242188 62.734375 C 92.089844 63.074219 92.9375 63.246094 93.785156 63.582031 C 94.292969 63.753906 94.292969 63.753906 94.292969 63.921875 Z M 94.292969 63.921875 "/>
<path style=" stroke:none;fill-rule:nonzero;fill:rgb(100%,100%,100%);fill-opacity:1;" d="M 15.507812 72.40625 C 15.167969 71.390625 14.488281 70.542969 13.8125 69.863281 C 13.304688 69.351562 12.625 69.183594 11.949219 69.183594 C 10.933594 69.183594 10.085938 69.691406 9.40625 70.371094 C 8.898438 70.878906 8.730469 71.730469 8.898438 72.40625 C 9.238281 73.597656 9.746094 74.445312 10.421875 75.460938 C 10.59375 75.632812 10.59375 75.632812 10.761719 75.460938 C 12.289062 74.613281 13.8125 73.765625 15.335938 72.746094 C 15.507812 72.578125 15.507812 72.578125 15.507812 72.40625 Z M 13.8125 72.070312 C 12.796875 72.578125 11.777344 73.257812 10.761719 73.765625 C 10.59375 73.933594 10.421875 73.765625 10.421875 73.597656 C 9.914062 73.085938 9.746094 72.238281 10.085938 71.558594 C 10.421875 70.878906 11.269531 70.371094 11.949219 70.371094 C 12.796875 70.371094 13.644531 70.878906 13.8125 71.730469 C 13.980469 71.898438 13.980469 71.898438 13.8125 72.070312 Z M 13.8125 72.070312 "/>
<path style=" stroke:none;fill-rule:nonzero;fill:rgb(100%,100%,100%);fill-opacity:1;" d="M 89.71875 24.722656 C 88.363281 24.214844 87.007812 24.386719 85.988281 25.402344 C 85.144531 26.082031 84.804688 27.269531 85.3125 28.289062 C 85.652344 29.476562 86.667969 30.15625 87.851562 30.15625 C 89.039062 30.15625 90.226562 29.476562 90.902344 28.457031 C 91.75 27.4375 91.242188 25.574219 89.71875 24.722656 C 89.886719 24.894531 89.71875 24.894531 89.71875 24.722656 Z M 89.546875 28.117188 C 89.039062 28.628906 88.363281 28.964844 87.683594 28.964844 C 87.007812 28.964844 86.328125 28.628906 86.328125 27.949219 C 86.328125 27.609375 86.328125 27.4375 86.5 27.101562 C 87.007812 26.25 87.851562 25.742188 88.871094 25.742188 C 89.378906 25.742188 89.886719 26.082031 90.226562 26.589844 C 90.226562 27.269531 90.054688 27.777344 89.546875 28.117188 Z M 89.546875 28.117188 "/>
<path style=" stroke:none;fill-rule:nonzero;fill:rgb(100%,100%,100%);fill-opacity:1;" d="M 80.398438 14.882812 C 79.382812 14.882812 78.367188 15.5625 77.855469 16.410156 C 77.179688 17.257812 77.179688 18.277344 77.6875 19.125 C 78.195312 20.144531 79.210938 20.820312 80.230469 20.820312 C 81.414062 20.820312 82.601562 20.144531 83.109375 18.953125 C 83.789062 17.597656 83.277344 15.898438 81.921875 15.222656 C 81.414062 15.050781 80.90625 14.882812 80.398438 14.882812 Z M 80.230469 19.632812 C 79.722656 19.632812 79.042969 19.464844 78.875 18.953125 C 78.703125 18.445312 78.703125 17.765625 79.210938 17.257812 C 79.550781 16.917969 79.890625 16.578125 80.230469 16.410156 C 80.566406 16.238281 81.078125 16.070312 81.414062 16.070312 C 81.921875 16.238281 82.433594 16.75 82.433594 17.257812 C 82.09375 18.445312 81.246094 19.464844 80.230469 19.632812 Z M 80.230469 19.632812 "/>
<path style=" stroke:none;fill-rule:nonzero;fill:rgb(100%,100%,100%);fill-opacity:1;" d="M 36.515625 5.210938 C 34.992188 5.210938 33.636719 6.398438 33.636719 7.925781 C 33.464844 9.621094 34.820312 10.980469 36.515625 11.148438 C 38.039062 11.320312 39.394531 10.128906 39.566406 8.605469 L 39.566406 8.433594 C 39.566406 6.738281 38.378906 5.210938 36.515625 5.210938 C 36.683594 5.210938 36.515625 5.210938 36.515625 5.210938 Z M 37.195312 10.128906 C 36.515625 10.300781 35.839844 10.128906 35.5 9.621094 C 34.992188 9.113281 34.820312 8.265625 34.992188 7.585938 C 34.992188 7.078125 35.328125 6.566406 35.839844 6.398438 C 36.347656 6.226562 37.023438 6.398438 37.363281 6.738281 C 37.871094 7.246094 38.039062 7.925781 38.210938 8.605469 C 38.039062 9.453125 37.871094 9.960938 37.195312 10.128906 Z M 37.195312 10.128906 "/>
<path style=" stroke:none;fill-rule:nonzero;fill:rgb(100%,100%,100%);fill-opacity:1;" d="M 72.097656 8.433594 C 72.097656 8.433594 72.097656 8.605469 72.097656 8.433594 C 71.25 10.128906 70.570312 11.828125 69.722656 13.355469 C 69.554688 13.695312 69.554688 13.695312 69.214844 13.523438 C 69.046875 13.355469 68.878906 13.355469 68.707031 13.183594 C 68.199219 13.183594 68.367188 12.847656 68.539062 12.675781 C 68.878906 12.167969 69.046875 11.65625 69.386719 10.980469 C 69.554688 10.808594 69.386719 10.808594 69.214844 10.640625 C 68.707031 10.46875 68.03125 10.128906 67.523438 9.960938 C 67.351562 9.792969 67.351562 9.960938 67.183594 10.128906 C 66.84375 10.640625 66.675781 11.320312 66.335938 11.828125 C 66.167969 11.996094 66.167969 12.167969 65.996094 11.996094 C 65.65625 11.828125 65.320312 11.828125 65.148438 11.488281 C 64.980469 11.148438 65.320312 10.980469 65.488281 10.640625 C 66.167969 9.28125 66.84375 7.925781 67.351562 6.566406 C 67.523438 6.226562 67.691406 6.226562 67.859375 6.398438 C 68.03125 6.566406 68.199219 6.566406 68.367188 6.738281 C 68.707031 6.738281 68.707031 7.078125 68.539062 7.246094 C 68.199219 7.753906 68.03125 8.265625 67.859375 8.773438 C 67.691406 8.941406 67.859375 8.941406 68.03125 9.113281 C 68.539062 9.28125 69.214844 9.621094 69.722656 9.792969 C 69.894531 9.960938 70.0625 9.792969 70.0625 9.621094 C 70.234375 9.113281 70.570312 8.605469 70.742188 8.09375 C 70.910156 7.925781 70.910156 7.753906 71.078125 7.925781 C 71.25 8.09375 71.589844 8.09375 71.757812 8.265625 C 71.925781 8.265625 72.097656 8.265625 72.097656 8.433594 Z M 72.097656 8.433594 "/>
<path style=" stroke:none;fill-rule:nonzero;fill:rgb(100%,100%,100%);fill-opacity:1;" d="M 91.410156 31.171875 C 92.257812 31.171875 93.105469 31.511719 93.613281 32.019531 C 94.292969 32.699219 94.628906 33.71875 94.800781 34.566406 C 94.800781 34.734375 94.800781 34.90625 94.460938 34.90625 C 94.121094 34.90625 93.953125 35.074219 93.785156 34.90625 C 93.613281 34.90625 93.613281 34.566406 93.613281 34.226562 C 93.613281 34.058594 93.445312 33.886719 93.445312 33.71875 C 93.273438 32.871094 92.597656 32.359375 91.75 32.359375 C 90.902344 32.359375 90.054688 32.871094 89.71875 33.71875 C 89.378906 34.398438 89.886719 34.90625 90.054688 35.414062 C 90.054688 35.414062 90.226562 35.585938 90.226562 35.414062 C 90.5625 35.246094 90.902344 35.246094 91.242188 35.074219 C 91.410156 35.074219 91.242188 34.90625 91.242188 34.90625 C 91.242188 34.734375 91.074219 34.566406 91.074219 34.398438 C 91.074219 34.226562 91.074219 34.226562 91.242188 34.058594 C 91.917969 33.71875 91.917969 33.71875 92.257812 34.398438 C 92.429688 34.734375 92.597656 35.074219 92.765625 35.585938 C 92.765625 35.753906 92.765625 35.753906 92.597656 35.925781 C 91.75 36.261719 90.902344 36.601562 90.226562 36.941406 C 90.054688 36.941406 89.886719 36.941406 89.71875 36.773438 C 88.871094 35.753906 88.363281 34.566406 88.53125 33.207031 C 88.699219 32.019531 89.71875 31.34375 90.902344 31.003906 C 91.074219 31.171875 91.242188 31.171875 91.410156 31.171875 Z M 91.410156 31.171875 "/>
<path style=" stroke:none;fill-rule:nonzero;fill:rgb(100%,100%,100%);fill-opacity:1;" d="M 92.765625 69.691406 C 91.410156 69.015625 90.054688 68.335938 88.699219 67.65625 C 87.851562 67.148438 87.851562 67.148438 87.34375 67.996094 C 87.175781 68.335938 87.34375 68.335938 87.515625 68.503906 C 88.023438 68.675781 88.53125 69.015625 89.039062 69.183594 C 89.207031 69.351562 89.378906 69.351562 89.207031 69.523438 C 89.039062 70.03125 88.53125 70.203125 88.023438 70.03125 C 87.683594 69.863281 87.175781 69.863281 86.667969 69.691406 C 86.5 69.691406 86.328125 69.691406 86.328125 69.863281 C 86.160156 70.203125 85.988281 70.542969 85.820312 70.878906 C 86.835938 70.878906 87.851562 71.558594 88.871094 71.050781 C 88.871094 71.21875 88.871094 71.390625 88.871094 71.558594 C 89.207031 72.40625 90.054688 72.917969 90.902344 72.578125 C 91.242188 72.40625 91.582031 72.238281 91.75 72.070312 C 92.257812 71.390625 92.765625 70.710938 92.9375 69.863281 C 93.105469 69.863281 93.105469 69.863281 92.765625 69.691406 Z M 91.582031 70.878906 C 91.410156 71.050781 91.410156 71.390625 91.242188 71.558594 C 91.074219 71.898438 90.734375 71.898438 90.394531 71.730469 C 90.054688 71.558594 89.886719 71.21875 89.886719 70.878906 C 89.886719 70.542969 90.054688 70.203125 90.226562 70.03125 C 90.394531 69.863281 90.394531 70.03125 90.5625 70.03125 C 90.902344 70.203125 91.242188 70.371094 91.582031 70.542969 C 91.582031 70.542969 91.582031 70.542969 91.582031 70.878906 Z M 91.582031 70.878906 "/>
<path style=" stroke:none;fill-rule:nonzero;fill:rgb(100%,100%,100%);fill-opacity:1;" d="M 21.773438 19.632812 C 21.605469 20.480469 21.097656 21.332031 20.25 21.667969 C 19.574219 22.007812 18.726562 22.007812 18.046875 21.5 C 17.707031 21.332031 17.371094 20.992188 17.199219 20.652344 C 16.523438 19.972656 15.84375 19.464844 15.167969 18.785156 C 15 18.617188 15 18.445312 15.167969 18.277344 C 15.84375 17.425781 15.84375 17.425781 16.691406 18.277344 C 17.199219 18.785156 17.878906 19.464844 18.386719 19.972656 C 18.554688 20.144531 18.894531 20.480469 19.234375 20.480469 C 19.574219 20.652344 20.082031 20.480469 20.25 20.3125 C 20.589844 19.972656 20.589844 19.632812 20.417969 19.125 C 20.25 18.785156 20.082031 18.445312 19.742188 18.277344 C 19.0625 17.597656 18.386719 16.917969 17.707031 16.238281 C 17.539062 16.070312 17.539062 15.898438 17.707031 15.730469 C 18.386719 15.050781 18.386719 15.050781 19.0625 15.730469 C 19.742188 16.410156 20.25 16.917969 20.929688 17.597656 C 21.4375 18.277344 21.773438 18.953125 21.773438 19.632812 Z M 21.773438 19.632812 "/>
<path style=" stroke:none;fill-rule:nonzero;fill:rgb(100%,100%,100%);fill-opacity:1;" d="M 11.269531 64.09375 C 11.269531 63.921875 11.269531 63.921875 11.101562 63.753906 C 10.933594 63.074219 10.933594 63.074219 10.085938 63.074219 C 9.914062 63.074219 9.746094 63.074219 9.578125 63.074219 C 9.40625 63.074219 9.238281 63.074219 9.238281 62.90625 C 9.066406 62.566406 9.066406 62.226562 8.898438 61.886719 C 8.730469 61.71875 8.898438 61.546875 9.066406 61.378906 C 9.40625 61.207031 9.578125 61.039062 9.914062 60.867188 C 10.085938 60.699219 10.085938 60.699219 10.085938 60.53125 C 9.914062 60.191406 9.914062 59.851562 9.746094 59.339844 C 8.050781 60.53125 6.355469 61.546875 4.664062 62.566406 C 4.492188 62.734375 4.492188 62.734375 4.492188 62.90625 C 4.664062 63.246094 4.832031 63.753906 4.832031 64.09375 C 4.832031 64.433594 5 64.433594 5.171875 64.433594 C 5.679688 64.433594 6.1875 64.433594 6.695312 64.433594 L 10.761719 64.433594 C 11.269531 64.261719 11.441406 64.261719 11.269531 64.09375 Z M 6.019531 63.074219 L 8.050781 61.71875 C 8.222656 62.054688 8.222656 62.566406 8.390625 62.90625 C 7.710938 63.074219 6.867188 63.074219 6.019531 63.074219 Z M 6.019531 63.074219 "/>
<path style=" stroke:none;fill-rule:nonzero;fill:rgb(100%,100%,100%);fill-opacity:1;" d="M 88.363281 75.800781 C 87.34375 74.445312 86.328125 73.085938 85.3125 71.898438 C 85.144531 72.238281 84.972656 72.40625 84.804688 72.746094 C 84.632812 73.085938 84.632812 73.085938 84.804688 73.425781 C 85.144531 73.765625 85.480469 73.933594 85.480469 74.273438 C 85.480469 74.613281 85.144531 74.953125 84.804688 75.292969 C 84.632812 75.632812 84.464844 75.632812 83.957031 75.632812 C 82.941406 75.292969 82.941406 75.292969 82.433594 76.140625 C 82.261719 76.480469 82.261719 76.480469 82.601562 76.648438 C 84.296875 77.160156 85.820312 77.667969 87.515625 78.347656 C 87.851562 78.515625 88.191406 78.515625 88.363281 78.007812 C 88.53125 77.667969 89.039062 77.328125 89.039062 76.988281 C 88.871094 76.480469 88.53125 76.140625 88.363281 75.800781 Z M 87.515625 76.820312 L 85.480469 75.972656 C 85.652344 75.632812 85.820312 75.460938 86.160156 75.121094 C 86.328125 74.953125 86.328125 74.953125 86.5 75.121094 C 86.667969 75.632812 87.175781 76.140625 87.515625 76.820312 Z M 87.515625 76.820312 "/>
<path style=" stroke:none;fill-rule:nonzero;fill:rgb(100%,100%,100%);fill-opacity:1;" d="M 96.664062 56.964844 C 96.324219 56.796875 95.984375 56.625 95.476562 56.457031 L 91.242188 54.421875 C 91.242188 54.761719 91.074219 54.929688 91.074219 55.269531 C 90.902344 55.609375 91.074219 55.777344 91.410156 55.949219 C 92.429688 56.285156 92.429688 56.285156 92.257812 57.476562 C 92.257812 57.984375 92.089844 58.152344 91.582031 58.152344 C 90.5625 58.152344 90.5625 58.324219 90.394531 59.339844 C 90.394531 59.511719 90.394531 59.679688 90.734375 59.679688 C 92.429688 59.339844 94.292969 59.171875 95.984375 59.003906 C 96.324219 59.003906 96.496094 58.832031 96.496094 58.492188 C 96.496094 58.152344 96.664062 57.8125 96.664062 57.476562 C 97.003906 57.136719 96.832031 56.964844 96.664062 56.964844 C 96.832031 56.964844 96.832031 56.964844 96.664062 56.964844 Z M 93.613281 57.984375 C 93.445312 57.984375 93.445312 57.984375 93.445312 57.8125 C 93.445312 57.476562 93.613281 57.136719 93.613281 56.796875 L 95.816406 57.8125 C 94.96875 57.8125 94.292969 57.8125 93.613281 57.984375 Z M 93.613281 57.984375 "/>
<path style=" stroke:none;fill-rule:nonzero;fill:rgb(100%,100%,100%);fill-opacity:1;" d="M 58.371094 4.871094 C 57.695312 4.871094 57.1875 4.699219 56.679688 4.699219 C 56.339844 4.699219 56.339844 4.699219 56.339844 5.039062 C 56.167969 5.886719 56.167969 5.886719 57.015625 6.058594 C 57.355469 6.058594 57.523438 6.058594 57.863281 6.226562 C 58.035156 6.226562 58.371094 6.226562 58.371094 6.398438 C 58.371094 6.738281 58.371094 7.078125 58.203125 7.246094 C 58.203125 7.414062 58.035156 7.246094 57.863281 7.246094 C 57.355469 7.246094 56.847656 7.078125 56.339844 7.078125 C 56.167969 7.078125 56 7.078125 56 7.246094 C 55.832031 8.433594 55.832031 8.433594 56.847656 8.605469 C 57.1875 8.605469 57.695312 8.773438 58.035156 8.773438 C 58.203125 8.773438 58.203125 8.773438 58.203125 8.941406 C 58.203125 9.28125 58.203125 9.453125 58.035156 9.792969 C 58.035156 9.960938 57.863281 9.960938 57.695312 9.960938 C 56.679688 9.792969 55.492188 9.621094 54.476562 9.453125 C 54.304688 9.453125 54.304688 9.28125 54.304688 9.113281 C 54.476562 7.585938 54.8125 5.886719 54.984375 4.359375 C 55.152344 3.511719 55.152344 3.511719 55.832031 3.683594 C 56.679688 3.851562 57.523438 3.851562 58.371094 4.023438 C 58.542969 4.023438 58.710938 4.191406 58.710938 4.359375 C 58.710938 4.53125 58.710938 4.53125 58.710938 4.699219 C 58.878906 4.871094 58.710938 5.039062 58.371094 4.871094 Z M 58.371094 4.871094 "/>
<path style=" stroke:none;fill-rule:nonzero;fill:rgb(100%,100%,100%);fill-opacity:1;" d="M 28.550781 8.265625 C 28.722656 8.265625 28.722656 8.433594 28.890625 8.605469 C 29.230469 9.28125 29.230469 9.28125 28.722656 9.621094 C 28.382812 9.792969 27.875 10.128906 27.535156 10.300781 C 27.367188 10.300781 27.367188 10.46875 27.367188 10.640625 C 27.875 11.488281 27.875 11.488281 28.722656 10.980469 C 28.890625 10.980469 29.0625 10.808594 29.0625 10.808594 C 29.738281 10.46875 29.738281 10.46875 30.078125 11.148438 C 30.246094 11.320312 30.246094 11.488281 29.90625 11.488281 C 29.398438 11.828125 28.890625 11.996094 28.550781 12.335938 C 28.382812 12.507812 28.382812 12.507812 28.382812 12.675781 C 28.550781 13.015625 28.722656 13.523438 28.890625 13.523438 C 29.0625 13.523438 29.570312 13.183594 29.738281 13.015625 C 29.90625 12.847656 30.417969 12.675781 30.753906 12.507812 C 30.925781 12.507812 30.925781 12.507812 31.09375 12.507812 C 31.601562 13.183594 31.601562 13.183594 30.753906 13.695312 L 28.722656 14.882812 C 28.214844 15.222656 28.214844 15.222656 28.042969 14.710938 C 27.535156 13.863281 27.195312 13.015625 26.6875 12.335938 C 26.351562 11.65625 25.839844 10.980469 25.503906 10.300781 C 25.332031 10.128906 25.332031 9.960938 25.503906 9.960938 C 26.519531 9.453125 27.367188 8.941406 28.550781 8.265625 Z M 28.550781 8.265625 "/>
<path style=" stroke:none;fill-rule:nonzero;fill:rgb(100%,100%,100%);fill-opacity:1;" d="M 10.933594 37.28125 C 10.933594 37.960938 10.59375 38.808594 10.085938 39.316406 C 9.914062 39.488281 9.746094 39.488281 9.578125 39.316406 C 9.40625 39.148438 9.066406 39.148438 9.066406 38.976562 C 9.066406 38.808594 9.238281 38.640625 9.40625 38.46875 C 9.578125 38.128906 9.746094 37.789062 9.746094 37.453125 C 9.746094 37.113281 9.746094 36.941406 9.40625 36.773438 C 9.238281 36.601562 8.898438 36.773438 8.730469 36.941406 C 8.390625 37.28125 8.222656 37.453125 8.050781 37.789062 C 7.710938 38.300781 6.867188 38.640625 6.019531 38.300781 C 5.171875 37.960938 4.664062 36.941406 5 36.09375 C 5.171875 35.585938 5.339844 35.074219 5.679688 34.566406 C 5.847656 34.398438 5.847656 34.398438 6.019531 34.566406 C 6.1875 34.734375 6.527344 34.90625 6.695312 35.074219 C 6.867188 35.246094 6.527344 35.414062 6.355469 35.753906 C 6.1875 36.09375 6.1875 36.261719 6.019531 36.601562 C 6.019531 36.773438 6.019531 37.113281 6.355469 37.113281 C 6.527344 37.28125 6.867188 37.113281 7.035156 36.941406 C 7.375 36.601562 7.542969 36.261719 7.882812 36.09375 C 8.222656 35.585938 8.898438 35.246094 9.40625 35.414062 C 10.421875 35.414062 11.101562 36.09375 10.933594 37.28125 Z M 10.933594 37.28125 "/>
<path style=" stroke:none;fill-rule:nonzero;fill:rgb(100%,100%,100%);fill-opacity:1;" d="M 82.261719 78.175781 C 81.921875 78.347656 81.585938 78.515625 81.246094 78.855469 C 81.078125 79.027344 80.90625 79.195312 80.738281 79.367188 C 80.566406 79.535156 80.566406 79.875 80.738281 80.042969 C 80.90625 80.214844 81.246094 80.382812 81.414062 80.214844 C 81.585938 80.214844 81.753906 80.042969 82.09375 80.042969 C 82.433594 79.875 82.601562 79.703125 82.941406 79.703125 C 83.449219 79.535156 84.125 79.703125 84.632812 80.214844 C 84.972656 80.722656 85.144531 81.402344 84.972656 81.910156 C 84.632812 82.757812 83.957031 83.4375 83.277344 83.777344 C 83.109375 83.945312 83.109375 83.777344 82.941406 83.609375 C 82.769531 83.4375 82.601562 83.097656 82.601562 82.929688 C 82.601562 82.589844 82.941406 82.589844 83.109375 82.417969 C 83.277344 82.25 83.617188 82.082031 83.789062 81.742188 C 83.957031 81.570312 83.957031 81.230469 83.789062 81.0625 C 83.617188 80.890625 83.449219 80.890625 83.109375 80.890625 C 82.769531 81.0625 82.261719 81.230469 81.753906 81.402344 C 81.246094 81.742188 80.566406 81.570312 80.058594 81.230469 C 79.382812 80.722656 79.210938 80.042969 79.550781 79.367188 C 79.890625 78.515625 80.566406 77.667969 81.414062 77.328125 C 81.585938 77.328125 81.585938 77.328125 81.753906 77.328125 C 81.921875 77.667969 82.09375 78.007812 82.261719 78.175781 Z M 82.261719 78.175781 "/>
<path style=" stroke:none;fill-rule:nonzero;fill:rgb(100%,100%,100%);fill-opacity:1;" d="M 64.8125 6.566406 C 64.300781 6.226562 63.625 6.058594 63.117188 6.058594 C 62.777344 6.058594 62.609375 6.058594 62.4375 6.226562 C 61.761719 6.738281 61.421875 7.585938 61.421875 8.433594 C 61.589844 9.28125 62.101562 9.792969 62.777344 9.960938 C 62.945312 9.960938 63.285156 10.128906 63.457031 10.128906 C 63.792969 10.128906 63.792969 10.300781 63.792969 10.46875 C 63.792969 11.148438 63.792969 11.148438 62.945312 11.148438 C 62.609375 11.148438 62.101562 10.980469 61.761719 10.808594 C 60.574219 10.46875 59.898438 9.453125 59.898438 8.265625 C 59.898438 6.90625 60.574219 5.71875 61.761719 5.210938 C 62.945312 4.871094 64.132812 4.871094 65.148438 5.550781 C 65.320312 5.71875 65.320312 5.71875 65.148438 5.886719 C 65.148438 6.058594 64.980469 6.398438 64.8125 6.566406 Z M 64.8125 6.566406 "/>
<path style=" stroke:none;fill-rule:nonzero;fill:rgb(100%,100%,100%);fill-opacity:1;" d="M 41.769531 9.792969 C 41.597656 9.792969 41.597656 9.621094 41.769531 9.792969 C 41.261719 7.925781 41.089844 6.398438 40.75 4.699219 C 40.582031 4.023438 40.582031 4.023438 41.261719 4.023438 C 42.105469 3.851562 42.953125 3.683594 43.800781 3.511719 C 43.972656 3.511719 44.140625 3.511719 44.140625 3.683594 C 44.308594 4.53125 44.308594 4.53125 43.460938 4.53125 C 43.125 4.53125 42.617188 4.699219 42.277344 4.699219 C 41.9375 4.699219 41.9375 4.871094 42.105469 5.039062 C 42.105469 5.210938 42.277344 5.550781 42.277344 5.71875 C 42.277344 6.058594 42.445312 6.058594 42.785156 6.058594 C 43.292969 5.886719 43.800781 5.886719 44.308594 5.886719 C 44.480469 5.886719 44.648438 5.886719 44.648438 6.058594 C 44.816406 6.90625 44.816406 6.90625 43.972656 7.078125 C 43.632812 7.078125 43.292969 7.246094 43.125 7.246094 C 42.785156 7.246094 42.785156 7.414062 42.785156 7.753906 C 42.953125 8.265625 42.953125 8.773438 43.125 9.453125 C 43.125 9.621094 43.125 9.792969 42.785156 9.792969 C 42.277344 9.792969 42.105469 9.792969 41.769531 9.792969 Z M 41.769531 9.792969 "/>
<path style=" stroke:none;fill-rule:nonzero;fill:rgb(100%,100%,100%);fill-opacity:1;" d="M 93.785156 39.996094 L 96.15625 40.335938 C 96.324219 40.335938 96.324219 40.335938 96.496094 40.503906 C 96.664062 40.84375 96.664062 41.355469 96.832031 41.863281 C 95.984375 41.695312 95.308594 41.523438 94.460938 41.183594 C 93.445312 40.84375 92.429688 40.84375 91.410156 41.183594 C 90.5625 41.523438 90.5625 41.355469 90.394531 40.503906 C 90.226562 40.167969 90.394531 39.996094 90.734375 39.996094 L 90.902344 39.996094 C 92.089844 39.828125 93.273438 39.316406 94.121094 38.300781 C 94.628906 37.789062 95.140625 37.453125 95.648438 36.941406 C 95.816406 37.28125 95.816406 37.789062 95.984375 38.128906 C 96.15625 38.300781 95.984375 38.640625 95.816406 38.640625 C 95.140625 39.148438 94.460938 39.65625 93.785156 39.996094 Z M 93.785156 39.996094 "/>
<path style=" stroke:none;fill-rule:nonzero;fill:rgb(100%,100%,100%);fill-opacity:1;" d="M 17.371094 25.234375 C 17.199219 25.574219 16.863281 25.914062 16.691406 26.25 C 16.691406 26.25 16.523438 26.25 16.523438 26.082031 C 15.335938 25.402344 14.320312 24.554688 13.132812 23.707031 C 12.796875 23.535156 12.625 23.535156 12.625 23.875 C 12.625 24.046875 12.457031 24.046875 12.457031 24.214844 C 12.289062 24.386719 12.117188 24.722656 11.949219 24.722656 C 11.609375 24.554688 11.441406 24.386719 11.101562 24.214844 C 10.933594 24.214844 11.101562 24.046875 11.101562 24.046875 C 11.949219 22.859375 12.796875 21.839844 13.472656 20.652344 C 13.644531 20.480469 13.644531 20.480469 13.8125 20.652344 C 13.980469 20.820312 14.152344 20.992188 14.320312 20.992188 C 14.488281 21.160156 14.488281 21.160156 14.320312 21.332031 C 14.152344 21.667969 13.980469 21.839844 13.644531 22.179688 C 13.472656 22.347656 13.472656 22.519531 13.644531 22.6875 C 14.828125 23.535156 15.84375 24.386719 17.03125 25.234375 C 17.371094 25.0625 17.371094 25.0625 17.371094 25.234375 Z M 17.371094 25.234375 "/>
<path style=" stroke:none;fill-rule:nonzero;fill:rgb(100%,100%,100%);fill-opacity:1;" d="M 50.238281 6.566406 C 50.238281 5.886719 50.238281 5.210938 50.238281 4.53125 C 50.238281 4.359375 50.238281 4.191406 49.902344 4.191406 C 49.5625 4.191406 49.222656 4.191406 48.882812 4.191406 C 48.714844 4.191406 48.546875 4.191406 48.714844 4.023438 C 48.714844 3.171875 48.714844 3.171875 49.5625 3.171875 C 50.75 3.171875 51.765625 3.171875 52.949219 3.171875 C 53.289062 3.171875 53.289062 3.171875 53.289062 3.511719 C 53.289062 4.359375 53.289062 4.359375 52.441406 4.359375 C 51.59375 4.359375 51.59375 4.359375 51.59375 5.210938 C 51.59375 6.398438 51.59375 7.585938 51.59375 8.773438 C 51.59375 8.941406 51.59375 9.113281 51.257812 9.113281 C 50.238281 9.113281 50.238281 9.113281 50.238281 8.09375 C 50.238281 7.585938 50.238281 7.078125 50.238281 6.566406 Z M 50.238281 6.566406 "/>
<path style=" stroke:none;fill-rule:nonzero;fill:rgb(100%,100%,100%);fill-opacity:1;" d="M 7.375 32.871094 C 7.035156 32.699219 6.867188 32.53125 6.527344 32.53125 C 6.355469 32.53125 6.527344 32.359375 6.527344 32.191406 C 7.035156 31.003906 7.710938 29.644531 8.222656 28.457031 C 8.222656 28.289062 8.390625 28.289062 8.558594 28.289062 C 9.40625 28.628906 9.40625 28.628906 9.066406 29.476562 C 8.730469 30.15625 8.730469 30.15625 9.40625 30.492188 C 10.59375 31.003906 11.609375 31.511719 12.796875 32.019531 C 12.964844 32.191406 13.132812 32.191406 12.964844 32.359375 C 12.796875 32.699219 12.796875 33.039062 12.457031 33.207031 C 12.117188 33.378906 11.949219 33.039062 11.609375 32.871094 C 10.59375 32.359375 9.578125 31.851562 8.390625 31.34375 C 8.222656 31.171875 8.050781 31.34375 8.050781 31.511719 C 7.882812 31.851562 7.710938 32.191406 7.710938 32.53125 C 7.542969 32.699219 7.542969 32.871094 7.375 32.871094 Z M 7.375 32.871094 "/>
<path style=" stroke:none;fill-rule:nonzero;fill:rgb(100%,100%,100%);fill-opacity:1;" d="M 24.824219 17.597656 C 24.824219 17.597656 24.65625 17.425781 24.65625 17.257812 L 22.285156 14.203125 C 21.945312 13.695312 21.945312 13.695312 21.605469 14.035156 C 21.4375 14.203125 21.097656 14.375 20.929688 14.542969 C 20.757812 14.710938 20.757812 14.710938 20.589844 14.542969 C 20.082031 13.863281 20.082031 13.863281 20.757812 13.355469 C 21.605469 12.675781 22.621094 11.996094 23.46875 11.320312 C 23.640625 11.148438 23.808594 11.148438 23.808594 11.320312 C 24.316406 11.996094 24.316406 11.996094 23.640625 12.507812 C 22.960938 13.015625 22.960938 13.015625 23.46875 13.695312 C 24.148438 14.710938 24.996094 15.730469 25.671875 16.578125 C 25.839844 16.75 25.839844 16.917969 25.671875 17.089844 C 25.503906 17.257812 25.332031 17.425781 24.824219 17.597656 C 24.996094 17.597656 24.996094 17.597656 24.824219 17.597656 Z M 24.824219 17.597656 "/>
<path style=" stroke:none;fill-rule:nonzero;fill:rgb(100%,100%,100%);fill-opacity:1;" d="M 85.988281 19.464844 C 85.988281 19.464844 86.160156 19.464844 85.988281 19.464844 C 86.328125 19.804688 86.667969 20.144531 86.835938 20.3125 C 87.007812 20.480469 86.835938 20.480469 86.667969 20.652344 C 85.652344 21.5 84.464844 22.347656 83.449219 23.195312 C 83.277344 23.367188 83.277344 23.535156 83.449219 23.707031 C 83.789062 24.214844 84.125 24.554688 84.464844 25.0625 C 84.632812 25.234375 84.632812 25.234375 84.464844 25.402344 C 83.789062 25.914062 83.789062 25.914062 83.277344 25.234375 C 82.769531 24.554688 82.261719 23.875 81.753906 23.195312 C 81.585938 23.027344 81.585938 23.027344 81.753906 22.859375 C 82.941406 21.839844 84.464844 20.652344 85.988281 19.464844 C 85.820312 19.464844 85.988281 19.464844 85.988281 19.464844 Z M 85.988281 19.464844 "/>
<path style=" stroke:none;fill-rule:nonzero;fill:rgb(100%,100%,100%);fill-opacity:1;" d="M 3.308594 48.820312 C 3.136719 48.820312 2.96875 48.652344 2.96875 48.480469 C 2.96875 47.464844 2.96875 47.464844 3.984375 47.464844 C 5.511719 47.632812 7.035156 47.632812 8.730469 47.632812 C 9.066406 47.632812 9.066406 47.632812 9.066406 47.972656 C 9.066406 48.140625 9.066406 48.3125 9.066406 48.3125 C 9.066406 48.992188 9.066406 48.992188 8.390625 48.820312 C 7.542969 48.820312 6.867188 48.820312 6.019531 48.652344 Z M 3.308594 48.820312 "/>
<path style=" stroke:none;fill-rule:nonzero;fill:rgb(100%,100%,100%);fill-opacity:1;" d="M 15 28.628906 C 14.828125 28.964844 14.660156 29.304688 14.320312 29.644531 C 14.320312 29.816406 14.152344 29.644531 14.152344 29.644531 C 12.625 28.796875 11.101562 27.777344 9.40625 26.929688 C 9.238281 26.929688 9.238281 26.761719 9.238281 26.589844 C 9.746094 25.742188 9.746094 25.742188 10.59375 26.25 C 11.949219 27.101562 13.132812 27.777344 14.488281 28.628906 C 14.828125 28.457031 15 28.457031 15 28.628906 Z M 15 28.628906 "/>
<path style=" stroke:none;fill-rule:nonzero;fill:rgb(100%,100%,100%);fill-opacity:1;" d="M 12.457031 66.636719 C 12.457031 66.808594 12.289062 66.808594 12.457031 66.636719 C 10.59375 67.488281 8.898438 68.164062 7.375 68.84375 C 7.203125 68.84375 7.035156 68.84375 7.035156 68.675781 C 6.527344 67.65625 6.527344 67.65625 7.542969 67.316406 C 8.898438 66.808594 10.421875 66.128906 11.777344 65.449219 C 12.117188 65.28125 12.117188 65.449219 12.289062 65.621094 C 12.117188 65.960938 12.289062 66.300781 12.457031 66.636719 Z M 12.457031 66.636719 "/>
<path style=" stroke:none;fill-rule:nonzero;fill:rgb(100%,100%,100%);fill-opacity:1;" d="M 21.945312 79.875 C 21.945312 80.042969 21.773438 80.042969 21.945312 79.875 C 20.589844 81.402344 19.234375 82.589844 18.046875 83.945312 C 17.878906 84.117188 17.707031 84.117188 17.707031 83.945312 C 17.539062 83.609375 17.03125 83.4375 17.03125 83.269531 C 17.03125 83.097656 17.371094 82.757812 17.707031 82.589844 C 18.726562 81.570312 19.910156 80.382812 20.929688 79.367188 C 21.097656 79.195312 21.265625 79.195312 21.4375 79.367188 C 21.605469 79.535156 21.773438 79.703125 21.945312 79.875 C 21.773438 79.703125 21.773438 79.703125 21.945312 79.875 Z M 21.945312 79.875 "/>
<path style=" stroke:none;fill-rule:nonzero;fill:rgb(100%,100%,100%);fill-opacity:1;" d="M 23.128906 86.152344 C 22.621094 86.152344 22.285156 85.8125 22.285156 85.304688 C 22.285156 84.796875 22.621094 84.457031 23.128906 84.457031 C 23.640625 84.457031 23.976562 84.796875 23.976562 85.304688 C 23.976562 85.8125 23.640625 86.152344 23.128906 86.152344 Z M 23.128906 86.152344 "/>
<path style=" stroke:none;fill-rule:nonzero;fill:rgb(100%,100%,100%);fill-opacity:1;" d="M 77.347656 86.152344 C 76.839844 86.152344 76.5 85.8125 76.5 85.304688 C 76.5 84.796875 76.839844 84.457031 77.347656 84.457031 C 77.855469 84.457031 78.195312 84.796875 78.195312 85.304688 C 78.195312 85.8125 77.855469 86.152344 77.347656 86.152344 Z M 77.347656 86.152344 "/>
<path style=" stroke:none;fill-rule:nonzero;fill:rgb(98.823529%,98.823529%,99.607843%);fill-opacity:1;" d="M 64.640625 87.171875 C 64.980469 87.171875 65.148438 87.339844 65.488281 87.511719 L 65.65625 87.679688 L 65.488281 87.679688 C 64.980469 87.511719 64.640625 87.679688 64.472656 88.1875 C 64.300781 88.699219 64.472656 89.039062 64.980469 89.378906 C 65.148438 89.378906 65.320312 89.378906 65.148438 89.714844 C 64.980469 90.054688 64.8125 89.714844 64.8125 89.714844 C 64.472656 89.546875 64.300781 89.378906 63.964844 89.039062 C 63.625 88.699219 63.625 88.359375 63.792969 87.851562 C 63.792969 87.339844 64.300781 87.171875 64.640625 87.171875 Z M 64.640625 87.171875 "/>
<path style=" stroke:none;fill-rule:nonzero;fill:rgb(98.823529%,98.823529%,99.607843%);fill-opacity:1;" d="M 43.292969 90.394531 C 43.292969 89.886719 43.632812 89.378906 44.140625 89.378906 C 44.648438 89.378906 45.328125 89.714844 45.496094 90.226562 L 45.496094 90.394531 C 45.496094 90.566406 45.328125 90.394531 45.328125 90.394531 C 45.15625 90.226562 44.816406 90.054688 44.648438 90.054688 C 44.140625 90.054688 43.800781 90.566406 43.972656 91.074219 C 43.972656 91.242188 43.972656 91.242188 43.972656 91.414062 C 43.972656 91.582031 44.140625 91.582031 44.140625 91.753906 C 44.140625 91.921875 44.140625 91.921875 44.140625 91.921875 C 44.140625 91.921875 43.972656 91.921875 43.972656 91.753906 C 43.460938 91.242188 43.292969 90.734375 43.292969 90.394531 Z M 43.292969 90.394531 "/>
<path style=" stroke:none;fill-rule:nonzero;fill:rgb(76.078433%,61.56863%,60.784316%);fill-opacity:1;" d="M 60.914062 96.164062 C 61.082031 96.164062 60.914062 95.996094 61.082031 95.824219 C 61.082031 95.824219 61.082031 95.996094 60.914062 96.164062 Z M 60.914062 96.164062 "/>
<path style=" stroke:none;fill-rule:nonzero;fill:rgb(83.92157%,65.098041%,30.980393%);fill-opacity:1;" d="M 88.363281 49.839844 C 88.363281 55.269531 87.34375 60.53125 85.144531 65.449219 C 83.789062 68.675781 81.753906 71.730469 79.550781 74.445312 C 74.128906 80.890625 66.675781 85.304688 58.371094 87 C 47.359375 89.378906 36.007812 86.832031 27.027344 79.875 C 22.453125 76.3125 18.726562 71.898438 16.183594 66.808594 C 14.152344 62.90625 12.796875 58.664062 12.457031 54.25 C 11.609375 47.125 12.796875 39.996094 15.84375 33.546875 C 18.21875 28.457031 21.945312 23.875 26.351562 20.3125 C 29.398438 17.765625 32.957031 15.730469 36.855469 14.375 C 43.632812 11.828125 51.085938 11.320312 58.035156 12.675781 C 66.167969 14.375 73.453125 18.617188 78.875 24.722656 C 83.617188 29.984375 86.667969 36.261719 87.851562 43.222656 C 88.191406 45.597656 88.363281 47.800781 88.363281 49.839844 Z M 88.363281 49.839844 "/>
<path style=" stroke:none;fill-rule:nonzero;fill:rgb(39.215687%,8.235294%,7.843138%);fill-opacity:1;" d="M 58.203125 93.957031 C 58.203125 94.128906 58.203125 94.296875 58.203125 94.296875 C 58.035156 94.296875 58.035156 94.128906 58.203125 93.957031 Z M 58.203125 93.957031 "/>
<path style=" stroke:none;fill-rule:nonzero;fill:rgb(100%,100%,100%);fill-opacity:1;" d="M 58.203125 93.957031 C 58.203125 94.128906 58.203125 94.296875 58.203125 94.296875 C 57.863281 94.296875 57.863281 94.128906 58.203125 93.957031 Z M 58.203125 93.957031 "/>
<path style=" stroke:none;fill-rule:nonzero;fill:rgb(9.411765%,7.843138%,7.058824%);fill-opacity:1;" d="M 50.410156 73.597656 C 45.835938 73.597656 41.429688 72.917969 37.195312 71.21875 C 33.128906 69.691406 29.570312 67.316406 26.519531 64.09375 C 24.484375 61.886719 22.960938 59.339844 22.113281 56.457031 C 21.945312 55.949219 22.113281 55.269531 22.621094 54.761719 C 23.128906 54.25 23.640625 53.910156 24.316406 53.742188 C 26.351562 52.894531 28.382812 52.382812 30.417969 51.875 C 33.972656 51.195312 37.53125 50.6875 41.089844 50.515625 C 41.429688 50.515625 41.429688 50.347656 41.261719 50.179688 C 40.414062 48.3125 39.90625 46.273438 39.734375 44.238281 C 39.394531 41.015625 39.734375 37.789062 40.75 34.734375 C 41.597656 31.851562 42.953125 28.964844 44.648438 26.589844 C 45.496094 25.234375 46.34375 23.875 47.191406 22.519531 C 48.375 20.652344 49.222656 18.617188 49.5625 16.410156 C 49.5625 16.070312 49.730469 16.070312 49.902344 16.070312 C 50.578125 16.070312 50.578125 16.070312 50.578125 16.75 C 51.085938 19.125 51.933594 21.332031 53.289062 23.367188 C 54.304688 25.0625 55.492188 26.761719 56.507812 28.457031 C 57.015625 29.136719 57.355469 29.984375 57.695312 30.664062 C 59.050781 33.039062 59.898438 35.753906 60.234375 38.46875 C 60.914062 42.371094 60.40625 46.445312 58.878906 50.179688 C 58.710938 50.6875 58.710938 50.6875 59.21875 50.6875 C 63.625 51.027344 68.199219 51.707031 72.433594 52.722656 C 73.789062 53.0625 74.976562 53.570312 76.164062 54.082031 C 76.839844 54.421875 77.519531 54.929688 77.6875 55.777344 C 77.6875 55.949219 77.6875 56.117188 77.6875 56.285156 C 76.671875 59.851562 74.636719 63.246094 71.925781 65.789062 C 70.910156 66.808594 69.722656 67.65625 68.539062 68.503906 C 64.8125 70.878906 60.914062 72.40625 56.679688 73.085938 C 56 73.257812 55.324219 73.257812 54.476562 73.425781 C 53.289062 73.597656 51.933594 73.765625 50.410156 73.597656 Z M 50.410156 73.597656 "/>
<path style=" stroke:none;fill-rule:nonzero;fill:rgb(100%,100%,100%);fill-opacity:1;" d="M 29.90625 73.765625 C 31.261719 73.933594 32.617188 74.273438 33.972656 74.445312 C 36.855469 74.953125 39.734375 75.460938 42.617188 75.972656 C 42.785156 75.972656 42.953125 75.972656 43.125 76.140625 L 41.597656 77.839844 L 55.324219 79.027344 L 53.96875 80.214844 L 67.011719 80.722656 L 67.011719 80.890625 L 49.5625 82.589844 L 51.765625 80.554688 L 37.53125 79.195312 L 39.90625 77.5 Z M 29.90625 73.765625 "/>
<path style=" stroke:none;fill-rule:nonzero;fill:rgb(94.901961%,88.235295%,77.254903%);fill-opacity:1;" d="M 29.90625 73.765625 L 29.570312 73.765625 C 29.570312 73.597656 29.738281 73.597656 29.90625 73.765625 Z M 29.90625 73.765625 "/>
<path style=" stroke:none;fill-rule:nonzero;fill:rgb(47.058824%,11.764706%,9.803922%);fill-opacity:1;" d="M 23.976562 57.984375 C 25.671875 58.492188 27.535156 59.003906 29.230469 59.339844 C 30.753906 59.679688 32.28125 59.851562 33.804688 60.019531 C 35.667969 60.191406 37.53125 60.359375 39.394531 60.359375 C 41.9375 60.359375 44.308594 59.851562 46.683594 59.339844 C 47.867188 59.003906 48.882812 58.832031 49.902344 58.324219 C 50.070312 58.324219 50.238281 58.324219 50.410156 58.324219 C 52.613281 59.171875 54.8125 59.679688 57.015625 60.019531 C 58.035156 60.191406 59.050781 60.191406 60.066406 60.359375 C 61.253906 60.53125 62.4375 60.359375 63.625 60.359375 C 65.148438 60.191406 66.675781 60.019531 68.03125 59.851562 C 70.0625 59.511719 72.097656 59.171875 74.128906 58.664062 C 74.808594 58.492188 75.316406 58.324219 75.992188 57.984375 C 75.824219 58.664062 75.484375 59.339844 75.144531 59.851562 C 73.453125 62.90625 71.078125 65.449219 68.199219 67.316406 C 64.8125 69.691406 60.914062 71.21875 56.847656 72.070312 C 54.984375 72.40625 53.121094 72.578125 51.257812 72.746094 C 49.054688 72.917969 47.019531 72.746094 44.816406 72.40625 C 41.769531 72.070312 38.71875 71.21875 35.839844 70.03125 C 33.296875 69.015625 30.925781 67.65625 28.890625 65.789062 C 27.707031 64.773438 26.6875 63.753906 25.671875 62.566406 C 25.503906 61.207031 24.65625 59.679688 23.976562 57.984375 C 23.976562 58.152344 23.976562 57.984375 23.976562 57.984375 Z M 23.976562 57.984375 "/>
<path style=" stroke:none;fill-rule:nonzero;fill:rgb(100%,100%,100%);fill-opacity:1;" d="M 54.644531 42.710938 C 55.152344 41.695312 55.324219 40.503906 55.152344 39.316406 C 55.152344 38.46875 54.8125 37.453125 54.8125 36.601562 C 54.644531 35.246094 54.476562 33.886719 54.644531 32.53125 C 54.644531 32.359375 54.644531 32.191406 54.644531 32.191406 C 54.8125 32.019531 54.644531 31.683594 54.476562 31.511719 C 54.304688 31.34375 53.96875 31.34375 53.796875 31.511719 C 53.457031 31.683594 53.289062 32.019531 52.949219 32.191406 L 52.101562 30.15625 L 50.917969 31.851562 C 50.578125 31.683594 50.578125 31.171875 50.238281 31.171875 C 49.902344 31.171875 49.730469 31.511719 49.5625 31.683594 L 48.375 30.15625 C 48.039062 30.832031 47.699219 31.511719 47.359375 32.191406 C 47.019531 32.019531 46.851562 31.683594 46.511719 31.511719 C 46.34375 31.34375 46.003906 31.171875 45.835938 31.34375 C 45.496094 31.511719 45.496094 31.683594 45.664062 32.019531 C 45.835938 32.699219 45.835938 33.546875 45.664062 34.226562 C 45.664062 35.585938 45.496094 36.773438 45.15625 37.960938 C 44.816406 39.488281 44.988281 41.183594 45.496094 42.542969 C 44.816406 42.542969 44.140625 42.710938 43.632812 42.882812 C 43.292969 43.050781 43.125 43.222656 43.125 43.390625 C 43.125 43.730469 43.292969 43.730469 43.632812 43.898438 C 43.972656 43.898438 44.140625 44.238281 44.308594 44.578125 C 44.480469 44.746094 44.308594 44.746094 44.140625 44.917969 C 43.800781 45.085938 43.632812 45.257812 43.292969 45.425781 C 42.953125 45.765625 42.953125 46.105469 43.292969 46.273438 C 43.632812 46.613281 44.140625 46.785156 44.480469 47.125 C 45.15625 47.800781 46.171875 48.140625 47.019531 48.140625 C 47.191406 48.140625 47.359375 48.140625 47.359375 48.3125 C 47.527344 49.160156 48.039062 49.839844 48.714844 50.515625 C 48.882812 50.6875 49.054688 50.855469 49.054688 51.027344 C 49.054688 53.0625 49.054688 54.929688 49.054688 56.964844 C 49.054688 57.304688 49.054688 57.304688 48.714844 57.476562 C 48.207031 57.644531 47.867188 57.8125 47.359375 57.8125 C 47.191406 57.8125 47.019531 57.984375 46.851562 57.644531 C 44.816406 55.097656 43.292969 52.382812 41.9375 49.5 C 39.90625 44.410156 39.90625 38.640625 41.9375 33.378906 C 42.785156 31.003906 43.972656 28.796875 45.328125 26.761719 C 45.835938 25.914062 46.34375 25.234375 46.851562 24.386719 C 48.207031 22.519531 49.222656 20.480469 49.902344 18.445312 C 50.070312 18.785156 50.070312 18.953125 50.238281 19.292969 C 50.917969 21.160156 51.933594 23.027344 53.121094 24.722656 C 54.476562 26.761719 55.832031 28.796875 56.847656 31.003906 C 58.035156 33.378906 58.710938 35.753906 59.21875 38.300781 C 59.726562 42.03125 59.390625 45.765625 57.863281 49.160156 C 56.507812 52.042969 54.984375 54.761719 52.949219 57.304688 C 52.78125 57.476562 52.613281 57.476562 52.441406 57.476562 C 52.101562 57.304688 51.59375 57.136719 51.085938 57.136719 C 50.917969 57.136719 50.75 56.964844 50.75 56.796875 C 50.75 54.761719 50.75 52.722656 50.75 50.6875 C 50.75 50.515625 50.75 50.347656 50.917969 50.179688 C 51.59375 49.667969 52.101562 48.820312 52.441406 47.972656 C 52.441406 47.800781 52.613281 47.800781 52.78125 47.800781 C 53.628906 47.800781 54.476562 47.464844 55.152344 46.953125 C 55.492188 46.613281 56 46.273438 56.507812 46.105469 C 56.679688 45.9375 56.847656 45.765625 56.679688 45.425781 L 56.507812 45.257812 C 56.167969 45.085938 55.832031 44.746094 55.660156 44.578125 C 55.492188 44.410156 55.492188 44.410156 55.492188 44.238281 C 55.660156 43.898438 55.832031 43.730469 56.339844 43.730469 C 56.679688 43.730469 56.847656 43.558594 56.847656 43.222656 C 56.847656 43.050781 56.679688 42.710938 56.507812 42.710938 C 56 42.710938 55.324219 42.710938 54.644531 42.710938 Z M 54.644531 42.710938 "/>
<path style=" stroke:none;fill-rule:nonzero;fill:rgb(100%,100%,100%);fill-opacity:1;" d="M 54.136719 58.324219 C 54.984375 57.136719 55.832031 55.949219 56.679688 54.761719 C 57.015625 54.25 57.355469 53.570312 57.695312 52.894531 C 58.035156 52.554688 58.203125 52.214844 58.371094 51.707031 C 58.371094 51.535156 58.710938 51.535156 58.710938 51.535156 C 60.234375 51.707031 61.929688 51.875 63.457031 52.042969 C 66.503906 52.382812 69.554688 52.894531 72.433594 53.742188 C 73.621094 54.082031 74.636719 54.421875 75.65625 54.929688 C 75.992188 55.097656 76.332031 55.269531 76.5 55.4375 C 77.179688 55.949219 77.179688 56.285156 76.5 56.625 C 76.164062 56.796875 75.824219 56.964844 75.484375 57.136719 C 73.789062 57.644531 72.097656 58.152344 70.234375 58.324219 C 67.859375 58.664062 65.488281 59.003906 63.117188 59.171875 C 61.421875 59.171875 59.726562 59.171875 58.203125 59.003906 C 57.015625 58.832031 55.660156 58.664062 54.476562 58.324219 C 54.476562 58.324219 54.304688 58.324219 54.136719 58.324219 Z M 54.136719 58.324219 "/>
<path style=" stroke:none;fill-rule:nonzero;fill:rgb(100%,100%,100%);fill-opacity:1;" d="M 38.210938 59.171875 C 36.175781 59.171875 34.144531 59.003906 32.28125 58.664062 C 30.078125 58.324219 27.707031 57.984375 25.671875 57.304688 C 24.996094 57.136719 24.484375 56.964844 23.808594 56.625 C 23.300781 56.285156 23.300781 55.949219 23.808594 55.609375 C 24.65625 55.097656 25.503906 54.589844 26.519531 54.25 C 29.0625 53.402344 31.773438 52.894531 34.484375 52.554688 C 36.855469 52.214844 39.394531 51.875 41.769531 51.707031 C 41.9375 51.707031 42.105469 51.707031 42.277344 51.875 C 43.460938 54.082031 44.648438 56.117188 46.171875 57.984375 C 46.34375 58.324219 46.34375 58.324219 46.003906 58.324219 C 43.292969 59.003906 40.75 59.171875 38.210938 59.171875 Z M 38.210938 59.171875 "/>
<path style=" stroke:none;fill-rule:nonzero;fill:rgb(80.000001%,6.666667%,10.588235%);fill-opacity:1;" d="M 50.238281 32.53125 C 51.425781 34.398438 52.101562 36.601562 52.613281 38.808594 C 52.949219 40.167969 52.78125 41.355469 52.441406 42.542969 C 52.101562 43.390625 51.765625 44.070312 51.085938 44.578125 C 50.578125 44.917969 49.902344 44.917969 49.5625 44.578125 C 48.714844 43.730469 48.039062 42.542969 47.867188 41.355469 C 47.699219 38.976562 48.207031 36.433594 49.394531 34.226562 C 49.5625 33.71875 49.902344 33.207031 50.238281 32.53125 Z M 50.238281 32.53125 "/>
<path style=" stroke:none;fill-rule:nonzero;fill:rgb(80.000001%,6.666667%,10.588235%);fill-opacity:1;" d="M 50.410156 45.9375 C 51.425781 45.9375 52.101562 46.785156 52.101562 47.800781 C 52.101562 48.140625 51.933594 48.3125 51.933594 48.652344 C 51.59375 49.160156 51.085938 49.667969 50.578125 50.179688 C 50.410156 50.347656 50.410156 50.179688 50.238281 50.179688 C 49.902344 49.839844 49.394531 49.328125 49.054688 48.992188 C 48.375 48.140625 48.714844 46.953125 49.5625 46.273438 C 49.5625 46.273438 49.5625 46.273438 49.730469 46.273438 C 49.902344 46.105469 50.070312 45.9375 50.410156 45.9375 Z M 50.410156 45.9375 "/>
<path style=" stroke:none;fill-rule:nonzero;fill:rgb(80.000001%,6.666667%,10.588235%);fill-opacity:1;" d="M 53.628906 33.039062 C 53.628906 35.246094 53.796875 37.453125 54.136719 39.488281 C 54.304688 40.503906 53.96875 41.695312 53.457031 42.542969 C 53.457031 42.203125 53.628906 41.863281 53.628906 41.523438 C 53.796875 39.488281 53.457031 37.453125 52.613281 35.414062 C 52.613281 35.246094 52.441406 35.074219 52.441406 35.074219 C 52.101562 34.226562 52.101562 34.226562 52.78125 33.546875 C 53.121094 33.378906 53.289062 33.207031 53.628906 33.039062 Z M 53.628906 33.039062 "/>
<path style=" stroke:none;fill-rule:nonzero;fill:rgb(80.000001%,6.666667%,10.588235%);fill-opacity:1;" d="M 46.683594 42.371094 C 46.34375 41.695312 46.171875 41.015625 46.171875 40.167969 C 46.171875 39.148438 46.34375 38.300781 46.511719 37.28125 C 46.683594 35.925781 46.851562 34.566406 46.851562 33.207031 C 46.851562 33.039062 46.851562 33.039062 46.851562 32.871094 C 47.359375 33.207031 47.699219 33.546875 48.039062 33.886719 C 48.207031 34.058594 48.207031 34.226562 48.039062 34.398438 C 47.527344 35.414062 47.191406 36.601562 46.851562 37.789062 C 46.511719 39.148438 46.511719 40.675781 46.683594 42.03125 C 46.851562 42.203125 46.851562 42.371094 46.683594 42.371094 Z M 46.683594 42.371094 "/>
<path style=" stroke:none;fill-rule:nonzero;fill:rgb(80.000001%,6.666667%,10.588235%);fill-opacity:1;" d="M 44.816406 45.9375 C 45.835938 45.257812 47.019531 45.085938 48.207031 45.597656 C 48.375 45.597656 48.546875 45.765625 48.375 45.9375 C 48.039062 46.273438 47.867188 46.613281 47.867188 46.953125 C 47.867188 47.292969 47.699219 47.292969 47.359375 47.292969 C 46.683594 47.292969 46.003906 46.953125 45.496094 46.445312 Z M 44.816406 45.9375 "/>
<path style=" stroke:none;fill-rule:nonzero;fill:rgb(80.000001%,6.666667%,10.588235%);fill-opacity:1;" d="M 52.101562 45.597656 C 53.121094 45.257812 54.476562 45.257812 55.492188 45.9375 C 55.660156 45.9375 55.660156 46.105469 55.492188 46.105469 C 54.984375 46.785156 54.136719 47.125 53.289062 47.292969 C 53.121094 47.292969 52.949219 47.292969 52.949219 47.125 C 52.78125 46.445312 52.441406 45.9375 52.101562 45.597656 Z M 52.101562 45.597656 "/>
<path style=" stroke:none;fill-rule:nonzero;fill:rgb(78.039217%,7.058824%,10.588235%);fill-opacity:1;" d="M 45.15625 43.730469 C 45.664062 43.390625 46.34375 43.730469 46.683594 44.238281 C 46.511719 44.238281 46.34375 44.238281 46.171875 44.238281 C 45.496094 44.410156 45.496094 44.410156 45.15625 43.730469 Z M 45.15625 43.730469 "/>
<path style=" stroke:none;fill-rule:nonzero;fill:rgb(78.039217%,7.058824%,10.588235%);fill-opacity:1;" d="M 53.628906 44.238281 C 53.96875 43.558594 54.644531 43.730469 55.152344 43.730469 C 54.8125 44.578125 54.8125 44.578125 53.628906 44.238281 Z M 53.628906 44.238281 "/>
<path style=" stroke:none;fill-rule:nonzero;fill:rgb(76.862746%,6.666667%,10.980392%);fill-opacity:1;" d="M 51.933594 32.019531 C 52.101562 32.359375 52.441406 32.53125 52.101562 32.871094 C 51.933594 32.871094 51.933594 33.207031 51.765625 33.039062 C 51.59375 32.871094 51.425781 32.699219 51.59375 32.53125 C 51.59375 32.53125 51.765625 32.359375 51.933594 32.019531 Z M 51.933594 32.019531 "/>
<path style=" stroke:none;fill-rule:nonzero;fill:rgb(76.862746%,6.666667%,10.980392%);fill-opacity:1;" d="M 48.882812 32.699219 C 48.882812 32.871094 48.714844 33.039062 48.546875 33.207031 C 48.546875 33.207031 48.375 33.039062 48.207031 33.039062 C 48.039062 32.871094 48.207031 32.699219 48.207031 32.699219 C 48.207031 32.699219 48.207031 32.359375 48.375 32.359375 C 48.882812 32.359375 48.882812 32.53125 48.882812 32.699219 Z M 48.882812 32.699219 "/>
<path style=" stroke:none;fill-rule:nonzero;fill:rgb(21.176471%,21.176471%,21.176471%);fill-opacity:1;" d="M 112.671875 43.128906 L 112.671875 40.242188 L 122.667969 40.242188 L 122.667969 43.128906 L 120.125 43.636719 L 120.125 60.945312 L 122.667969 61.453125 L 122.667969 64.339844 L 112.671875 64.339844 L 112.671875 61.453125 L 115.214844 60.945312 L 115.214844 43.636719 Z M 112.671875 43.128906 "/>
<path style=" stroke:none;fill-rule:nonzero;fill:rgb(21.176471%,21.176471%,21.176471%);fill-opacity:1;" d="M 124.53125 43.128906 L 124.53125 40.242188 L 134.527344 40.242188 L 134.527344 43.128906 L 131.988281 43.636719 L 131.988281 60.945312 L 134.527344 61.453125 L 134.527344 64.339844 L 124.53125 64.339844 L 124.53125 61.453125 L 127.074219 60.945312 L 127.074219 43.636719 Z M 124.53125 43.128906 "/>
<path style=" stroke:none;fill-rule:nonzero;fill:rgb(21.176471%,21.176471%,21.176471%);fill-opacity:1;" d="M 157.570312 40.242188 L 157.570312 46.691406 L 153.84375 46.691406 L 153.675781 43.976562 L 149.269531 43.976562 L 149.269531 60.945312 L 151.808594 61.453125 L 151.808594 64.339844 L 141.8125 64.339844 L 141.8125 61.453125 L 144.355469 60.945312 L 144.355469 43.976562 L 139.949219 43.976562 L 139.78125 46.691406 L 136.054688 46.691406 L 136.054688 40.242188 Z M 157.570312 40.242188 "/>
<path style=" stroke:none;fill-rule:nonzero;fill:rgb(21.176471%,21.176471%,21.176471%);fill-opacity:1;" d="M 190.78125 46.519531 L 184.171875 64.339844 L 180.953125 64.339844 L 174.515625 46.519531 L 174.34375 46.519531 L 174.851562 57.042969 L 174.851562 60.777344 L 177.394531 61.285156 L 177.394531 64.167969 L 167.398438 64.167969 L 167.398438 61.285156 L 169.941406 60.777344 L 169.941406 43.636719 L 167.398438 43.128906 L 167.398438 40.242188 L 176.207031 40.242188 L 182.308594 58.058594 L 182.476562 58.058594 L 188.746094 40.242188 L 197.558594 40.242188 L 197.558594 43.128906 L 195.015625 43.636719 L 195.015625 60.945312 L 197.558594 61.453125 L 197.558594 64.339844 L 187.558594 64.339844 L 187.558594 61.453125 L 190.101562 60.945312 L 190.101562 57.210938 Z M 190.78125 46.519531 "/>
<path style=" stroke:none;fill-rule:nonzero;fill:rgb(21.176471%,21.176471%,21.176471%);fill-opacity:1;" d="M 210.941406 64.339844 C 210.773438 64 210.601562 63.660156 210.601562 63.492188 C 210.601562 63.320312 210.433594 62.8125 210.433594 62.472656 C 209.925781 63.152344 209.078125 63.660156 208.402344 64.167969 C 207.554688 64.507812 206.707031 64.847656 205.519531 64.847656 C 203.824219 64.847656 202.300781 64.339844 201.285156 63.492188 C 200.269531 62.472656 199.757812 61.285156 199.757812 59.585938 C 199.757812 57.890625 200.4375 56.53125 201.792969 55.683594 C 203.148438 54.835938 205.179688 54.328125 207.722656 54.328125 L 210.265625 54.328125 L 210.265625 52.628906 C 210.265625 51.78125 210.09375 51.101562 209.585938 50.59375 C 209.078125 50.085938 208.402344 49.914062 207.382812 49.914062 C 206.875 49.914062 206.367188 49.914062 205.859375 50.085938 C 205.351562 50.253906 205.011719 50.425781 204.84375 50.59375 L 204.503906 52.460938 L 200.945312 52.460938 L 200.945312 48.558594 C 201.792969 48.046875 202.808594 47.539062 203.996094 47.03125 C 205.179688 46.691406 206.367188 46.351562 207.722656 46.351562 C 209.925781 46.351562 211.789062 46.859375 213.144531 48.046875 C 214.5 49.066406 215.175781 50.59375 215.175781 52.628906 L 215.175781 60.097656 C 215.175781 60.4375 215.175781 60.605469 215.175781 60.945312 C 215.175781 61.285156 215.175781 61.453125 215.175781 61.625 L 216.703125 61.792969 L 216.703125 64.679688 Z M 206.707031 61.113281 C 207.382812 61.113281 208.0625 60.945312 208.738281 60.605469 C 209.246094 60.265625 209.757812 59.925781 210.09375 59.417969 L 210.09375 56.703125 L 207.554688 56.703125 C 206.535156 56.703125 205.691406 56.871094 205.179688 57.382812 C 204.671875 57.890625 204.335938 58.398438 204.335938 59.078125 C 204.335938 59.757812 204.503906 60.097656 205.011719 60.4375 C 205.519531 60.945312 206.027344 61.113281 206.707031 61.113281 Z M 206.707031 61.113281 "/>
<path style=" stroke:none;fill-rule:nonzero;fill:rgb(21.176471%,21.176471%,21.176471%);fill-opacity:1;" d="M 229.75 62.132812 C 229.242188 62.980469 228.5625 63.660156 227.714844 64 C 227.039062 64.339844 226.019531 64.679688 225.003906 64.679688 C 222.800781 64.679688 221.109375 63.828125 219.921875 62.300781 C 218.734375 60.777344 218.058594 58.570312 218.058594 55.855469 L 218.058594 55.515625 C 218.058594 52.628906 218.734375 50.425781 219.921875 48.726562 C 221.109375 47.03125 222.800781 46.183594 225.175781 46.183594 C 226.019531 46.183594 226.867188 46.351562 227.546875 46.859375 C 228.222656 47.199219 228.902344 47.878906 229.410156 48.558594 L 229.410156 42.109375 L 226.867188 41.601562 L 226.867188 38.714844 L 234.324219 38.714844 L 234.324219 61.113281 L 236.695312 61.625 L 236.695312 64.507812 L 230.257812 64.507812 Z M 222.972656 55.855469 C 222.972656 57.382812 223.140625 58.570312 223.820312 59.585938 C 224.328125 60.4375 225.175781 60.945312 226.359375 60.945312 C 227.039062 60.945312 227.714844 60.777344 228.222656 60.605469 C 228.730469 60.265625 229.242188 59.925781 229.578125 59.417969 L 229.578125 51.78125 C 229.242188 51.273438 228.902344 50.761719 228.222656 50.425781 C 227.714844 50.085938 227.039062 49.914062 226.359375 49.914062 C 225.175781 49.914062 224.328125 50.425781 223.820312 51.441406 C 223.308594 52.460938 222.972656 53.816406 222.972656 55.515625 Z M 222.972656 55.855469 "/>
<path style=" stroke:none;fill-rule:nonzero;fill:rgb(21.176471%,21.176471%,21.176471%);fill-opacity:1;" d="M 238.558594 61.453125 L 240.929688 60.945312 L 240.929688 49.746094 L 238.390625 49.238281 L 238.390625 46.351562 L 245.507812 46.351562 L 245.675781 48.898438 C 246.015625 48.046875 246.691406 47.199219 247.371094 46.691406 C 248.046875 46.183594 248.726562 45.84375 249.742188 45.84375 C 249.910156 45.84375 250.25 45.84375 250.589844 45.84375 C 250.925781 45.84375 251.097656 45.84375 251.265625 46.011719 L 250.757812 50.425781 L 248.726562 50.425781 C 248.046875 50.425781 247.371094 50.59375 247.03125 50.761719 C 246.691406 50.933594 246.183594 51.441406 246.015625 51.953125 L 246.015625 60.605469 L 248.386719 61.113281 L 248.386719 64 L 238.898438 64 Z M 238.558594 61.453125 "/>
<path style=" stroke:none;fill-rule:nonzero;fill:rgb(21.176471%,21.176471%,21.176471%);fill-opacity:1;" d="M 263.464844 64.339844 C 263.296875 64 263.296875 63.660156 263.125 63.492188 C 262.957031 63.320312 262.957031 62.8125 262.957031 62.472656 C 262.449219 63.152344 261.601562 63.660156 260.925781 64.167969 C 260.078125 64.507812 259.230469 64.847656 258.042969 64.847656 C 256.347656 64.847656 254.824219 64.339844 253.808594 63.492188 C 252.792969 62.472656 252.28125 61.285156 252.28125 59.585938 C 252.28125 57.890625 252.960938 56.53125 254.316406 55.683594 C 255.671875 54.835938 257.703125 54.328125 260.246094 54.328125 L 262.789062 54.328125 L 262.789062 52.628906 C 262.789062 51.78125 262.617188 51.101562 262.109375 50.59375 C 261.601562 50.085938 260.925781 49.914062 259.90625 49.914062 C 259.398438 49.914062 258.890625 49.914062 258.382812 50.085938 C 257.875 50.253906 257.535156 50.425781 257.367188 50.59375 L 257.027344 52.460938 L 253.46875 52.460938 L 253.46875 48.558594 C 254.316406 48.046875 255.332031 47.539062 256.519531 47.03125 C 257.703125 46.691406 258.890625 46.351562 260.246094 46.351562 C 262.449219 46.351562 264.3125 46.859375 265.667969 48.046875 C 267.023438 49.238281 267.703125 50.59375 267.703125 52.628906 L 267.703125 60.097656 C 267.703125 60.4375 267.703125 60.605469 267.703125 60.945312 C 267.703125 61.285156 267.703125 61.453125 267.703125 61.625 L 269.226562 61.792969 L 269.226562 64.679688 Z M 259.230469 61.113281 C 259.90625 61.113281 260.585938 60.945312 261.261719 60.605469 C 261.769531 60.265625 262.28125 59.925781 262.617188 59.417969 L 262.617188 56.703125 L 260.078125 56.703125 C 259.058594 56.703125 258.214844 56.871094 257.703125 57.382812 C 257.195312 57.890625 256.859375 58.398438 256.859375 59.078125 C 256.859375 59.757812 257.027344 60.097656 257.535156 60.4375 C 258.042969 60.945312 258.550781 61.113281 259.230469 61.113281 Z M 259.230469 61.113281 "/>
<path style=" stroke:none;fill-rule:nonzero;fill:rgb(21.176471%,21.176471%,21.176471%);fill-opacity:1;" d="M 285.324219 52.628906 L 282.101562 52.628906 L 281.59375 50.425781 C 281.257812 50.085938 280.917969 49.914062 280.410156 49.746094 C 279.902344 49.574219 279.390625 49.40625 278.714844 49.40625 C 277.867188 49.40625 277.191406 49.574219 276.679688 49.914062 C 276.171875 50.253906 276.003906 50.761719 276.003906 51.273438 C 276.003906 51.78125 276.171875 52.289062 276.679688 52.628906 C 277.191406 52.96875 278.035156 53.308594 279.5625 53.648438 C 281.765625 54.15625 283.457031 54.667969 284.476562 55.683594 C 285.492188 56.53125 286 57.722656 286 59.25 C 286 60.945312 285.324219 62.132812 283.96875 63.152344 C 282.613281 64.167969 280.746094 64.679688 278.546875 64.679688 C 277.191406 64.679688 275.835938 64.507812 274.816406 64 C 273.632812 63.660156 272.613281 62.980469 271.769531 62.300781 L 271.769531 58.230469 L 275.15625 58.230469 L 275.835938 60.605469 C 276.171875 60.777344 276.511719 60.945312 277.019531 61.113281 C 277.527344 61.285156 278.035156 61.285156 278.546875 61.285156 C 279.5625 61.285156 280.238281 61.113281 280.746094 60.777344 C 281.257812 60.4375 281.425781 59.925781 281.425781 59.25 C 281.425781 58.738281 281.257812 58.230469 280.578125 57.890625 C 280.070312 57.550781 279.054688 57.210938 277.699219 56.871094 C 275.664062 56.53125 273.96875 55.855469 272.953125 55.007812 C 271.9375 54.15625 271.429688 52.96875 271.429688 51.613281 C 271.429688 50.085938 272.105469 48.898438 273.292969 47.710938 C 274.480469 46.691406 276.34375 46.011719 278.546875 46.011719 C 279.902344 46.011719 281.257812 46.183594 282.441406 46.519531 C 283.628906 46.859375 284.644531 47.371094 285.324219 47.878906 Z M 285.324219 52.628906 "/>
</g>
</svg>
