<?xml version="1.0" encoding="UTF-8"?>
<svg xmlns="http://www.w3.org/2000/svg" xmlns:xlink="http://www.w3.org/1999/xlink" width="100px" height="100px" viewBox="0 0 100 100" version="1.1">
<g id="surface1">
<path style=" stroke:none;fill-rule:nonzero;fill:rgb(45.490196%,10.980392%,11.372549%);fill-opacity:1;" d="M 100 50.136719 C 100 77.628906 77.613281 99.917969 50 99.917969 C 22.386719 99.917969 0 77.628906 0 50.136719 C 0 22.640625 22.386719 0.355469 50 0.355469 C 77.613281 0.355469 100 22.640625 100 50.136719 "/>
<path style=" stroke:none;fill-rule:nonzero;fill:rgb(82.352942%,63.137257%,22.745098%);fill-opacity:1;" d="M 88.585938 50.136719 C 88.585938 71.351562 71.308594 88.554688 50 88.554688 C 28.691406 88.554688 11.414062 71.351562 11.414062 50.136719 C 11.414062 28.917969 28.691406 11.71875 50 11.71875 C 71.308594 11.71875 88.585938 28.917969 88.585938 50.136719 "/>
<path style=" stroke:none;fill-rule:nonzero;fill:rgb(100%,100%,100%);fill-opacity:1;" d="M 88.585938 50.136719 L 88.460938 50.136719 C 88.460938 60.710938 84.15625 70.285156 77.195312 77.214844 C 70.234375 84.144531 60.621094 88.429688 50 88.429688 C 39.378906 88.429688 29.765625 84.144531 22.804688 77.214844 C 15.84375 70.285156 11.539062 60.710938 11.539062 50.136719 C 11.539062 39.5625 15.84375 29.988281 22.804688 23.058594 C 29.765625 16.128906 39.378906 11.84375 50 11.84375 C 60.621094 11.84375 70.234375 16.128906 77.195312 23.058594 C 84.15625 29.988281 88.460938 39.5625 88.460938 50.136719 L 88.710938 50.136719 C 88.710938 28.851562 71.378906 11.59375 50 11.59375 C 28.621094 11.59375 11.289062 28.851562 11.289062 50.136719 C 11.289062 71.421875 28.621094 88.679688 50 88.679688 C 71.378906 88.679688 88.710938 71.421875 88.710938 50.136719 L 88.585938 50.136719 "/>
<path style=" stroke:none;fill-rule:nonzero;fill:rgb(100%,100%,100%);fill-opacity:1;" d="M 16.582031 83.207031 L 20.730469 78.980469 L 21.6875 79.910156 L 17.539062 84.136719 L 16.582031 83.207031 "/>
<path style=" stroke:none;fill-rule:nonzero;fill:rgb(100%,100%,100%);fill-opacity:1;" d="M 19.515625 77.804688 L 14.90625 81.523438 L 13.917969 80.308594 L 14.835938 77.992188 C 15.097656 77.328125 15.457031 76.597656 15.804688 75.96875 L 15.792969 75.957031 C 15.234375 76.507812 14.628906 77.03125 13.929688 77.59375 L 12.589844 78.671875 L 11.8125 77.71875 L 16.425781 74.003906 L 17.3125 75.09375 L 16.332031 77.507812 C 16.054688 78.183594 15.714844 78.964844 15.351562 79.617188 L 15.371094 79.644531 C 15.960938 79.113281 16.601562 78.578125 17.351562 77.96875 L 18.742188 76.851562 L 19.515625 77.804688 "/>
<path style=" stroke:none;fill-rule:nonzero;fill:rgb(100%,100%,100%);fill-opacity:1;" d="M 10.390625 75.496094 C 10.070312 75.113281 9.710938 74.582031 9.378906 74.003906 C 8.816406 73.019531 8.609375 72.289062 8.703125 71.589844 C 8.796875 70.832031 9.246094 70.132812 10.164062 69.609375 C 11.148438 69.046875 12.035156 69.019531 12.734375 69.265625 C 13.496094 69.546875 14.1875 70.253906 14.761719 71.261719 C 15.109375 71.863281 15.320312 72.316406 15.441406 72.621094 L 10.390625 75.496094 M 13.921875 71.949219 C 13.886719 71.839844 13.792969 71.671875 13.714844 71.535156 C 13.113281 70.472656 12.136719 70.109375 10.90625 70.8125 C 9.796875 71.445312 9.628906 72.367188 10.203125 73.371094 C 10.347656 73.621094 10.472656 73.785156 10.550781 73.871094 L 13.921875 71.949219 "/>
<path style=" stroke:none;fill-rule:nonzero;fill:rgb(100%,100%,100%);fill-opacity:1;" d="M 6.351562 67.828125 L 11.816406 65.519531 L 12.339844 66.746094 L 6.875 69.054688 L 6.351562 67.828125 "/>
<path style=" stroke:none;fill-rule:nonzero;fill:rgb(100%,100%,100%);fill-opacity:1;" d="M 9.304688 63.074219 L 10.882812 63.042969 L 11.277344 64.367188 L 5.070312 64.308594 L 4.574219 62.636719 L 9.746094 59.199219 L 10.152344 60.578125 L 8.820312 61.441406 L 9.304688 63.074219 M 7.914062 61.917969 L 6.8125 62.625 C 6.5 62.816406 6.101562 63.046875 5.796875 63.226562 L 5.804688 63.253906 C 6.164062 63.226562 6.621094 63.195312 6.976562 63.183594 L 8.285156 63.171875 L 7.914062 61.917969 "/>
<path style=" stroke:none;fill-rule:nonzero;fill:rgb(100%,100%,100%);fill-opacity:1;" d="M 9.488281 57.910156 L 3.605469 58.675781 L 3.402344 57.128906 L 5.398438 55.628906 C 5.972656 55.203125 6.660156 54.769531 7.289062 54.414062 L 7.289062 54.394531 C 6.523438 54.574219 5.730469 54.703125 4.839844 54.816406 L 3.128906 55.042969 L 2.96875 53.824219 L 8.855469 53.0625 L 9.035156 54.453125 L 6.929688 55.996094 C 6.339844 56.429688 5.640625 56.917969 4.984375 57.285156 L 4.992188 57.316406 C 5.769531 57.171875 6.597656 57.046875 7.558594 56.921875 L 9.328125 56.695312 L 9.488281 57.910156 "/>
<path style=" stroke:none;fill-rule:nonzero;fill:rgb(100%,100%,100%);fill-opacity:1;" d="M 2.960938 47.488281 L 8.890625 47.734375 L 8.832031 49.066406 L 2.902344 48.820312 L 2.960938 47.488281 "/>
<path style=" stroke:none;fill-rule:nonzero;fill:rgb(100%,100%,100%);fill-opacity:1;" d="M 8.953125 46.039062 L 3.09375 45.105469 L 3.339844 43.566406 L 5.683594 42.695312 C 6.355469 42.445312 7.140625 42.226562 7.84375 42.0625 L 7.847656 42.042969 C 7.0625 42 6.265625 41.898438 5.378906 41.757812 L 3.675781 41.488281 L 3.871094 40.277344 L 9.730469 41.207031 L 9.507812 42.59375 L 7.046875 43.480469 C 6.355469 43.726562 5.546875 43.996094 4.816406 44.164062 L 4.808594 44.199219 C 5.597656 44.277344 6.425781 44.394531 7.382812 44.546875 L 9.148438 44.824219 L 8.953125 46.039062 "/>
<path style=" stroke:none;fill-rule:nonzero;fill:rgb(100%,100%,100%);fill-opacity:1;" d="M 8.863281 39.125 C 9.148438 38.847656 9.492188 38.367188 9.664062 37.824219 C 9.847656 37.238281 9.699219 36.851562 9.324219 36.734375 C 8.976562 36.625 8.683594 36.828125 8.234375 37.433594 C 7.605469 38.265625 6.890625 38.722656 6.058594 38.460938 C 5.089844 38.160156 4.613281 37.121094 5.03125 35.800781 C 5.234375 35.15625 5.503906 34.734375 5.769531 34.449219 L 6.703125 35.054688 C 6.527344 35.238281 6.238281 35.597656 6.066406 36.140625 C 5.894531 36.695312 6.070312 37.042969 6.355469 37.132812 C 6.714844 37.246094 6.972656 36.984375 7.492188 36.335938 C 8.175781 35.457031 8.839844 35.160156 9.648438 35.410156 C 10.597656 35.707031 11.175781 36.675781 10.6875 38.226562 C 10.488281 38.871094 10.109375 39.449219 9.835938 39.714844 L 8.863281 39.125 "/>
<path style=" stroke:none;fill-rule:nonzero;fill:rgb(100%,100%,100%);fill-opacity:1;" d="M 7.964844 31.542969 L 7.289062 32.988281 L 6.269531 32.519531 L 8.183594 28.398438 L 9.207031 28.867188 L 8.527344 30.332031 L 12.886719 32.34375 L 12.328125 33.550781 L 7.964844 31.542969 "/>
<path style=" stroke:none;fill-rule:nonzero;fill:rgb(100%,100%,100%);fill-opacity:1;" d="M 9.8125 25.644531 L 14.914062 28.660156 L 14.230469 29.804688 L 9.125 26.789062 L 9.8125 25.644531 "/>
<path style=" stroke:none;fill-rule:nonzero;fill:rgb(100%,100%,100%);fill-opacity:1;" d="M 12.628906 23.449219 L 11.671875 24.730469 L 10.769531 24.0625 L 13.484375 20.414062 L 14.390625 21.082031 L 13.425781 22.378906 L 17.289062 25.226562 L 16.492188 26.296875 L 12.628906 23.449219 "/>
<path style=" stroke:none;fill-rule:nonzero;fill:rgb(100%,100%,100%);fill-opacity:1;" d="M 15.777344 17.886719 L 18.195312 20.273438 C 18.925781 20.996094 19.578125 21.078125 20.054688 20.601562 C 20.550781 20.101562 20.472656 19.480469 19.71875 18.742188 L 17.300781 16.355469 L 18.242188 15.40625 L 20.605469 17.738281 C 21.90625 19.023438 21.878906 20.289062 20.785156 21.382812 C 19.730469 22.441406 18.523438 22.472656 17.183594 21.152344 L 14.835938 18.832031 L 15.777344 17.886719 "/>
<path style=" stroke:none;fill-rule:nonzero;fill:rgb(100%,100%,100%);fill-opacity:1;" d="M 21.792969 13.972656 L 20.511719 14.933594 L 19.835938 14.039062 L 23.472656 11.304688 L 24.152344 12.199219 L 22.859375 13.167969 L 25.753906 16.992188 L 24.6875 17.792969 L 21.792969 13.972656 "/>
<path style=" stroke:none;fill-rule:nonzero;fill:rgb(100%,100%,100%);fill-opacity:1;" d="M 29.929688 11.457031 L 28.03125 12.53125 L 28.726562 13.75 L 30.847656 12.550781 L 31.390625 13.5 L 28.109375 15.363281 L 25.171875 10.230469 L 28.34375 8.429688 L 28.890625 9.378906 L 26.878906 10.523438 L 27.488281 11.589844 L 29.386719 10.511719 L 29.929688 11.457031 "/>
<path style=" stroke:none;fill-rule:nonzero;fill:rgb(100%,100%,100%);fill-opacity:1;" d="M 37.234375 11.25 C 35.566406 11.789062 34.167969 10.851562 33.644531 9.25 C 33.097656 7.566406 33.773438 5.957031 35.429688 5.417969 C 37.164062 4.859375 38.53125 5.84375 39.039062 7.394531 C 39.644531 9.246094 38.890625 10.714844 37.242188 11.246094 L 37.234375 11.25 M 36.960938 10.222656 C 37.824219 9.945312 38.054688 8.976562 37.695312 7.875 C 37.367188 6.867188 36.605469 6.152344 35.726562 6.4375 C 34.847656 6.722656 34.632812 7.734375 34.972656 8.78125 C 35.320312 9.84375 36.101562 10.5 36.957031 10.226562 L 36.960938 10.222656 "/>
<path style=" stroke:none;fill-rule:nonzero;fill:rgb(100%,100%,100%);fill-opacity:1;" d="M 40.398438 4.175781 L 43.964844 3.578125 L 44.148438 4.65625 L 41.898438 5.035156 L 42.125 6.367188 L 44.226562 6.011719 L 44.40625 7.085938 L 42.308594 7.4375 L 42.703125 9.78125 L 41.386719 10.003906 L 40.398438 4.175781 "/>
<path style=" stroke:none;fill-rule:nonzero;fill:rgb(100%,100%,100%);fill-opacity:1;" d="M 50.03125 4.347656 L 48.429688 4.324219 L 48.449219 3.199219 L 53.007812 3.273438 L 52.988281 4.394531 L 51.371094 4.371094 L 51.292969 9.15625 L 49.953125 9.132812 L 50.03125 4.347656 "/>
<path style=" stroke:none;fill-rule:nonzero;fill:rgb(100%,100%,100%);fill-opacity:1;" d="M 58.003906 7.335938 L 55.839844 7.027344 L 55.640625 8.414062 L 58.054688 8.757812 L 57.898438 9.84375 L 54.160156 9.308594 L 55.003906 3.460938 L 58.621094 3.980469 L 58.464844 5.0625 L 56.171875 4.734375 L 55.996094 5.949219 L 58.15625 6.257812 L 58.003906 7.335938 "/>
<path style=" stroke:none;fill-rule:nonzero;fill:rgb(100%,100%,100%);fill-opacity:1;" d="M 63.539062 11.171875 C 63.277344 11.21875 62.699219 11.199219 62.011719 11.003906 C 60.039062 10.449219 59.375 8.929688 59.835938 7.300781 C 60.390625 5.363281 62.085938 4.683594 63.8125 5.171875 C 64.480469 5.363281 64.953125 5.640625 65.148438 5.824219 L 64.585938 6.757812 C 64.363281 6.578125 64.03125 6.371094 63.5625 6.242188 C 62.546875 5.953125 61.574219 6.34375 61.210938 7.617188 C 60.886719 8.753906 61.359375 9.664062 62.503906 9.988281 C 62.902344 10.101562 63.347656 10.144531 63.640625 10.109375 L 63.539062 11.171875 "/>
<path style=" stroke:none;fill-rule:nonzero;fill:rgb(100%,100%,100%);fill-opacity:1;" d="M 68.53125 6.988281 L 67.582031 9.0625 L 69.589844 9.976562 L 70.542969 7.902344 L 71.757812 8.453125 L 69.296875 13.832031 L 68.078125 13.277344 L 69.105469 11.035156 L 67.09375 10.121094 L 66.066406 12.363281 L 64.847656 11.808594 L 67.3125 6.433594 L 68.53125 6.988281 "/>
<path style=" stroke:none;fill-rule:nonzero;fill:rgb(100%,100%,100%);fill-opacity:1;" d="M 70.785156 14.65625 L 74.082031 9.742188 L 75.382812 10.605469 L 75.203125 13.089844 C 75.148438 13.800781 75.023438 14.605469 74.878906 15.308594 L 74.894531 15.320312 C 75.261719 14.628906 75.683594 13.949219 76.183594 13.203125 L 77.140625 11.777344 L 78.167969 12.457031 L 74.871094 17.371094 L 73.699219 16.59375 L 73.917969 13.996094 C 73.980469 13.269531 74.070312 12.421875 74.222656 11.691406 L 74.195312 11.671875 C 73.789062 12.351562 73.339844 13.054688 72.804688 13.855469 L 71.8125 15.335938 L 70.785156 14.65625 "/>
<path style=" stroke:none;fill-rule:nonzero;fill:rgb(100%,100%,100%);fill-opacity:1;" d="M 77.984375 20.199219 C 76.707031 19.007812 76.851562 17.332031 78.007812 16.101562 C 79.222656 14.808594 80.964844 14.617188 82.238281 15.804688 C 83.570312 17.042969 83.367188 18.710938 82.25 19.902344 C 80.917969 21.324219 79.261719 21.382812 77.992188 20.203125 L 77.988281 20.199219 M 78.757812 19.464844 C 79.421875 20.082031 80.382812 19.8125 81.175781 18.964844 C 81.902344 18.191406 82.160156 17.183594 81.488281 16.554688 C 80.8125 15.925781 79.816406 16.226562 79.0625 17.035156 C 78.296875 17.847656 78.09375 18.847656 78.75 19.457031 L 78.757812 19.464844 "/>
<path style=" stroke:none;fill-rule:nonzero;fill:rgb(100%,100%,100%);fill-opacity:1;" d="M 85.710938 19.5 L 86.550781 20.542969 L 82.800781 23.535156 L 84.277344 25.371094 L 83.398438 26.070312 L 81.085938 23.199219 L 85.710938 19.5 "/>
<path style=" stroke:none;fill-rule:nonzero;fill:rgb(100%,100%,100%);fill-opacity:1;" d="M 85.214844 29.066406 C 84.3125 27.570312 84.917969 26 86.367188 25.132812 C 87.890625 24.222656 89.621094 24.519531 90.519531 26.007812 C 91.457031 27.5625 90.796875 29.109375 89.394531 29.949219 C 87.71875 30.953125 86.113281 30.554688 85.21875 29.074219 L 85.214844 29.066406 M 86.160156 28.570312 C 86.625 29.347656 87.625 29.351562 88.621094 28.753906 C 89.535156 28.207031 90.0625 27.3125 89.585938 26.523438 C 89.109375 25.734375 88.074219 25.75 87.121094 26.320312 C 86.164062 26.890625 85.691406 27.796875 86.15625 28.5625 L 86.160156 28.570312 "/>
<path style=" stroke:none;fill-rule:nonzero;fill:rgb(100%,100%,100%);fill-opacity:1;" d="M 89.472656 37.265625 C 89.191406 36.933594 88.722656 36.277344 88.433594 35.554688 C 88.03125 34.550781 87.996094 33.726562 88.277344 33.027344 C 88.5625 32.34375 89.171875 31.78125 89.984375 31.460938 C 91.820312 30.742188 93.398438 31.65625 94.113281 33.457031 C 94.398438 34.167969 94.476562 34.769531 94.460938 35.085938 L 93.351562 35.222656 C 93.367188 34.867188 93.320312 34.460938 93.078125 33.859375 C 92.667969 32.824219 91.765625 32.265625 90.566406 32.738281 C 89.421875 33.191406 89.046875 34.167969 89.453125 35.1875 C 89.5625 35.464844 89.683594 35.679688 89.765625 35.761719 L 90.929688 35.300781 L 90.589844 34.453125 L 91.5625 34.070312 L 92.378906 36.117188 L 89.472656 37.265625 "/>
<path style=" stroke:none;fill-rule:nonzero;fill:rgb(100%,100%,100%);fill-opacity:1;" d="M 89.96875 40.214844 L 92.335938 39.671875 L 95.328125 37.070312 L 95.675781 38.5625 L 94.421875 39.464844 C 94.042969 39.738281 93.761719 39.9375 93.417969 40.160156 L 93.417969 40.179688 C 93.808594 40.222656 94.175781 40.285156 94.628906 40.359375 L 96.152344 40.621094 L 96.488281 42.082031 L 92.679688 40.960938 L 90.265625 41.511719 L 89.96875 40.214844 "/>
<path style=" stroke:none;fill-rule:nonzero;fill:rgb(100%,100%,100%);fill-opacity:1;" d="M 93.476562 51.816406 C 94.191406 51.78125 95.042969 51.738281 95.914062 51.726562 L 95.914062 51.707031 C 95.15625 51.527344 94.304688 51.296875 93.605469 51.078125 L 91.277344 50.398438 L 91.261719 49.355469 L 93.539062 48.6875 C 94.242188 48.484375 95.074219 48.277344 95.855469 48.113281 L 95.855469 48.097656 C 95.054688 48.082031 94.136719 48.0625 93.398438 48.039062 L 91.144531 47.960938 L 91.125 46.726562 L 97.0625 47.007812 L 97.089844 48.789062 L 95.109375 49.398438 C 94.4375 49.601562 93.699219 49.789062 93.007812 49.933594 L 93.007812 49.964844 C 93.695312 50.113281 94.472656 50.300781 95.148438 50.492188 L 97.128906 51.082031 L 97.15625 52.835938 L 91.230469 53.246094 L 91.207031 51.949219 L 93.476562 51.816406 "/>
<path style=" stroke:none;fill-rule:nonzero;fill:rgb(100%,100%,100%);fill-opacity:1;" d="M 92.246094 56.398438 L 90.816406 55.738281 L 91.046875 54.375 L 96.59375 57.144531 L 96.300781 58.863281 L 90.140625 59.6875 L 90.382812 58.269531 L 91.960938 58.074219 L 92.246094 56.398438 M 92.984375 58.042969 L 94.289062 57.894531 C 94.652344 57.855469 95.113281 57.828125 95.464844 57.796875 L 95.46875 57.773438 C 95.136719 57.636719 94.710938 57.464844 94.386719 57.324219 L 93.207031 56.757812 L 92.984375 58.042969 "/>
<path style=" stroke:none;fill-rule:nonzero;fill:rgb(100%,100%,100%);fill-opacity:1;" d="M 95.335938 62.84375 C 95.261719 63.335938 95.097656 63.957031 94.882812 64.585938 C 94.515625 65.660156 94.101562 66.296875 93.511719 66.6875 C 92.882812 67.125 92.058594 67.253906 91.054688 66.917969 C 89.980469 66.550781 89.371094 65.910156 89.09375 65.226562 C 88.804688 64.46875 88.878906 63.484375 89.25 62.390625 C 89.476562 61.734375 89.679688 61.273438 89.824219 60.984375 L 95.335938 62.84375 M 90.328125 62.558594 C 90.265625 62.660156 90.203125 62.839844 90.152344 62.992188 C 89.75 64.144531 90.128906 65.113281 91.46875 65.566406 C 92.679688 65.972656 93.488281 65.488281 93.859375 64.390625 C 93.953125 64.117188 93.992188 63.917969 94.003906 63.800781 L 90.328125 62.558594 "/>
<path style=" stroke:none;fill-rule:nonzero;fill:rgb(100%,100%,100%);fill-opacity:1;" d="M 92.695312 69.882812 C 92.566406 70.296875 92.320312 70.882812 91.988281 71.519531 C 91.582031 72.300781 91.179688 72.785156 90.683594 73 C 90.265625 73.1875 89.808594 73.171875 89.324219 72.917969 C 88.660156 72.578125 88.445312 71.863281 88.519531 71.328125 L 88.496094 71.316406 C 88.15625 71.605469 87.707031 71.628906 87.152344 71.511719 C 86.464844 71.363281 85.699219 71.164062 85.441406 71.160156 L 86.074219 69.945312 C 86.261719 69.945312 86.761719 70.035156 87.488281 70.222656 C 88.230469 70.417969 88.519531 70.28125 88.78125 69.792969 L 88.964844 69.445312 L 86.894531 68.375 L 87.503906 67.199219 L 92.695312 69.882812 M 89.824219 69.886719 L 89.578125 70.355469 C 89.273438 70.945312 89.386719 71.449219 89.847656 71.6875 C 90.324219 71.933594 90.746094 71.738281 91.03125 71.191406 C 91.179688 70.90625 91.246094 70.734375 91.269531 70.636719 L 89.824219 69.886719 "/>
<path style=" stroke:none;fill-rule:nonzero;fill:rgb(100%,100%,100%);fill-opacity:1;" d="M 85.152344 74.292969 L 84.160156 73.070312 L 84.976562 71.949219 L 88.71875 76.878906 L 87.691406 78.289062 L 81.800781 76.316406 L 82.648438 75.152344 L 84.148438 75.671875 L 85.152344 74.292969 M 85.082031 76.09375 L 86.320312 76.53125 C 86.660156 76.660156 87.085938 76.835938 87.417969 76.964844 L 87.429688 76.941406 C 87.191406 76.671875 86.886719 76.332031 86.660156 76.0625 L 85.851562 75.035156 L 85.082031 76.09375 "/>
<path style=" stroke:none;fill-rule:nonzero;fill:rgb(100%,100%,100%);fill-opacity:1;" d="M 81.863281 78.269531 C 81.484375 78.394531 80.957031 78.671875 80.5625 79.082031 C 80.136719 79.523438 80.09375 79.933594 80.378906 80.207031 C 80.636719 80.453125 80.992188 80.40625 81.664062 80.066406 C 82.601562 79.597656 83.445312 79.511719 84.074219 80.113281 C 84.804688 80.8125 84.761719 81.953125 83.796875 82.949219 C 83.328125 83.4375 82.898438 83.691406 82.53125 83.828125 L 81.96875 82.875 C 82.207031 82.789062 82.628906 82.59375 83.023438 82.183594 C 83.429688 81.765625 83.425781 81.375 83.210938 81.171875 C 82.9375 80.90625 82.59375 81.027344 81.839844 81.375 C 80.832031 81.859375 80.101562 81.828125 79.496094 81.246094 C 78.777344 80.558594 78.695312 79.429688 79.824219 78.261719 C 80.292969 77.777344 80.890625 77.425781 81.257812 77.3125 L 81.863281 78.269531 "/>
<path style=" stroke:none;fill-rule:nonzero;fill:rgb(100%,100%,100%);fill-opacity:1;" d="M 77.9375 85.324219 C 77.9375 85.804688 77.542969 86.195312 77.058594 86.195312 C 76.570312 86.195312 76.179688 85.804688 76.179688 85.324219 C 76.179688 84.839844 76.570312 84.449219 77.058594 84.449219 C 77.542969 84.449219 77.9375 84.839844 77.9375 85.324219 "/>
<path style=" stroke:none;fill-rule:nonzero;fill:rgb(100%,100%,100%);fill-opacity:1;" d="M 23.820312 85.324219 C 23.820312 85.804688 23.425781 86.195312 22.941406 86.195312 C 22.457031 86.195312 22.0625 85.804688 22.0625 85.324219 C 22.0625 84.839844 22.457031 84.449219 22.941406 84.449219 C 23.425781 84.449219 23.820312 84.839844 23.820312 85.324219 "/>
<path style=" stroke:none;fill-rule:nonzero;fill:rgb(100%,100%,100%);fill-opacity:1;" d="M 29.015625 73.65625 L 43.03125 76.148438 L 41.53125 77.890625 L 55.296875 79.085938 L 53.917969 80.207031 L 67.5 80.800781 L 49.539062 82.574219 L 51.792969 80.582031 L 37.527344 79.136719 L 39.90625 77.394531 L 29.015625 73.65625 "/>
<path style=" stroke:none;fill-rule:nonzero;fill:rgb(100%,100%,100%);fill-opacity:1;" d="M 27.402344 85.789062 L 28.636719 86.507812 C 28.640625 86.273438 28.667969 86.050781 28.726562 85.832031 C 28.78125 85.621094 28.867188 85.417969 28.976562 85.230469 C 29.148438 84.9375 29.414062 84.753906 29.765625 84.6875 C 30.121094 84.617188 30.460938 84.679688 30.792969 84.871094 C 31.199219 85.109375 31.535156 85.535156 31.800781 86.152344 C 32.066406 86.769531 32.234375 87.503906 32.300781 88.355469 L 32.046875 88.382812 C 31.992188 87.761719 31.839844 87.207031 31.582031 86.722656 C 31.324219 86.238281 30.988281 85.875 30.578125 85.632812 C 30.347656 85.5 30.089844 85.488281 29.804688 85.59375 C 29.515625 85.703125 29.289062 85.90625 29.113281 86.195312 C 28.992188 86.40625 28.917969 86.5625 28.898438 86.664062 L 29.382812 86.945312 L 29.472656 87.703125 L 28.808594 87.316406 L 26.53125 91.179688 L 26.089844 90.332031 L 28.109375 86.90625 L 27.484375 86.542969 L 27.402344 85.789062 "/>
<path style=" stroke:none;fill-rule:nonzero;fill:rgb(100%,100%,100%);fill-opacity:1;" d="M 30.773438 92.792969 L 31.484375 91.328125 C 31.433594 91.339844 31.363281 91.335938 31.269531 91.308594 C 31.175781 91.28125 31.066406 91.238281 30.9375 91.175781 C 30.742188 91.082031 30.574219 90.929688 30.429688 90.722656 C 30.285156 90.511719 30.175781 90.265625 30.105469 89.984375 C 29.929688 90.148438 29.746094 90.273438 29.542969 90.359375 C 29.34375 90.441406 29.148438 90.472656 28.964844 90.449219 C 29.089844 91.160156 29.363281 91.875 29.792969 92.601562 L 29.292969 92.8125 C 28.5625 90.726562 28.300781 89.472656 28.511719 89.046875 C 28.566406 88.929688 28.644531 88.847656 28.75 88.800781 C 28.851562 88.75 28.945312 88.746094 29.035156 88.789062 C 29.132812 88.835938 29.207031 88.917969 29.257812 89.035156 C 29.3125 89.148438 29.339844 89.289062 29.339844 89.445312 C 29.511719 89.445312 29.671875 89.398438 29.820312 89.308594 C 29.96875 89.21875 30.078125 89.089844 30.15625 88.933594 C 30.226562 88.792969 30.273438 88.65625 30.296875 88.523438 C 30.324219 88.390625 30.328125 88.269531 30.308594 88.152344 L 28.941406 87.496094 L 28.796875 86.746094 L 33.792969 89.15625 L 33.9375 89.90625 L 33.25 89.570312 L 31.285156 93.605469 L 30.773438 92.792969 M 30.613281 88.996094 C 30.550781 89.238281 30.457031 89.488281 30.328125 89.753906 C 30.414062 89.9375 30.511719 90.09375 30.621094 90.226562 C 30.730469 90.359375 30.847656 90.457031 30.976562 90.519531 C 31.109375 90.582031 31.257812 90.613281 31.417969 90.613281 C 31.574219 90.609375 31.734375 90.570312 31.886719 90.503906 L 32.515625 89.21875 L 30.679688 88.332031 C 30.695312 88.535156 30.671875 88.757812 30.613281 88.996094 "/>
<path style=" stroke:none;fill-rule:nonzero;fill:rgb(100%,100%,100%);fill-opacity:1;" d="M 33.261719 88.890625 L 34.601562 89.410156 C 34.566406 89.179688 34.5625 88.953125 34.582031 88.734375 C 34.601562 88.511719 34.648438 88.300781 34.730469 88.101562 C 34.851562 87.785156 35.082031 87.566406 35.421875 87.441406 C 35.757812 87.320312 36.105469 87.328125 36.460938 87.46875 C 36.898438 87.636719 37.296875 88.003906 37.660156 88.570312 C 38.019531 89.132812 38.300781 89.828125 38.503906 90.65625 L 38.261719 90.722656 C 38.109375 90.121094 37.867188 89.597656 37.539062 89.164062 C 37.207031 88.726562 36.820312 88.421875 36.375 88.25 C 36.128906 88.152344 35.875 88.179688 35.609375 88.332031 C 35.34375 88.484375 35.152344 88.71875 35.027344 89.03125 C 34.9375 89.257812 34.894531 89.421875 34.886719 89.523438 L 35.40625 89.722656 L 35.613281 90.464844 L 34.898438 90.183594 L 33.261719 94.359375 L 32.6875 93.589844 L 34.136719 89.890625 L 33.464844 89.628906 L 33.261719 88.890625 "/>
<path style=" stroke:none;fill-rule:nonzero;fill:rgb(100%,100%,100%);fill-opacity:1;" d="M 40.152344 91.230469 L 40.414062 91.949219 L 39.535156 91.6875 L 39.125 93.046875 L 37.21875 92.476562 C 37.070312 92.433594 36.925781 92.453125 36.785156 92.535156 C 36.648438 92.617188 36.554688 92.742188 36.503906 92.902344 C 36.453125 93.078125 36.484375 93.25 36.597656 93.417969 C 36.714844 93.589844 36.878906 93.707031 37.09375 93.769531 L 37.695312 93.898438 C 37.6875 93.851562 37.683594 93.808594 37.683594 93.765625 C 37.679688 93.722656 37.683594 93.683594 37.695312 93.652344 C 37.730469 93.527344 37.824219 93.441406 37.96875 93.382812 C 38.113281 93.328125 38.269531 93.324219 38.441406 93.375 C 38.617188 93.429688 38.746094 93.539062 38.828125 93.710938 C 38.914062 93.878906 38.925781 94.058594 38.867188 94.25 C 38.832031 94.371094 38.753906 94.472656 38.632812 94.554688 C 38.511719 94.636719 38.367188 94.679688 38.203125 94.6875 L 38.972656 96.191406 L 38.496094 96.367188 L 38.089844 95.238281 C 37.84375 95.433594 37.582031 95.558594 37.292969 95.625 C 37.007812 95.6875 36.738281 95.679688 36.480469 95.605469 C 36.167969 95.511719 35.886719 95.3125 35.632812 95.011719 C 35.382812 94.710938 35.285156 94.457031 35.34375 94.257812 C 35.367188 94.183594 35.394531 94.121094 35.433594 94.0625 C 35.46875 94 35.511719 93.945312 35.558594 93.894531 C 35.234375 93.773438 34.984375 93.585938 34.816406 93.339844 C 34.644531 93.09375 34.59375 92.851562 34.664062 92.617188 C 34.691406 92.535156 34.757812 92.4375 34.863281 92.332031 C 34.96875 92.226562 35.109375 92.113281 35.277344 92.003906 L 35.789062 92.792969 C 35.671875 92.84375 35.574219 92.902344 35.5 92.964844 C 35.421875 93.023438 35.378906 93.085938 35.359375 93.144531 C 35.332031 93.234375 35.355469 93.328125 35.429688 93.425781 C 35.503906 93.523438 35.609375 93.589844 35.746094 93.632812 L 36.230469 93.457031 C 36.113281 93.28125 36.035156 93.089844 36.003906 92.886719 C 35.972656 92.679688 35.988281 92.480469 36.042969 92.285156 C 36.113281 92.058594 36.28125 91.894531 36.550781 91.796875 C 36.816406 91.699219 37.109375 91.699219 37.421875 91.792969 L 38.546875 92.128906 L 38.753906 91.453125 L 35.058594 90.347656 L 34.796875 89.628906 L 40.152344 91.230469 M 35.917969 94.898438 C 35.972656 94.992188 36.054688 95.054688 36.164062 95.085938 C 36.386719 95.152344 36.625 95.140625 36.871094 95.054688 C 37.121094 94.964844 37.34375 94.8125 37.539062 94.597656 C 37.089844 94.460938 36.792969 94.320312 36.652344 94.171875 C 36.464844 94.164062 36.296875 94.203125 36.15625 94.289062 C 36.015625 94.371094 35.921875 94.484375 35.878906 94.628906 C 35.851562 94.71875 35.863281 94.808594 35.917969 94.898438 "/>
<path style=" stroke:none;fill-rule:nonzero;fill:rgb(100%,100%,100%);fill-opacity:1;" d="M 42.191406 91.597656 L 44.652344 92.042969 L 44.996094 92.730469 L 44.242188 92.59375 L 43.4375 97 L 42.722656 96.351562 L 42.960938 95.046875 L 41.507812 94.785156 L 41.417969 95.289062 C 41.394531 95.398438 41.347656 95.488281 41.273438 95.554688 C 41.199219 95.621094 41.125 95.644531 41.042969 95.632812 C 40.800781 95.589844 40.558594 95.378906 40.320312 95.007812 C 40.082031 94.632812 39.984375 94.3125 40.03125 94.054688 C 40.046875 93.988281 40.089844 93.9375 40.167969 93.898438 C 40.25 93.863281 40.332031 93.851562 40.429688 93.867188 L 40.828125 93.941406 L 41 92.992188 C 40.621094 92.808594 40.328125 92.566406 40.125 92.261719 C 39.925781 91.957031 39.851562 91.652344 39.90625 91.34375 C 39.941406 91.148438 40.050781 91 40.234375 90.890625 C 40.414062 90.78125 40.617188 90.746094 40.839844 90.789062 C 41.140625 90.839844 41.410156 91.058594 41.652344 91.4375 C 41.894531 91.816406 41.984375 92.164062 41.925781 92.484375 L 41.636719 94.085938 L 43.089844 94.347656 L 43.433594 92.449219 L 42.484375 92.277344 L 42.191406 91.597656 M 40.578125 92.277344 C 40.699219 92.425781 40.863281 92.53125 41.074219 92.589844 L 41.230469 91.738281 C 41.246094 91.644531 41.242188 91.558594 41.214844 91.480469 C 41.1875 91.40625 41.148438 91.359375 41.09375 91.351562 C 40.941406 91.324219 40.800781 91.355469 40.675781 91.441406 C 40.546875 91.527344 40.472656 91.648438 40.441406 91.800781 C 40.410156 91.96875 40.457031 92.128906 40.578125 92.277344 "/>
<path style=" stroke:none;fill-rule:nonzero;fill:rgb(100%,100%,100%);fill-opacity:1;" d="M 43.4375 89.542969 C 43.652344 89.386719 43.886719 89.324219 44.152344 89.359375 C 44.421875 89.390625 44.660156 89.492188 44.871094 89.667969 C 45.085938 89.839844 45.230469 90.058594 45.316406 90.320312 L 45.144531 90.453125 C 45.0625 90.328125 44.96875 90.226562 44.863281 90.152344 C 44.757812 90.078125 44.644531 90.03125 44.53125 90.019531 C 44.296875 89.988281 44.082031 90.050781 43.894531 90.195312 C 43.703125 90.34375 43.59375 90.535156 43.566406 90.773438 C 43.546875 90.902344 43.570312 91.042969 43.628906 91.203125 C 43.6875 91.359375 43.78125 91.523438 43.910156 91.6875 L 43.6875 91.828125 C 43.460938 91.578125 43.289062 91.308594 43.183594 91.011719 C 43.074219 90.71875 43.039062 90.429688 43.074219 90.148438 C 43.105469 89.898438 43.226562 89.699219 43.4375 89.542969 "/>
<path style=" stroke:none;fill-rule:nonzero;fill:rgb(100%,100%,100%);fill-opacity:1;" d="M 48.832031 92.347656 L 49.246094 92.996094 L 48.480469 92.9375 L 48.144531 97.410156 L 47.371094 96.839844 L 47.445312 95.820312 C 47.238281 95.96875 47.023438 96.078125 46.804688 96.152344 C 46.589844 96.226562 46.382812 96.253906 46.183594 96.238281 C 45.804688 96.210938 45.433594 96.007812 45.074219 95.625 C 44.710938 95.246094 44.546875 94.882812 44.570312 94.539062 C 44.59375 94.246094 44.734375 94.003906 44.996094 93.8125 C 45.261719 93.621094 45.570312 93.539062 45.921875 93.566406 C 46.238281 93.585938 46.535156 93.695312 46.820312 93.886719 C 47.105469 94.078125 47.34375 94.332031 47.53125 94.65625 L 47.664062 92.878906 L 44.394531 92.636719 L 43.980469 91.992188 L 48.832031 92.347656 M 45.367188 95.398438 C 45.488281 95.515625 45.640625 95.582031 45.824219 95.597656 C 46.074219 95.617188 46.347656 95.574219 46.636719 95.472656 C 46.929688 95.371094 47.21875 95.21875 47.507812 95.007812 C 47.347656 94.785156 47.167969 94.609375 46.972656 94.480469 C 46.777344 94.347656 46.582031 94.277344 46.382812 94.261719 C 46.074219 94.238281 45.800781 94.300781 45.574219 94.441406 C 45.34375 94.585938 45.21875 94.765625 45.203125 94.992188 C 45.191406 95.148438 45.246094 95.28125 45.367188 95.398438 "/>
<path style=" stroke:none;fill-rule:nonzero;fill:rgb(100%,100%,100%);fill-opacity:1;" d="M 48.339844 92.300781 L 49.777344 92.324219 C 49.664062 92.121094 49.578125 91.910156 49.519531 91.695312 C 49.460938 91.480469 49.433594 91.265625 49.4375 91.046875 C 49.445312 90.710938 49.582031 90.425781 49.855469 90.191406 C 50.128906 89.960938 50.457031 89.84375 50.839844 89.851562 C 51.3125 89.859375 51.8125 90.066406 52.351562 90.46875 C 52.886719 90.875 53.394531 91.429688 53.875 92.136719 L 53.667969 92.285156 C 53.3125 91.773438 52.90625 91.367188 52.441406 91.070312 C 51.980469 90.777344 51.511719 90.625 51.03125 90.617188 C 50.765625 90.613281 50.539062 90.730469 50.339844 90.960938 C 50.148438 91.199219 50.046875 91.480469 50.039062 91.820312 C 50.035156 92.066406 50.050781 92.234375 50.082031 92.328125 L 50.644531 92.339844 L 51.09375 92.960938 L 50.328125 92.945312 L 50.253906 97.421875 L 49.445312 96.902344 L 49.511719 92.933594 L 48.789062 92.921875 L 48.339844 92.300781 "/>
<path style=" stroke:none;fill-rule:nonzero;fill:rgb(100%,100%,100%);fill-opacity:1;" d="M 54.820312 92.101562 L 55.320312 92.683594 L 54.554688 92.734375 L 54.855469 97.203125 L 54.003906 96.75 L 53.855469 94.511719 L 52.273438 94.617188 C 52.128906 94.628906 52.015625 94.703125 51.925781 94.835938 C 51.835938 94.972656 51.792969 95.128906 51.808594 95.3125 C 51.824219 95.589844 51.933594 95.875 52.132812 96.164062 C 52.328125 96.453125 52.597656 96.722656 52.941406 96.972656 L 52.652344 97.246094 C 52.148438 96.804688 51.75 96.386719 51.46875 95.992188 C 51.183594 95.59375 51.03125 95.25 51.011719 94.960938 C 50.996094 94.667969 51.066406 94.410156 51.234375 94.1875 C 51.398438 93.96875 51.609375 93.847656 51.859375 93.832031 L 53.800781 93.703125 L 53.742188 92.789062 L 50.523438 93 L 50.023438 92.417969 L 54.820312 92.101562 "/>
<path style=" stroke:none;fill-rule:nonzero;fill:rgb(100%,100%,100%);fill-opacity:1;" d="M 61.703125 90.824219 L 62.277344 91.328125 L 59.875 91.816406 L 60.148438 93.164062 C 60.222656 93.03125 60.316406 92.921875 60.433594 92.832031 C 60.550781 92.746094 60.683594 92.6875 60.832031 92.660156 C 61.105469 92.601562 61.425781 92.746094 61.792969 93.09375 C 62.15625 93.4375 62.378906 93.808594 62.457031 94.199219 C 62.496094 94.378906 62.496094 94.582031 62.460938 94.804688 C 62.425781 95.027344 62.355469 95.253906 62.25 95.492188 L 61.472656 95.023438 C 61.628906 94.792969 61.734375 94.566406 61.800781 94.34375 C 61.863281 94.125 61.878906 93.929688 61.84375 93.753906 C 61.808594 93.589844 61.726562 93.460938 61.59375 93.363281 C 61.464844 93.269531 61.320312 93.238281 61.164062 93.269531 C 61.023438 93.296875 60.878906 93.382812 60.734375 93.519531 C 60.585938 93.65625 60.453125 93.835938 60.332031 94.0625 L 60.769531 96.207031 L 59.871094 95.867188 L 59.648438 94.773438 C 59.554688 94.90625 59.441406 95.019531 59.308594 95.109375 C 59.171875 95.199219 59.027344 95.257812 58.867188 95.292969 C 58.566406 95.351562 58.226562 95.242188 57.859375 94.957031 C 57.484375 94.671875 57.265625 94.359375 57.195312 94.019531 C 57.148438 93.789062 57.207031 93.570312 57.371094 93.363281 C 57.535156 93.15625 57.75 93.027344 58.027344 92.96875 C 58.238281 92.925781 58.464844 92.949219 58.703125 93.039062 C 58.941406 93.132812 59.167969 93.277344 59.382812 93.476562 L 59.074219 91.980469 L 56.558594 92.488281 L 55.988281 91.984375 L 61.703125 90.824219 M 58.011719 94.695312 C 58.125 94.773438 58.253906 94.796875 58.394531 94.765625 C 58.601562 94.726562 58.796875 94.625 58.984375 94.46875 C 59.171875 94.3125 59.332031 94.117188 59.460938 93.875 C 59.34375 93.738281 59.210938 93.640625 59.054688 93.582031 C 58.898438 93.519531 58.753906 93.5 58.613281 93.53125 C 58.351562 93.582031 58.140625 93.691406 57.980469 93.855469 C 57.816406 94.019531 57.753906 94.191406 57.792969 94.367188 C 57.820312 94.507812 57.894531 94.617188 58.011719 94.695312 "/>
<path style=" stroke:none;fill-rule:nonzero;fill:rgb(100%,100%,100%);fill-opacity:1;" d="M 61.40625 96.039062 L 61.414062 96.039062 L 61.417969 96.050781 L 61.410156 96.050781 L 61.40625 96.039062 "/>
<path style=" stroke:none;fill-rule:nonzero;fill:rgb(100%,100%,100%);fill-opacity:1;" d="M 65.605469 89.417969 L 66.242188 89.851562 L 65.515625 90.09375 L 66.972656 94.332031 L 66.035156 94.117188 L 65.636719 92.960938 L 64.183594 93.457031 L 64.347656 93.9375 C 64.386719 94.046875 64.390625 94.148438 64.355469 94.242188 C 64.324219 94.335938 64.265625 94.394531 64.191406 94.421875 C 63.945312 94.503906 63.617188 94.4375 63.210938 94.214844 C 62.804688 93.996094 62.554688 93.757812 62.46875 93.5 C 62.441406 93.425781 62.453125 93.34375 62.5 93.265625 C 62.546875 93.183594 62.617188 93.128906 62.707031 93.097656 L 63.140625 92.949219 L 62.515625 91.117188 L 61.496094 91.464844 L 60.863281 91.035156 L 65.605469 89.417969 M 63.917969 92.683594 L 65.371094 92.1875 L 64.742188 90.359375 L 63.289062 90.855469 L 63.917969 92.683594 "/>
<path style=" stroke:none;fill-rule:nonzero;fill:rgb(100%,100%,100%);fill-opacity:1;" d="M 63.335938 87.820312 C 63.445312 87.585938 63.625 87.417969 63.871094 87.316406 C 64.125 87.21875 64.386719 87.191406 64.65625 87.242188 C 64.925781 87.289062 65.160156 87.410156 65.359375 87.597656 L 65.277344 87.796875 C 65.144531 87.726562 65.011719 87.683594 64.882812 87.667969 C 64.75 87.65625 64.632812 87.667969 64.523438 87.714844 C 64.300781 87.800781 64.144531 87.957031 64.046875 88.175781 C 63.953125 88.398438 63.953125 88.621094 64.039062 88.839844 C 64.089844 88.960938 64.175781 89.074219 64.304688 89.183594 C 64.433594 89.292969 64.597656 89.390625 64.792969 89.472656 L 64.664062 89.699219 C 64.34375 89.59375 64.0625 89.441406 63.824219 89.234375 C 63.589844 89.027344 63.417969 88.796875 63.3125 88.53125 C 63.21875 88.296875 63.226562 88.0625 63.335938 87.820312 "/>
<path style=" stroke:none;fill-rule:nonzero;fill:rgb(100%,100%,100%);fill-opacity:1;" d="M 70.183594 87.3125 L 70.859375 87.664062 L 70.167969 87.988281 L 72.089844 92.035156 L 71.128906 91.925781 L 70.210938 89.992188 L 68.914062 90.601562 C 69.199219 90.679688 69.449219 90.792969 69.664062 90.949219 C 69.875 91.105469 70.035156 91.289062 70.132812 91.496094 C 70.242188 91.722656 70.246094 91.957031 70.152344 92.203125 C 70.054688 92.445312 69.886719 92.625 69.648438 92.738281 C 69.246094 92.925781 68.742188 92.878906 68.144531 92.59375 C 67.546875 92.308594 66.972656 91.84375 66.429688 91.207031 L 66.660156 90.984375 C 67.046875 91.433594 67.457031 91.757812 67.886719 91.957031 C 68.316406 92.152344 68.679688 92.179688 68.976562 92.042969 C 69.105469 91.980469 69.191406 91.878906 69.234375 91.738281 C 69.277344 91.597656 69.265625 91.457031 69.199219 91.316406 C 69.09375 91.101562 68.890625 90.910156 68.582031 90.746094 C 68.273438 90.582031 67.898438 90.460938 67.453125 90.382812 L 69.859375 89.25 L 69.425781 88.335938 L 65.640625 90.117188 L 64.960938 89.765625 L 70.183594 87.3125 "/>
<path style=" stroke:none;fill-rule:nonzero;fill:rgb(100%,100%,100%);fill-opacity:1;" d="M 71.621094 86.40625 L 72.328125 86.710938 L 71.664062 87.089844 L 73.910156 90.972656 L 72.945312 90.9375 L 70.953125 87.5 L 70.320312 87.859375 L 69.613281 87.558594 L 71.621094 86.40625 "/>
<path style=" stroke:none;fill-rule:nonzero;fill:rgb(100%,100%,100%);fill-opacity:1;" d="M 57.859375 51.128906 C 56.601562 53.863281 54.851562 56.273438 53.039062 58.675781 C 56.121094 59.476562 60.03125 59.996094 63.242188 59.773438 C 66.707031 59.535156 70.222656 59.121094 73.59375 58.261719 C 74.382812 58.0625 77.402344 57.40625 77.402344 56.117188 C 77.402344 54.171875 69.300781 51.882812 57.859375 51.128906 M 22.597656 56.140625 C 22.597656 57.429688 25.617188 58.085938 26.40625 58.289062 C 29.777344 59.148438 33.292969 59.5625 36.757812 59.800781 C 39.96875 60.023438 43.878906 59.503906 46.960938 58.699219 C 45.148438 56.296875 43.398438 53.886719 42.140625 51.15625 C 30.699219 51.90625 22.597656 54.195312 22.597656 56.140625 "/>
<path style=" stroke:none;fill-rule:nonzero;fill:rgb(11.764706%,9.803922%,9.019608%);fill-opacity:1;" d="M 57.859375 51.128906 L 57.746094 51.078125 C 56.496094 53.792969 54.75 56.199219 52.9375 58.601562 L 52.828125 58.746094 L 53.007812 58.792969 C 55.617188 59.472656 58.808594 59.949219 61.679688 59.949219 C 62.214844 59.949219 62.742188 59.933594 63.25 59.898438 C 66.722656 59.660156 70.242188 59.246094 73.625 58.382812 C 74.015625 58.285156 74.976562 58.066406 75.839844 57.710938 C 76.273438 57.535156 76.6875 57.320312 76.996094 57.0625 C 77.304688 56.804688 77.523438 56.488281 77.523438 56.117188 C 77.523438 55.828125 77.375 55.550781 77.117188 55.289062 C 76.667969 54.828125 75.871094 54.382812 74.769531 53.949219 C 71.460938 52.65625 65.386719 51.5 57.867188 51.007812 L 57.78125 51 L 57.746094 51.078125 L 57.859375 51.128906 L 57.851562 51.253906 C 63.566406 51.628906 68.445312 52.390625 71.890625 53.296875 C 73.609375 53.75 74.972656 54.238281 75.898438 54.730469 C 76.359375 54.976562 76.710938 55.226562 76.941406 55.460938 C 77.171875 55.699219 77.273438 55.917969 77.273438 56.117188 C 77.273438 56.386719 77.117188 56.636719 76.835938 56.871094 C 76.417969 57.222656 75.746094 57.507812 75.105469 57.714844 C 74.464844 57.925781 73.863281 58.066406 73.5625 58.144531 C 70.203125 59 66.695312 59.414062 63.234375 59.652344 C 62.730469 59.6875 62.210938 59.703125 61.679688 59.703125 C 58.835938 59.703125 55.65625 59.226562 53.070312 58.554688 L 53.039062 58.675781 L 53.136719 58.75 C 54.949219 56.347656 56.710938 53.925781 57.972656 51.183594 L 57.859375 51.128906 L 57.851562 51.253906 Z M 22.597656 56.140625 L 22.476562 56.140625 C 22.476562 56.515625 22.695312 56.832031 23.003906 57.089844 C 23.46875 57.476562 24.164062 57.761719 24.816406 57.980469 C 25.46875 58.195312 26.082031 58.335938 26.375 58.40625 C 29.757812 59.269531 33.277344 59.6875 36.75 59.925781 C 37.257812 59.960938 37.785156 59.976562 38.320312 59.976562 C 41.191406 59.976562 44.382812 59.5 46.992188 58.820312 L 47.171875 58.773438 L 47.0625 58.625 C 45.25 56.226562 43.503906 53.820312 42.253906 51.105469 L 42.21875 51.027344 L 42.132812 51.03125 C 36.402344 51.40625 31.511719 52.167969 28.046875 53.082031 C 26.3125 53.539062 24.9375 54.03125 23.984375 54.539062 C 23.507812 54.792969 23.136719 55.050781 22.882812 55.3125 C 22.625 55.574219 22.476562 55.855469 22.476562 56.140625 L 22.726562 56.140625 C 22.726562 55.945312 22.828125 55.722656 23.058594 55.488281 C 23.460938 55.070312 24.238281 54.628906 25.324219 54.207031 C 28.585938 52.929688 34.648438 51.773438 42.148438 51.28125 L 42.140625 51.15625 L 42.027344 51.207031 C 43.289062 53.953125 45.050781 56.371094 46.863281 58.777344 L 46.960938 58.699219 L 46.929688 58.578125 C 44.34375 59.253906 41.164062 59.726562 38.320312 59.726562 C 37.789062 59.726562 37.269531 59.710938 36.765625 59.675781 C 33.304688 59.4375 29.796875 59.023438 26.4375 58.167969 C 26.039062 58.066406 25.09375 57.851562 24.253906 57.507812 C 23.835938 57.335938 23.441406 57.128906 23.164062 56.898438 C 22.882812 56.664062 22.726562 56.414062 22.726562 56.140625 L 22.597656 56.140625 "/>
<path style=" stroke:none;fill-rule:nonzero;fill:rgb(100%,100%,100%);fill-opacity:1;" d="M 46.964844 58.6875 C 45.167969 56.300781 43.425781 53.855469 42.175781 51.136719 C 42.082031 50.925781 41.980469 50.71875 41.890625 50.507812 C 41.261719 49.019531 40.757812 47.496094 40.464844 46.019531 C 39.148438 39.398438 41.246094 32.671875 44.929688 27.167969 C 47.078125 23.949219 49.371094 20.675781 49.953125 16.765625 L 50.082031 16.765625 C 50.664062 20.675781 52.957031 23.949219 55.105469 27.167969 C 58.785156 32.671875 60.886719 39.398438 59.570312 46.019531 C 59.277344 47.496094 58.773438 49.019531 58.144531 50.507812 C 58.054688 50.71875 57.953125 50.921875 57.859375 51.128906 C 56.601562 53.863281 54.851562 56.273438 53.039062 58.675781 C 51.90625 58.382812 50.882812 58.050781 50.050781 57.703125 C 49.214844 58.050781 48.191406 58.382812 47.054688 58.675781 L 46.964844 58.6875 "/>
<path style=" stroke:none;fill-rule:nonzero;fill:rgb(11.764706%,9.803922%,9.019608%);fill-opacity:1;" d="M 46.964844 58.6875 L 47.066406 58.613281 C 45.265625 56.226562 43.535156 53.789062 42.289062 51.082031 C 42.195312 50.871094 42.09375 50.664062 42.007812 50.457031 C 41.378906 48.976562 40.878906 47.460938 40.589844 45.996094 C 40.320312 44.652344 40.195312 43.308594 40.195312 41.96875 C 40.195312 36.734375 42.113281 31.601562 45.03125 27.238281 C 47.179688 24.019531 49.484375 20.730469 50.078125 16.78125 L 49.953125 16.765625 L 49.953125 16.890625 L 50.082031 16.890625 L 50.082031 16.765625 L 49.957031 16.78125 C 50.550781 20.730469 52.855469 24.019531 55.003906 27.238281 C 57.921875 31.605469 59.839844 36.738281 59.839844 41.96875 C 59.839844 43.308594 59.714844 44.65625 59.449219 45.996094 C 59.15625 47.460938 58.65625 48.976562 58.027344 50.457031 C 57.941406 50.664062 57.839844 50.871094 57.746094 51.078125 C 56.496094 53.792969 54.75 56.199219 52.9375 58.601562 L 53.039062 58.675781 L 53.070312 58.554688 C 51.941406 58.261719 50.921875 57.933594 50.097656 57.585938 L 50.050781 57.566406 L 50.003906 57.585938 C 49.175781 57.933594 48.152344 58.261719 47.023438 58.554688 L 47.054688 58.675781 L 47.039062 58.554688 L 46.949219 58.5625 L 46.839844 58.578125 L 46.839844 58.6875 L 46.964844 58.6875 L 47.066406 58.613281 L 46.964844 58.6875 L 47.089844 58.6875 L 46.964844 58.6875 L 46.980469 58.8125 L 47.070312 58.800781 L 47.078125 58.800781 L 47.089844 58.796875 C 48.226562 58.5 49.257812 58.167969 50.097656 57.816406 L 50.050781 57.703125 L 50.003906 57.816406 C 50.84375 58.167969 51.871094 58.5 53.007812 58.792969 L 53.085938 58.816406 L 53.136719 58.75 C 54.949219 56.347656 56.710938 53.925781 57.972656 51.183594 C 58.066406 50.976562 58.167969 50.769531 58.257812 50.554688 C 58.890625 49.0625 59.394531 47.53125 59.691406 46.046875 C 59.964844 44.6875 60.089844 43.324219 60.089844 41.96875 C 60.089844 36.675781 58.152344 31.5 55.210938 27.097656 C 53.058594 23.878906 50.78125 20.617188 50.203125 16.746094 L 50.1875 16.640625 L 49.847656 16.640625 L 49.832031 16.746094 C 49.253906 20.617188 46.976562 23.878906 44.824219 27.097656 C 41.882812 31.5 39.945312 36.671875 39.945312 41.96875 C 39.945312 43.324219 40.074219 44.6875 40.34375 46.046875 C 40.636719 47.53125 41.144531 49.0625 41.777344 50.554688 C 41.867188 50.769531 41.96875 50.980469 42.0625 51.1875 C 43.320312 53.921875 45.066406 56.371094 46.867188 58.761719 L 47.089844 59.0625 L 47.089844 58.6875 L 46.964844 58.6875 "/>
<path style=" stroke:none;fill-rule:nonzero;fill:rgb(45.490196%,10.980392%,11.372549%);fill-opacity:1;" d="M 46.960938 58.699219 C 43.878906 59.503906 39.96875 60.023438 36.757812 59.800781 C 33.292969 59.5625 29.777344 59.148438 26.40625 58.289062 C 25.691406 58.105469 23.152344 57.550781 22.675781 56.492188 C 25.292969 66.046875 36.535156 73.230469 50.007812 73.230469 C 63.476562 73.230469 74.71875 66.046875 77.332031 56.492188 L 77.308594 56.492188 C 76.800781 57.535156 74.300781 58.082031 73.59375 58.261719 C 70.222656 59.121094 66.707031 59.535156 63.242188 59.773438 C 60.03125 59.996094 56.121094 59.476562 53.039062 58.675781 C 51.90625 58.382812 50.882812 58.050781 50.050781 57.703125 C 49.214844 58.050781 48.1875 58.382812 47.054688 58.675781 L 46.964844 58.6875 L 46.960938 58.699219 "/>
<path style=" stroke:none;fill-rule:nonzero;fill:rgb(11.764706%,9.803922%,9.019608%);fill-opacity:1;" d="M 46.929688 58.578125 C 44.34375 59.253906 41.164062 59.726562 38.320312 59.726562 C 37.789062 59.726562 37.269531 59.710938 36.765625 59.675781 C 33.304688 59.4375 29.796875 59.023438 26.4375 58.167969 C 26.078125 58.074219 25.269531 57.894531 24.496094 57.601562 C 24.109375 57.457031 23.734375 57.285156 23.429688 57.089844 C 23.125 56.894531 22.894531 56.671875 22.792969 56.441406 L 22.757812 56.367188 L 22.515625 56.367188 L 22.558594 56.523438 C 25.199219 66.152344 36.492188 73.355469 50.007812 73.355469 C 63.519531 73.355469 74.8125 66.152344 77.453125 56.527344 L 77.496094 56.367188 L 77.230469 56.367188 L 77.195312 56.4375 C 77.085938 56.667969 76.855469 56.886719 76.546875 57.078125 C 76.089844 57.371094 75.472656 57.605469 74.910156 57.78125 C 74.34375 57.957031 73.832031 58.074219 73.5625 58.144531 C 70.203125 59 66.695312 59.414062 63.234375 59.652344 C 62.730469 59.6875 62.210938 59.703125 61.679688 59.703125 C 58.835938 59.703125 55.65625 59.226562 53.070312 58.554688 C 51.941406 58.261719 50.921875 57.933594 50.097656 57.585938 L 50.050781 57.566406 L 50.003906 57.585938 C 49.175781 57.933594 48.152344 58.261719 47.023438 58.554688 L 47.054688 58.675781 L 47.039062 58.554688 L 46.949219 58.5625 L 46.980469 58.8125 L 47.070312 58.800781 L 47.078125 58.800781 L 47.089844 58.796875 C 48.226562 58.5 49.257812 58.167969 50.097656 57.816406 L 50.050781 57.703125 L 50.003906 57.816406 C 50.84375 58.167969 51.871094 58.5 53.007812 58.792969 C 55.617188 59.472656 58.808594 59.949219 61.679688 59.949219 C 62.214844 59.949219 62.742188 59.933594 63.25 59.898438 C 66.722656 59.660156 70.242188 59.246094 73.625 58.382812 C 73.976562 58.292969 74.785156 58.109375 75.570312 57.816406 C 75.964844 57.671875 76.355469 57.496094 76.679688 57.289062 C 77.007812 57.082031 77.277344 56.839844 77.421875 56.546875 L 77.308594 56.492188 L 77.308594 56.617188 L 77.332031 56.617188 L 77.332031 56.492188 L 77.210938 56.460938 C 74.621094 65.941406 63.433594 73.109375 50.007812 73.105469 C 36.574219 73.109375 25.390625 65.941406 22.796875 56.460938 L 22.675781 56.492188 L 22.675781 56.617188 L 22.675781 56.492188 L 22.5625 56.542969 C 22.699219 56.84375 22.964844 57.085938 23.292969 57.300781 C 23.785156 57.617188 24.417969 57.855469 25 58.039062 C 25.582031 58.21875 26.109375 58.339844 26.375 58.40625 C 29.757812 59.269531 33.277344 59.6875 36.75 59.925781 C 37.257812 59.960938 37.785156 59.976562 38.320312 59.976562 C 41.191406 59.976562 44.382812 59.5 46.992188 58.820312 L 46.929688 58.578125 "/>
<path style=" stroke:none;fill-rule:nonzero;fill:rgb(71.372551%,63.137257%,18.82353%);fill-opacity:1;" d="M 50.5 50.675781 C 50.285156 50.894531 50.09375 51.136719 50.085938 51.335938 L 50.058594 51.335938 C 50.050781 51.128906 49.835938 50.871094 49.609375 50.644531 L 49.609375 57.777344 L 49.867188 57.777344 C 49.929688 57.75 49.992188 57.726562 50.050781 57.703125 C 50.109375 57.726562 50.171875 57.75 50.230469 57.777344 L 50.5 57.777344 L 50.5 50.675781 "/>
<path style=" stroke:none;fill-rule:nonzero;fill:rgb(11.764706%,9.803922%,9.019608%);fill-opacity:1;" d="M 50.5 50.675781 L 50.410156 50.589844 C 50.300781 50.703125 50.195312 50.824219 50.109375 50.945312 C 50.03125 51.066406 49.96875 51.195312 49.960938 51.332031 L 50.085938 51.335938 L 50.085938 51.210938 L 50.058594 51.210938 L 50.058594 51.335938 L 50.183594 51.332031 C 50.175781 51.1875 50.109375 51.054688 50.019531 50.925781 C 49.929688 50.796875 49.8125 50.671875 49.695312 50.554688 L 49.484375 50.34375 L 49.484375 57.902344 L 49.890625 57.902344 L 49.914062 57.890625 C 49.972656 57.867188 50.039062 57.84375 50.097656 57.816406 L 50.050781 57.703125 L 50 57.816406 C 50.0625 57.84375 50.125 57.867188 50.183594 57.890625 L 50.207031 57.902344 L 50.625 57.902344 L 50.625 50.375 L 50.410156 50.589844 L 50.5 50.675781 L 50.375 50.675781 L 50.375 57.652344 L 50.230469 57.652344 L 50.230469 57.777344 L 50.28125 57.660156 C 50.21875 57.636719 50.15625 57.613281 50.097656 57.585938 L 50.050781 57.566406 L 50.003906 57.585938 C 49.945312 57.613281 49.882812 57.636719 49.820312 57.660156 L 49.867188 57.777344 L 49.867188 57.652344 L 49.734375 57.652344 L 49.734375 50.644531 L 49.609375 50.644531 L 49.519531 50.730469 C 49.632812 50.839844 49.738281 50.957031 49.8125 51.066406 C 49.890625 51.175781 49.933594 51.277344 49.933594 51.339844 L 49.9375 51.460938 L 50.207031 51.460938 L 50.210938 51.339844 C 50.210938 51.28125 50.25 51.1875 50.320312 51.082031 C 50.386719 50.980469 50.484375 50.871094 50.589844 50.765625 L 50.5 50.675781 L 50.375 50.675781 L 50.5 50.675781 "/>
<path style=" stroke:none;fill-rule:nonzero;fill:rgb(85.490197%,13.725491%,14.509805%);fill-opacity:1;" d="M 50.167969 45.570312 L 49.972656 45.570312 C 48.988281 45.570312 48.164062 46.273438 47.941406 47.265625 C 47.65625 48.546875 48.246094 49.371094 49.121094 50.195312 C 49.351562 50.414062 50.046875 50.957031 50.058594 51.335938 L 50.085938 51.335938 C 50.097656 50.957031 50.792969 50.414062 51.023438 50.195312 C 51.898438 49.371094 52.488281 48.546875 52.203125 47.265625 C 51.980469 46.273438 51.15625 45.570312 50.171875 45.570312 L 49.976562 45.570312 L 50.167969 45.570312 "/>
<path style=" stroke:none;fill-rule:nonzero;fill:rgb(11.764706%,9.803922%,9.019608%);fill-opacity:1;" d="M 50.167969 45.445312 L 49.972656 45.445312 C 48.925781 45.445312 48.050781 46.195312 47.820312 47.238281 C 47.769531 47.46875 47.746094 47.6875 47.746094 47.894531 C 47.746094 48.386719 47.886719 48.816406 48.117188 49.207031 C 48.351562 49.59375 48.671875 49.941406 49.035156 50.285156 C 49.15625 50.402344 49.382812 50.585938 49.582031 50.792969 C 49.679688 50.894531 49.769531 51 49.835938 51.097656 C 49.898438 51.195312 49.933594 51.28125 49.933594 51.339844 C 49.9375 51.40625 49.992188 51.460938 50.058594 51.460938 L 50.085938 51.460938 C 50.152344 51.460938 50.207031 51.40625 50.210938 51.339844 C 50.210938 51.28125 50.246094 51.195312 50.308594 51.097656 C 50.40625 50.949219 50.5625 50.789062 50.714844 50.640625 C 50.867188 50.496094 51.015625 50.371094 51.109375 50.285156 C 51.476562 49.941406 51.796875 49.59375 52.027344 49.207031 C 52.257812 48.816406 52.402344 48.386719 52.398438 47.894531 C 52.398438 47.6875 52.375 47.46875 52.324219 47.238281 C 52.09375 46.195312 51.21875 45.445312 50.171875 45.445312 L 49.976562 45.445312 L 49.976562 45.691406 L 50.171875 45.691406 C 51.09375 45.691406 51.867188 46.351562 52.082031 47.292969 C 52.128906 47.507812 52.148438 47.707031 52.148438 47.894531 C 52.148438 48.339844 52.027344 48.71875 51.8125 49.078125 C 51.597656 49.433594 51.296875 49.769531 50.9375 50.105469 C 50.828125 50.207031 50.59375 50.402344 50.382812 50.617188 C 50.277344 50.730469 50.179688 50.84375 50.101562 50.960938 C 50.023438 51.078125 49.96875 51.199219 49.960938 51.332031 L 50.085938 51.335938 L 50.085938 51.210938 L 50.058594 51.210938 L 50.058594 51.335938 L 50.183594 51.332031 C 50.175781 51.199219 50.121094 51.078125 50.042969 50.960938 C 49.929688 50.785156 49.761719 50.613281 49.601562 50.460938 C 49.445312 50.3125 49.289062 50.183594 49.207031 50.105469 C 48.851562 49.769531 48.546875 49.433594 48.332031 49.078125 C 48.121094 48.71875 47.996094 48.339844 47.996094 47.894531 C 47.996094 47.707031 48.019531 47.507812 48.066406 47.292969 C 48.277344 46.351562 49.050781 45.691406 49.972656 45.691406 L 50.167969 45.691406 L 50.167969 45.445312 "/>
<path style=" stroke:none;fill-rule:nonzero;fill:rgb(85.490197%,13.725491%,14.509805%);fill-opacity:1;" d="M 47.941406 47.265625 C 48.089844 46.597656 48.515625 46.066406 49.074219 45.789062 L 49.152344 45.667969 C 49.152344 45.667969 46.699219 43.691406 43.632812 46.066406 C 43.78125 46 44.964844 47.019531 45.125 47.132812 C 45.9375 47.710938 46.796875 47.945312 47.808594 47.761719 L 47.886719 47.632812 C 47.902344 47.515625 47.914062 47.394531 47.941406 47.265625 "/>
<path style=" stroke:none;fill-rule:nonzero;fill:rgb(11.764706%,9.803922%,9.019608%);fill-opacity:1;" d="M 47.941406 47.265625 L 48.066406 47.292969 C 48.207031 46.660156 48.605469 46.164062 49.132812 45.898438 L 49.179688 45.855469 L 49.257812 45.734375 C 49.289062 45.683594 49.277344 45.613281 49.230469 45.574219 C 49.21875 45.5625 48.238281 44.773438 46.726562 44.773438 C 45.820312 44.769531 44.726562 45.0625 43.554688 45.96875 C 43.507812 46.007812 43.492188 46.074219 43.527344 46.128906 C 43.558594 46.183594 43.625 46.207031 43.683594 46.179688 L 43.648438 46.101562 L 43.648438 46.1875 L 43.683594 46.179688 L 43.648438 46.101562 L 43.648438 46.1875 L 43.648438 46.160156 L 43.644531 46.1875 L 43.648438 46.1875 L 43.648438 46.160156 L 43.644531 46.1875 C 43.652344 46.1875 43.691406 46.203125 43.738281 46.230469 C 43.910156 46.328125 44.207031 46.558594 44.472656 46.769531 C 44.605469 46.875 44.734375 46.976562 44.835938 47.0625 C 44.9375 47.144531 45.011719 47.203125 45.050781 47.234375 C 45.699219 47.695312 46.386719 47.949219 47.152344 47.949219 C 47.371094 47.949219 47.597656 47.925781 47.828125 47.882812 C 47.863281 47.878906 47.894531 47.859375 47.914062 47.828125 L 47.996094 47.703125 L 48.011719 47.648438 C 48.027344 47.527344 48.039062 47.414062 48.066406 47.292969 L 47.941406 47.265625 L 47.855469 47.355469 C 47.886719 47.386719 47.933594 47.398438 47.976562 47.386719 C 48.023438 47.375 48.054688 47.335938 48.066406 47.292969 L 47.941406 47.265625 L 48.03125 47.179688 C 48 47.148438 47.953125 47.132812 47.910156 47.148438 C 47.863281 47.160156 47.832031 47.195312 47.820312 47.238281 C 47.789062 47.375 47.777344 47.503906 47.765625 47.621094 L 47.886719 47.632812 L 47.785156 47.566406 L 47.703125 47.695312 L 47.808594 47.761719 L 47.785156 47.640625 C 47.566406 47.679688 47.355469 47.699219 47.152344 47.699219 C 46.441406 47.699219 45.8125 47.46875 45.195312 47.027344 C 45.167969 47.007812 45.066406 46.925781 44.9375 46.820312 C 44.742188 46.664062 44.476562 46.449219 44.238281 46.273438 C 44.121094 46.183594 44.011719 46.105469 43.914062 46.046875 C 43.867188 46.015625 43.824219 45.992188 43.78125 45.972656 C 43.742188 45.957031 43.703125 45.9375 43.648438 45.9375 L 43.582031 45.953125 L 43.632812 46.066406 L 43.710938 46.164062 C 44.839844 45.289062 45.875 45.023438 46.726562 45.019531 C 47.4375 45.019531 48.027344 45.207031 48.4375 45.394531 C 48.640625 45.488281 48.800781 45.582031 48.910156 45.652344 C 48.964844 45.6875 49.003906 45.714844 49.035156 45.738281 L 49.070312 45.765625 L 49.152344 45.667969 L 49.046875 45.601562 L 48.96875 45.722656 L 49.074219 45.789062 L 49.019531 45.675781 C 48.425781 45.972656 47.976562 46.535156 47.820312 47.238281 L 47.941406 47.265625 L 48.03125 47.179688 L 47.941406 47.265625 "/>
<path style=" stroke:none;fill-rule:nonzero;fill:rgb(85.490197%,13.725491%,14.509805%);fill-opacity:1;" d="M 50.84375 45.648438 L 50.875 45.695312 C 51.53125 45.941406 52.035156 46.523438 52.203125 47.265625 C 52.242188 47.445312 52.261719 47.613281 52.269531 47.777344 C 53.234375 47.921875 54.058594 47.6875 54.84375 47.132812 C 55 47.019531 56.1875 46 56.332031 46.066406 C 53.265625 43.691406 50.84375 45.648438 50.84375 45.648438 "/>
<path style=" stroke:none;fill-rule:nonzero;fill:rgb(11.764706%,9.803922%,9.019608%);fill-opacity:1;" d="M 50.84375 45.648438 L 50.738281 45.714844 L 50.769531 45.761719 L 50.832031 45.8125 C 51.445312 46.042969 51.921875 46.589844 52.082031 47.292969 L 52.078125 47.292969 C 52.117188 47.464844 52.136719 47.625 52.144531 47.78125 C 52.144531 47.839844 52.191406 47.890625 52.25 47.898438 C 52.445312 47.929688 52.632812 47.945312 52.820312 47.945312 C 53.582031 47.945312 54.269531 47.691406 54.917969 47.234375 C 54.960938 47.199219 55.058594 47.121094 55.1875 47.015625 C 55.382812 46.855469 55.644531 46.644531 55.875 46.472656 C 55.992188 46.386719 56.097656 46.308594 56.183594 46.257812 C 56.226562 46.230469 56.261719 46.210938 56.289062 46.199219 L 56.320312 46.1875 L 56.324219 46.1875 L 56.316406 46.152344 L 56.316406 46.1875 L 56.324219 46.1875 L 56.316406 46.152344 L 56.316406 46.1875 L 56.316406 46.101562 L 56.28125 46.179688 L 56.316406 46.1875 L 56.316406 46.101562 L 56.28125 46.179688 C 56.339844 46.207031 56.40625 46.183594 56.441406 46.128906 C 56.472656 46.078125 56.460938 46.007812 56.410156 45.96875 C 55.234375 45.054688 54.136719 44.765625 53.230469 44.765625 C 51.738281 44.765625 50.777344 45.542969 50.765625 45.550781 L 50.84375 45.648438 L 50.84375 45.523438 C 50.800781 45.523438 50.757812 45.546875 50.734375 45.585938 C 50.714844 45.628906 50.714844 45.675781 50.738281 45.714844 L 50.84375 45.648438 L 50.84375 45.773438 L 50.921875 45.746094 L 50.933594 45.738281 C 51.027344 45.664062 51.914062 45.011719 53.230469 45.015625 C 54.082031 45.015625 55.117188 45.28125 56.257812 46.164062 L 56.332031 46.066406 L 56.386719 45.953125 L 56.316406 45.9375 C 56.246094 45.941406 56.203125 45.964844 56.144531 45.992188 C 55.945312 46.097656 55.644531 46.332031 55.363281 46.554688 C 55.222656 46.664062 55.089844 46.773438 54.984375 46.859375 C 54.878906 46.945312 54.796875 47.011719 54.769531 47.03125 C 54.15625 47.46875 53.527344 47.695312 52.820312 47.695312 C 52.648438 47.695312 52.46875 47.679688 52.285156 47.652344 L 52.269531 47.777344 L 52.394531 47.769531 C 52.386719 47.601562 52.363281 47.425781 52.324219 47.242188 L 52.324219 47.238281 C 52.148438 46.457031 51.617188 45.839844 50.917969 45.578125 L 50.875 45.695312 L 50.980469 45.628906 L 50.949219 45.582031 L 50.84375 45.648438 L 50.84375 45.773438 L 50.84375 45.648438 "/>
<path style=" stroke:none;fill-rule:nonzero;fill:rgb(85.490197%,13.725491%,14.509805%);fill-opacity:1;" d="M 49.945312 31.648438 C 49.945312 31.648438 43.640625 41.230469 49.179688 45.472656 L 50.710938 45.472656 C 56.246094 41.230469 49.941406 31.648438 49.941406 31.648438 L 49.945312 31.648438 "/>
<path style=" stroke:none;fill-rule:nonzero;fill:rgb(11.764706%,9.803922%,9.019608%);fill-opacity:1;" d="M 49.839844 31.582031 C 49.835938 31.585938 49.074219 32.746094 48.308594 34.441406 C 47.546875 36.136719 46.777344 38.367188 46.777344 40.523438 C 46.773438 42.410156 47.375 44.25 49.101562 45.570312 L 49.179688 45.597656 L 50.710938 45.597656 L 50.785156 45.570312 C 52.511719 44.25 53.113281 42.410156 53.113281 40.523438 C 53.109375 38.367188 52.34375 36.136719 51.578125 34.441406 C 50.8125 32.746094 50.050781 31.585938 50.046875 31.582031 C 50.011719 31.523438 49.933594 31.507812 49.875 31.546875 C 49.816406 31.582031 49.800781 31.660156 49.839844 31.714844 C 49.839844 31.714844 49.886719 31.785156 49.96875 31.921875 C 50.546875 32.855469 52.863281 36.855469 52.863281 40.523438 C 52.859375 42.363281 52.289062 44.105469 50.632812 45.375 L 50.710938 45.472656 L 50.710938 45.347656 L 49.179688 45.347656 L 49.179688 45.472656 L 49.253906 45.375 C 47.601562 44.105469 47.027344 42.363281 47.027344 40.523438 C 47.027344 38.429688 47.78125 36.222656 48.535156 34.542969 C 48.914062 33.703125 49.292969 32.996094 49.578125 32.5 C 49.71875 32.25 49.839844 32.054688 49.921875 31.921875 C 50.003906 31.785156 50.050781 31.714844 50.050781 31.714844 C 50.085938 31.660156 50.070312 31.582031 50.015625 31.546875 C 49.957031 31.507812 49.878906 31.523438 49.839844 31.582031 "/>
<path style=" stroke:none;fill-rule:nonzero;fill:rgb(85.490197%,13.725491%,14.509805%);fill-opacity:1;" d="M 48.574219 34.164062 L 45.925781 31.839844 C 46.160156 32.042969 46.0625 33.398438 46.066406 33.703125 C 46.078125 34.4375 46.035156 35.175781 45.964844 35.910156 C 45.867188 36.875 45.65625 37.816406 45.507812 38.777344 C 45.265625 40.289062 45.449219 41.875 46.289062 43.1875 C 46.90625 44.148438 48.0625 44.980469 49.117188 45.421875 C 45.457031 42.542969 47.109375 37.285156 48.574219 34.164062 "/>
<path style=" stroke:none;fill-rule:nonzero;fill:rgb(11.764706%,9.803922%,9.019608%);fill-opacity:1;" d="M 48.574219 34.164062 L 48.660156 34.070312 L 46.007812 31.746094 C 45.957031 31.699219 45.878906 31.707031 45.832031 31.757812 C 45.785156 31.808594 45.792969 31.886719 45.84375 31.933594 C 45.847656 31.933594 45.871094 31.964844 45.886719 32.019531 C 45.941406 32.1875 45.957031 32.53125 45.957031 32.855469 C 45.957031 33.195312 45.941406 33.519531 45.941406 33.679688 L 45.941406 33.707031 C 45.941406 33.785156 45.945312 33.863281 45.945312 33.941406 C 45.945312 34.59375 45.90625 35.246094 45.839844 35.894531 C 45.742188 36.855469 45.535156 37.792969 45.382812 38.757812 C 45.320312 39.164062 45.285156 39.574219 45.285156 39.984375 C 45.285156 41.128906 45.550781 42.265625 46.183594 43.253906 C 46.824219 44.246094 47.992188 45.085938 49.070312 45.535156 C 49.128906 45.558594 49.195312 45.539062 49.226562 45.484375 C 49.257812 45.429688 49.246094 45.363281 49.195312 45.324219 C 47.589844 44.058594 47.03125 42.335938 47.027344 40.519531 C 47.027344 38.285156 47.886719 35.925781 48.6875 34.214844 C 48.714844 34.164062 48.699219 34.101562 48.652344 34.066406 L 48.574219 34.164062 L 48.660156 34.070312 L 48.574219 34.164062 L 48.496094 34.261719 L 48.574219 34.164062 L 48.464844 34.109375 C 47.652344 35.839844 46.777344 38.222656 46.777344 40.519531 C 46.777344 42.382812 47.363281 44.203125 49.042969 45.519531 L 49.117188 45.421875 L 49.167969 45.304688 C 48.128906 44.878906 46.992188 44.050781 46.394531 43.117188 C 45.792969 42.175781 45.535156 41.089844 45.535156 39.984375 C 45.535156 39.585938 45.566406 39.1875 45.628906 38.796875 C 45.78125 37.839844 45.988281 36.898438 46.085938 35.921875 C 46.152344 35.265625 46.191406 34.605469 46.191406 33.941406 C 46.191406 33.863281 46.191406 33.78125 46.191406 33.703125 L 46.191406 33.679688 C 46.191406 33.535156 46.207031 33.199219 46.207031 32.855469 C 46.207031 32.632812 46.203125 32.402344 46.175781 32.207031 C 46.164062 32.113281 46.148438 32.023438 46.125 31.945312 C 46.101562 31.871094 46.070312 31.800781 46.007812 31.746094 C 45.984375 31.726562 45.953125 31.714844 45.917969 31.714844 C 45.886719 31.71875 45.855469 31.734375 45.832031 31.757812 C 45.8125 31.78125 45.800781 31.816406 45.800781 31.847656 C 45.804688 31.878906 45.820312 31.910156 45.84375 31.933594 L 48.492188 34.257812 L 48.496094 34.261719 L 48.574219 34.164062 "/>
<path style=" stroke:none;fill-rule:nonzero;fill:rgb(85.490197%,13.725491%,14.509805%);fill-opacity:1;" d="M 54.410156 38.777344 C 54.257812 37.816406 54.050781 36.875 53.953125 35.910156 C 53.878906 35.175781 53.839844 34.4375 53.851562 33.703125 C 53.855469 33.398438 53.757812 32.042969 53.992188 31.839844 L 51.320312 34.179688 C 52.789062 37.3125 54.433594 42.582031 50.738281 45.449219 C 51.8125 45.015625 53 44.167969 53.628906 43.1875 C 54.46875 41.875 54.652344 40.289062 54.410156 38.777344 "/>
<path style=" stroke:none;fill-rule:nonzero;fill:rgb(11.764706%,9.803922%,9.019608%);fill-opacity:1;" d="M 54.410156 38.777344 L 54.535156 38.757812 C 54.382812 37.792969 54.175781 36.855469 54.078125 35.894531 C 54.015625 35.253906 53.972656 34.605469 53.972656 33.964844 C 53.972656 33.878906 53.976562 33.792969 53.976562 33.707031 L 53.976562 33.683594 C 53.976562 33.527344 53.957031 33.195312 53.957031 32.851562 C 53.957031 32.636719 53.964844 32.414062 53.988281 32.238281 C 54 32.152344 54.015625 32.074219 54.03125 32.019531 C 54.046875 31.964844 54.070312 31.933594 54.074219 31.933594 C 54.125 31.886719 54.128906 31.808594 54.082031 31.757812 C 54.039062 31.707031 53.960938 31.699219 53.90625 31.746094 L 51.238281 34.085938 C 51.195312 34.125 51.183594 34.183594 51.207031 34.234375 C 52.011719 35.945312 52.863281 38.296875 52.859375 40.519531 C 52.859375 42.347656 52.292969 44.082031 50.660156 45.351562 C 50.613281 45.386719 50.597656 45.457031 50.628906 45.511719 C 50.660156 45.5625 50.726562 45.585938 50.785156 45.5625 C 51.882812 45.121094 53.082031 44.265625 53.734375 43.253906 C 54.367188 42.265625 54.632812 41.125 54.632812 39.984375 C 54.632812 39.574219 54.601562 39.164062 54.535156 38.757812 L 54.410156 38.777344 L 54.289062 38.796875 C 54.351562 39.1875 54.382812 39.585938 54.382812 39.984375 C 54.382812 41.089844 54.125 42.175781 53.523438 43.117188 C 52.914062 44.070312 51.742188 44.910156 50.691406 45.332031 L 50.738281 45.449219 L 50.816406 45.546875 C 52.519531 44.226562 53.113281 42.398438 53.109375 40.519531 C 53.109375 38.234375 52.242188 35.855469 51.433594 34.128906 L 51.320312 34.179688 L 51.402344 34.273438 L 54.074219 31.933594 C 54.097656 31.910156 54.113281 31.878906 54.113281 31.847656 C 54.117188 31.816406 54.105469 31.78125 54.082031 31.757812 C 54.0625 31.734375 54.03125 31.71875 54 31.714844 C 53.964844 31.714844 53.933594 31.722656 53.90625 31.746094 C 53.847656 31.800781 53.816406 31.871094 53.792969 31.945312 C 53.722656 32.171875 53.710938 32.515625 53.710938 32.851562 C 53.710938 33.199219 53.726562 33.539062 53.726562 33.683594 L 53.726562 33.703125 C 53.722656 33.789062 53.722656 33.875 53.722656 33.964844 C 53.722656 34.617188 53.765625 35.269531 53.832031 35.921875 C 53.929688 36.898438 54.136719 37.839844 54.289062 38.796875 L 54.410156 38.777344 "/>
<path style=" stroke:none;fill-rule:nonzero;fill:rgb(85.490197%,13.725491%,14.509805%);fill-opacity:1;" d="M 51.117188 45.28125 L 51.257812 45.386719 C 51.878906 45.050781 53.15625 44.585938 54.75 45.171875 L 54.847656 45.140625 C 54.847656 45.140625 55.398438 43.648438 56.332031 43.648438 C 56.332031 43.648438 55.089844 42.992188 53.449219 43.433594 C 52.875 44.195312 51.988281 44.859375 51.117188 45.28125 "/>
<path style=" stroke:none;fill-rule:nonzero;fill:rgb(11.764706%,9.803922%,9.019608%);fill-opacity:1;" d="M 51.117188 45.28125 L 51.042969 45.378906 L 51.183594 45.484375 C 51.222656 45.515625 51.277344 45.519531 51.320312 45.496094 C 51.710938 45.285156 52.378906 45.015625 53.226562 45.015625 C 53.671875 45.015625 54.167969 45.089844 54.707031 45.289062 L 54.785156 45.289062 L 54.886719 45.257812 C 54.925781 45.246094 54.953125 45.21875 54.96875 45.183594 C 54.96875 45.183594 54.972656 45.160156 54.992188 45.121094 C 55.046875 44.984375 55.203125 44.636719 55.441406 44.332031 C 55.558594 44.179688 55.695312 44.035156 55.847656 43.933594 C 55.996094 43.832031 56.160156 43.773438 56.332031 43.773438 C 56.390625 43.773438 56.441406 43.734375 56.457031 43.679688 C 56.46875 43.625 56.441406 43.566406 56.390625 43.539062 C 56.378906 43.535156 55.667969 43.15625 54.597656 43.15625 C 54.238281 43.15625 53.839844 43.199219 53.417969 43.3125 L 53.351562 43.359375 C 52.792969 44.101562 51.917969 44.757812 51.0625 45.167969 L 51.117188 45.28125 L 51.203125 45.191406 L 51.117188 45.28125 L 51.042969 45.378906 L 51.117188 45.28125 L 51.027344 45.367188 C 51.066406 45.40625 51.121094 45.414062 51.171875 45.390625 C 52.058594 44.964844 52.960938 44.292969 53.550781 43.507812 L 53.449219 43.433594 L 53.484375 43.554688 C 53.882812 43.445312 54.257812 43.40625 54.597656 43.40625 C 55.101562 43.40625 55.523438 43.496094 55.820312 43.585938 C 55.964844 43.628906 56.082031 43.671875 56.160156 43.707031 C 56.199219 43.722656 56.230469 43.734375 56.246094 43.746094 L 56.269531 43.757812 L 56.273438 43.757812 L 56.332031 43.648438 L 56.332031 43.523438 C 56.066406 43.523438 55.828125 43.632812 55.628906 43.785156 C 55.039062 44.238281 54.738281 45.089844 54.730469 45.097656 L 54.847656 45.140625 L 54.8125 45.019531 L 54.710938 45.050781 L 54.75 45.171875 L 54.792969 45.054688 C 54.226562 44.847656 53.699219 44.769531 53.226562 44.769531 C 52.324219 44.769531 51.621094 45.050781 51.199219 45.277344 L 51.257812 45.386719 L 51.332031 45.285156 L 51.191406 45.179688 C 51.140625 45.140625 51.066406 45.148438 51.023438 45.199219 C 50.980469 45.246094 50.980469 45.320312 51.027344 45.367188 L 51.117188 45.28125 "/>
<path style=" stroke:none;fill-rule:nonzero;fill:rgb(85.490197%,13.725491%,14.509805%);fill-opacity:1;" d="M 48.667969 45.371094 L 48.75 45.332031 L 48.714844 45.234375 C 47.875 44.816406 47.027344 44.175781 46.46875 43.4375 L 46.464844 43.4375 C 44.816406 42.988281 43.566406 43.648438 43.566406 43.648438 C 44.503906 43.648438 45.050781 45.140625 45.050781 45.140625 L 45.167969 45.195312 C 46.738281 44.605469 48.011719 45.03125 48.667969 45.371094 "/>
<path style=" stroke:none;fill-rule:nonzero;fill:rgb(11.764706%,9.803922%,9.019608%);fill-opacity:1;" d="M 48.667969 45.371094 L 48.71875 45.484375 L 48.800781 45.445312 C 48.859375 45.417969 48.890625 45.351562 48.867188 45.289062 L 48.832031 45.195312 L 48.769531 45.125 C 47.945312 44.714844 47.109375 44.078125 46.570312 43.363281 C 46.550781 43.335938 46.515625 43.316406 46.484375 43.3125 L 46.476562 43.3125 L 46.464844 43.4375 L 46.496094 43.316406 C 46.066406 43.199219 45.664062 43.15625 45.300781 43.15625 C 44.234375 43.15625 43.519531 43.535156 43.507812 43.539062 C 43.457031 43.566406 43.433594 43.625 43.445312 43.679688 C 43.460938 43.734375 43.511719 43.773438 43.566406 43.773438 C 43.765625 43.773438 43.949219 43.851562 44.117188 43.980469 C 44.371094 44.171875 44.578125 44.472656 44.71875 44.726562 C 44.789062 44.855469 44.84375 44.96875 44.878906 45.050781 C 44.898438 45.09375 44.910156 45.125 44.921875 45.148438 L 44.933594 45.183594 C 44.945312 45.210938 44.96875 45.238281 44.996094 45.25 L 45.113281 45.308594 C 45.144531 45.320312 45.179688 45.324219 45.210938 45.3125 C 45.765625 45.105469 46.277344 45.027344 46.738281 45.027344 C 47.550781 45.027344 48.203125 45.269531 48.609375 45.480469 L 48.667969 45.371094 L 48.664062 45.246094 L 48.667969 45.371094 L 48.71875 45.484375 L 48.667969 45.371094 L 48.671875 45.496094 C 48.730469 45.492188 48.777344 45.453125 48.789062 45.398438 C 48.800781 45.34375 48.777344 45.285156 48.726562 45.261719 C 48.292969 45.035156 47.601562 44.777344 46.738281 44.777344 C 46.246094 44.777344 45.703125 44.859375 45.125 45.078125 L 45.167969 45.195312 L 45.222656 45.082031 L 45.105469 45.027344 L 45.050781 45.140625 L 45.167969 45.097656 C 45.164062 45.089844 45.027344 44.710938 44.761719 44.324219 C 44.632812 44.132812 44.46875 43.933594 44.269531 43.785156 C 44.070312 43.632812 43.835938 43.523438 43.566406 43.523438 L 43.566406 43.648438 L 43.625 43.757812 L 43.632812 43.757812 C 43.699219 43.722656 44.355469 43.40625 45.300781 43.40625 C 45.644531 43.40625 46.023438 43.445312 46.429688 43.558594 L 46.449219 43.5625 L 46.457031 43.5625 L 46.46875 43.4375 L 46.371094 43.511719 C 46.941406 44.269531 47.800781 44.921875 48.660156 45.347656 L 48.714844 45.234375 L 48.597656 45.28125 L 48.632812 45.375 L 48.75 45.332031 L 48.699219 45.21875 L 48.613281 45.257812 C 48.5625 45.28125 48.53125 45.339844 48.542969 45.398438 C 48.558594 45.457031 48.609375 45.496094 48.671875 45.496094 L 48.667969 45.371094 "/>
<path style=" stroke:none;fill-rule:nonzero;fill:rgb(85.490197%,13.725491%,14.509805%);fill-opacity:1;" d="M 48.5625 34.195312 C 48.835938 33.605469 49.105469 33.09375 49.332031 32.683594 L 48.242188 31.183594 L 47.390625 33.046875 L 47.390625 33.121094 L 48.574219 34.164062 L 48.5625 34.195312 "/>
<path style=" stroke:none;fill-rule:nonzero;fill:rgb(11.764706%,9.803922%,9.019608%);fill-opacity:1;" d="M 48.5625 34.195312 L 48.675781 34.246094 C 48.949219 33.660156 49.214844 33.152344 49.441406 32.746094 L 49.480469 32.675781 L 48.21875 30.933594 L 47.265625 33.019531 L 47.265625 33.179688 L 48.492188 34.257812 L 48.574219 34.164062 L 48.464844 34.109375 L 48.449219 34.140625 L 48.363281 34.320312 L 48.640625 34.320312 L 48.675781 34.246094 L 48.5625 34.195312 L 48.5625 34.070312 L 48.5625 34.195312 L 48.675781 34.25 L 48.6875 34.214844 L 48.730469 34.132812 L 47.515625 33.066406 L 47.515625 33.046875 L 47.390625 33.046875 L 47.503906 33.097656 L 48.265625 31.429688 L 49.230469 32.757812 L 49.332031 32.683594 L 49.222656 32.625 C 48.992188 33.035156 48.722656 33.550781 48.449219 34.140625 L 48.5625 34.195312 L 48.5625 34.070312 L 48.5625 34.195312 "/>
<path style=" stroke:none;fill-rule:nonzero;fill:rgb(85.490197%,13.725491%,14.509805%);fill-opacity:1;" d="M 51.320312 34.179688 L 52.625 33.039062 L 51.777344 31.183594 L 50.667969 32.707031 L 50.667969 32.886719 C 50.875 33.265625 51.109375 33.722656 51.34375 34.230469 L 51.320312 34.179688 "/>
<path style=" stroke:none;fill-rule:nonzero;fill:rgb(11.764706%,9.803922%,9.019608%);fill-opacity:1;" d="M 51.320312 34.179688 L 51.402344 34.273438 L 52.777344 33.070312 L 51.800781 30.933594 L 50.542969 32.667969 L 50.542969 32.917969 L 50.558594 32.945312 C 50.765625 33.324219 50.996094 33.777344 51.230469 34.285156 L 51.457031 34.179688 L 51.433594 34.128906 L 51.320312 34.179688 L 51.445312 34.179688 L 51.320312 34.179688 L 51.402344 34.273438 L 51.320312 34.179688 L 51.195312 34.179688 L 51.195312 34.207031 L 51.230469 34.28125 L 51.457031 34.179688 C 51.21875 33.667969 50.988281 33.210938 50.777344 32.828125 L 50.667969 32.886719 L 50.792969 32.886719 L 50.792969 32.75 L 51.75 31.429688 L 52.472656 33.003906 L 51.195312 34.125 L 51.195312 34.179688 L 51.320312 34.179688 "/>
</g>
</svg>
