<?xml version="1.0" encoding="UTF-8"?>
<svg xmlns="http://www.w3.org/2000/svg" xmlns:xlink="http://www.w3.org/1999/xlink" width="380px" height="100px" viewBox="0 0 380 100" version="1.1">
<g id="surface1">
<path style=" stroke:none;fill-rule:nonzero;fill:rgb(0%,32.941177%,56.078434%);fill-opacity:1;" d="M 0 42.097656 L 0 2.152344 L 7.832031 2.152344 L 7.832031 42.097656 Z M 0 42.097656 "/>
<path style=" stroke:none;fill-rule:nonzero;fill:rgb(0%,32.941177%,56.078434%);fill-opacity:1;" d="M 19.328125 16.933594 L 19.4375 16.933594 C 21.328125 14.363281 24.9375 12.878906 28.214844 12.878906 C 31.710938 12.878906 34.710938 14.308594 36.378906 16.933594 C 38.714844 14.652344 42.324219 12.9375 45.605469 12.878906 C 51.875 12.824219 55.15625 16.761719 55.269531 23.324219 L 55.269531 42.042969 L 47.878906 42.042969 L 47.878906 24.695312 C 47.878906 21.386719 46.765625 17.960938 43.105469 17.960938 C 39.550781 17.960938 37.328125 20.128906 37.328125 25.089844 L 37.328125 42.097656 L 29.9375 42.097656 L 29.9375 24.695312 C 29.9375 20.699219 28.214844 17.960938 25.050781 17.960938 C 21.546875 17.960938 19.386719 20.414062 19.386719 25.265625 L 19.386719 42.097656 L 11.992188 42.097656 L 11.992188 13.566406 L 19.328125 13.566406 Z M 19.328125 16.933594 "/>
<path style=" stroke:none;fill-rule:nonzero;fill:rgb(0%,32.941177%,56.078434%);fill-opacity:1;" d="M 73.847656 17.449219 C 78.066406 17.449219 80.179688 22.355469 80.179688 27.261719 C 80.179688 32.285156 78.515625 38.21875 73.574219 38.21875 C 69.574219 38.21875 66.738281 34.167969 66.738281 28.175781 C 66.738281 21.613281 69.183594 17.449219 73.847656 17.449219 Z M 66.738281 13.566406 L 59.355469 13.566406 L 59.355469 56.367188 L 66.738281 56.367188 L 66.738281 38.5625 C 68.796875 41.074219 71.679688 42.78125 75.066406 42.78125 C 83.011719 42.78125 88.011719 34.738281 88.011719 27.207031 C 88.011719 20.925781 84.460938 12.882812 75.738281 12.882812 C 72.40625 12.882812 68.796875 14.59375 66.847656 17.503906 L 66.738281 17.503906 Z M 66.738281 13.566406 "/>
<path style=" stroke:none;fill-rule:nonzero;fill:rgb(0%,32.941177%,56.078434%);fill-opacity:1;" d="M 98.597656 24.40625 C 98.542969 20.589844 100.429688 17.101562 104.652344 17.101562 C 108.316406 17.101562 109.816406 20.070312 109.539062 24.40625 Z M 116.488281 28.515625 C 117.039062 20.015625 113.425781 12.878906 104.761719 12.878906 C 96.820312 12.878906 90.597656 18.472656 90.597656 27.261719 C 90.597656 36.679688 96.875 42.78125 105.261719 42.78125 C 108.429688 42.78125 112.371094 41.867188 116.148438 39.589844 L 114.039062 35.59375 C 112.207031 36.90625 109.316406 37.878906 106.597656 37.878906 C 101.984375 37.878906 98.320312 33.882812 98.492188 28.515625 Z M 116.488281 28.515625 "/>
<path style=" stroke:none;fill-rule:nonzero;fill:rgb(0%,32.941177%,56.078434%);fill-opacity:1;" d="M 127.386719 18.585938 L 127.496094 18.585938 L 128.992188 16.363281 C 129.882812 15.160156 131.492188 12.878906 133.769531 12.878906 C 135.4375 12.878906 137.210938 13.796875 138.769531 15.449219 L 135.996094 20.699219 C 134.773438 20.070312 133.992188 19.726562 132.496094 19.726562 C 129.941406 19.726562 127.4375 21.839844 127.4375 28.003906 L 127.4375 42.097656 L 120.046875 42.097656 L 120.046875 13.566406 L 127.382812 13.566406 L 127.382812 18.585938 Z M 127.386719 18.585938 "/>
<path style=" stroke:none;fill-rule:nonzero;fill:rgb(0%,32.941177%,56.078434%);fill-opacity:1;" d="M 148.523438 13.566406 L 148.523438 42.097656 L 141.136719 42.097656 L 141.136719 13.566406 Z M 140.417969 5.007812 C 140.417969 2.835938 142.195312 0.613281 144.695312 0.613281 C 147.25 0.613281 149.25 2.78125 149.25 5.007812 C 149.25 7.460938 147.523438 9.796875 144.800781 9.796875 C 142.195312 9.796875 140.417969 7.460938 140.417969 5.007812 Z M 140.417969 5.007812 "/>
<path style=" stroke:none;fill-rule:nonzero;fill:rgb(0%,32.941177%,56.078434%);fill-opacity:1;" d="M 168.585938 25.550781 C 169.140625 33.933594 165.3125 37.703125 162.367188 37.703125 C 160.589844 37.703125 159.03125 35.992188 159.03125 33.480469 C 159.03125 30.230469 160.867188 28.0625 164.476562 26.917969 Z M 168.476562 37.933594 C 168.476562 39.472656 168.640625 41.128906 169.195312 42.097656 L 177.03125 42.097656 C 176.140625 40.101562 175.863281 37.417969 175.863281 35.136719 L 175.863281 23.496094 C 175.863281 14.59375 169.589844 12.878906 164.476562 12.878906 C 160.644531 12.878906 157.261719 13.851562 153.8125 16.761719 L 156.199219 20.359375 C 158.144531 18.644531 160.367188 17.449219 163.539062 17.449219 C 165.925781 17.449219 168.199219 19.101562 168.589844 21.726562 L 162.03125 23.722656 C 155.589844 25.605469 151.757812 28.6875 151.757812 34.113281 C 151.757812 39.355469 155.367188 42.78125 159.699219 42.78125 C 162.253906 42.78125 164.757812 41.015625 166.8125 39.355469 Z M 168.476562 37.933594 "/>
<path style=" stroke:none;fill-rule:nonzero;fill:rgb(0%,32.941177%,56.078434%);fill-opacity:1;" d="M 180.472656 42.097656 L 180.472656 0.152344 L 187.859375 0.152344 L 187.859375 42.097656 Z M 180.472656 42.097656 "/>
<path style=" stroke:none;fill-rule:nonzero;fill:rgb(0%,32.941177%,56.078434%);fill-opacity:1;" d="M 236.613281 9.398438 C 234.71875 8.371094 231.554688 7.175781 228.550781 7.175781 C 220.554688 7.175781 214.78125 12.9375 214.78125 22.011719 C 214.78125 31.488281 221.171875 37.078125 228.773438 37.078125 C 231.777344 37.078125 234.554688 36.222656 236.613281 35.078125 L 238.777344 40.046875 C 236.390625 41.472656 232.222656 42.785156 228.445312 42.785156 C 214.941406 42.785156 206.445312 33.652344 206.445312 21.902344 C 206.445312 11 214.890625 1.46875 228.550781 1.46875 C 232.609375 1.46875 236.390625 2.953125 239.050781 4.550781 Z M 236.613281 9.398438 "/>
<path style=" stroke:none;fill-rule:nonzero;fill:rgb(0%,32.941177%,56.078434%);fill-opacity:1;" d="M 253.433594 38.5625 C 248.15625 38.5625 246.714844 32.511719 246.714844 27.492188 C 246.714844 22.753906 248.378906 17.105469 253.433594 17.105469 C 258.597656 17.105469 260.207031 22.753906 260.207031 27.492188 C 260.207031 32.511719 258.824219 38.5625 253.433594 38.5625 Z M 253.433594 42.78125 C 262.160156 42.78125 268.039062 36.335938 268.039062 27.492188 C 268.039062 18.246094 260.933594 12.878906 253.433594 12.878906 C 245.988281 12.878906 238.882812 18.246094 238.882812 27.492188 C 238.882812 36.335938 244.769531 42.78125 253.433594 42.78125 Z M 253.433594 42.78125 "/>
<path style=" stroke:none;fill-rule:nonzero;fill:rgb(0%,32.941177%,56.078434%);fill-opacity:1;" d="M 271.222656 42.097656 L 271.222656 0.152344 L 278.617188 0.152344 L 278.617188 42.097656 Z M 271.222656 42.097656 "/>
<path style=" stroke:none;fill-rule:nonzero;fill:rgb(0%,32.941177%,56.078434%);fill-opacity:1;" d="M 283.273438 42.097656 L 283.273438 0.152344 L 290.65625 0.152344 L 290.65625 42.097656 Z M 283.273438 42.097656 "/>
<path style=" stroke:none;fill-rule:nonzero;fill:rgb(0%,32.941177%,56.078434%);fill-opacity:1;" d="M 301.730469 24.40625 C 301.667969 20.589844 303.558594 17.101562 307.777344 17.101562 C 311.449219 17.101562 312.945312 20.070312 312.667969 24.40625 Z M 319.613281 28.515625 C 320.167969 20.015625 316.558594 12.878906 307.894531 12.878906 C 299.953125 12.878906 293.722656 18.472656 293.722656 27.261719 C 293.722656 36.679688 300 42.78125 308.394531 42.78125 C 311.554688 42.78125 315.5 41.867188 319.28125 39.589844 L 317.167969 35.59375 C 315.339844 36.90625 312.445312 37.878906 309.726562 37.878906 C 305.117188 37.878906 301.449219 33.882812 301.617188 28.515625 Z M 319.613281 28.515625 "/>
<path style=" stroke:none;fill-rule:nonzero;fill:rgb(0%,32.941177%,56.078434%);fill-opacity:1;" d="M 362.058594 24.40625 C 362.003906 20.589844 363.890625 17.101562 368.117188 17.101562 C 371.777344 17.101562 373.28125 20.070312 373.003906 24.40625 Z M 379.945312 28.515625 C 380.5 20.015625 376.894531 12.878906 368.226562 12.878906 C 360.28125 12.878906 354.0625 18.472656 354.0625 27.261719 C 354.0625 36.679688 360.335938 42.78125 368.726562 42.78125 C 371.894531 42.78125 375.839844 41.867188 379.613281 39.589844 L 377.503906 35.59375 C 375.667969 36.90625 372.78125 37.878906 370.058594 37.878906 C 365.449219 37.878906 361.789062 33.882812 361.949219 28.515625 Z M 379.945312 28.515625 "/>
<path style=" stroke:none;fill-rule:nonzero;fill:rgb(0%,32.941177%,56.078434%);fill-opacity:1;" d="M 336.882812 17.449219 C 341.328125 17.449219 343.601562 22.070312 343.601562 27.035156 C 343.601562 32.742188 341.488281 38.21875 336.542969 38.21875 C 332.269531 38.21875 330.160156 32.851562 330.160156 27.316406 C 330.160156 21.785156 332.105469 17.449219 336.882812 17.449219 Z M 350.992188 13.566406 L 343.601562 13.566406 L 343.601562 17.046875 L 343.492188 17.046875 C 341.9375 14.480469 338.601562 12.878906 335.214844 12.878906 C 327.660156 12.878906 322.328125 20.070312 322.328125 27.492188 C 322.328125 36.621094 327.160156 42.78125 334.550781 42.78125 C 338.773438 42.78125 341.65625 40.386719 343.492188 37.988281 L 343.601562 37.988281 L 343.601562 41.753906 C 343.601562 48.375 339.824219 51.457031 334.933594 51.457031 C 331.160156 51.457031 327.992188 50.714844 325.273438 49.003906 L 323.824219 53.683594 C 327.105469 55.394531 331.328125 56.367188 335.492188 56.367188 C 343.769531 56.367188 350.992188 52.199219 350.992188 39.53125 Z M 350.992188 13.566406 "/>
<path style=" stroke:none;fill-rule:nonzero;fill:rgb(32.941177%,61.56863%,77.254903%);fill-opacity:1;" d="M 0 59.222656 L 7.890625 59.222656 L 7.890625 93.796875 L 24.496094 93.796875 L 24.496094 99.164062 L 0 99.164062 Z M 0 59.222656 "/>
<path style=" stroke:none;fill-rule:nonzero;fill:rgb(32.941177%,61.56863%,77.254903%);fill-opacity:1;" d="M 67.839844 74 C 70.476562 71.257812 74.152344 69.945312 77.835938 69.945312 C 84.675781 69.945312 87.953125 73.601562 87.953125 80.789062 L 87.953125 99.164062 L 80.527344 99.164062 L 80.527344 81.644531 C 80.527344 77.652344 78.714844 75.027344 74.679688 75.027344 C 70.878906 75.027344 67.898438 77.476562 67.898438 82.15625 L 67.898438 99.164062 L 60.472656 99.164062 L 60.472656 70.632812 L 67.84375 70.632812 L 67.84375 74 Z M 67.839844 74 "/>
<path style=" stroke:none;fill-rule:nonzero;fill:rgb(32.941177%,61.56863%,77.254903%);fill-opacity:1;" d="M 107.175781 74.515625 C 111.855469 74.515625 114.25 79.140625 114.25 84.101562 C 114.25 89.808594 112.035156 95.285156 106.824219 95.285156 C 102.328125 95.285156 100.105469 89.921875 100.105469 84.386719 C 100.105469 78.851562 102.152344 74.515625 107.175781 74.515625 Z M 114.25 99.164062 L 121.675781 99.164062 L 121.675781 57.226562 L 114.25 57.226562 L 114.25 73.945312 L 114.136719 73.945312 C 112.382812 71.429688 108.992188 69.945312 105.195312 69.945312 C 97.355469 69.945312 91.863281 77.136719 91.863281 84.554688 C 91.863281 93.683594 96.945312 99.847656 104.609375 99.847656 C 109.167969 99.847656 112.207031 97.449219 114.136719 95.054688 L 114.25 95.054688 Z M 114.25 99.164062 "/>
<path style=" stroke:none;fill-rule:nonzero;fill:rgb(32.941177%,61.56863%,77.254903%);fill-opacity:1;" d="M 140.96875 95.625 C 135.421875 95.625 133.894531 89.578125 133.894531 84.554688 C 133.894531 79.820312 135.644531 74.171875 140.96875 74.171875 C 146.410156 74.171875 148.101562 79.820312 148.101562 84.554688 C 148.101562 89.578125 146.644531 95.625 140.96875 95.625 Z M 140.96875 99.847656 C 150.148438 99.847656 156.34375 93.398438 156.34375 84.554688 C 156.34375 75.316406 148.863281 69.945312 140.96875 69.945312 C 133.136719 69.945312 125.652344 75.316406 125.652344 84.554688 C 125.652344 93.398438 131.851562 99.847656 140.96875 99.847656 Z M 140.96875 99.847656 "/>
<path style=" stroke:none;fill-rule:nonzero;fill:rgb(32.941177%,61.56863%,77.254903%);fill-opacity:1;" d="M 167.746094 74 C 170.378906 71.257812 174.058594 69.945312 177.738281 69.945312 C 184.582031 69.945312 187.855469 73.601562 187.855469 80.789062 L 187.855469 99.164062 L 180.433594 99.164062 L 180.433594 81.644531 C 180.433594 77.652344 178.621094 75.027344 174.582031 75.027344 C 170.785156 75.027344 167.800781 77.476562 167.800781 82.15625 L 167.800781 99.164062 L 160.378906 99.164062 L 160.378906 70.632812 L 167.746094 70.632812 Z M 167.746094 74 "/>
<path style=" stroke:none;fill-rule:nonzero;fill:rgb(32.941177%,61.56863%,77.254903%);fill-opacity:1;" d="M 40.9375 95.625 C 35.378906 95.625 33.863281 89.578125 33.863281 84.554688 C 33.863281 79.820312 35.617188 74.171875 40.9375 74.171875 C 46.375 74.171875 48.070312 79.820312 48.070312 84.554688 C 48.070312 89.578125 46.605469 95.625 40.9375 95.625 Z M 40.9375 99.847656 C 50.117188 99.847656 56.3125 93.398438 56.3125 84.554688 C 56.3125 75.316406 48.828125 69.945312 40.9375 69.945312 C 33.105469 69.945312 25.621094 75.316406 25.621094 84.554688 C 25.621094 93.398438 31.816406 99.847656 40.9375 99.847656 Z M 40.9375 99.847656 "/>
</g>
</svg>
