<?xml version="1.0" encoding="UTF-8"?>
<svg xmlns="http://www.w3.org/2000/svg" xmlns:xlink="http://www.w3.org/1999/xlink" width="496px" height="100px" viewBox="0 0 496 100" version="1.1">
<defs>
<linearGradient id="linear0" gradientUnits="userSpaceOnUse" x1="61" y1="117" x2="259" y2="127" gradientTransform="matrix(0.523207,0,0,0.52356,0,0)">
<stop offset="0" style="stop-color:rgb(0%,39.215687%,88.235295%);stop-opacity:1;"/>
<stop offset="0.4" style="stop-color:rgb(0%,39.215687%,88.235295%);stop-opacity:1;"/>
<stop offset="0.83" style="stop-color:rgb(0%,45.09804%,93.333334%);stop-opacity:1;"/>
<stop offset="1" style="stop-color:rgb(0%,50.980395%,98.431373%);stop-opacity:1;"/>
</linearGradient>
<linearGradient id="linear1" gradientUnits="userSpaceOnUse" x1="45" y1="139" x2="45" y2="66" gradientTransform="matrix(0.523207,0,0,0.52356,0,0)">
<stop offset="0" style="stop-color:rgb(0%,50.980395%,98.431373%);stop-opacity:1;"/>
<stop offset="1" style="stop-color:rgb(0%,39.215687%,87.843138%);stop-opacity:1;"/>
</linearGradient>
</defs>
<g id="surface1">
<path style=" stroke:none;fill-rule:nonzero;fill:rgb(0%,50.588238%,98.431373%);fill-opacity:1;" d="M 16.25 65.949219 C 16.25 71.695312 17.511719 76.109375 19.160156 78.78125 C 21.320312 82.277344 24.542969 83.757812 27.828125 83.757812 C 32.066406 83.757812 35.945312 82.707031 43.414062 72.367188 C 49.402344 64.078125 56.453125 52.445312 61.199219 45.152344 L 69.234375 32.796875 C 74.820312 24.214844 81.28125 14.675781 88.6875 8.210938 C 94.738281 2.933594 101.261719 0 107.828125 0 C 118.851562 0 129.351562 6.394531 137.390625 18.382812 C 146.183594 31.511719 150.453125 48.050781 150.453125 65.121094 C 150.453125 75.265625 148.453125 82.722656 145.054688 88.613281 C 141.769531 94.308594 135.363281 100 124.589844 100 L 124.589844 83.757812 C 133.816406 83.757812 136.117188 75.277344 136.117188 65.570312 C 136.117188 51.738281 132.894531 36.386719 125.792969 25.417969 C 120.757812 17.640625 114.226562 12.886719 107.042969 12.886719 C 99.273438 12.886719 93.019531 18.75 85.996094 29.203125 C 82.257812 34.757812 78.421875 41.527344 74.117188 49.167969 L 69.378906 57.570312 C 59.855469 74.464844 57.441406 78.3125 52.683594 84.664062 C 44.335938 95.785156 37.210938 100 27.828125 100 C 16.699219 100 9.664062 95.179688 5.304688 87.910156 C 1.746094 81.988281 0 74.21875 0 65.367188 Z M 16.25 65.949219 "/>
<path style=" stroke:none;fill-rule:nonzero;fill:url(#linear0);" d="M 12.8125 19.527344 C 20.265625 8.035156 31.015625 0 43.347656 0 C 50.488281 0 57.589844 2.113281 65.003906 8.171875 C 73.113281 14.796875 81.757812 25.703125 92.539062 43.675781 L 96.40625 50.125 C 105.738281 65.6875 111.050781 73.691406 114.160156 77.464844 C 118.15625 82.3125 120.953125 83.757812 124.589844 83.757812 C 133.816406 83.757812 136.117188 75.277344 136.117188 65.570312 L 150.453125 65.121094 C 150.453125 75.265625 148.453125 82.722656 145.054688 88.613281 C 141.769531 94.308594 135.363281 100 124.589844 100 C 117.894531 100 111.960938 98.542969 105.398438 92.351562 C 100.355469 87.597656 94.460938 79.152344 89.921875 71.558594 L 76.429688 49.003906 C 69.660156 37.6875 63.449219 29.246094 59.855469 25.425781 C 55.988281 21.3125 51.019531 16.351562 43.085938 16.351562 C 36.667969 16.351562 31.214844 20.859375 26.652344 27.753906 Z M 12.8125 19.527344 "/>
<path style=" stroke:none;fill-rule:nonzero;fill:url(#linear1);" d="M 43.085938 16.351562 C 36.667969 16.351562 31.214844 20.859375 26.652344 27.753906 C 20.199219 37.496094 16.25 52.011719 16.25 65.949219 C 16.25 71.695312 17.511719 76.109375 19.160156 78.78125 L 5.304688 87.910156 C 1.746094 81.988281 0 74.21875 0 65.367188 C 0 49.265625 4.414062 32.488281 12.8125 19.527344 C 20.265625 8.035156 31.015625 0 43.347656 0 Z M 43.085938 16.351562 "/>
<path style=" stroke:none;fill-rule:nonzero;fill:rgb(9.803922%,15.686275%,18.82353%);fill-opacity:1;" d="M 182.042969 3.164062 L 200.84375 3.164062 L 232.804688 61.027344 L 264.773438 3.164062 L 283.164062 3.164062 L 283.164062 98.242188 L 267.828125 98.242188 L 267.828125 25.371094 L 239.796875 75.832031 L 225.40625 75.832031 L 197.378906 25.371094 L 197.378906 98.242188 L 182.042969 98.242188 Z M 331.214844 38.613281 C 320.21875 38.613281 313.59375 46.894531 312.007812 57.152344 L 349.335938 57.152344 C 348.566406 46.585938 342.476562 38.613281 331.214844 38.613281 Z M 296.804688 62.996094 C 296.804688 41.414062 310.742188 25.707031 331.484375 25.707031 C 351.882812 25.707031 364.0625 41.214844 364.0625 64.148438 L 364.0625 68.359375 L 312.007812 68.359375 C 313.855469 79.519531 321.253906 87.035156 333.183594 87.035156 C 342.699219 87.035156 348.648438 84.132812 354.289062 78.816406 L 362.4375 88.800781 C 354.761719 95.863281 344.996094 99.9375 332.640625 99.9375 C 310.1875 99.9375 296.804688 83.554688 296.804688 62.996094 Z M 382.65625 39.972656 L 368.542969 39.972656 L 368.542969 27.410156 L 382.65625 27.410156 L 382.65625 6.628906 L 397.453125 6.628906 L 397.453125 27.410156 L 418.898438 27.410156 L 418.898438 39.972656 L 397.453125 39.972656 L 397.453125 71.820312 C 397.453125 82.695312 400.929688 86.558594 409.46875 86.558594 C 413.363281 86.558594 415.597656 86.226562 418.898438 85.675781 L 418.898438 98.105469 C 414.789062 99.265625 410.863281 99.800781 406.617188 99.800781 C 390.640625 99.800781 382.65625 91.066406 382.65625 73.585938 Z M 481.203125 52.195312 C 478.230469 44.6875 471.601562 39.15625 461.859375 39.15625 C 449.199219 39.15625 441.09375 48.148438 441.09375 62.789062 C 441.09375 77.066406 448.554688 86.492188 461.253906 86.492188 C 471.238281 86.492188 478.363281 80.679688 481.203125 73.449219 Z M 496 98.242188 L 481.476562 98.242188 L 481.476562 88.324219 C 477.414062 94.164062 470.027344 99.9375 458.0625 99.9375 C 438.820312 99.9375 425.957031 83.816406 425.957031 62.789062 C 425.957031 41.566406 439.128906 25.707031 458.878906 25.707031 C 468.640625 25.707031 476.300781 29.613281 481.476562 36.507812 L 481.476562 27.410156 L 496 27.410156 Z M 496 98.242188 "/>
</g>
</svg>
