<?xml version="1.0" encoding="UTF-8"?>
<svg xmlns="http://www.w3.org/2000/svg" xmlns:xlink="http://www.w3.org/1999/xlink" width="467px" height="100px" viewBox="0 0 467 100" version="1.1">
<g id="surface1">
<path style=" stroke:none;fill-rule:nonzero;fill:rgb(94.901961%,31.37255%,13.333334%);fill-opacity:1;" d="M 0 0.0507812 L 47.441406 0.0507812 C 47.4375 15.890625 47.441406 31.734375 47.4375 47.574219 C 31.628906 47.574219 15.8125 47.574219 0 47.574219 L 0 0.0507812 "/>
<path style=" stroke:none;fill-rule:nonzero;fill:rgb(99.607843%,99.607843%,99.607843%);fill-opacity:1;" d="M 47.441406 0.0507812 L 52.285156 0.0507812 C 52.285156 15.890625 52.28125 31.734375 52.289062 47.574219 C 68.097656 47.574219 83.910156 47.570312 99.722656 47.574219 C 99.730469 31.734375 99.726562 15.890625 99.726562 0.0507812 L 467 0.0507812 L 467 37.011719 C 463.617188 37.023438 460.230469 36.984375 456.847656 37.035156 C 456.769531 32.742188 456.839844 28.453125 456.808594 24.164062 C 453.425781 25.1875 450.0625 26.273438 446.660156 27.246094 C 446.578125 30.5 446.652344 33.757812 446.617188 37.011719 C 441.613281 37.007812 436.609375 37.015625 431.605469 37.003906 C 431.667969 34.441406 431.429688 31.859375 431.796875 29.308594 C 432.101562 27.300781 433.265625 25.289062 435.21875 24.515625 C 437.683594 23.5 440.4375 24.175781 442.78125 25.207031 C 442.765625 22.273438 442.804688 19.332031 442.761719 16.398438 C 437.832031 15.042969 432.183594 15.304688 427.808594 18.160156 C 424.988281 19.96875 422.941406 22.863281 422.019531 26.070312 C 420.933594 29.625 421.488281 33.378906 421.3125 37.023438 C 418.941406 37.007812 416.570312 36.984375 414.203125 37.039062 C 414.226562 39.785156 414.214844 42.53125 414.207031 45.273438 C 416.585938 45.320312 418.96875 45.265625 421.347656 45.3125 C 421.328125 56.863281 421.34375 68.414062 421.34375 79.96875 C 424.761719 79.96875 428.183594 79.96875 431.601562 79.96875 C 431.601562 68.414062 431.601562 56.855469 431.605469 45.300781 C 436.609375 45.289062 441.617188 45.292969 446.621094 45.296875 C 446.636719 52.664062 446.609375 60.027344 446.632812 67.390625 C 446.679688 70.820312 447.261719 74.488281 449.53125 77.199219 C 451.492188 79.597656 454.609375 80.691406 457.621094 80.914062 C 460.792969 81.140625 464.066406 80.75 467 79.476562 L 467 99.949219 L 99.726562 99.949219 C 99.726562 84.109375 99.726562 68.265625 99.726562 52.425781 C 83.910156 52.425781 68.097656 52.421875 52.289062 52.429688 C 52.28125 68.265625 52.289062 84.109375 52.285156 99.949219 L 47.441406 99.949219 C 47.441406 84.109375 47.445312 68.269531 47.441406 52.429688 C 31.628906 52.421875 15.8125 52.429688 0 52.421875 L 0 47.574219 C 15.8125 47.574219 31.628906 47.574219 47.4375 47.574219 C 47.441406 31.734375 47.4375 15.890625 47.441406 0.0507812 "/>
<path style=" stroke:none;fill-rule:nonzero;fill:rgb(50.196081%,72.941178%,0.392157%);fill-opacity:1;" d="M 52.285156 0.0507812 L 99.726562 0.0507812 C 99.726562 15.890625 99.730469 31.734375 99.722656 47.574219 C 83.910156 47.570312 68.097656 47.574219 52.289062 47.574219 C 52.28125 31.734375 52.285156 15.890625 52.285156 0.0507812 "/>
<path style=" stroke:none;fill-rule:nonzero;fill:rgb(46.666667%,46.666667%,46.666667%);fill-opacity:1;" d="M 427.808594 18.160156 C 432.183594 15.304688 437.832031 15.042969 442.761719 16.398438 C 442.804688 19.332031 442.765625 22.273438 442.78125 25.207031 C 440.4375 24.175781 437.683594 23.5 435.21875 24.515625 C 433.265625 25.289062 432.101562 27.300781 431.796875 29.308594 C 431.429688 31.859375 431.667969 34.441406 431.605469 37.003906 C 436.609375 37.015625 441.613281 37.007812 446.617188 37.011719 C 446.652344 33.757812 446.578125 30.5 446.660156 27.246094 C 450.0625 26.273438 453.425781 25.1875 456.808594 24.164062 C 456.839844 28.453125 456.769531 32.742188 456.847656 37.035156 C 460.230469 36.984375 463.617188 37.023438 467 37.011719 L 467 45.355469 C 463.601562 45.214844 460.203125 45.320312 456.808594 45.308594 C 456.824219 50.105469 456.808594 54.902344 456.8125 59.703125 C 456.867188 62.359375 456.671875 65.035156 456.980469 67.683594 C 457.167969 69.242188 457.738281 70.972656 459.199219 71.78125 C 461.644531 73.152344 464.75 72.554688 467 71.046875 L 467 79.476562 C 464.066406 80.75 460.792969 81.140625 457.621094 80.914062 C 454.609375 80.691406 451.492188 79.597656 449.53125 77.199219 C 447.261719 74.488281 446.679688 70.820312 446.632812 67.390625 C 446.609375 60.027344 446.636719 52.664062 446.621094 45.296875 C 441.617188 45.292969 436.609375 45.289062 431.605469 45.300781 C 431.601562 56.855469 431.601562 68.414062 431.601562 79.96875 C 428.183594 79.96875 424.761719 79.96875 421.34375 79.96875 C 421.34375 68.414062 421.328125 56.863281 421.347656 45.3125 C 418.96875 45.265625 416.585938 45.320312 414.207031 45.273438 C 414.214844 42.53125 414.226562 39.785156 414.203125 37.039062 C 416.570312 36.984375 418.941406 37.007812 421.3125 37.023438 C 421.488281 33.378906 420.933594 29.625 422.019531 26.070312 C 422.941406 22.863281 424.988281 19.96875 427.808594 18.160156 "/>
<path style=" stroke:none;fill-rule:nonzero;fill:rgb(46.666667%,46.666667%,46.666667%);fill-opacity:1;" d="M 208.132812 18.757812 C 210.203125 18.445312 212.441406 19.152344 213.8125 20.773438 C 215.417969 22.546875 215.714844 25.375 214.523438 27.449219 C 213.207031 29.789062 210.261719 30.875 207.695312 30.316406 C 205.027344 29.835938 202.808594 27.355469 202.929688 24.589844 C 202.851562 21.675781 205.28125 19.082031 208.132812 18.757812 "/>
<path style=" stroke:none;fill-rule:nonzero;fill:rgb(46.666667%,46.666667%,46.666667%);fill-opacity:1;" d="M 129.5 20.03125 C 134.476562 20.03125 139.449219 20.03125 144.421875 20.03125 C 149.066406 31.84375 153.746094 43.644531 158.394531 55.460938 C 159.582031 58.414062 160.695312 61.402344 161.941406 64.332031 C 167.914062 49.570312 173.976562 34.847656 179.902344 20.066406 C 184.6875 19.988281 189.476562 20.046875 194.261719 20.035156 C 194.25 40.011719 194.257812 59.988281 194.261719 79.964844 C 190.804688 79.957031 187.355469 79.996094 183.90625 79.945312 C 183.941406 65.203125 183.902344 50.460938 183.921875 35.71875 C 183.929688 35.054688 183.90625 34.394531 183.859375 33.730469 C 183.65625 34.039062 183.476562 34.359375 183.320312 34.691406 C 177.390625 49.78125 171.347656 64.828125 165.453125 79.933594 C 162.996094 80.019531 160.539062 79.9375 158.078125 79.976562 C 151.960938 64.886719 145.921875 49.761719 139.835938 34.660156 C 139.675781 34.347656 139.503906 34.042969 139.320312 33.746094 C 139.195312 40.207031 139.300781 46.671875 139.265625 53.128906 C 139.269531 62.074219 139.257812 71.019531 139.269531 79.964844 C 136.011719 79.976562 132.753906 79.964844 129.5 79.96875 C 129.496094 59.988281 129.496094 40.011719 129.5 20.03125 "/>
<path style=" stroke:none;fill-rule:nonzero;fill:rgb(46.666667%,46.666667%,46.666667%);fill-opacity:1;" d="M 236.371094 36.972656 C 241.320312 35.558594 246.660156 35.613281 251.609375 37.015625 C 252.628906 37.300781 253.617188 37.699219 254.535156 38.238281 C 254.480469 41.511719 254.535156 44.789062 254.503906 48.066406 C 251.195312 45.535156 247 43.929688 242.792969 44.460938 C 239.453125 44.761719 236.269531 46.496094 234.273438 49.199219 C 231.703125 52.550781 231.113281 57 231.554688 61.101562 C 231.882812 64.308594 233.210938 67.511719 235.699219 69.640625 C 238.285156 71.941406 241.914062 72.757812 245.300781 72.503906 C 248.644531 72.117188 251.800781 70.699219 254.503906 68.71875 C 254.535156 71.820312 254.492188 74.921875 254.527344 78.027344 C 250.332031 80.527344 245.304688 81.171875 240.503906 80.933594 C 235.589844 80.675781 230.691406 78.8125 227.136719 75.351562 C 223.273438 71.621094 221.175781 66.300781 220.929688 60.972656 C 220.679688 55.433594 221.804688 49.652344 224.988281 45.023438 C 227.652344 41.078125 231.824219 38.28125 236.371094 36.972656 "/>
<path style=" stroke:none;fill-rule:nonzero;fill:rgb(46.666667%,46.666667%,46.666667%);fill-opacity:1;" d="M 305.882812 36.230469 C 310.808594 35.601562 316 35.882812 320.570312 37.964844 C 324.539062 39.757812 327.75 43.074219 329.53125 47.039062 C 331.433594 51.265625 331.894531 56.007812 331.574219 60.589844 C 331.257812 65.0625 329.855469 69.542969 327.0625 73.097656 C 324.203125 76.871094 319.894531 79.425781 315.285156 80.378906 C 311.339844 81.199219 307.214844 81.195312 303.269531 80.367188 C 298.550781 79.355469 294.183594 76.613281 291.417969 72.625 C 288.167969 68 287.246094 62.121094 287.660156 56.578125 C 287.9375 51.878906 289.398438 47.140625 292.394531 43.453125 C 295.675781 39.324219 300.710938 36.886719 305.882812 36.230469 "/>
<path style=" stroke:none;fill-rule:nonzero;fill:rgb(46.666667%,46.666667%,46.666667%);fill-opacity:1;" d="M 348.445312 36.316406 C 353.191406 35.480469 358.15625 36.09375 362.648438 37.796875 C 362.652344 40.949219 362.648438 44.097656 362.648438 47.246094 C 359.511719 45.085938 355.679688 43.921875 351.875 44.058594 C 349.957031 44.132812 347.847656 44.945312 346.972656 46.773438 C 346.277344 48.578125 346.757812 50.949219 348.460938 52.027344 C 351.371094 53.980469 354.839844 54.804688 357.855469 56.554688 C 360.226562 57.890625 362.53125 59.636719 363.734375 62.152344 C 365.992188 66.867188 365.035156 73.097656 361.0625 76.617188 C 357.269531 80.167969 351.808594 81.148438 346.785156 80.960938 C 343.21875 80.730469 339.632812 80.023438 336.355469 78.5625 C 336.367188 75.25 336.335938 71.9375 336.371094 68.628906 C 339.128906 70.632812 342.3125 72.070312 345.679688 72.652344 C 348.023438 73.035156 350.574219 73.050781 352.761719 72 C 354.851562 70.957031 355.226562 67.980469 353.984375 66.160156 C 352.824219 64.757812 351.117188 63.980469 349.507812 63.222656 C 346.484375 61.863281 343.304688 60.722656 340.648438 58.683594 C 338.785156 57.222656 337.371094 55.167969 336.816406 52.851562 C 335.996094 49.433594 336.253906 45.585938 338.238281 42.597656 C 340.503906 39.121094 344.4375 37.035156 348.445312 36.316406 "/>
<path style=" stroke:none;fill-rule:nonzero;fill:rgb(46.666667%,46.666667%,46.666667%);fill-opacity:1;" d="M 387.660156 36.21875 C 392.78125 35.582031 398.21875 35.925781 402.890625 38.289062 C 406.964844 40.332031 410.125 44.015625 411.703125 48.28125 C 412.9375 51.542969 413.371094 55.066406 413.300781 58.539062 C 413.308594 63.730469 411.910156 69.054688 408.65625 73.171875 C 405.613281 77.15625 400.957031 79.746094 396.042969 80.558594 C 391.238281 81.335938 386.160156 81.132812 381.59375 79.332031 C 376.964844 77.507812 373.117188 73.785156 371.171875 69.203125 C 369.136719 64.53125 368.925781 59.273438 369.558594 54.28125 C 370.21875 49.289062 372.476562 44.410156 376.324219 41.089844 C 379.476562 38.316406 383.53125 36.746094 387.660156 36.21875 "/>
<path style=" stroke:none;fill-rule:nonzero;fill:rgb(46.666667%,46.666667%,46.666667%);fill-opacity:1;" d="M 277.480469 37.671875 C 280.3125 35.964844 283.910156 35.824219 287 36.863281 C 286.988281 40.292969 287 43.71875 286.992188 47.148438 C 284.96875 45.835938 282.445312 45.273438 280.058594 45.515625 C 277.144531 45.847656 274.835938 48.085938 273.640625 50.65625 C 272.339844 53.375 272.097656 56.453125 272.179688 59.429688 C 272.179688 66.273438 272.183594 73.121094 272.179688 79.96875 C 268.804688 79.96875 265.433594 79.96875 262.0625 79.96875 C 262.054688 65.65625 262.074219 51.34375 262.054688 37.035156 C 265.433594 36.992188 268.808594 37.007812 272.183594 37.023438 C 272.171875 39.480469 272.183594 41.941406 272.175781 44.398438 C 273.273438 41.726562 274.90625 39.128906 277.480469 37.671875 "/>
<path style=" stroke:none;fill-rule:nonzero;fill:rgb(46.666667%,46.666667%,46.666667%);fill-opacity:1;" d="M 203.863281 37.023438 C 207.265625 37.011719 210.667969 36.976562 214.070312 37.042969 C 214.03125 51.351562 214.066406 65.660156 214.054688 79.96875 C 210.65625 79.96875 207.261719 79.96875 203.867188 79.96875 C 203.859375 65.65625 203.871094 51.339844 203.863281 37.023438 "/>
<path style=" stroke:none;fill-rule:nonzero;fill:rgb(99.607843%,99.607843%,99.607843%);fill-opacity:1;" d="M 308.945312 44.386719 C 312.027344 44.1875 315.308594 45.058594 317.523438 47.304688 C 319.894531 49.640625 320.8125 53.027344 321.066406 56.257812 C 321.25 59.796875 321.105469 63.480469 319.625 66.757812 C 318.644531 68.964844 316.847656 70.832031 314.582031 71.71875 C 311.933594 72.738281 308.957031 72.796875 306.21875 72.085938 C 303.4375 71.351562 301.074219 69.335938 299.789062 66.773438 C 298.136719 63.464844 297.886719 59.644531 298.230469 56.019531 C 298.539062 52.722656 299.6875 49.332031 302.195312 47.058594 C 304.011719 45.355469 306.492188 44.527344 308.945312 44.386719 "/>
<path style=" stroke:none;fill-rule:nonzero;fill:rgb(99.607843%,99.607843%,99.607843%);fill-opacity:1;" d="M 390.429688 44.398438 C 393.328125 44.195312 396.421875 44.867188 398.652344 46.824219 C 400.703125 48.53125 401.84375 51.089844 402.363281 53.664062 C 402.949219 56.683594 402.945312 59.808594 402.449219 62.84375 C 402.054688 65.105469 401.273438 67.359375 399.796875 69.148438 C 398.304688 70.949219 396.089844 72.042969 393.800781 72.378906 C 391.34375 72.746094 388.757812 72.570312 386.460938 71.582031 C 383.984375 70.53125 382.0625 68.378906 381.050781 65.910156 C 379.832031 62.964844 379.59375 59.699219 379.832031 56.550781 C 380.066406 53.5 380.929688 50.367188 382.941406 47.996094 C 384.777344 45.78125 387.59375 44.558594 390.429688 44.398438 "/>
<path style=" stroke:none;fill-rule:nonzero;fill:rgb(99.607843%,99.607843%,99.607843%);fill-opacity:1;" d="M 456.808594 45.308594 C 460.203125 45.320312 463.601562 45.214844 467 45.355469 L 467 71.046875 C 464.75 72.554688 461.644531 73.152344 459.199219 71.78125 C 457.738281 70.972656 457.167969 69.242188 456.980469 67.683594 C 456.671875 65.035156 456.867188 62.359375 456.8125 59.703125 C 456.808594 54.902344 456.824219 50.105469 456.808594 45.308594 "/>
<path style=" stroke:none;fill-rule:nonzero;fill:rgb(0.784314%,64.313728%,93.725491%);fill-opacity:1;" d="M 0 52.421875 C 15.8125 52.429688 31.628906 52.421875 47.441406 52.429688 C 47.445312 68.269531 47.441406 84.109375 47.441406 99.949219 L 0 99.949219 L 0 52.421875 "/>
<path style=" stroke:none;fill-rule:nonzero;fill:rgb(100%,72.549021%,0.784314%);fill-opacity:1;" d="M 52.289062 52.429688 C 68.097656 52.421875 83.910156 52.425781 99.726562 52.425781 C 99.726562 68.265625 99.726562 84.109375 99.726562 99.949219 L 52.285156 99.949219 C 52.289062 84.109375 52.28125 68.265625 52.289062 52.429688 "/>
</g>
</svg>
