<?xml version="1.0" encoding="UTF-8"?>
<svg xmlns="http://www.w3.org/2000/svg" xmlns:xlink="http://www.w3.org/1999/xlink" width="317px" height="100px" viewBox="0 0 317 100" version="1.1">
<g id="surface1">
<path style=" stroke:none;fill-rule:nonzero;fill:rgb(0%,0%,0%);fill-opacity:1;" d="M 268.003906 95.492188 L 273.828125 82.542969 C 274.972656 79.992188 275.34375 79.433594 276.546875 79.125 L 276.546875 78.257812 L 270.453125 78.265625 L 270.453125 79.132812 C 272.46875 79.566406 272.683594 80.589844 271.757812 82.765625 L 269.417969 88.390625 L 266.496094 81.78125 C 265.878906 80.324219 265.964844 79.488281 268.101562 79.234375 L 268.101562 78.273438 L 259.960938 78.289062 L 259.960938 79.25 C 260.917969 79.496094 261.289062 79.898438 262.132812 81.636719 L 267.324219 92.796875 L 266.457031 94.664062 C 265.964844 95.75 265.5 96.5625 264.972656 97.027344 C 264.601562 95.757812 263.882812 95.074219 262.773438 95.074219 C 261.660156 95.074219 260.703125 95.824219 260.703125 97.28125 C 260.703125 98.738281 261.882812 99.824219 263.273438 99.824219 C 265.253906 99.808594 266.488281 98.816406 268.003906 95.492188 M 259.726562 91.597656 L 259.265625 90.605469 C 258.429688 90.976562 257.6875 91.164062 257.039062 91.171875 C 255.585938 91.171875 255.207031 90.425781 255.207031 89.40625 L 255.191406 80.0625 L 259.125 80.054688 L 259.125 78.289062 L 255.191406 78.296875 L 255.183594 75.40625 L 254.628906 75.40625 L 249.066406 79.078125 L 249.066406 80.070312 L 251.332031 80.0625 L 251.34375 90.210938 C 251.34375 92.222656 252.496094 93.308594 254.753906 93.308594 C 256.515625 93.308594 258.246094 92.710938 259.726562 91.597656 M 247.96875 92.046875 C 246.046875 91.765625 245.765625 91.363281 245.765625 89.660156 L 245.746094 77.769531 L 244.230469 77.769531 L 239.6875 80.757812 L 239.6875 81.441406 L 241.890625 81.433594 L 241.90625 89.660156 C 241.90625 91.363281 241.59375 91.773438 239.710938 92.054688 L 239.710938 93.015625 L 247.976562 93 Z M 243.542969 75.453125 C 244.839844 75.453125 245.890625 74.390625 245.890625 73.058594 C 245.890625 71.882812 244.988281 70.921875 243.78125 70.921875 C 242.421875 70.921875 241.402344 71.984375 241.402344 73.285156 C 241.402344 74.492188 242.296875 75.453125 243.542969 75.453125 M 238.140625 88.46875 C 238.132812 85.578125 235.753906 84.6875 233.523438 83.972656 C 231.320312 83.261719 229.804688 82.804688 229.804688 81.1875 C 229.804688 80.316406 230.453125 79.503906 231.722656 79.503906 C 233.296875 79.503906 234.695312 80.464844 236.371094 82.355469 L 237.175781 81.984375 L 235.996094 78.132812 L 235.5 78.132812 L 234.945312 78.597656 C 234.023438 78.207031 233.03125 78.007812 232.03125 78.015625 C 228.746094 78.023438 226.613281 79.921875 226.621094 82.773438 C 226.628906 85.664062 229.011719 86.492188 231.242188 87.234375 C 233.445312 87.980469 234.960938 88.40625 234.960938 90.054688 C 234.960938 91.078125 234.1875 91.859375 232.703125 91.859375 C 230.632812 91.859375 229.046875 90.503906 227.15625 88.078125 L 226.320312 88.390625 L 227.535156 93.230469 L 228.058594 93.230469 L 228.957031 92.582031 C 229.976562 93.074219 231.128906 93.355469 232.394531 93.347656 C 235.554688 93.347656 238.148438 91.480469 238.140625 88.46875 M 222.027344 92.09375 C 220.007812 91.78125 219.730469 91.347656 219.730469 89.425781 L 219.722656 83.027344 C 220.339844 81.914062 220.929688 81.101562 221.546875 80.542969 C 221.546875 81.75 222.390625 82.527344 223.441406 82.527344 C 224.492188 82.527344 225.511719 81.679688 225.511719 80.070312 C 225.511719 78.707031 224.730469 77.871094 223.371094 77.871094 C 221.855469 77.871094 220.679688 79.148438 219.570312 80.953125 L 219.5625 77.816406 L 218.203125 77.816406 L 213.71875 80.773438 L 213.71875 81.457031 L 215.851562 81.457031 L 215.867188 89.714844 C 215.867188 91.417969 215.589844 91.859375 213.828125 92.109375 L 213.828125 93.066406 L 222.035156 93.050781 Z M 202.625 83.6875 C 202.617188 81.171875 203.667969 79.683594 205.714844 79.675781 C 207.136719 79.675781 208.042969 80.699219 208.414062 82.710938 L 202.65625 84.710938 C 202.625 84.371094 202.625 84.027344 202.625 83.6875 M 212.328125 90.28125 L 211.496094 89.628906 C 210.601562 90.660156 209.304688 91.25 207.941406 91.246094 C 205.089844 91.253906 203.476562 89.085938 202.890625 86.257812 L 212.167969 83.136719 C 211.972656 79.84375 209.554688 78.046875 206.496094 78.054688 C 202.195312 78.0625 199.042969 81.550781 199.050781 85.863281 C 199.058594 90.148438 201.785156 93.402344 206.582031 93.394531 C 209.519531 93.394531 211.277344 92.085938 212.328125 90.28125 M 196.097656 82.671875 C 197.242188 80.125 197.613281 79.566406 198.816406 79.257812 L 198.816406 78.390625 L 192.722656 78.398438 L 192.722656 79.265625 C 194.738281 79.699219 194.953125 80.722656 194.027344 82.898438 L 191.6875 88.519531 L 188.765625 81.914062 C 188.148438 80.457031 188.234375 79.621094 190.375 79.367188 L 190.375 78.40625 L 182.230469 78.421875 L 182.230469 79.382812 C 183.1875 79.628906 183.589844 80.03125 184.402344 81.765625 L 189.714844 93.269531 L 191.324219 93.269531 Z M 181.96875 92.167969 C 180.042969 91.890625 179.765625 91.488281 179.765625 89.785156 L 179.742188 77.894531 L 178.226562 77.894531 L 173.683594 80.882812 L 173.683594 81.566406 L 175.878906 81.558594 L 175.894531 89.785156 C 175.894531 91.488281 175.585938 91.898438 173.699219 92.175781 L 173.699219 93.136719 L 181.96875 93.121094 Z M 177.539062 75.570312 C 178.839844 75.570312 179.890625 74.507812 179.890625 73.175781 C 179.890625 72 178.984375 71.039062 177.78125 71.039062 C 176.421875 71.039062 175.398438 72.097656 175.398438 73.402344 C 175.398438 74.609375 176.296875 75.570312 177.539062 75.570312 M 161.933594 92.199219 C 160.171875 91.953125 159.886719 91.519531 159.886719 89.816406 L 159.871094 82.640625 C 161.417969 81.238281 162.683594 80.558594 163.796875 80.558594 C 165.308594 80.558594 165.75 81.332031 165.75 82.726562 L 165.765625 89.808594 C 165.765625 91.511719 165.488281 91.953125 163.726562 92.199219 L 163.726562 93.160156 L 171.683594 93.144531 L 171.683594 92.183594 C 169.921875 91.9375 169.636719 91.503906 169.636719 89.800781 L 169.621094 82.378906 C 169.613281 79.890625 168.5625 78.125 165.433594 78.132812 C 163.519531 78.132812 161.625 79.320312 159.769531 80.90625 L 159.761719 77.925781 L 158.339844 77.925781 L 153.859375 80.882812 L 153.859375 81.566406 L 155.992188 81.566406 L 156.007812 89.824219 C 156.007812 91.527344 155.730469 91.96875 153.96875 92.214844 L 153.96875 93.175781 L 161.925781 93.160156 Z M 128.15625 74.011719 L 128.171875 83.324219 C 128.179688 89.34375 131.316406 93.53125 139.210938 93.515625 C 147.109375 93.503906 150.230469 89.304688 150.214844 83.410156 L 150.199219 75.925781 C 150.191406 72.292969 151.210938 71.363281 152.972656 70.859375 L 152.972656 69.898438 L 145.476562 69.914062 L 145.476562 70.875 C 147.246094 71.371094 148.265625 72.300781 148.273438 75.933594 L 148.289062 83.417969 C 148.296875 88.660156 145.546875 91.085938 140.347656 91.101562 C 135.179688 91.109375 132.390625 88.691406 132.375 83.449219 L 132.359375 74.011719 C 132.351562 71.648438 133.039062 71.246094 134.988281 70.96875 L 134.988281 69.945312 L 125.578125 69.960938 L 125.578125 70.984375 C 127.53125 71.246094 128.15625 71.648438 128.15625 74.011719 "/>
<path style=" stroke:none;fill-rule:nonzero;fill:rgb(0%,0%,0%);fill-opacity:1;" d="M 307.25 56.289062 C 305.488281 56.042969 305.203125 55.609375 305.203125 53.902344 L 305.1875 46.730469 C 306.730469 45.328125 308 44.648438 309.113281 44.648438 C 310.625 44.648438 311.066406 45.421875 311.066406 46.816406 L 311.082031 53.894531 C 311.082031 55.601562 310.804688 56.042969 309.042969 56.289062 L 309.042969 57.25 L 317 57.234375 L 317 56.273438 C 315.238281 56.027344 314.953125 55.59375 314.953125 53.886719 L 314.9375 46.46875 C 314.929688 43.980469 313.878906 42.214844 310.75 42.222656 C 308.832031 42.222656 306.941406 43.40625 305.085938 44.996094 L 305.085938 42.015625 L 303.664062 42.015625 L 299.183594 44.972656 L 299.183594 45.65625 L 301.316406 45.65625 L 301.332031 53.910156 C 301.332031 55.617188 301.054688 56.058594 299.292969 56.304688 L 299.292969 57.265625 L 307.25 57.25 Z M 294.925781 56.3125 C 292.910156 56.003906 292.632812 55.570312 292.632812 53.648438 L 292.625 47.25 C 293.242188 46.132812 293.832031 45.320312 294.449219 44.761719 C 294.449219 45.972656 295.289062 46.746094 296.339844 46.746094 C 297.390625 46.746094 298.410156 45.902344 298.410156 44.292969 C 298.410156 42.929688 297.632812 42.089844 296.273438 42.089844 C 294.757812 42.089844 293.582031 43.371094 292.46875 45.175781 L 292.460938 42.035156 L 291.101562 42.035156 L 286.621094 44.996094 L 286.621094 45.675781 L 288.753906 45.675781 L 288.769531 53.933594 C 288.769531 55.640625 288.492188 56.082031 286.730469 56.328125 L 286.730469 57.289062 L 294.933594 57.273438 Z M 275.535156 47.910156 C 275.527344 45.390625 276.578125 43.902344 278.625 43.894531 C 280.046875 43.894531 280.949219 44.917969 281.320312 46.933594 L 275.566406 48.929688 C 275.535156 48.589844 275.535156 48.25 275.535156 47.910156 M 285.230469 54.5 L 284.398438 53.851562 C 283.5 54.878906 282.207031 55.46875 280.84375 55.46875 C 277.992188 55.476562 276.378906 53.308594 275.789062 50.480469 L 285.070312 47.359375 C 284.875 44.066406 282.457031 42.269531 279.398438 42.277344 C 275.09375 42.285156 271.941406 45.769531 271.949219 50.085938 C 271.957031 54.367188 274.683594 57.621094 279.484375 57.613281 C 282.417969 57.605469 284.1875 56.304688 285.230469 54.5 M 270.929688 55.925781 L 270.46875 54.933594 C 269.632812 55.304688 268.890625 55.492188 268.242188 55.5 C 266.789062 55.5 266.410156 54.757812 266.410156 53.734375 L 266.394531 44.390625 L 270.328125 44.382812 L 270.328125 42.617188 L 266.394531 42.625 L 266.386719 39.738281 L 265.832031 39.738281 L 260.269531 43.40625 L 260.269531 44.398438 L 262.53125 44.390625 L 262.546875 54.539062 C 262.546875 56.554688 263.699219 57.636719 265.957031 57.636719 C 267.714844 57.636719 269.449219 57.042969 270.929688 55.925781 M 259.226562 52.78125 C 259.21875 49.890625 256.839844 49 254.605469 48.289062 C 252.402344 47.574219 250.890625 47.117188 250.890625 45.5 C 250.890625 44.632812 251.539062 43.820312 252.804688 43.820312 C 254.382812 43.820312 255.78125 44.777344 257.457031 46.667969 L 258.261719 46.296875 L 257.078125 42.449219 L 256.582031 42.449219 L 256.027344 42.914062 C 255.105469 42.519531 254.113281 42.324219 253.113281 42.332031 C 249.832031 42.339844 247.699219 44.238281 247.707031 47.085938 C 247.714844 49.976562 250.09375 50.804688 252.328125 51.550781 C 254.527344 52.292969 256.042969 52.71875 256.042969 54.367188 C 256.042969 55.390625 255.269531 56.171875 253.785156 56.171875 C 251.714844 56.171875 250.132812 54.816406 248.238281 52.394531 L 247.40625 52.703125 L 248.617188 57.542969 L 249.144531 57.542969 L 250.039062 56.894531 C 251.058594 57.390625 252.210938 57.667969 253.476562 57.660156 C 256.636719 57.652344 259.234375 55.785156 259.226562 52.78125 M 235.390625 53.410156 C 235.390625 51.828125 236.101562 51.078125 239.71875 50.078125 L 239.726562 54.578125 C 238.859375 55.257812 238.089844 55.578125 237.316406 55.578125 C 236.101562 55.578125 235.390625 54.925781 235.390625 53.410156 M 242.207031 57.558594 C 243.535156 57.558594 244.957031 56.933594 245.890625 56.28125 L 245.613281 55.414062 C 244.097656 55.695312 243.542969 55.476562 243.535156 54.453125 L 243.519531 46.164062 C 243.511719 43.679688 242.429688 42.347656 238.929688 42.355469 C 234.996094 42.363281 232.125 44.476562 232.125 46.46875 C 232.125 47.429688 232.78125 48.234375 233.894531 48.234375 C 235.160156 48.234375 235.777344 47.390625 235.964844 46.554688 C 236.148438 45.59375 235.839844 44.878906 235.367188 44.476562 C 236.140625 44.105469 236.914062 43.917969 237.71875 43.910156 C 239.046875 43.910156 239.703125 44.375 239.703125 45.585938 L 239.710938 48.691406 C 234.171875 50.070312 231.636719 51.277344 231.636719 54.230469 C 231.644531 56.5 233.097656 57.699219 235.390625 57.699219 C 236.84375 57.699219 238.519531 57.070312 239.941406 55.957031 C 240.167969 56.972656 240.878906 57.558594 242.207031 57.558594 M 220.242188 48 C 220.234375 45.484375 221.285156 43.996094 223.332031 43.988281 C 224.753906 43.988281 225.65625 45.011719 226.027344 47.027344 L 220.273438 49.023438 C 220.242188 48.683594 220.242188 48.34375 220.242188 48 M 229.945312 54.601562 L 229.109375 53.949219 C 228.214844 54.980469 226.917969 55.570312 225.558594 55.570312 C 222.707031 55.578125 221.089844 53.410156 220.503906 50.582031 L 229.78125 47.460938 C 229.589844 44.167969 227.171875 42.371094 224.113281 42.378906 C 219.808594 42.386719 216.65625 45.871094 216.664062 50.1875 C 216.671875 54.46875 219.398438 57.722656 224.195312 57.714844 C 227.132812 57.707031 228.894531 56.398438 229.945312 54.601562 M 205.308594 56.476562 C 203.546875 56.226562 203.261719 55.792969 203.261719 54.089844 L 203.246094 46.886719 C 204.726562 45.515625 205.871094 44.832031 207.167969 44.832031 C 208.683594 44.832031 209.125 45.609375 209.125 47.003906 L 209.140625 54.082031 C 209.140625 55.785156 208.859375 56.226562 207.097656 56.476562 L 207.097656 57.4375 L 215.058594 57.421875 L 215.058594 56.460938 C 213.296875 56.210938 213.011719 55.777344 213.011719 54.074219 L 212.996094 46.652344 C 212.988281 44.167969 211.9375 42.402344 208.808594 42.410156 C 206.921875 42.410156 205.058594 43.53125 203.238281 45.089844 L 203.214844 32.796875 L 202.070312 32.796875 L 197.09375 36.066406 L 197.09375 36.746094 L 199.359375 36.738281 L 199.390625 54.089844 C 199.390625 55.792969 199.109375 56.234375 197.347656 56.484375 L 197.347656 57.445312 L 205.308594 57.429688 Z M 196.414062 56.058594 L 195.949219 55.066406 C 195.117188 55.4375 194.375 55.625 193.726562 55.632812 C 192.273438 55.632812 191.894531 54.886719 191.894531 53.867188 L 191.878906 44.523438 L 195.8125 44.515625 L 195.8125 42.75 L 191.878906 42.757812 L 191.871094 39.867188 L 191.316406 39.867188 L 185.753906 43.539062 L 185.753906 44.53125 L 188.015625 44.523438 L 188.03125 54.671875 C 188.03125 56.683594 189.183594 57.769531 191.4375 57.769531 C 193.199219 57.769531 194.929688 57.171875 196.414062 56.058594 M 181.25 56.515625 C 179.230469 56.203125 178.953125 55.769531 178.953125 53.851562 L 178.945312 47.453125 C 179.566406 46.335938 180.152344 45.523438 180.769531 44.964844 C 180.769531 46.171875 181.613281 46.949219 182.664062 46.949219 C 183.714844 46.949219 184.734375 46.105469 184.734375 44.492188 C 184.734375 43.128906 183.953125 42.292969 182.59375 42.292969 C 181.078125 42.292969 179.90625 43.570312 178.792969 45.375 L 178.785156 42.238281 L 177.425781 42.238281 L 172.945312 45.199219 L 172.945312 45.878906 L 175.074219 45.878906 L 175.089844 54.136719 C 175.089844 55.839844 174.8125 56.28125 173.050781 56.53125 L 173.050781 57.492188 L 181.257812 57.476562 Z M 158.882812 48.574219 C 158.875 45.777344 160.078125 44.011719 162.621094 44.003906 C 165.90625 43.996094 166.871094 48.03125 166.878906 51.726562 C 166.886719 54.523438 165.679688 56.289062 163.140625 56.296875 C 159.855469 56.304688 158.890625 52.269531 158.882812 48.574219 M 170.742188 49.953125 C 170.734375 45.886719 168.007812 42.480469 163.023438 42.484375 C 158.007812 42.492188 155.011719 46.132812 155.019531 50.355469 C 155.027344 54.421875 157.753906 57.832031 162.738281 57.824219 C 167.75 57.816406 170.75 54.175781 170.742188 49.953125 M 150.539062 40.269531 C 150.53125 36.636719 151.550781 35.707031 153.3125 35.203125 L 153.3125 34.246094 L 145.816406 34.261719 L 145.816406 35.21875 C 147.585938 35.714844 148.605469 36.644531 148.613281 40.277344 L 148.628906 51.207031 L 132.816406 35.25 C 131.949219 34.382812 131.609375 34.289062 131.046875 34.289062 L 125.199219 34.296875 L 125.199219 35.257812 C 126.464844 35.382812 127.214844 35.878906 128.667969 37.273438 C 129.128906 37.707031 129.5625 38.234375 129.570312 39.101562 L 129.59375 51.550781 C 129.601562 55.183594 128.582031 56.113281 126.820312 56.613281 L 126.820312 57.574219 L 134.3125 57.558594 L 134.3125 56.601562 C 132.546875 56.105469 131.523438 55.175781 131.515625 51.542969 L 131.496094 39.804688 L 149.292969 57.683594 L 150.5625 57.683594 Z M 150.539062 40.269531 "/>
<path style=" stroke:none;fill-rule:nonzero;fill:rgb(78.431374%,6.27451%,18.039216%);fill-opacity:1;" d="M 106.269531 26.699219 C 106.269531 11.515625 111.359375 6.535156 121.535156 2.679688 L 121.535156 0.183594 L 88.136719 0.183594 L 88.136719 2.671875 C 98.320312 6.527344 103.402344 11.507812 103.402344 26.691406 L 103.402344 71.253906 L 32.773438 3.546875 C 29.542969 0.558594 28.679688 0.183594 26.570312 0.183594 L 0 0.183594 L 0 2.671875 C 5.832031 3.292969 9.308594 4.910156 17.753906 13.128906 L 20.984375 16.242188 L 20.984375 67.027344 C 20.984375 82.207031 15.890625 87.1875 5.71875 91.046875 L 5.71875 93.53125 L 39.117188 93.53125 L 39.117188 91.046875 C 28.933594 87.1875 23.851562 82.207031 23.851562 67.027344 L 23.851562 18.605469 L 103.796875 94.160156 L 106.277344 94.160156 L 106.277344 26.699219 Z M 106.269531 26.699219 "/>
</g>
</svg>
