<?xml version="1.0" encoding="UTF-8"?>
<svg xmlns="http://www.w3.org/2000/svg" xmlns:xlink="http://www.w3.org/1999/xlink" width="339px" height="100px" viewBox="0 0 339 100" version="1.1">
<g id="surface1">
<path style=" stroke:none;fill-rule:nonzero;fill:rgb(0%,12.941177%,27.843139%);fill-opacity:1;" d="M 26.21875 3.574219 C 32.90625 0.867188 40.3125 0 47.449219 1.027344 C 57.382812 2.414062 66.699219 7.644531 73.128906 15.351562 C 76.535156 19.402344 79.152344 24.113281 80.78125 29.148438 C 82.800781 35.351562 83.28125 42.039062 82.242188 48.480469 C 81.324219 54.242188 79.152344 59.800781 75.90625 64.648438 C 73.421875 68.367188 70.324219 71.667969 66.789062 74.402344 C 66.488281 74.636719 66.21875 74.917969 65.949219 75.191406 C 61.699219 79.519531 56.109375 82.457031 50.171875 83.617188 C 49.410156 83.769531 48.644531 83.894531 47.878906 84.003906 C 48.128906 85.078125 48.492188 86.125 48.910156 87.144531 C 48.632812 87.421875 48.355469 87.699219 48.078125 87.976562 C 47.332031 87.558594 46.28125 87.792969 45.890625 88.585938 C 45.386719 89.460938 46 90.6875 46.996094 90.816406 C 47.800781 90.96875 48.503906 90.433594 49.007812 89.867188 C 49.332031 91.191406 49.226562 92.632812 48.5625 93.835938 C 47.261719 96.277344 44.859375 97.957031 42.332031 98.945312 C 41.96875 99.0625 41.585938 99.3125 41.199219 99.128906 C 38.539062 98.203125 35.996094 96.539062 34.550781 94.058594 C 33.796875 92.808594 33.632812 91.28125 33.988281 89.878906 C 34.492188 90.507812 35.304688 91.015625 36.132812 90.785156 C 37.011719 90.574219 37.53125 89.507812 37.140625 88.6875 C 36.8125 87.875 35.769531 87.53125 35.007812 87.941406 C 34.707031 87.671875 34.425781 87.382812 34.140625 87.09375 C 34.785156 85.976562 35.390625 84.832031 35.824219 83.613281 C 34.253906 83.304688 32.722656 82.839844 31.1875 82.40625 C 29.167969 83.140625 26.921875 83.265625 24.863281 82.617188 C 21.714844 81.679688 19.175781 79.023438 18.328125 75.847656 C 11.988281 71.535156 6.898438 65.40625 3.824219 58.371094 C 1.113281 52.210938 -0.0390625 45.378906 0.472656 38.667969 C 1.007812 31.472656 3.5 24.445312 7.59375 18.515625 C 12.164062 11.851562 18.726562 6.578125 26.21875 3.574219 M 36.574219 2.078125 C 29.246094 2.980469 22.203125 6 16.472656 10.65625 C 10.011719 15.863281 5.21875 23.121094 3.019531 31.132812 C 1.0625 38.179688 1.09375 45.765625 3.105469 52.796875 C 5.511719 61.332031 10.871094 68.980469 18.035156 74.1875 C 17.855469 72.191406 18.339844 70.167969 19.34375 68.445312 C 18.855469 67.984375 18.390625 67.503906 17.945312 67 C 18.054688 66.921875 18.160156 66.84375 18.269531 66.765625 C 18.726562 67.164062 19.222656 67.519531 19.726562 67.867188 C 20.75 66.40625 22.167969 65.230469 23.792969 64.503906 C 20.566406 61.96875 17.882812 58.742188 16 55.089844 C 13.507812 50.355469 12.394531 44.90625 12.824219 39.570312 C 13.246094 33.921875 15.414062 28.425781 18.929688 23.992188 C 22.644531 19.273438 27.851562 15.757812 33.617188 14.113281 C 38.382812 12.75 43.5 12.636719 48.316406 13.796875 C 53.203125 14.96875 57.761719 17.457031 61.402344 20.925781 C 64.492188 23.855469 66.929688 27.480469 68.464844 31.460938 C 70.09375 35.664062 70.699219 40.253906 70.246094 44.738281 C 69.714844 50.09375 67.621094 55.273438 64.3125 59.507812 C 60.773438 64.054688 55.859375 67.515625 50.375 69.261719 C 49.773438 69.425781 49.246094 69.792969 48.882812 70.300781 C 47.953125 71.589844 47.589844 73.203125 47.4375 74.761719 C 53.460938 76.125 59.890625 75.867188 65.703125 73.726562 C 71.984375 69.03125 76.8125 62.40625 79.367188 54.980469 C 81.5 48.804688 82.078125 42.101562 81.078125 35.644531 C 80.203125 29.945312 78.058594 24.453125 74.863281 19.660156 C 70.382812 12.910156 63.824219 7.5625 56.296875 4.582031 C 50.074219 2.09375 43.21875 1.242188 36.574219 2.078125 M 36.875 14.5625 C 31.5 15.472656 26.429688 18.054688 22.5 21.835938 C 18.34375 25.792969 15.460938 31.082031 14.425781 36.738281 C 13.535156 41.484375 13.914062 46.460938 15.535156 51.011719 C 17.300781 56.046875 20.5625 60.539062 24.785156 63.789062 C 24.941406 63.894531 25.101562 64.085938 25.3125 63.988281 C 26.933594 63.578125 28.652344 63.582031 30.261719 64.035156 C 32.859375 64.738281 35.128906 66.574219 36.34375 68.980469 C 41.917969 70.070312 47.824219 69.371094 52.988281 67 C 57.878906 64.773438 62.085938 61.078125 64.941406 56.519531 C 68.320312 51.1875 69.757812 44.664062 68.960938 38.402344 C 68.410156 33.875 66.703125 29.5 64.054688 25.792969 C 61.144531 21.695312 57.109375 18.410156 52.5 16.421875 C 47.621094 14.292969 42.113281 13.648438 36.875 14.5625 M 20.730469 68.523438 C 21.242188 68.832031 21.753906 69.132812 22.277344 69.429688 C 23.558594 67.671875 25.691406 66.5625 27.871094 66.625 C 28.925781 66.621094 29.949219 66.917969 30.90625 67.347656 C 32.15625 67.867188 33.445312 68.304688 34.761719 68.636719 C 33.21875 66.3125 30.492188 64.824219 27.703125 64.84375 C 24.957031 64.816406 22.273438 66.257812 20.730469 68.523438 M 23.347656 70.011719 C 24.886719 70.78125 26.441406 71.511719 28.023438 72.179688 C 28.484375 72.382812 29.03125 72.558594 29.257812 73.054688 C 29.644531 73.78125 29.207031 74.785156 28.398438 74.96875 C 27.800781 75.152344 27.265625 74.753906 26.78125 74.464844 C 25.328125 73.515625 23.949219 72.457031 22.625 71.335938 C 22 72.777344 22.085938 74.496094 22.785156 75.898438 C 23.4375 77.210938 24.632812 78.15625 25.90625 78.832031 C 29.570312 80.839844 33.617188 82.113281 37.726562 82.789062 C 40.976562 83.335938 44.296875 83.289062 47.558594 82.882812 C 50.984375 82.445312 54.359375 81.492188 57.445312 79.929688 C 59.765625 78.773438 61.898438 77.269531 63.832031 75.542969 C 58.609375 76.988281 53.054688 77.121094 47.757812 76.007812 C 42.210938 74.875 37 72.46875 32.203125 69.503906 C 31.097656 68.890625 30.058594 68.0625 28.777344 67.867188 C 26.75 67.480469 24.570312 68.351562 23.347656 70.011719 M 20.234375 69.300781 C 19.382812 70.921875 19.03125 72.808594 19.316406 74.625 C 19.703125 77.398438 21.570312 79.898438 24.101562 81.074219 C 25.726562 81.863281 27.589844 82.042969 29.359375 81.746094 C 27.503906 80.945312 25.617188 80.152344 23.945312 78.996094 C 22.828125 78.191406 21.894531 77.089844 21.414062 75.785156 C 20.769531 74.09375 20.878906 72.160156 21.632812 70.523438 C 21.167969 70.113281 20.707031 69.695312 20.234375 69.300781 M 34.9375 69.808594 C 35.976562 70.382812 37.042969 70.914062 38.109375 71.4375 C 38.347656 71.105469 38.621094 70.796875 38.925781 70.519531 C 37.582031 70.382812 36.261719 70.082031 34.9375 69.808594 M 41.714844 70.640625 C 40.722656 70.632812 39.734375 71.105469 39.167969 71.929688 C 41.445312 72.976562 43.8125 73.832031 46.238281 74.472656 C 46.394531 72.894531 46.816406 71.3125 47.699219 69.980469 C 45.734375 70.398438 43.726562 70.625 41.714844 70.640625 M 35.800781 86.550781 C 36.496094 86.632812 37.207031 86.859375 37.707031 87.378906 C 38.785156 88.414062 38.753906 90.355469 37.632812 91.347656 C 36.945312 91.976562 35.957031 92.125 35.066406 91.964844 C 35.351562 93.324219 36.195312 94.488281 37.199219 95.414062 C 38.410156 96.53125 39.867188 97.382812 41.425781 97.90625 C 42.402344 97.714844 43.300781 97.179688 44.160156 96.675781 C 45.871094 95.585938 47.496094 94.027344 47.917969 91.960938 C 46.957031 92.15625 45.886719 91.910156 45.207031 91.175781 C 44.175781 90.109375 44.253906 88.171875 45.40625 87.21875 C 45.953125 86.742188 46.691406 86.5625 47.402344 86.5625 C 47.125 85.769531 46.84375 84.972656 46.660156 84.152344 C 43.457031 84.476562 40.210938 84.421875 37.035156 83.851562 C 36.699219 84.785156 36.285156 85.6875 35.800781 86.550781 Z M 35.800781 86.550781 "/>
<path style=" stroke:none;fill-rule:nonzero;fill:rgb(0%,12.941177%,27.843139%);fill-opacity:1;" d="M 33.6875 4.511719 C 34.09375 4.378906 34.503906 4.265625 34.917969 4.152344 C 34.605469 5.753906 34.246094 7.347656 33.960938 8.953125 C 34.167969 9.882812 34.484375 10.785156 34.730469 11.707031 C 34.371094 11.8125 34.011719 11.921875 33.65625 12.035156 C 33.378906 11.222656 33.183594 10.382812 32.933594 9.558594 C 32.871094 9.269531 32.636719 9.074219 32.445312 8.867188 C 31.574219 7.980469 30.730469 7.0625 29.855469 6.175781 C 29.730469 6.039062 29.578125 5.90625 29.519531 5.722656 C 29.882812 5.605469 30.253906 5.507812 30.617188 5.394531 C 31.453125 6.234375 32.261719 7.105469 33.085938 7.957031 C 33.28125 6.808594 33.511719 5.664062 33.6875 4.511719 Z M 33.6875 4.511719 "/>
<path style=" stroke:none;fill-rule:nonzero;fill:rgb(0%,12.941177%,27.843139%);fill-opacity:1;" d="M 50.832031 5.128906 C 52.214844 4.84375 53.753906 5.566406 54.332031 6.871094 C 55.0625 8.53125 54.507812 10.625 53.144531 11.792969 C 52.257812 12.5625 50.933594 12.714844 49.867188 12.25 C 48.726562 11.792969 47.976562 10.613281 47.945312 9.394531 C 47.832031 7.574219 48.925781 5.496094 50.832031 5.128906 M 50.96875 6.160156 C 49.917969 6.492188 49.332031 7.585938 49.148438 8.613281 C 48.976562 9.535156 49.203125 10.640625 50.035156 11.175781 C 50.832031 11.726562 51.988281 11.523438 52.589844 10.777344 C 53.34375 9.863281 53.730469 8.550781 53.347656 7.402344 C 53.042969 6.445312 51.929688 5.851562 50.96875 6.160156 Z M 50.96875 6.160156 "/>
<path style=" stroke:none;fill-rule:nonzero;fill:rgb(0%,12.941177%,27.843139%);fill-opacity:1;" d="M 41.179688 6.46875 C 41.863281 6.183594 42.667969 6.875 42.484375 7.597656 C 42.371094 8.316406 41.390625 8.648438 40.867188 8.144531 C 40.300781 7.691406 40.488281 6.683594 41.179688 6.46875 Z M 41.179688 6.46875 "/>
<path style=" stroke:none;fill-rule:nonzero;fill:rgb(0%,12.941177%,27.843139%);fill-opacity:1;" d="M 22.097656 9.109375 C 23.648438 8.300781 25.203125 7.492188 26.753906 6.683594 C 26.90625 6.976562 27.054688 7.269531 27.203125 7.566406 C 26.597656 7.875 25.996094 8.191406 25.394531 8.507812 C 26.355469 10.335938 27.289062 12.179688 28.261719 14.003906 C 27.925781 14.195312 27.585938 14.375 27.246094 14.554688 C 26.285156 12.714844 25.328125 10.875 24.371094 9.035156 C 23.765625 9.355469 23.160156 9.671875 22.550781 9.984375 C 22.398438 9.691406 22.246094 9.398438 22.097656 9.109375 Z M 22.097656 9.109375 "/>
<path style=" stroke:none;fill-rule:nonzero;fill:rgb(0%,12.941177%,27.843139%);fill-opacity:1;" d="M 55.660156 14.347656 C 56.867188 12.269531 58.09375 10.203125 59.3125 8.132812 C 60.457031 8.804688 61.601562 9.484375 62.746094 10.160156 C 62.582031 10.441406 62.410156 10.726562 62.246094 11.011719 C 61.429688 10.523438 60.609375 10.042969 59.789062 9.5625 C 59.453125 10.128906 59.128906 10.703125 58.777344 11.265625 C 59.542969 11.742188 60.332031 12.171875 61.09375 12.65625 C 60.925781 12.925781 60.765625 13.199219 60.605469 13.46875 C 59.832031 13.019531 59.0625 12.566406 58.296875 12.109375 C 57.742188 13.046875 57.191406 13.984375 56.640625 14.921875 C 56.316406 14.726562 55.988281 14.53125 55.660156 14.347656 Z M 55.660156 14.347656 "/>
<path style=" stroke:none;fill-rule:nonzero;fill:rgb(0%,12.941177%,27.843139%);fill-opacity:1;" d="M 18.152344 11.898438 C 18.464844 11.675781 18.769531 11.445312 19.078125 11.21875 C 20.507812 13.144531 21.984375 15.035156 23.425781 16.945312 C 23.125 17.179688 22.820312 17.410156 22.519531 17.648438 C 21.058594 15.734375 19.585938 13.832031 18.152344 11.898438 Z M 18.152344 11.898438 "/>
<path style=" stroke:none;fill-rule:nonzero;fill:rgb(0%,12.941177%,27.843139%);fill-opacity:1;" d="M 203.242188 12.972656 C 205.4375 12.523438 207.882812 13.03125 209.554688 14.578125 C 209.238281 15.011719 208.882812 15.410156 208.554688 15.835938 C 207.597656 15.140625 206.472656 14.628906 205.277344 14.550781 C 204.242188 14.472656 203.117188 14.636719 202.300781 15.324219 C 201.515625 15.976562 201.246094 17.144531 201.601562 18.089844 C 201.816406 18.625 202.25 19.03125 202.722656 19.34375 C 204.292969 20.359375 206.15625 20.828125 207.679688 21.925781 C 208.683594 22.640625 209.484375 23.714844 209.667969 24.957031 C 209.878906 26.378906 209.519531 27.921875 208.558594 29.015625 C 207.863281 29.824219 206.878906 30.335938 205.847656 30.570312 C 203.472656 31.109375 200.878906 30.460938 199 28.914062 C 199.3125 28.453125 199.632812 27.988281 199.933594 27.515625 C 201.136719 28.261719 202.46875 28.902344 203.902344 28.996094 C 204.847656 29.027344 205.867188 28.878906 206.636719 28.28125 C 207.492188 27.613281 207.800781 26.421875 207.628906 25.378906 C 207.464844 24.511719 206.804688 23.839844 206.097656 23.367188 C 204.394531 22.246094 202.3125 21.769531 200.769531 20.398438 C 199.207031 19.035156 199.089844 16.464844 200.273438 14.820312 C 200.972656 13.84375 202.082031 13.222656 203.242188 12.972656 Z M 203.242188 12.972656 "/>
<path style=" stroke:none;fill-rule:nonzero;fill:rgb(0%,12.941177%,27.843139%);fill-opacity:1;" d="M 268.378906 12.886719 C 270.191406 12.660156 272.105469 13.042969 273.601562 14.109375 C 275.691406 15.558594 276.820312 18.074219 277.03125 20.558594 C 277.289062 23.371094 276.644531 26.425781 274.644531 28.511719 C 272.414062 30.882812 268.566406 31.414062 265.730469 29.871094 C 263.496094 28.691406 262.09375 26.324219 261.683594 23.878906 C 261.222656 21.125 261.640625 18.097656 263.324219 15.8125 C 264.507812 14.183594 266.386719 13.113281 268.378906 12.886719 M 267.828125 14.765625 C 266.800781 15.035156 265.878906 15.65625 265.222656 16.488281 C 264.300781 17.644531 263.859375 19.109375 263.710938 20.558594 C 263.554688 22.171875 263.695312 23.84375 264.328125 25.347656 C 264.777344 26.429688 265.503906 27.414062 266.476562 28.078125 C 268.359375 29.402344 271.171875 29.230469 272.84375 27.625 C 273.921875 26.605469 274.5 25.164062 274.761719 23.726562 C 275.046875 22.035156 275.023438 20.257812 274.480469 18.621094 C 274.078125 17.417969 273.351562 16.296875 272.3125 15.554688 C 271.039062 14.625 269.339844 14.371094 267.828125 14.765625 Z M 267.828125 14.765625 "/>
<path style=" stroke:none;fill-rule:nonzero;fill:rgb(0%,12.941177%,27.843139%);fill-opacity:1;" d="M 104.359375 13.140625 C 105.039062 13.140625 105.722656 13.148438 106.40625 13.132812 C 106.449219 17.066406 106.398438 21.003906 106.433594 24.941406 C 106.4375 25.957031 106.664062 27.042969 107.40625 27.785156 C 108.441406 28.828125 110.03125 29.101562 111.4375 28.898438 C 112.597656 28.738281 113.710938 28.046875 114.222656 26.96875 C 114.601562 26.148438 114.628906 25.222656 114.660156 24.335938 C 114.6875 20.601562 114.648438 16.867188 114.683594 13.132812 C 115.355469 13.148438 116.03125 13.140625 116.707031 13.140625 C 116.707031 15.71875 116.703125 18.292969 116.707031 20.871094 C 116.679688 22.582031 116.78125 24.304688 116.558594 26.007812 C 116.40625 27.183594 115.941406 28.355469 115.054688 29.167969 C 113.78125 30.378906 111.953125 30.800781 110.242188 30.738281 C 108.398438 30.6875 106.472656 29.960938 105.359375 28.429688 C 104.53125 27.300781 104.378906 25.855469 104.367188 24.496094 C 104.347656 20.710938 104.363281 16.925781 104.359375 13.140625 Z M 104.359375 13.140625 "/>
<path style=" stroke:none;fill-rule:nonzero;fill:rgb(0%,12.941177%,27.843139%);fill-opacity:1;" d="M 123.335938 13.140625 C 124.042969 13.140625 124.746094 13.140625 125.453125 13.144531 C 128.230469 17.871094 130.972656 22.617188 133.777344 27.324219 C 133.792969 22.597656 133.746094 17.871094 133.738281 13.140625 C 134.375 13.144531 135.011719 13.132812 135.648438 13.152344 C 135.621094 18.910156 135.660156 24.667969 135.628906 30.425781 C 134.910156 30.410156 134.1875 30.429688 133.46875 30.410156 C 130.722656 25.691406 127.960938 20.980469 125.183594 16.28125 C 125.191406 20.996094 125.230469 25.710938 125.222656 30.425781 C 124.59375 30.414062 123.964844 30.417969 123.335938 30.417969 C 123.335938 24.660156 123.335938 18.902344 123.335938 13.140625 Z M 123.335938 13.140625 "/>
<path style=" stroke:none;fill-rule:nonzero;fill:rgb(0%,12.941177%,27.843139%);fill-opacity:1;" d="M 142.84375 30.429688 C 142.820312 24.664062 142.820312 18.898438 142.84375 13.136719 C 143.53125 13.152344 144.21875 13.144531 144.90625 13.144531 C 144.90625 18.902344 144.90625 24.664062 144.90625 30.421875 C 144.21875 30.421875 143.53125 30.414062 142.84375 30.429688 Z M 142.84375 30.429688 "/>
<path style=" stroke:none;fill-rule:nonzero;fill:rgb(0%,12.941177%,27.843139%);fill-opacity:1;" d="M 149.488281 13.140625 C 150.207031 13.140625 150.929688 13.140625 151.648438 13.140625 C 153.328125 18.226562 155 23.316406 156.683594 28.398438 C 158.402344 23.308594 160.132812 18.222656 161.867188 13.140625 C 162.53125 13.144531 163.199219 13.140625 163.867188 13.140625 C 161.847656 18.898438 159.824219 24.65625 157.8125 30.417969 C 157.019531 30.421875 156.222656 30.417969 155.429688 30.417969 C 153.453125 24.660156 151.464844 18.902344 149.488281 13.140625 Z M 149.488281 13.140625 "/>
<path style=" stroke:none;fill-rule:nonzero;fill:rgb(0%,12.941177%,27.843139%);fill-opacity:1;" d="M 168.558594 13.148438 C 171.679688 13.132812 174.800781 13.160156 177.925781 13.136719 C 177.945312 13.714844 177.941406 14.292969 177.933594 14.871094 C 175.488281 14.859375 173.042969 14.871094 170.597656 14.867188 C 170.59375 16.765625 170.597656 18.667969 170.597656 20.566406 C 172.898438 20.574219 175.199219 20.550781 177.5 20.578125 C 177.484375 21.128906 177.484375 21.675781 177.503906 22.222656 C 175.203125 22.28125 172.898438 22.234375 170.597656 22.246094 C 170.589844 24.378906 170.605469 26.507812 170.589844 28.636719 C 173.109375 28.660156 175.625 28.636719 178.144531 28.648438 C 178.144531 29.238281 178.144531 29.828125 178.144531 30.417969 C 174.949219 30.417969 171.753906 30.425781 168.558594 30.414062 C 168.566406 24.660156 168.5625 18.90625 168.558594 13.148438 Z M 168.558594 13.148438 "/>
<path style=" stroke:none;fill-rule:nonzero;fill:rgb(0%,12.941177%,27.843139%);fill-opacity:1;" d="M 183.625 30.40625 C 183.660156 24.648438 183.605469 18.890625 183.652344 13.128906 C 185.535156 13.167969 187.421875 13.105469 189.304688 13.183594 C 190.488281 13.246094 191.742188 13.519531 192.625 14.367188 C 194.050781 15.664062 194.429688 17.851562 193.8125 19.632812 C 193.292969 21.097656 191.832031 22.046875 190.339844 22.269531 C 191.375 22.414062 192.082031 23.273438 192.492188 24.171875 C 193.46875 26.234375 194.363281 28.335938 195.296875 30.417969 C 194.582031 30.421875 193.871094 30.410156 193.160156 30.429688 C 192.332031 28.671875 191.609375 26.863281 190.765625 25.113281 C 190.355469 24.285156 189.832031 23.371094 188.886719 23.101562 C 187.839844 22.824219 186.742188 22.925781 185.671875 22.902344 C 185.667969 25.410156 185.667969 27.914062 185.667969 30.417969 C 184.988281 30.417969 184.304688 30.425781 183.625 30.40625 M 185.671875 14.800781 C 185.667969 16.953125 185.667969 19.101562 185.671875 21.25 C 186.980469 21.230469 188.3125 21.339844 189.597656 21.011719 C 190.414062 20.808594 191.183594 20.3125 191.605469 19.566406 C 192.222656 18.511719 192.183594 17.105469 191.523438 16.078125 C 190.964844 15.253906 189.957031 14.878906 188.996094 14.832031 C 187.890625 14.769531 186.777344 14.816406 185.671875 14.800781 Z M 185.671875 14.800781 "/>
<path style=" stroke:none;fill-rule:nonzero;fill:rgb(0%,12.941177%,27.843139%);fill-opacity:1;" d="M 215.445312 13.144531 C 216.136719 13.144531 216.828125 13.144531 217.523438 13.144531 C 217.523438 18.902344 217.523438 24.660156 217.523438 30.421875 C 216.828125 30.421875 216.136719 30.421875 215.445312 30.417969 C 215.445312 24.660156 215.445312 18.902344 215.445312 13.144531 Z M 215.445312 13.144531 "/>
<path style=" stroke:none;fill-rule:nonzero;fill:rgb(0%,12.941177%,27.843139%);fill-opacity:1;" d="M 222.160156 13.148438 C 226.265625 13.144531 230.371094 13.144531 234.476562 13.144531 C 234.472656 13.71875 234.472656 14.292969 234.476562 14.867188 C 232.769531 14.867188 231.066406 14.871094 229.367188 14.867188 C 229.359375 20.050781 229.363281 25.234375 229.363281 30.421875 C 228.679688 30.421875 227.992188 30.410156 227.3125 30.433594 C 227.257812 25.242188 227.316406 20.050781 227.28125 14.859375 C 225.574219 14.878906 223.867188 14.863281 222.160156 14.867188 C 222.160156 14.292969 222.160156 13.71875 222.160156 13.148438 Z M 222.160156 13.148438 "/>
<path style=" stroke:none;fill-rule:nonzero;fill:rgb(0%,12.941177%,27.843139%);fill-opacity:1;" d="M 236.886719 13.144531 C 237.679688 13.144531 238.472656 13.132812 239.269531 13.152344 C 240.652344 15.851562 242.085938 18.519531 243.476562 21.214844 C 244.921875 18.558594 246.238281 15.832031 247.625 13.144531 C 248.375 13.140625 249.125 13.140625 249.875 13.144531 C 248.089844 16.558594 246.300781 19.96875 244.511719 23.382812 C 244.390625 23.585938 244.394531 23.824219 244.398438 24.050781 C 244.40625 26.171875 244.398438 28.296875 244.402344 30.417969 C 243.714844 30.417969 243.027344 30.425781 242.34375 30.410156 C 242.347656 28.136719 242.382812 25.859375 242.328125 23.589844 C 240.554688 20.089844 238.679688 16.636719 236.886719 13.144531 Z M 236.886719 13.144531 "/>
<path style=" stroke:none;fill-rule:nonzero;fill:rgb(0%,12.941177%,27.843139%);fill-opacity:1;" d="M 282.761719 13.144531 C 285.816406 13.144531 288.871094 13.144531 291.925781 13.144531 C 291.921875 13.71875 291.921875 14.292969 291.925781 14.867188 C 289.554688 14.867188 287.1875 14.867188 284.820312 14.867188 C 284.820312 16.765625 284.824219 18.667969 284.820312 20.566406 C 287.046875 20.578125 289.273438 20.550781 291.5 20.578125 C 291.484375 21.132812 291.484375 21.683594 291.5 22.234375 C 289.273438 22.265625 287.046875 22.238281 284.820312 22.25 C 284.824219 24.972656 284.820312 27.695312 284.820312 30.421875 C 284.136719 30.421875 283.449219 30.421875 282.761719 30.421875 C 282.761719 24.660156 282.761719 18.902344 282.761719 13.144531 Z M 282.761719 13.144531 "/>
<path style=" stroke:none;fill-rule:nonzero;fill:rgb(0%,12.941177%,27.843139%);fill-opacity:1;" d="M 12.769531 17.558594 C 12.960938 16.253906 14.148438 15.230469 15.425781 15.058594 C 15.503906 15.382812 15.566406 15.707031 15.625 16.03125 C 14.820312 16.167969 13.992188 16.699219 13.828125 17.546875 C 13.71875 18.078125 14.261719 18.570312 14.78125 18.433594 C 15.746094 18.230469 16.597656 17.570312 17.617188 17.605469 C 18.839844 17.617188 19.828125 18.917969 19.511719 20.101562 C 19.175781 21.375 17.957031 22.265625 16.691406 22.464844 C 16.617188 22.144531 16.535156 21.820312 16.453125 21.503906 C 17.222656 21.289062 18.105469 20.9375 18.390625 20.113281 C 18.644531 19.515625 18.136719 18.746094 17.472656 18.820312 C 16.46875 18.90625 15.625 19.617188 14.605469 19.644531 C 13.539062 19.6875 12.59375 18.617188 12.769531 17.558594 Z M 12.769531 17.558594 "/>
<path style=" stroke:none;fill-rule:nonzero;fill:rgb(0%,12.941177%,27.843139%);fill-opacity:1;" d="M 64.628906 15.746094 C 65.246094 15.410156 66.085938 15.933594 66.054688 16.640625 C 66.085938 17.390625 65.140625 17.902344 64.53125 17.46875 C 63.894531 17.09375 63.953125 16.042969 64.628906 15.746094 Z M 64.628906 15.746094 "/>
<path style=" stroke:none;fill-rule:nonzero;fill:rgb(0%,12.941177%,27.843139%);fill-opacity:1;" d="M 70.09375 20.050781 C 70.804688 19.859375 71.582031 19.855469 72.269531 20.140625 C 73.753906 20.730469 74.671875 22.546875 74.128906 24.078125 C 73.609375 25.554688 72.164062 26.585938 70.65625 26.84375 C 69.5 27.050781 68.253906 26.542969 67.582031 25.574219 C 66.988281 24.78125 66.777344 23.695312 67.101562 22.746094 C 67.546875 21.40625 68.765625 20.433594 70.09375 20.050781 M 70.550781 21.113281 C 69.441406 21.449219 68.332031 22.253906 68.0625 23.441406 C 67.789062 24.605469 68.804688 25.878906 70.015625 25.777344 C 71.195312 25.679688 72.363281 25.007812 72.964844 23.972656 C 73.484375 23.085938 73.160156 21.855469 72.308594 21.304688 C 71.792969 20.960938 71.128906 20.953125 70.550781 21.113281 Z M 70.550781 21.113281 "/>
<path style=" stroke:none;fill-rule:nonzero;fill:rgb(0%,12.941177%,27.843139%);fill-opacity:1;" d="M 32.453125 20.488281 C 32.535156 20.480469 32.703125 20.460938 32.785156 20.453125 C 33.589844 21.546875 34.390625 22.648438 35.128906 23.789062 C 34.753906 23.878906 34.371094 23.953125 33.992188 24.035156 C 34.414062 24.792969 34.945312 25.480469 35.417969 26.199219 C 36.136719 25.679688 36.808594 25.101562 37.449219 24.492188 C 37.160156 24.339844 36.859375 24.207031 36.574219 24.039062 C 36.609375 23.832031 36.8125 23.742188 36.957031 23.625 C 37.667969 23.136719 38.371094 22.640625 39.070312 22.140625 C 39.265625 22 39.476562 21.867188 39.730469 21.863281 C 39.1875 23.691406 38.554688 25.488281 37.976562 27.304688 C 36.179688 26.691406 34.257812 26.644531 32.378906 26.625 C 30.683594 26.679688 28.933594 26.726562 27.320312 27.308594 C 26.714844 25.507812 26.121094 23.699219 25.550781 21.882812 C 26.019531 21.855469 26.339844 22.25 26.714844 22.464844 C 27.425781 22.996094 28.253906 23.390625 28.878906 24.035156 C 28.578125 24.175781 28.265625 24.300781 27.992188 24.496094 C 28.542969 25.125 29.214844 25.640625 29.835938 26.207031 C 30.339844 25.496094 30.886719 24.804688 31.273438 24.019531 C 30.902344 23.949219 30.527344 23.886719 30.160156 23.789062 C 30.871094 22.65625 31.695312 21.597656 32.453125 20.488281 Z M 32.453125 20.488281 "/>
<path style=" stroke:none;fill-rule:nonzero;fill:rgb(0%,12.941177%,27.843139%);fill-opacity:1;" d="M 48.679688 22.71875 C 49.214844 21.960938 49.753906 21.207031 50.285156 20.445312 C 50.789062 20.433594 50.9375 20.996094 51.21875 21.3125 C 51.761719 22.160156 52.460938 22.914062 52.898438 23.824219 C 52.535156 23.886719 52.167969 23.949219 51.804688 24.023438 C 52.195312 24.796875 52.753906 25.464844 53.210938 26.195312 C 53.941406 25.695312 54.601562 25.089844 55.253906 24.496094 C 54.953125 24.332031 54.648438 24.1875 54.339844 24.042969 C 54.644531 23.625 55.125 23.402344 55.527344 23.09375 C 56.109375 22.707031 56.648438 22.257812 57.253906 21.902344 C 57.324219 21.902344 57.46875 21.894531 57.542969 21.894531 C 56.964844 23.699219 56.363281 25.5 55.777344 27.300781 C 54.019531 26.703125 52.132812 26.648438 50.292969 26.625 C 48.554688 26.664062 46.773438 26.726562 45.109375 27.304688 C 44.523438 25.5 43.925781 23.699219 43.347656 21.890625 C 43.878906 21.863281 44.242188 22.335938 44.675781 22.574219 C 45.332031 23.074219 46.125 23.414062 46.667969 24.046875 C 46.359375 24.179688 46.050781 24.320312 45.753906 24.480469 C 46.355469 25.042969 46.941406 25.625 47.578125 26.144531 L 47.691406 26.136719 C 48.199219 25.488281 48.617188 24.777344 49.09375 24.105469 C 48.761719 23.90625 48.367188 23.894531 47.996094 23.828125 C 48.136719 23.410156 48.429688 23.078125 48.679688 22.71875 Z M 48.679688 22.71875 "/>
<path style=" stroke:none;fill-rule:nonzero;fill:rgb(0%,12.941177%,27.843139%);fill-opacity:1;" d="M 8.578125 23.128906 C 8.910156 22.605469 9.429688 22.140625 10.078125 22.113281 C 11.261719 21.976562 12.558594 23.074219 12.230469 24.328125 C 12.789062 24.046875 13.425781 24.175781 14.023438 24.21875 C 14.710938 24.28125 15.398438 24.328125 16.085938 24.398438 C 15.867188 24.742188 15.667969 25.09375 15.484375 25.457031 C 14.535156 25.40625 13.589844 25.226562 12.636719 25.261719 C 12.03125 25.300781 11.800781 25.941406 11.542969 26.390625 C 12.425781 26.859375 13.296875 27.347656 14.175781 27.828125 C 13.996094 28.160156 13.8125 28.492188 13.621094 28.820312 C 11.519531 27.664062 9.410156 26.519531 7.296875 25.386719 C 7.710938 24.628906 8.109375 23.859375 8.578125 23.128906 M 9.628906 23.414062 C 9.199219 23.800781 8.976562 24.355469 8.671875 24.835938 C 9.347656 25.210938 10.023438 25.574219 10.703125 25.9375 C 10.96875 25.429688 11.3125 24.925781 11.335938 24.335938 C 11.355469 23.53125 10.289062 22.90625 9.628906 23.414062 Z M 9.628906 23.414062 "/>
<path style=" stroke:none;fill-rule:nonzero;fill:rgb(0%,12.941177%,27.843139%);fill-opacity:1;" d="M 76.742188 27.257812 C 76.894531 27.660156 77.027344 28.070312 77.167969 28.476562 C 76.554688 29.253906 75.832031 29.9375 75.261719 30.746094 C 76.21875 30.949219 77.179688 31.160156 78.132812 31.398438 C 78.242188 31.785156 78.367188 32.167969 78.492188 32.550781 C 77.175781 32.222656 75.855469 31.90625 74.535156 31.59375 C 73.605469 32.71875 72.652344 33.824219 71.742188 34.964844 C 71.574219 34.5625 71.4375 34.144531 71.324219 33.726562 C 72.046875 32.921875 72.738281 32.097656 73.433594 31.269531 C 72.398438 31.003906 71.34375 30.820312 70.3125 30.539062 C 70.082031 30.195312 70.03125 29.746094 69.882812 29.363281 C 71.316406 29.6875 72.738281 30.082031 74.179688 30.375 C 75.003906 29.3125 75.910156 28.3125 76.742188 27.257812 Z M 76.742188 27.257812 "/>
<path style=" stroke:none;fill-rule:nonzero;fill:rgb(0%,12.941177%,27.843139%);fill-opacity:1;" d="M 29.640625 28.011719 C 31.417969 27.769531 33.21875 27.761719 34.996094 27.929688 C 35.785156 28.027344 36.59375 28.113281 37.320312 28.449219 C 37.546875 28.519531 37.75 28.839844 37.472656 28.988281 C 36.996094 29.304688 36.410156 29.386719 35.859375 29.492188 C 34.054688 29.765625 32.214844 29.777344 30.402344 29.617188 C 29.605469 29.53125 28.792969 29.441406 28.050781 29.128906 C 27.851562 29.0625 27.734375 28.875 27.601562 28.722656 C 28.152344 28.210938 28.9375 28.136719 29.640625 28.011719 Z M 29.640625 28.011719 "/>
<path style=" stroke:none;fill-rule:nonzero;fill:rgb(0%,12.941177%,27.843139%);fill-opacity:1;" d="M 45.710938 28.480469 C 46.484375 28.09375 47.363281 28.019531 48.210938 27.917969 C 50.160156 27.753906 52.140625 27.761719 54.070312 28.121094 C 54.574219 28.25 55.210938 28.3125 55.480469 28.832031 C 54.871094 29.332031 54.066406 29.425781 53.316406 29.542969 C 51.3125 29.789062 49.273438 29.789062 47.277344 29.5 C 46.695312 29.382812 46.046875 29.320312 45.5625 28.941406 C 45.359375 28.800781 45.546875 28.550781 45.710938 28.480469 Z M 45.710938 28.480469 "/>
<path style=" stroke:none;fill-rule:nonzero;fill:rgb(0%,12.941177%,27.843139%);fill-opacity:1;" d="M 4.519531 33.519531 C 4.914062 32.1875 5.316406 30.855469 5.699219 29.523438 C 6.019531 29.605469 6.339844 29.6875 6.65625 29.777344 C 6.367188 30.742188 6.070312 31.707031 5.78125 32.671875 C 6.425781 32.835938 7.0625 33.019531 7.703125 33.195312 C 7.964844 32.320312 8.164062 31.425781 8.476562 30.566406 C 8.773438 30.660156 9.070312 30.75 9.367188 30.84375 C 9.121094 31.710938 8.875 32.582031 8.632812 33.453125 C 9.355469 33.640625 10.078125 33.851562 10.804688 34.046875 C 11.066406 33.101562 11.34375 32.15625 11.597656 31.207031 C 11.921875 31.289062 12.246094 31.378906 12.570312 31.464844 C 12.214844 32.789062 11.84375 34.109375 11.480469 35.433594 C 9.164062 34.78125 6.839844 34.164062 4.519531 33.519531 Z M 4.519531 33.519531 "/>
<path style=" stroke:none;fill-rule:nonzero;fill:rgb(0%,12.941177%,27.843139%);fill-opacity:1;" d="M 28.015625 32.601562 C 30.726562 32.601562 33.441406 32.601562 36.152344 32.601562 C 37.242188 32.621094 38.410156 32.601562 39.378906 33.179688 C 40.484375 33.839844 40.957031 35.179688 40.960938 36.410156 C 40.976562 41.394531 40.960938 46.378906 40.96875 51.363281 C 40.972656 51.675781 40.957031 51.988281 40.914062 52.300781 C 40.609375 51.839844 40.707031 51.214844 40.332031 50.785156 C 39.683594 49.914062 38.496094 49.832031 37.503906 49.804688 C 34.34375 49.792969 31.183594 49.796875 28.023438 49.800781 C 28.011719 44.070312 28.019531 38.335938 28.015625 32.601562 M 29.0625 35.332031 C 29.136719 35.414062 29.285156 35.582031 29.359375 35.664062 C 29.40625 36.21875 29.394531 36.78125 29.371094 37.335938 C 29.40625 37.570312 29.136719 37.644531 29.015625 37.789062 C 29.707031 37.769531 30.476562 37.914062 31.09375 37.523438 C 31.8125 37.101562 31.84375 35.84375 31.042969 35.488281 C 30.417969 35.234375 29.71875 35.355469 29.0625 35.332031 M 32.714844 35.390625 C 31.800781 35.769531 31.707031 37.257812 32.613281 37.703125 C 33.425781 38.171875 34.570312 37.527344 34.511719 36.566406 C 34.601562 35.636719 33.523438 34.980469 32.714844 35.390625 M 34.738281 35.335938 C 34.859375 35.480469 35.148438 35.554688 35.101562 35.792969 C 35.105469 36.300781 35.074219 36.804688 35.015625 37.308594 C 35.023438 37.539062 34.804688 37.648438 34.671875 37.796875 C 35.019531 37.800781 35.375 37.8125 35.71875 37.738281 C 35.625 37.683594 35.433594 37.574219 35.335938 37.519531 C 35.28125 37.039062 35.320312 36.558594 35.335938 36.078125 C 35.636719 36.609375 35.785156 37.210938 36.054688 37.761719 C 36.097656 37.753906 36.1875 37.746094 36.234375 37.738281 C 36.515625 37.140625 36.675781 36.496094 36.984375 35.910156 C 37 36.449219 36.996094 36.988281 36.988281 37.527344 C 36.898438 37.589844 36.71875 37.71875 36.628906 37.78125 C 37.066406 37.796875 37.503906 37.796875 37.941406 37.792969 C 37.863281 37.710938 37.707031 37.539062 37.625 37.457031 C 37.570312 36.859375 37.554688 36.257812 37.574219 35.660156 C 37.65625 35.574219 37.820312 35.410156 37.90625 35.328125 C 37.582031 35.328125 37.257812 35.332031 36.933594 35.328125 C 36.742188 35.828125 36.550781 36.324219 36.363281 36.824219 C 36.128906 36.328125 35.910156 35.828125 35.691406 35.328125 C 35.371094 35.328125 35.054688 35.332031 34.738281 35.335938 M 38.09375 35.335938 C 38.570312 35.574219 38.417969 36.125 38.445312 36.554688 C 38.417969 36.992188 38.570312 37.539062 38.101562 37.792969 C 38.542969 37.792969 38.980469 37.792969 39.421875 37.796875 C 39.34375 37.710938 39.1875 37.546875 39.105469 37.460938 C 39.0625 36.863281 39.066406 36.257812 39.101562 35.660156 C 39.183594 35.585938 39.34375 35.4375 39.425781 35.367188 C 38.984375 35.316406 38.535156 35.320312 38.09375 35.335938 M 30.585938 39.878906 C 30.722656 40.03125 30.996094 40.105469 31.007812 40.335938 C 31.058594 40.910156 31.023438 41.484375 30.992188 42.058594 C 30.910156 42.128906 30.738281 42.261719 30.652344 42.328125 C 31.007812 42.351562 31.367188 42.351562 31.71875 42.300781 C 30.960938 42.09375 31.347656 41.171875 31.253906 40.609375 C 31.753906 41.160156 32.183594 41.769531 32.648438 42.351562 C 32.726562 42.367188 32.878906 42.394531 32.957031 42.410156 C 33.050781 41.644531 32.898438 40.855469 33.066406 40.101562 L 33.402344 39.996094 C 33.066406 39.804688 32.671875 39.886719 32.304688 39.882812 C 32.976562 40.121094 32.707031 40.894531 32.765625 41.433594 C 32.316406 40.933594 31.914062 40.394531 31.492188 39.875 C 31.1875 39.878906 30.886719 39.875 30.585938 39.878906 M 33.480469 40.046875 C 34.117188 40.664062 34.0625 41.753906 34.632812 42.394531 L 34.800781 42.355469 C 35.246094 41.546875 35.296875 40.480469 36.050781 39.878906 C 35.710938 39.878906 35.367188 39.878906 35.023438 39.875 C 35.105469 39.949219 35.265625 40.09375 35.347656 40.167969 C 35.226562 40.613281 35.0625 41.050781 34.90625 41.484375 C 34.667969 41.050781 34.511719 40.578125 34.347656 40.113281 C 34.433594 40.058594 34.617188 39.945312 34.703125 39.890625 C 34.265625 39.878906 33.824219 39.878906 33.386719 39.863281 C 33.410156 39.90625 33.457031 40 33.480469 40.046875 M 36.496094 39.964844 C 36.132812 40.171875 36.023438 40.746094 36.339844 41.039062 C 36.597656 41.257812 36.917969 41.371094 37.171875 41.585938 C 37.347656 41.816406 37.214844 42.207031 36.902344 42.210938 C 36.503906 42.175781 36.371094 41.730469 36.070312 41.523438 C 36.097656 41.777344 36.140625 42.023438 36.1875 42.269531 C 36.5625 42.375 36.976562 42.476562 37.34375 42.292969 C 37.746094 42.125 37.921875 41.582031 37.695312 41.210938 C 37.453125 40.855469 36.964844 40.804688 36.703125 40.480469 C 36.550781 40.199219 36.917969 39.898438 37.171875 40.054688 C 37.363281 40.214844 37.503906 40.421875 37.671875 40.605469 C 37.652344 40.371094 37.628906 40.136719 37.609375 39.902344 C 37.242188 39.84375 36.832031 39.746094 36.496094 39.964844 M 30.28125 44.453125 C 30.371094 44.511719 30.554688 44.628906 30.648438 44.6875 C 30.671875 45.332031 30.667969 45.972656 30.652344 46.613281 C 30.527344 46.695312 30.402344 46.777344 30.28125 46.859375 C 30.734375 46.898438 31.1875 46.894531 31.640625 46.890625 C 31.535156 46.769531 31.394531 46.675781 31.324219 46.53125 C 31.277344 45.921875 31.3125 45.3125 31.316406 44.703125 C 31.4375 44.613281 31.554688 44.519531 31.675781 44.425781 C 31.207031 44.421875 30.742188 44.417969 30.28125 44.453125 M 31.78125 44.441406 C 31.898438 44.519531 32.015625 44.59375 32.136719 44.671875 C 32.160156 45.316406 32.199219 45.964844 32.128906 46.605469 C 32.039062 46.667969 31.863281 46.792969 31.773438 46.855469 C 32.417969 46.921875 33.0625 46.875 33.707031 46.902344 C 33.765625 46.652344 33.816406 46.402344 33.859375 46.152344 C 33.597656 46.5 33.296875 46.808594 32.820312 46.675781 C 32.808594 46.070312 32.777344 45.460938 32.820312 44.851562 C 32.8125 44.636719 33.050781 44.550781 33.171875 44.414062 C 32.707031 44.425781 32.246094 44.421875 31.78125 44.441406 M 33.902344 44.4375 C 34.019531 44.523438 34.140625 44.613281 34.257812 44.703125 C 34.265625 45.316406 34.296875 45.929688 34.253906 46.542969 C 34.167969 46.625 33.992188 46.796875 33.902344 46.882812 C 34.546875 46.890625 35.191406 46.890625 35.839844 46.890625 C 35.882812 46.644531 35.925781 46.398438 35.960938 46.152344 C 35.703125 46.496094 35.410156 46.800781 34.9375 46.691406 C 34.917969 46.082031 34.890625 45.46875 34.929688 44.863281 C 34.917969 44.640625 35.15625 44.550781 35.28125 44.414062 C 34.820312 44.425781 34.359375 44.425781 33.902344 44.4375 M 35.515625 44.417969 C 35.667969 44.566406 35.867188 44.6875 35.945312 44.898438 C 36.222656 45.554688 36.457031 46.230469 36.710938 46.898438 C 36.78125 46.910156 36.925781 46.933594 36.996094 46.945312 C 37.285156 46.261719 37.515625 45.550781 37.828125 44.878906 C 37.917969 44.679688 38.117188 44.5625 38.273438 44.417969 C 37.914062 44.425781 37.558594 44.425781 37.199219 44.421875 C 37.292969 44.492188 37.476562 44.625 37.570312 44.691406 C 37.414062 45.15625 37.257812 45.621094 37.101562 46.082031 C 36.902344 45.625 36.730469 45.15625 36.550781 44.6875 C 36.632812 44.621094 36.800781 44.488281 36.886719 44.421875 C 36.429688 44.425781 35.972656 44.429688 35.515625 44.417969 Z M 35.515625 44.417969 "/>
<path style=" stroke:none;fill-rule:nonzero;fill:rgb(0%,12.941177%,27.843139%);fill-opacity:1;" d="M 43.40625 33.425781 C 44.269531 32.695312 45.460938 32.628906 46.542969 32.605469 C 49.417969 32.597656 52.292969 32.605469 55.167969 32.601562 C 55.171875 38.332031 55.15625 44.058594 55.175781 49.785156 C 52.398438 49.816406 49.617188 49.789062 46.839844 49.800781 C 45.769531 49.8125 44.652344 49.722656 43.636719 50.128906 C 43 50.382812 42.53125 50.988281 42.4375 51.667969 C 42.359375 51.851562 42.4375 52.15625 42.207031 52.242188 C 42.167969 52.050781 42.152344 51.855469 42.152344 51.660156 C 42.160156 46.628906 42.152344 41.597656 42.15625 36.570312 C 42.152344 35.421875 42.480469 34.175781 43.40625 33.425781 M 43.773438 35.332031 C 43.902344 35.433594 44.023438 35.539062 44.132812 35.660156 C 44.152344 36.207031 44.109375 36.753906 44.050781 37.300781 C 44.0625 37.527344 43.84375 37.644531 43.714844 37.796875 C 44.035156 37.792969 44.355469 37.792969 44.679688 37.796875 L 44.6875 37.6875 C 44.605469 37.644531 44.445312 37.554688 44.367188 37.511719 C 44.316406 37.03125 44.351562 36.550781 44.375 36.074219 C 44.667969 36.609375 44.820312 37.199219 45.082031 37.75 C 45.128906 37.75 45.21875 37.746094 45.265625 37.746094 C 45.542969 37.144531 45.714844 36.5 46.019531 35.910156 C 46.03125 36.449219 46.03125 36.988281 46.019531 37.527344 C 45.929688 37.589844 45.753906 37.71875 45.667969 37.785156 C 46.105469 37.796875 46.542969 37.796875 46.980469 37.792969 C 46.902344 37.710938 46.738281 37.539062 46.660156 37.457031 C 46.605469 36.855469 46.59375 36.25 46.601562 35.648438 C 46.691406 35.570312 46.871094 35.410156 46.957031 35.332031 C 46.628906 35.332031 46.296875 35.332031 45.964844 35.328125 C 45.78125 35.8125 45.59375 36.300781 45.410156 36.785156 C 45.136719 36.328125 44.941406 35.828125 44.738281 35.335938 C 44.417969 35.328125 44.09375 35.332031 43.773438 35.332031 M 47.148438 35.332031 C 47.226562 35.417969 47.378906 35.59375 47.453125 35.683594 C 47.488281 36.269531 47.492188 36.867188 47.449219 37.457031 C 47.371094 37.539062 47.207031 37.707031 47.125 37.792969 C 47.574219 37.792969 48.023438 37.792969 48.472656 37.796875 C 48.390625 37.710938 48.222656 37.546875 48.140625 37.464844 C 48.09375 36.867188 48.097656 36.265625 48.136719 35.671875 C 48.21875 35.585938 48.382812 35.414062 48.464844 35.328125 C 48.027344 35.328125 47.589844 35.328125 47.148438 35.332031 M 48.53125 35.339844 C 48.675781 35.441406 48.8125 35.554688 48.9375 35.683594 C 49.003906 36.175781 48.976562 36.675781 48.960938 37.171875 C 49 37.449219 48.839844 37.644531 48.59375 37.753906 C 48.964844 37.816406 49.339844 37.816406 49.703125 37.726562 C 49.589844 37.6875 49.363281 37.605469 49.25 37.5625 C 49.195312 37.070312 49.1875 36.570312 49.210938 36.074219 C 49.558594 36.457031 49.863281 36.871094 50.179688 37.28125 C 50.382812 37.53125 50.558594 37.871094 50.929688 37.863281 C 50.945312 37.171875 50.902344 36.476562 50.957031 35.789062 C 50.9375 35.550781 51.199219 35.476562 51.328125 35.332031 C 50.964844 35.328125 50.601562 35.332031 50.238281 35.339844 C 50.378906 35.433594 50.515625 35.535156 50.652344 35.640625 C 50.722656 36.054688 50.695312 36.480469 50.707031 36.898438 C 50.265625 36.382812 49.855469 35.839844 49.417969 35.320312 C 49.121094 35.328125 48.824219 35.332031 48.53125 35.339844 M 51.148438 37.792969 C 51.492188 37.796875 51.832031 37.789062 52.175781 37.78125 C 52.085938 37.722656 51.902344 37.605469 51.8125 37.546875 C 51.863281 37.382812 51.917969 37.21875 51.96875 37.054688 C 52.171875 37.046875 52.378906 37.046875 52.582031 37.039062 C 52.640625 37.214844 52.699219 37.386719 52.757812 37.5625 C 52.679688 37.617188 52.519531 37.726562 52.441406 37.78125 C 52.882812 37.796875 53.324219 37.796875 53.765625 37.789062 C 53.617188 37.640625 53.417969 37.523438 53.34375 37.3125 C 53.066406 36.648438 52.878906 35.945312 52.589844 35.285156 L 52.410156 35.300781 C 51.878906 36.070312 51.898438 37.171875 51.148438 37.792969 M 45.46875 39.796875 C 45.460938 40.074219 45.453125 40.355469 45.453125 40.636719 C 45.621094 40.335938 45.824219 40.050781 46.203125 40.035156 C 46.21875 40.714844 46.21875 41.390625 46.199219 42.070312 C 46.097656 42.132812 45.898438 42.257812 45.800781 42.320312 C 46.300781 42.355469 46.800781 42.355469 47.296875 42.316406 C 47.191406 42.253906 46.980469 42.136719 46.871094 42.074219 C 46.851562 41.394531 46.847656 40.714844 46.871094 40.035156 C 47.242188 40.042969 47.4375 40.34375 47.628906 40.621094 C 47.628906 40.355469 47.617188 40.089844 47.597656 39.824219 C 46.890625 39.882812 46.167969 39.941406 45.46875 39.796875 M 47.828125 39.886719 C 47.949219 39.984375 48.070312 40.078125 48.195312 40.171875 C 48.179688 40.785156 48.230469 41.40625 48.167969 42.019531 C 48.089844 42.097656 47.933594 42.257812 47.855469 42.335938 C 48.304688 42.34375 48.75 42.347656 49.199219 42.324219 C 49.113281 42.261719 48.9375 42.128906 48.851562 42.0625 C 48.839844 41.480469 48.816406 40.898438 48.851562 40.320312 C 48.824219 40.097656 49.074219 40.019531 49.191406 39.875 C 48.734375 39.875 48.28125 39.875 47.828125 39.886719 M 50.074219 39.996094 C 49.410156 40.375 49.242188 41.371094 49.726562 41.957031 C 50.167969 42.503906 51.066406 42.539062 51.578125 42.078125 C 52.113281 41.582031 52.128906 40.609375 51.574219 40.121094 C 51.171875 39.761719 50.535156 39.742188 50.074219 39.996094 M 44.851562 44.421875 C 45.046875 44.578125 45.308594 44.726562 45.226562 45.023438 C 45.15625 45.652344 45.316406 46.390625 44.859375 46.898438 C 45.1875 46.890625 45.523438 46.921875 45.839844 46.824219 C 45.132812 46.664062 45.515625 45.769531 45.476562 45.265625 C 45.816406 45.785156 45.929688 46.414062 46.234375 46.953125 C 46.648438 46.347656 46.792969 45.613281 47.097656 44.953125 C 47.015625 45.589844 47.394531 46.433594 46.800781 46.890625 C 47.226562 46.890625 47.65625 46.890625 48.082031 46.882812 C 48.003906 46.816406 47.847656 46.683594 47.769531 46.617188 C 47.664062 45.984375 47.707031 45.335938 47.679688 44.699219 C 47.8125 44.605469 47.941406 44.515625 48.070312 44.425781 C 47.726562 44.425781 47.386719 44.425781 47.042969 44.433594 C 46.863281 44.929688 46.671875 45.421875 46.488281 45.914062 C 46.238281 45.425781 46.035156 44.914062 45.800781 44.417969 C 45.484375 44.425781 45.167969 44.425781 44.851562 44.421875 M 48.203125 44.421875 C 48.289062 44.496094 48.460938 44.636719 48.546875 44.710938 C 48.554688 45.320312 48.589844 45.933594 48.539062 46.546875 C 48.445312 46.628906 48.253906 46.792969 48.15625 46.878906 C 48.832031 46.898438 49.507812 46.894531 50.183594 46.882812 C 50.222656 46.632812 50.261719 46.382812 50.292969 46.132812 C 50.132812 46.300781 49.996094 46.484375 49.835938 46.648438 C 49.632812 46.675781 49.425781 46.691406 49.222656 46.6875 C 49.207031 46.351562 49.199219 46.015625 49.199219 45.675781 C 49.527344 45.667969 49.753906 45.875 49.921875 46.128906 C 49.929688 45.796875 49.9375 45.464844 49.929688 45.132812 C 49.742188 45.359375 49.511719 45.519531 49.207031 45.53125 C 49.199219 45.230469 49.199219 44.929688 49.195312 44.628906 C 49.613281 44.53125 49.886719 44.796875 50.09375 45.121094 C 50.09375 44.890625 50.089844 44.664062 50.089844 44.4375 C 49.457031 44.417969 48.832031 44.425781 48.203125 44.421875 M 50.277344 46.886719 C 50.601562 46.890625 50.921875 46.890625 51.242188 46.886719 C 51.140625 46.792969 51.035156 46.707031 50.933594 46.617188 C 50.984375 46.457031 51.035156 46.300781 51.085938 46.140625 C 51.292969 46.144531 51.503906 46.144531 51.714844 46.148438 C 51.839844 46.410156 51.855469 46.675781 51.652344 46.90625 C 52.0625 46.890625 52.476562 46.886719 52.886719 46.871094 C 52.714844 46.722656 52.503906 46.59375 52.4375 46.359375 C 52.164062 45.679688 51.953125 44.972656 51.664062 44.300781 C 50.933594 44.988281 51.070312 46.226562 50.277344 46.886719 Z M 50.277344 46.886719 "/>
<path style=" stroke:none;fill-rule:nonzero;fill:rgb(0%,12.941177%,27.843139%);fill-opacity:1;" d="M 22.007812 33.734375 C 22.398438 33.167969 23.363281 33.148438 23.726562 33.753906 C 23.96875 34.261719 24.585938 34.25 25.046875 34.421875 C 25.042969 34.289062 25.042969 34.019531 25.042969 33.882812 C 25.4375 33.878906 25.832031 33.878906 26.226562 33.878906 C 26.234375 39.9375 26.226562 45.996094 26.230469 52.054688 C 30.601562 52.050781 34.972656 52.054688 39.34375 52.050781 C 39.542969 52.5625 39.800781 53.128906 40.367188 53.320312 C 41.132812 53.582031 42 53.582031 42.765625 53.328125 C 43.339844 53.144531 43.609375 52.570312 43.8125 52.050781 C 48.195312 52.046875 52.582031 52.066406 56.964844 52.042969 C 56.949219 45.988281 56.960938 39.933594 56.957031 33.878906 C 57.351562 33.878906 57.746094 33.878906 58.140625 33.878906 C 58.148438 40.332031 58.144531 46.785156 58.144531 53.242188 C 53.609375 53.242188 49.074219 53.234375 44.539062 53.242188 C 43.804688 54.542969 42.164062 54.867188 40.796875 54.644531 C 39.898438 54.542969 39.078125 54.019531 38.609375 53.242188 C 34.089844 53.242188 29.570312 53.234375 25.050781 53.246094 C 25.042969 52.816406 25.042969 52.382812 25.042969 51.953125 C 24.679688 52.101562 24.320312 52.253906 23.964844 52.425781 C 23.796875 52.953125 23.308594 53.414062 22.71875 53.304688 C 21.972656 53.226562 21.53125 52.28125 21.960938 51.660156 C 22.273438 51.125 22.980469 51.046875 23.5 51.316406 C 24.015625 51.097656 24.535156 50.878906 25.046875 50.648438 C 25.042969 50.175781 25.042969 49.703125 25.042969 49.234375 C 24.691406 49.339844 24.34375 49.449219 23.996094 49.5625 C 23.78125 50.042969 23.292969 50.453125 22.738281 50.324219 C 21.960938 50.21875 21.570312 49.175781 22.089844 48.585938 C 22.453125 48.09375 23.164062 48.085938 23.644531 48.414062 C 24.109375 48.28125 24.574219 48.136719 25.042969 47.996094 C 25.042969 47.507812 25.042969 47.019531 25.042969 46.53125 C 24.6875 46.59375 24.332031 46.652344 23.976562 46.714844 C 23.710938 47.117188 23.261719 47.472656 22.746094 47.34375 C 21.96875 47.230469 21.59375 46.183594 22.117188 45.597656 C 22.519531 45.070312 23.308594 45.121094 23.773438 45.535156 C 24.195312 45.46875 24.621094 45.394531 25.042969 45.320312 C 25.042969 44.824219 25.042969 44.328125 25.042969 43.828125 C 24.671875 43.84375 24.300781 43.855469 23.925781 43.875 C 23.53125 44.421875 22.667969 44.59375 22.191406 44.054688 C 21.601562 43.492188 21.949219 42.382812 22.75 42.253906 C 23.203125 42.125 23.574219 42.4375 23.921875 42.667969 C 24.296875 42.683594 24.667969 42.652344 25.042969 42.640625 C 25.042969 42.101562 25.042969 41.5625 25.046875 41.027344 C 24.648438 41.003906 24.25 40.984375 23.851562 40.972656 C 23.554688 41.257812 23.164062 41.507812 22.734375 41.390625 C 22.035156 41.273438 21.636719 40.386719 22.019531 39.789062 C 22.332031 39.207031 23.203125 39.066406 23.664062 39.550781 C 24.015625 39.941406 24.582031 39.765625 25.042969 39.832031 C 25.042969 39.332031 25.042969 38.839844 25.042969 38.34375 C 24.609375 38.261719 24.175781 38.179688 23.734375 38.113281 C 23.410156 38.347656 23 38.542969 22.597656 38.386719 C 21.945312 38.199219 21.632812 37.332031 22.023438 36.773438 C 22.367188 36.195312 23.289062 36.09375 23.710938 36.636719 C 24 37.097656 24.582031 37.019531 25.042969 37.128906 C 25.042969 36.640625 25.042969 36.15625 25.042969 35.664062 C 24.570312 35.535156 24.113281 35.359375 23.636719 35.253906 C 23.273438 35.335938 22.902344 35.574219 22.519531 35.40625 C 21.847656 35.199219 21.566406 34.285156 22.007812 33.734375 Z M 22.007812 33.734375 "/>
<path style=" stroke:none;fill-rule:nonzero;fill:rgb(0%,12.941177%,27.843139%);fill-opacity:1;" d="M 30.035156 35.511719 C 31.023438 35.417969 31.183594 36.820312 30.671875 37.414062 C 30.535156 37.585938 30.105469 37.722656 30.058594 37.414062 C 29.992188 36.78125 30.039062 36.144531 30.035156 35.511719 Z M 30.035156 35.511719 "/>
<path style=" stroke:none;fill-rule:nonzero;fill:rgb(0%,12.941177%,27.843139%);fill-opacity:1;" d="M 33.015625 35.527344 C 33.398438 35.308594 33.703125 35.785156 33.75 36.113281 C 33.820312 36.589844 33.898438 37.203125 33.535156 37.585938 C 33.140625 37.839844 32.789062 37.359375 32.734375 37.007812 C 32.648438 36.519531 32.589844 35.871094 33.015625 35.527344 Z M 33.015625 35.527344 "/>
<path style=" stroke:none;fill-rule:nonzero;fill:rgb(0%,12.941177%,27.843139%);fill-opacity:1;" d="M 52.019531 36.808594 C 52.105469 36.574219 52.195312 36.34375 52.289062 36.113281 C 52.363281 36.355469 52.441406 36.59375 52.519531 36.835938 C 52.351562 36.828125 52.183594 36.820312 52.019531 36.808594 Z M 52.019531 36.808594 "/>
<path style=" stroke:none;fill-rule:nonzero;fill:rgb(0%,12.941177%,27.843139%);fill-opacity:1;" d="M 72.085938 37.480469 C 74.480469 37.292969 76.871094 37.070312 79.269531 36.898438 C 79.347656 38.222656 79.480469 39.546875 79.578125 40.871094 C 79.25 40.898438 78.921875 40.921875 78.597656 40.949219 C 78.519531 40.003906 78.441406 39.058594 78.367188 38.109375 C 77.710938 38.15625 77.058594 38.222656 76.398438 38.25 C 76.433594 39.152344 76.535156 40.046875 76.597656 40.945312 C 76.277344 40.96875 75.957031 40.996094 75.636719 41.019531 C 75.570312 40.128906 75.492188 39.238281 75.421875 38.347656 C 74.339844 38.445312 73.257812 38.527344 72.171875 38.609375 C 72.144531 38.230469 72.113281 37.855469 72.085938 37.480469 Z M 72.085938 37.480469 "/>
<path style=" stroke:none;fill-rule:nonzero;fill:rgb(0%,12.941177%,27.843139%);fill-opacity:1;" d="M 3.804688 37.027344 C 6.175781 37.976562 8.539062 38.953125 10.90625 39.910156 C 10.890625 40.308594 10.875 40.703125 10.855469 41.101562 C 8.429688 41.835938 6 42.558594 3.566406 43.28125 C 3.566406 42.886719 3.570312 42.488281 3.566406 42.09375 C 5.511719 41.53125 7.472656 41.003906 9.421875 40.441406 C 7.574219 39.617188 5.652344 38.972656 3.777344 38.214844 C 3.789062 37.820312 3.796875 37.425781 3.804688 37.027344 Z M 3.804688 37.027344 "/>
<path style=" stroke:none;fill-rule:nonzero;fill:rgb(0%,12.941177%,27.843139%);fill-opacity:1;" d="M 50.496094 40.066406 C 50.726562 39.9375 50.988281 40.097656 51.09375 40.308594 C 51.3125 40.730469 51.304688 41.238281 51.234375 41.699219 C 51.203125 41.953125 51.03125 42.222656 50.746094 42.210938 C 50.324219 42.113281 50.199219 41.628906 50.160156 41.257812 C 50.132812 40.847656 50.132812 40.335938 50.496094 40.066406 Z M 50.496094 40.066406 "/>
<path style=" stroke:none;fill-rule:nonzero;fill:rgb(0%,12.941177%,27.843139%);fill-opacity:1;" d="M 74.160156 44.042969 C 75.914062 43.585938 78.105469 44.234375 78.933594 45.949219 C 79.558594 47.289062 79.148438 49.058594 77.925781 49.910156 C 76.300781 51 73.910156 50.65625 72.566406 49.265625 C 71.726562 48.367188 71.5625 46.964844 72.027344 45.851562 C 72.402344 44.953125 73.222656 44.277344 74.160156 44.042969 M 74.632812 45.125 C 73.648438 45.25 72.777344 46.09375 72.789062 47.117188 C 72.714844 48.078125 73.527344 48.824219 74.371094 49.113281 C 75.308594 49.460938 76.441406 49.535156 77.316406 48.984375 C 78.257812 48.414062 78.527344 46.984375 77.8125 46.132812 C 77.054688 45.222656 75.753906 44.960938 74.632812 45.125 Z M 74.632812 45.125 "/>
<path style=" stroke:none;fill-rule:nonzero;fill:rgb(0%,12.941177%,27.843139%);fill-opacity:1;" d="M 51.136719 45.929688 C 51.21875 45.683594 51.304688 45.4375 51.394531 45.1875 C 51.472656 45.429688 51.550781 45.671875 51.632812 45.914062 C 51.507812 45.917969 51.261719 45.925781 51.136719 45.929688 Z M 51.136719 45.929688 "/>
<path style=" stroke:none;fill-rule:nonzero;fill:rgb(0%,12.941177%,27.843139%);fill-opacity:1;" d="M 118.011719 45.734375 C 123.300781 45.179688 128.851562 46.722656 132.890625 50.246094 C 135.210938 52.238281 137.007812 54.835938 138.058594 57.710938 C 140.042969 63.148438 139.449219 69.488281 136.417969 74.425781 C 134.292969 77.921875 130.949219 80.628906 127.125 82.050781 C 121.074219 84.308594 113.894531 83.507812 108.617188 79.71875 C 105.015625 77.167969 102.414062 73.253906 101.457031 68.9375 C 100.199219 63.335938 101.453125 57.140625 105.078125 52.648438 C 108.207031 48.695312 113.015625 46.210938 118.011719 45.734375 M 118.453125 47.550781 C 116.453125 47.792969 114.515625 48.570312 112.929688 49.816406 C 110.9375 51.363281 109.515625 53.546875 108.589844 55.875 C 107.328125 59.082031 106.910156 62.578125 107.089844 66.007812 C 107.242188 68.890625 107.816406 71.789062 109.085938 74.394531 C 110.15625 76.605469 111.785156 78.582031 113.90625 79.84375 C 116.222656 81.246094 119.027344 81.703125 121.695312 81.382812 C 123.773438 81.140625 125.792969 80.324219 127.417969 78.996094 C 129.378906 77.414062 130.773438 75.214844 131.667969 72.875 C 132.941406 69.542969 133.3125 65.917969 133.0625 62.378906 C 132.855469 59.480469 132.199219 56.570312 130.824219 53.992188 C 129.671875 51.832031 127.949219 49.929688 125.765625 48.792969 C 123.539062 47.609375 120.9375 47.253906 118.453125 47.550781 Z M 118.453125 47.550781 "/>
<path style=" stroke:none;fill-rule:nonzero;fill:rgb(0%,12.941177%,27.843139%);fill-opacity:1;" d="M 234.582031 45.75 C 239.988281 45.144531 245.679688 46.738281 249.765625 50.390625 C 251.953125 52.320312 253.660156 54.792969 254.699219 57.523438 C 256.855469 63.238281 256.136719 69.992188 252.71875 75.066406 C 250.257812 78.753906 246.40625 81.453125 242.136719 82.597656 C 236.230469 84.207031 229.542969 83.0625 224.695312 79.25 C 220.910156 76.324219 218.398438 71.835938 217.84375 67.082031 C 217.152344 61.621094 218.785156 55.832031 222.542969 51.765625 C 225.625 48.347656 230.023438 46.21875 234.582031 45.75 M 235.171875 47.550781 C 233.488281 47.753906 231.847656 48.324219 230.425781 49.257812 C 228.351562 50.59375 226.792969 52.621094 225.753906 54.839844 C 224.40625 57.707031 223.824219 60.890625 223.765625 64.042969 C 223.726562 67.320312 224.171875 70.652344 225.46875 73.679688 C 226.464844 76.007812 228.03125 78.140625 230.152344 79.550781 C 232.171875 80.914062 234.628906 81.53125 237.046875 81.476562 C 239.375 81.449219 241.714844 80.761719 243.613281 79.386719 C 245.757812 77.855469 247.289062 75.589844 248.265625 73.164062 C 249.617188 69.804688 250.023438 66.121094 249.785156 62.519531 C 249.589844 59.570312 248.929688 56.601562 247.527344 53.980469 C 246.390625 51.851562 244.699219 49.980469 242.558594 48.835938 C 240.316406 47.621094 237.683594 47.25 235.171875 47.550781 Z M 235.171875 47.550781 "/>
<path style=" stroke:none;fill-rule:nonzero;fill:rgb(0%,12.941177%,27.843139%);fill-opacity:1;" d="M 3.992188 46.8125 C 6.367188 46.476562 8.734375 46.109375 11.109375 45.769531 C 11.164062 46.144531 11.21875 46.523438 11.273438 46.898438 C 8.902344 47.257812 6.53125 47.617188 4.15625 47.953125 C 4.101562 47.574219 4.046875 47.191406 3.992188 46.8125 Z M 3.992188 46.8125 "/>
<path style=" stroke:none;fill-rule:nonzero;fill:rgb(0%,12.941177%,27.843139%);fill-opacity:1;" d="M 140.929688 46.226562 C 146.257812 46.226562 151.582031 46.226562 156.910156 46.226562 C 156.910156 46.671875 156.910156 47.113281 156.90625 47.554688 C 155.761719 47.792969 154.613281 48.03125 153.46875 48.257812 C 153.179688 48.332031 152.835938 48.378906 152.652344 48.644531 C 152.582031 48.988281 152.832031 49.277344 153 49.546875 C 155.757812 53.488281 158.5 57.445312 161.265625 61.386719 C 161.367188 61.664062 161.617188 61.511719 161.710938 61.320312 C 164.546875 57.351562 167.386719 53.390625 170.210938 49.417969 C 170.453125 49.152344 170.578125 48.660156 170.132812 48.53125 C 168.921875 48.113281 167.65625 47.878906 166.417969 47.554688 C 166.414062 47.109375 166.414062 46.667969 166.414062 46.226562 C 170.699219 46.226562 174.980469 46.226562 179.261719 46.226562 C 179.261719 46.671875 179.261719 47.113281 179.257812 47.558594 C 177.820312 47.957031 176.335938 48.195312 174.933594 48.714844 C 173.710938 49.167969 172.945312 50.265625 172.183594 51.253906 C 169.011719 55.257812 165.839844 59.257812 162.675781 63.261719 C 166.449219 68.234375 170.214844 73.214844 173.984375 78.195312 C 174.59375 79.082031 175.335938 79.933594 176.375 80.308594 C 177.609375 80.761719 178.910156 81.007812 180.171875 81.378906 C 180.171875 81.816406 180.171875 82.257812 180.179688 82.695312 C 174.851562 82.714844 169.519531 82.695312 164.195312 82.703125 C 164.191406 82.261719 164.191406 81.824219 164.191406 81.386719 C 165.53125 81.070312 166.910156 80.894531 168.230469 80.503906 C 168.703125 80.351562 168.457031 79.816406 168.242188 79.546875 C 165.625 75.835938 162.996094 72.136719 160.371094 68.433594 C 159.925781 67.824219 159.523438 67.183594 159.035156 66.605469 C 156.214844 70.386719 153.5 74.253906 150.722656 78.066406 C 150.3125 78.683594 149.804688 79.238281 149.46875 79.898438 C 149.324219 80.289062 149.824219 80.4375 150.101562 80.53125 C 151.21875 80.835938 152.355469 81.078125 153.476562 81.378906 C 153.476562 81.824219 153.476562 82.265625 153.457031 82.707031 C 149.183594 82.695312 144.910156 82.703125 140.632812 82.707031 C 140.628906 82.261719 140.628906 81.820312 140.632812 81.378906 C 141.839844 81.082031 143.050781 80.789062 144.253906 80.464844 C 145.214844 80.199219 146.109375 79.671875 146.742188 78.890625 C 150.441406 74.265625 154.113281 69.613281 157.820312 64.996094 C 154.425781 60.433594 150.988281 55.902344 147.574219 51.351562 C 146.816406 50.371094 146.144531 49.210938 144.945312 48.714844 C 143.652344 48.191406 142.269531 47.933594 140.933594 47.554688 C 140.929688 47.109375 140.929688 46.667969 140.929688 46.226562 Z M 140.929688 46.226562 "/>
<path style=" stroke:none;fill-rule:nonzero;fill:rgb(0%,12.941177%,27.843139%);fill-opacity:1;" d="M 185.125 46.230469 C 194.292969 46.222656 203.464844 46.226562 212.636719 46.226562 C 212.636719 49.269531 212.636719 52.3125 212.636719 55.351562 C 212.128906 55.355469 211.621094 55.355469 211.113281 55.351562 C 210.539062 53.503906 209.957031 51.65625 209.378906 49.808594 C 209.199219 49.246094 208.960938 48.652344 208.464844 48.292969 C 208.019531 47.976562 207.449219 47.953125 206.921875 47.953125 C 203.195312 47.96875 199.464844 47.941406 195.738281 47.96875 C 195.753906 53.195312 195.738281 58.425781 195.742188 63.652344 C 198.367188 63.65625 200.992188 63.652344 203.617188 63.65625 C 204.375 63.640625 205.210938 63.75 205.886719 63.316406 C 206.476562 62.941406 206.746094 62.261719 206.929688 61.617188 C 207.214844 60.644531 207.496094 59.667969 207.78125 58.691406 C 208.28125 58.695312 208.785156 58.695312 209.285156 58.683594 C 209.316406 62.738281 209.289062 66.792969 209.300781 70.847656 C 208.792969 70.847656 208.289062 70.847656 207.785156 70.851562 C 207.472656 69.640625 207.179688 68.421875 206.871094 67.210938 C 206.734375 66.679688 206.503906 66.140625 206.050781 65.808594 C 205.574219 65.4375 204.949219 65.378906 204.367188 65.375 C 201.492188 65.375 198.617188 65.375 195.742188 65.375 C 195.746094 69.855469 195.738281 74.332031 195.746094 78.808594 C 195.695312 79.5 196.125 80.195312 196.820312 80.351562 C 198.339844 80.722656 199.878906 81.023438 201.40625 81.378906 C 201.40625 81.8125 201.40625 82.25 201.421875 82.6875 C 195.992188 82.722656 190.558594 82.691406 185.128906 82.703125 C 185.125 82.261719 185.125 81.820312 185.125 81.378906 C 186.269531 81.109375 187.414062 80.828125 188.554688 80.550781 C 189.085938 80.40625 189.667969 80.28125 190.058594 79.859375 C 190.375 79.5 190.382812 78.984375 190.390625 78.53125 C 190.382812 69.074219 190.394531 59.617188 190.386719 50.160156 C 190.445312 49.464844 190.011719 48.804688 189.339844 48.617188 C 187.953125 48.191406 186.527344 47.910156 185.125 47.546875 C 185.125 47.109375 185.125 46.667969 185.125 46.230469 Z M 185.125 46.230469 "/>
<path style=" stroke:none;fill-rule:nonzero;fill:rgb(0%,12.941177%,27.843139%);fill-opacity:1;" d="M 260.066406 46.226562 C 264.792969 46.226562 269.519531 46.226562 274.25 46.226562 C 277.125 46.226562 280.0625 46.183594 282.847656 47.015625 C 285.597656 47.816406 287.917969 49.9375 288.996094 52.59375 C 290 54.976562 289.929688 57.8125 288.6875 60.09375 C 287.421875 62.480469 285.097656 64.136719 282.601562 65.035156 C 281.976562 65.285156 281.300781 65.386719 280.691406 65.671875 C 281.984375 66.363281 282.867188 67.570312 283.769531 68.6875 C 286.425781 72.074219 288.988281 75.539062 291.589844 78.972656 C 292.183594 79.765625 293.054688 80.347656 294.03125 80.550781 C 295.285156 80.816406 296.535156 81.101562 297.789062 81.378906 C 297.785156 81.816406 297.789062 82.253906 297.796875 82.695312 C 294.8125 82.707031 291.828125 82.710938 288.84375 82.691406 C 287.867188 82.6875 287.1875 81.886719 286.660156 81.164062 C 283.835938 77.207031 281.011719 73.25 278.191406 69.289062 C 277.339844 68.144531 276.402344 66.859375 274.925781 66.539062 C 273.53125 66.261719 272.101562 66.445312 270.691406 66.386719 C 270.679688 70.539062 270.683594 74.6875 270.691406 78.839844 C 270.644531 79.539062 271.097656 80.21875 271.796875 80.363281 C 273.308594 80.726562 274.832031 81.03125 276.347656 81.378906 C 276.347656 81.820312 276.347656 82.261719 276.34375 82.707031 C 270.921875 82.703125 265.5 82.699219 260.074219 82.707031 C 260.0625 82.261719 260.0625 81.820312 260.066406 81.378906 C 261.472656 81.015625 262.902344 80.75 264.289062 80.308594 C 264.933594 80.125 265.363281 79.5 265.320312 78.828125 C 265.328125 69.269531 265.324219 59.710938 265.320312 50.152344 C 265.371094 49.46875 264.957031 48.804688 264.285156 48.621094 C 262.898438 48.195312 261.472656 47.910156 260.066406 47.550781 C 260.0625 47.109375 260.0625 46.667969 260.066406 46.226562 M 270.683594 47.957031 C 270.691406 53.53125 270.667969 59.105469 270.695312 64.679688 C 272.28125 64.652344 273.863281 64.6875 275.445312 64.664062 C 277.015625 64.636719 278.625 64.390625 280.027344 63.640625 C 281.113281 63.066406 282.023438 62.164062 282.589844 61.066406 C 283.382812 59.574219 283.621094 57.855469 283.628906 56.179688 C 283.640625 54.367188 283.144531 52.515625 282.046875 51.054688 C 280.78125 49.351562 278.757812 48.292969 276.664062 48.074219 C 274.675781 47.867188 272.675781 47.992188 270.683594 47.957031 Z M 270.683594 47.957031 "/>
<path style=" stroke:none;fill-rule:nonzero;fill:rgb(0%,12.941177%,27.843139%);fill-opacity:1;" d="M 300.71875 46.226562 C 305.34375 46.226562 309.972656 46.226562 314.597656 46.226562 C 318.027344 46.230469 321.496094 46.136719 324.867188 46.882812 C 327.640625 47.453125 330.289062 48.683594 332.441406 50.535156 C 336.113281 53.640625 338.15625 58.371094 338.488281 63.117188 C 338.796875 67.722656 337.84375 72.59375 334.976562 76.300781 C 333.300781 78.472656 331.003906 80.128906 328.46875 81.152344 C 325.78125 82.203125 322.878906 82.527344 320.015625 82.660156 C 313.585938 82.757812 307.15625 82.667969 300.730469 82.707031 C 300.714844 82.261719 300.714844 81.820312 300.722656 81.378906 C 302.085938 81.039062 303.464844 80.742188 304.820312 80.355469 C 305.511719 80.191406 306.03125 79.554688 305.976562 78.828125 C 305.988281 69.367188 305.976562 59.90625 305.984375 50.441406 C 305.980469 49.960938 305.976562 49.414062 305.625 49.042969 C 305.253906 48.667969 304.722656 48.539062 304.234375 48.40625 C 303.0625 48.125 301.894531 47.828125 300.71875 47.554688 C 300.71875 47.109375 300.71875 46.667969 300.71875 46.226562 M 311.34375 47.957031 C 311.34375 58.398438 311.34375 68.84375 311.34375 79.285156 C 311.355469 79.730469 311.328125 80.234375 311.617188 80.609375 C 311.941406 80.984375 312.488281 80.960938 312.945312 80.980469 C 314.75 80.972656 316.558594 80.996094 318.367188 80.96875 C 320.675781 80.902344 323.035156 80.679688 325.183594 79.773438 C 327.40625 78.851562 329.160156 77.027344 330.304688 74.9375 C 331.664062 72.433594 332.234375 69.574219 332.414062 66.75 C 332.582031 63.84375 332.414062 60.894531 331.679688 58.074219 C 331.039062 55.652344 329.917969 53.3125 328.167969 51.503906 C 326.671875 49.941406 324.703125 48.835938 322.574219 48.433594 C 318.875 47.703125 315.085938 48.035156 311.34375 47.957031 Z M 311.34375 47.957031 "/>
<path style=" stroke:none;fill-rule:nonzero;fill:rgb(0%,12.941177%,27.843139%);fill-opacity:1;" d="M 5.007812 52.230469 C 7.277344 51.453125 9.539062 50.644531 11.800781 49.855469 C 11.933594 50.195312 12.058594 50.539062 12.179688 50.882812 C 10.863281 52.476562 9.578125 54.09375 8.25 55.675781 C 9.898438 55 11.558594 54.339844 13.222656 53.699219 C 13.332031 54.035156 13.453125 54.363281 13.570312 54.695312 C 11.347656 55.578125 9.097656 56.398438 6.875 57.292969 C 6.726562 56.949219 6.59375 56.597656 6.480469 56.242188 C 7.785156 54.667969 9.074219 53.078125 10.375 51.5 C 8.703125 52.066406 7.042969 52.671875 5.371094 53.242188 C 5.25 52.90625 5.128906 52.570312 5.007812 52.230469 Z M 5.007812 52.230469 "/>
<path style=" stroke:none;fill-rule:nonzero;fill:rgb(0%,12.941177%,27.843139%);fill-opacity:1;" d="M 70.628906 52.183594 C 72.8125 53.15625 74.988281 54.152344 77.167969 55.136719 C 76.714844 56.101562 76.40625 57.15625 75.75 58.011719 C 74.902344 59.058594 73.035156 58.683594 72.507812 57.496094 C 72.386719 57.226562 72.382812 56.929688 72.355469 56.644531 C 71.128906 57.015625 69.824219 56.78125 68.5625 56.851562 C 68.722656 56.488281 68.882812 56.125 69.027344 55.757812 C 69.96875 55.6875 70.914062 55.800781 71.851562 55.6875 C 72.480469 55.617188 72.675781 54.929688 72.890625 54.441406 C 71.976562 54.046875 71.078125 53.621094 70.171875 53.21875 C 70.324219 52.875 70.476562 52.53125 70.628906 52.183594 M 73.269531 56.488281 C 73.316406 57.289062 74.402344 57.796875 75.027344 57.285156 C 75.433594 56.878906 75.597656 56.304688 75.851562 55.800781 C 75.171875 55.453125 74.460938 55.164062 73.765625 54.84375 C 73.554688 55.371094 73.238281 55.898438 73.269531 56.488281 Z M 73.269531 56.488281 "/>
<path style=" stroke:none;fill-rule:nonzero;fill:rgb(0%,12.941177%,27.843139%);fill-opacity:1;" d="M 40.195312 58.148438 C 40.605469 57.597656 40.953125 57 41.40625 56.480469 C 41.789062 56.359375 41.925781 56.773438 42.117188 57.007812 C 42.722656 57.914062 43.402344 58.769531 43.976562 59.691406 C 43.804688 60.042969 43.21875 59.882812 42.894531 60.066406 C 43.382812 60.785156 43.820312 61.542969 44.386719 62.207031 C 45.042969 61.644531 45.71875 61.101562 46.359375 60.519531 C 46.070312 60.328125 45.753906 60.183594 45.441406 60.039062 C 46.050781 59.386719 46.878906 58.988281 47.574219 58.4375 C 47.910156 58.246094 48.191406 57.851562 48.609375 57.882812 C 48.140625 59.710938 47.4375 61.480469 46.902344 63.292969 C 45.179688 62.742188 43.359375 62.648438 41.5625 62.628906 C 39.761719 62.648438 37.933594 62.742188 36.207031 63.292969 C 35.675781 61.601562 35.105469 59.917969 34.558594 58.230469 C 34.445312 58.066406 34.535156 57.714844 34.773438 57.90625 C 35.796875 58.582031 36.828125 59.25 37.808594 59.984375 C 37.496094 60.164062 37.179688 60.335938 36.871094 60.519531 C 37.484375 61.089844 38.109375 61.648438 38.730469 62.210938 C 39.277344 61.53125 39.734375 60.792969 40.210938 60.066406 C 39.847656 59.949219 39.46875 59.882812 39.09375 59.824219 C 39.367188 59.207031 39.824219 58.707031 40.195312 58.148438 Z M 40.195312 58.148438 "/>
<path style=" stroke:none;fill-rule:nonzero;fill:rgb(0%,12.941177%,27.843139%);fill-opacity:1;" d="M 12.769531 58.570312 C 13.417969 58.136719 14.226562 57.792969 15.003906 58.085938 C 16.230469 58.539062 17.074219 59.878906 16.984375 61.183594 C 16.933594 61.953125 16.3125 62.5 15.734375 62.925781 C 14.476562 63.835938 13.214844 64.738281 11.945312 65.628906 C 11.734375 65.3125 11.515625 64.996094 11.296875 64.679688 C 12.480469 63.847656 13.652344 63 14.835938 62.164062 C 15.246094 61.847656 15.769531 61.546875 15.894531 61 C 16.03125 60.085938 15.265625 59.054688 14.300781 59.101562 C 13.929688 59.140625 13.617188 59.363281 13.3125 59.554688 C 12.050781 60.414062 10.789062 61.273438 9.523438 62.128906 C 9.308594 61.820312 9.09375 61.507812 8.878906 61.199219 C 10.175781 60.328125 11.460938 59.429688 12.769531 58.570312 Z M 12.769531 58.570312 "/>
<path style=" stroke:none;fill-rule:nonzero;fill:rgb(0%,12.941177%,27.843139%);fill-opacity:1;" d="M 65.777344 60.855469 C 66.289062 60.128906 66.855469 59.449219 67.410156 58.757812 C 69.277344 60.261719 71.152344 61.753906 73.023438 63.257812 C 72.246094 64.183594 71.582031 65.230469 70.617188 65.976562 C 69.683594 66.710938 68.339844 66.703125 67.308594 66.183594 C 66.199219 65.621094 65.269531 64.566406 65.101562 63.304688 C 64.96875 62.433594 65.285156 61.5625 65.777344 60.855469 M 66.292969 61.9375 C 65.933594 62.6875 66.160156 63.597656 66.6875 64.207031 C 67.34375 64.992188 68.355469 65.648438 69.421875 65.410156 C 70.402344 65.191406 70.9375 64.257812 71.558594 63.558594 C 70.199219 62.460938 68.84375 61.351562 67.460938 60.285156 C 67 60.773438 66.585938 61.328125 66.292969 61.9375 Z M 66.292969 61.9375 "/>
<path style=" stroke:none;fill-rule:nonzero;fill:rgb(0%,12.941177%,27.843139%);fill-opacity:1;" d="M 39.324219 63.917969 C 41.230469 63.757812 43.164062 63.765625 45.050781 64.097656 C 45.527344 64.203125 46.046875 64.277344 46.433594 64.59375 C 46.664062 64.773438 46.402344 65.019531 46.222656 65.09375 C 45.429688 65.457031 44.542969 65.535156 43.683594 65.628906 C 41.800781 65.78125 39.890625 65.769531 38.023438 65.4375 C 37.542969 65.324219 37.007812 65.25 36.628906 64.90625 C 36.480469 64.65625 36.773438 64.496094 36.960938 64.410156 C 37.710938 64.097656 38.527344 64.007812 39.324219 63.917969 Z M 39.324219 63.917969 "/>
<path style=" stroke:none;fill-rule:nonzero;fill:rgb(0%,12.941177%,27.843139%);fill-opacity:1;" d="M 36.667969 76.519531 C 37.265625 76.152344 38.117188 76.617188 38.140625 77.316406 C 38.21875 78.046875 37.351562 78.628906 36.710938 78.269531 C 36.011719 77.960938 35.988281 76.859375 36.667969 76.519531 Z M 36.667969 76.519531 "/>
<path style=" stroke:none;fill-rule:nonzero;fill:rgb(0%,12.941177%,27.843139%);fill-opacity:1;" d="M 46.738281 78.152344 C 47.398438 77.777344 48.285156 78.390625 48.171875 79.140625 C 48.125 79.871094 47.175781 80.289062 46.605469 79.828125 C 46.015625 79.433594 46.097656 78.445312 46.738281 78.152344 Z M 46.738281 78.152344 "/>
</g>
</svg>
