<?xml version="1.0" encoding="UTF-8" standalone="no"?>
<svg
   xmlns:dc="http://purl.org/dc/elements/1.1/"
   xmlns:cc="http://creativecommons.org/ns#"
   xmlns:rdf="http://www.w3.org/1999/02/22-rdf-syntax-ns#"
   xmlns:svg="http://www.w3.org/2000/svg"
   xmlns="http://www.w3.org/2000/svg"
   xmlns:sodipodi="http://sodipodi.sourceforge.net/DTD/sodipodi-0.dtd"
   xmlns:inkscape="http://www.inkscape.org/namespaces/inkscape"
   height="82.764656"
   width="923.0769"
   id="svg13744"
   version="1.1"
   viewBox="-26.76711 -3.999975 178.4474 2.4829242"
   sodipodi:docname="cmu.svg"
   inkscape:version="0.92.5 (2060ec1f9f, 2020-04-08)">
  <metadata
     id="metadata36">
    <rdf:RDF>
      <cc:Work
         rdf:about="">
        <dc:format>image/svg+xml</dc:format>
        <dc:type
           rdf:resource="http://purl.org/dc/dcmitype/StillImage" />
        <dc:title></dc:title>
      </cc:Work>
    </rdf:RDF>
  </metadata>
  <defs
     id="defs34" />
  <sodipodi:namedview
     pagecolor="#ffffff"
     bordercolor="#666666"
     borderopacity="1"
     objecttolerance="10"
     gridtolerance="10"
     guidetolerance="10"
     inkscape:pageopacity="0"
     inkscape:pageshadow="2"
     inkscape:window-width="1747"
     inkscape:window-height="821"
     id="namedview32"
     showgrid="false"
     fit-margin-top="0"
     fit-margin-left="0"
     fit-margin-right="0"
     fit-margin-bottom="0"
     inkscape:zoom="0.295"
     inkscape:cx="177.83728"
     inkscape:cy="-266.95308"
     inkscape:window-x="1190"
     inkscape:window-y="267"
     inkscape:window-maximized="0"
     inkscape:current-layer="svg13744" />
  <style
     id="style13686"
     type="text/css">path{fill:#ab1727}</style>
  <g
     id="g13742"
     transform="matrix(1,0,0,-1,-532.54201,190.65744)">
    <path
       id="path13688"
       d="m 514.8987,201.0038 h -0.2926 c -0.015,-0.3404 -0.196,-0.4877 -0.5356,-0.4877 -0.682,0 -1.785,0.8273 -2.9547,0.8273 -3.328,0 -5.3409,-3.2783 -5.3409,-6.1663 0,-2.9068 1.9163,-5.779 5.129,-5.779 1.949,0 2.6798,0.924 3.1985,0.924 0.3414,0 0.5365,-0.423 0.6012,-0.665 h 0.244 v 3.978 h -0.244 l -0.0975,-0.5525 c -0.2279,-1.316 -1.4445,-3.3927 -3.538,-3.3927 -1.8516,0 -2.5645,1.7371 -2.5645,5.6823 0,4.1374 0.9727,5.6804 2.6123,5.6804 1.8506,0 3.2304,-2.223 3.4902,-3.8804 h 0.2927 v 3.8317 z"
       inkscape:connector-curvature="0"
       style="fill:#ab1727" />
    <path
       id="path13690"
       d="m 523.751,191.035 h -0.288 c 0,-0.4175 -0.1763,-0.8977 -0.5609,-0.8977 -0.288,0 -0.3668,0.3039 -0.3668,0.8 v 3.6845 c 0,1.8253 -1.7146,2.2746 -3.3636,2.2746 -1.6011,0 -2.7708,-0.786 -2.7708,-1.6818 0,-0.5619 0.3199,-1.0412 1.0403,-1.0412 0.6087,0 0.9773,0.3996 0.9773,0.9615 0,0.7672 -0.7991,0.7203 -0.817,0.9924 -0.014,0.3526 0.9136,0.4793 1.4586,0.4793 1.1997,0 1.361,-0.59 1.361,-1.5524 v -1.3441 l -1.5702,-0.1285 c -1.4557,-0.1126 -3.0418,-0.4972 -3.0418,-2.1621 0,-1.3939 1.2484,-1.9557 2.4819,-1.9557 0.6237,0 1.7287,0.242 2.146,1.0093 0.288,-0.6716 0.8809,-1.0093 1.6003,-1.0093 1.0412,0 1.7137,0.6256 1.7137,1.5711 m -3.3299,0.5272 c -0.0319,-0.849 -0.514,-1.6162 -1.2653,-1.6162 -1.089,0 -1.136,0.9915 -1.136,1.8244 0,0.8508 0.0948,1.4107 1.136,1.5224 l 1.2653,0.1285 z"
       inkscape:connector-curvature="0"
       style="fill:#ab1727" />
    <path
       id="path13692"
       d="m 523.8412,189.6573 h 4.7894 v 0.2889 h -1.4736 v 4.0868 c 0,1.2325 0.3846,2.0974 1.3938,2.5467 h 0.0638 c -0.272,-0.288 -0.3845,-0.5432 -0.3845,-0.9437 0,-0.6256 0.4643,-1.042 1.089,-1.042 0.7691,0 1.2175,0.558 1.2175,1.1687 0,0.77 -0.5131,1.2343 -1.2654,1.2343 -1.0252,0 -1.8103,-0.7053 -2.1142,-1.5064 h -0.0319 v 1.634 c -0.3367,-0.4155 -1.5214,-0.4155 -2.178,-0.4155 h -1.1059 v -0.287 h 1.106 v -6.4759 h -1.106 z"
       inkscape:connector-curvature="0"
       style="fill:#ab1727" />
    <path
       id="path13694"
       d="m 530.7868,189.6573 h 4.2585 v 0.2889 h -0.9446 v 4.3907 c 0,0.8151 0.801,1.9867 1.6969,1.9867 0.4643,0 0.9464,-0.1933 0.9464,-1.3132 v -5.0642 h -0.9136 v -0.2889 h 4.2266 v 0.2889 h -1.105 v 4.4704 c 0,1.7306 -0.7363,2.4838 -2.2577,2.4838 -1.0712,0 -2.1293,-0.56 -2.5617,-1.4885 h -0.0319 v 1.7127 c -0.3367,-0.4155 -1.5195,-0.4155 -2.177,-0.4155 h -1.1369 v -0.287 h 1.105 v -6.4759 h -1.105 z"
       inkscape:connector-curvature="0"
       style="fill:#ab1727" />
    <path
       id="path13696"
       d="m 542.3903,193.532 h 4.4207 c -0.0159,1.7297 -1.618,3.3946 -3.2998,3.3646 -1.8882,0 -3.524,-1.635 -3.524,-3.796 0,-2.0824 1.5214,-3.6366 3.5728,-3.6366 1.9697,0 2.9471,1.2184 3.2989,2.8046 h -0.288 c -0.3517,-1.4905 -1.2813,-2.4191 -2.5307,-2.4191 -1.4895,0 -1.65,1.2494 -1.65,2.3375 z m 0,0.2899 v 1.376 c 0,1.074 0.4652,1.4088 1.0093,1.4088 0.7672,0 1.0092,-0.527 1.0092,-1.4088 v -1.376 z"
       inkscape:connector-curvature="0"
       style="fill:#ab1727" />
    <path
       id="path13698"
       d="m 554.7632,196.1746 c 0,0.5619 -0.6078,0.8489 -1.089,0.8489 -0.5272,0 -0.9277,-0.3527 -1.2335,-0.7044 -0.4652,0.3358 -1.104,0.5778 -2.0007,0.5778 -1.345,0 -2.7877,-0.8808 -2.7877,-2.3394 0,-0.8798 0.4812,-1.5683 1.33,-1.9529 v -0.0309 c -0.6246,-0.0797 -1.602,-0.513 -1.602,-1.8422 0,-0.7991 0.3686,-1.4088 1.0412,-1.602 v -0.031 c -0.6407,-0.1744 -1.377,-0.815 -1.377,-1.5842 0,-1.1847 1.3938,-2.0983 3.1713,-2.0983 2.225,0 3.6835,1.5055 3.6835,3.4584 0,1.5542 -0.7691,2.2577 -2.3384,2.2258 h -2.6592 c -0.4005,0 -0.9445,0.016 -0.9445,0.4474 0,0.4015 0.6894,0.833 1.2972,0.833 0.1763,0 0.3517,-0.0478 0.529,-0.0947 0.1914,-0.0647 0.3996,-0.0976 0.6566,-0.0976 1.377,0 2.8496,0.786 2.8496,2.3065 0,0.5121 -0.2392,1.2316 -0.6875,1.6161 0.288,0.288 0.4324,0.6416 1.057,0.7204 v -0.0319 c -0.3367,-0.1754 -0.4323,-0.3836 -0.4323,-0.7053 0,-0.3677 0.256,-0.7364 0.7353,-0.7364 0.514,0 0.801,0.3855 0.801,0.817 m -6.0846,-7.0921 h 2.5138 c 1.6011,0 2.1301,-0.1435 2.1301,-1.1209 0,-1.1687 -1.4407,-2.2568 -3.0587,-2.2568 -1.4417,0 -2.225,0.9764 -2.2587,1.7437 0,0.7054 0.2401,1.1697 0.6735,1.634 m 2.7867,5.475 c -0.0169,-1.9688 -0.4333,-2.0804 -1.0093,-2.0804 -0.6406,0 -0.9773,0.2082 -0.9773,2.1301 0,1.2954 0.1444,1.9998 0.9773,1.9998 0.7523,0 0.9924,-0.2082 1.0093,-2.0495"
       inkscape:connector-curvature="0"
       style="fill:#ab1727" />
    <path
       id="path13700"
       d="m 555.0133,189.6573 h 4.4235 v 0.2889 h -1.1059 v 7.1784 c -0.3367,-0.4155 -1.5233,-0.4155 -2.179,-0.4155 h -1.1386 v -0.287 h 1.105 v -6.4759 h -1.105 z"
       inkscape:connector-curvature="0"
       style="fill:#ab1727" />
    <path
       id="path13702"
       d="m 556.0813,199.1865 c 0,-0.635 0.5075,-1.1443 1.1434,-1.1443 0.636,0 1.1435,0.5093 1.1435,1.1443 0,0.635 -0.5075,1.1425 -1.1435,1.1425 a 1.1375,1.1375 0 0 1 -1.1434,-1.1425"
       inkscape:connector-curvature="0"
       style="fill:#ab1727" />
    <path
       id="path13704"
       d="m 561.8389,193.532 h 4.4189 c -0.0141,1.7297 -1.6171,3.3946 -3.299,3.3646 -1.889,0 -3.524,-1.635 -3.524,-3.796 0,-2.0824 1.5243,-3.6366 3.5719,-3.6366 1.9707,0 2.949,1.2184 3.2998,2.8046 h -0.288 c -0.3517,-1.4905 -1.2803,-2.4191 -2.5306,-2.4191 -1.4886,0 -1.649,1.2494 -1.649,2.3375 z m 0,0.2899 v 1.376 c 0,1.074 0.4643,1.4088 1.0093,1.4088 0.7682,0 1.0083,-0.527 1.0083,-1.4088 v -1.376 z"
       inkscape:connector-curvature="0"
       style="fill:#ab1727" />
    <path
       id="path13706"
       d="m 569.062,189.6573 h 3.1057 v 0.288 h -0.2241 c -0.8649,0 -1.2007,0.2241 -1.2007,1.5214 v 9.0769 h 0.0328 l 3.8251,-10.8863 h 0.4334 l 3.7294,10.694 h 0.032 v -10.406 h -1.378 v -0.288 h 5.0755 v 0.288 h -1.2007 v 10.6949 h 1.2007 v 0.288 h -3.858 l -2.706,-7.7337 h -0.032 l -2.6573,7.7337 h -4.098 v -0.288 h 1.2156 v -9.319 c 0,-0.6884 -0.1595,-1.376 -1.2316,-1.376 h -0.0638 z"
       inkscape:connector-curvature="0"
       style="fill:#ab1727" />
    <path
       id="path13708"
       d="m 584.7354,193.532 h 4.4197 c -0.015,1.7297 -1.617,3.3946 -3.2988,3.3646 -1.8892,0 -3.524,-1.635 -3.524,-3.796 0,-2.0824 1.5223,-3.6366 3.5737,-3.6366 1.9679,0 2.9471,1.2184 3.298,2.8046 h -0.288 c -0.3508,-1.4905 -1.2804,-2.4191 -2.5307,-2.4191 -1.4905,0 -1.65,1.2494 -1.65,2.3375 z m 0,0.2899 v 1.376 c 0,1.074 0.4643,1.4088 1.0092,1.4088 0.7692,0 1.0093,-0.527 1.0093,-1.4088 v -1.376 z"
       inkscape:connector-curvature="0"
       style="fill:#ab1727" />
    <path
       id="path13710"
       d="m 589.1976,189.6573 h 4.4236 v 0.288 h -1.1059 v 11.4706 c -0.2889,-0.4802 -1.1706,-0.4802 -2.3084,-0.4802 h -1.0093 v -0.289 h 1.1069 v -10.7014 h -1.1069 z"
       inkscape:connector-curvature="0"
       style="fill:#ab1727" />
    <path
       id="path13712"
       d="m 593.9017,189.6573 h 4.4236 v 0.288 h -1.105 v 11.4706 c -0.2898,-0.4802 -1.1706,-0.4802 -2.3083,-0.4802 h -1.0103 v -0.289 h 1.105 v -10.7014 h -1.105 z"
       inkscape:connector-curvature="0"
       style="fill:#ab1727" />
    <path
       id="path13714"
       d="m 605.7658,193.1811 c 0,2.193 -1.6968,3.7154 -3.811,3.7154 -2.1134,0 -3.812,-1.5224 -3.812,-3.7154 0,-2.1949 1.6986,-3.7172 3.812,-3.7172 2.1142,0 3.811,1.5223 3.811,3.7172 m -2.4988,-1.7296 c 0,-1.2025 -0.4953,-1.6978 -1.3123,-1.6978 -0.816,0 -1.3131,0.4953 -1.3131,1.6978 v 3.4593 c 0,1.1997 0.497,1.6959 1.3131,1.6959 0.817,0 1.3123,-0.4962 1.3123,-1.696 z"
       inkscape:connector-curvature="0"
       style="fill:#ab1727" />
    <path
       id="path13716"
       d="m 605.7754,189.6573 h 4.2594 v 0.2889 h -0.9436 v 4.3907 c 0,0.8151 0.801,1.9867 1.6978,1.9867 0.4634,0 0.9445,-0.1933 0.9445,-1.3132 v -5.0642 h -0.9145 v -0.2889 h 4.2294 v 0.2889 h -1.1068 v 4.4704 c 0,1.7306 -0.7354,2.4838 -2.2568,2.4838 -1.0722,0 -2.1293,-0.56 -2.5626,-1.4885 h -0.031 v 1.7127 c -0.3357,-0.4155 -1.5213,-0.4155 -2.178,-0.4155 h -1.1377 v -0.287 h 1.1059 v -6.4759 h -1.106 z"
       inkscape:connector-curvature="0"
       style="fill:#ab1727" />
    <path
       id="path13718"
       d="m 617.2786,200.6402 h 1.2494 v -7.2535 c 0,-2.481 1.711,-3.9864 4.3223,-3.9864 2.9453,0 4.2256,1.5542 4.2256,3.9086 v 5.9862 c 0,0.9286 0.256,1.345 0.833,1.345 h 0.4164 v 0.288 h -3.1694 v -0.288 h 0.4643 c 0.817,0 1.073,-0.4164 1.073,-1.345 v -6.0847 c 0,-2.1752 -1.3141,-3.2323 -2.8674,-3.2323 -2.3375,0 -2.8008,1.5683 -2.8008,3.6169 v 7.0452 h 1.2963 v 0.288 h -5.0427 z"
       inkscape:connector-curvature="0"
       style="fill:#ab1727" />
    <path
       id="path13720"
       d="m 627.7023,189.6573 h 4.2585 v 0.2889 h -0.9436 v 4.3907 c 0,0.8151 0.7982,1.9867 1.6949,1.9867 0.4662,0 0.9455,-0.1933 0.9455,-1.3132 v -5.0642 h -0.9117 v -0.2889 h 4.2265 v 0.2889 h -1.103 v 4.4704 c 0,1.7306 -0.7382,2.4838 -2.2587,2.4838 -1.0721,0 -2.1302,-0.56 -2.5617,-1.4885 h -0.0319 v 1.7127 c -0.3376,-0.4155 -1.5214,-0.4155 -2.1798,-0.4155 h -1.135 v -0.287 h 1.103 v -6.4759 h -1.103 z"
       inkscape:connector-curvature="0"
       style="fill:#ab1727" />
    <path
       id="path13722"
       d="m 637.2063,189.6573 h 4.4235 v 0.2889 h -1.105 v 7.1784 c -0.3376,-0.4155 -1.5223,-0.4155 -2.1808,-0.4155 h -1.1377 v -0.287 h 1.1077 v -6.4759 h -1.1077 z"
       inkscape:connector-curvature="0"
       style="fill:#ab1727" />
    <path
       id="path13724"
       d="m 638.2744,199.1865 c 0,-0.635 0.5093,-1.1443 1.1452,-1.1443 0.6341,0 1.1416,0.5093 1.1416,1.1443 0,0.635 -0.5075,1.1425 -1.1416,1.1425 -0.636,0 -1.1452,-0.5075 -1.1452,-1.1425"
       inkscape:connector-curvature="0"
       style="fill:#ab1727" />
    <path
       id="path13726"
       d="m 644.8741,189.464 h 0.4324 l 2.3694,5.6063 c 0.4005,0.8967 0.7363,1.3292 1.105,1.3451 h 0.1453 v 0.289 h -2.4988 v -0.289 h 0.3058 c 0.4634,0 0.7354,-0.1754 0.7354,-0.5919 0,-0.258 -0.0797,-0.6087 -0.272,-1.057 l -1.089,-2.5627 -1.8741,4.2116 h 0.9614 v 0.289 h -4.0192 v -0.289 h 0.6884 z"
       inkscape:connector-curvature="0"
       style="fill:#ab1727" />
    <path
       id="path13728"
       d="m 650.6825,193.532 h 4.4208 c -0.015,1.7297 -1.6171,3.3946 -3.298,3.3646 -1.891,0 -3.525,-1.635 -3.525,-3.796 0,-2.0824 1.5224,-3.6366 3.5738,-3.6366 1.9688,0 2.9452,1.2184 3.298,2.8046 h -0.2862 c -0.3545,-1.4905 -1.2822,-2.4191 -2.5316,-2.4191 -1.4904,0 -1.541,1.2494 -1.541,2.3375 z m 0,0.2899 v 1.376 c 0,1.074 0.4653,1.4088 1.0102,1.4088 0.7683,0 1.0074,-0.527 1.0074,-1.4088 v -1.376 z"
       inkscape:connector-curvature="0"
       style="fill:#ab1727" />
    <path
       id="path13730"
       d="m 655.1407,189.6573 h 4.7884 v 0.2889 h -1.4726 v 4.0868 c 0,1.2325 0.3845,2.0974 1.3938,2.5467 h 0.0638 c -0.272,-0.288 -0.3845,-0.5432 -0.3845,-0.9437 0,-0.6256 0.4633,-1.042 1.089,-1.042 0.7691,0 1.2175,0.558 1.2175,1.1687 0,0.77 -0.5122,1.2343 -1.2663,1.2343 -1.0243,0 -1.8094,-0.7053 -2.1133,-1.5064 h -0.032 v 1.634 c -0.3366,-0.4155 -1.5213,-0.4155 -2.178,-0.4155 h -1.1058 v -0.287 h 1.1059 v -6.4759 h -1.106 v -0.2889 z"
       inkscape:connector-curvature="0"
       style="fill:#ab1727" />
    <path
       id="path13732"
       d="m 662.1838,189.464 h 0.289 c 0.0806,0.258 0.3367,0.3855 0.6575,0.3855 0.4155,0 0.9117,-0.3855 1.8093,-0.3855 1.5224,0 2.5626,1.3141 2.5626,2.6273 0,1.9538 -1.3441,2.0983 -3.0597,2.3384 -0.8967,0.1285 -1.4567,0.273 -1.4567,0.9783 0,0.7523 0.6566,1.1988 1.5214,1.1988 1.2007,0 1.8422,-0.9437 2.2437,-1.9848 h 0.2551 l -0.0966,2.2746 h -0.24 c 0,-0.1923 -0.1905,-0.3527 -0.4963,-0.3527 -0.513,0 -0.9295,0.3527 -1.6658,0.3527 -1.6012,0 -2.3853,-1.3629 -2.3853,-2.3872 0,-2.0664 1.5683,-2.2408 2.7848,-2.3853 1.1547,-0.1454 1.635,-0.256 1.635,-0.9933 0,-0.8498 -0.7035,-1.377 -1.5702,-1.377 -1.2166,0 -2.21,1.2325 -2.4988,2.4013 h -0.289 z"
       inkscape:connector-curvature="0"
       style="fill:#ab1727" />
    <path
       id="path13734"
       d="m 667.7852,189.6573 h 4.4217 v 0.2889 h -1.104 v 7.1784 c -0.3368,-0.4155 -1.5224,-0.4155 -2.179,-0.4155 h -1.1387 v -0.287 h 1.1068 v -6.4759 h -1.1068 z"
       inkscape:connector-curvature="0"
       style="fill:#ab1727" />
    <path
       id="path13736"
       d="m 668.855,199.1865 c 0,-0.635 0.5057,-1.1443 1.1416,-1.1443 0.637,0 1.1444,0.5093 1.1444,1.1443 0,0.635 -0.5075,1.1425 -1.1444,1.1425 -0.636,0 -1.1415,-0.5075 -1.1415,-1.1425"
       inkscape:connector-curvature="0"
       style="fill:#ab1727" />
    <path
       id="path13738"
       d="m 672.8415,196.4147 v -5.1243 c 0,-1.5214 1.3132,-1.8262 1.7616,-1.8262 0.9774,0 1.634,0.4005 2.131,1.2334 l -0.2072,0.1126 c -0.1932,-0.288 -0.4512,-0.6735 -0.8508,-0.6735 -0.4155,0 -0.6237,0.3049 -0.6237,0.832 v 5.446 h 1.4745 v 0.287 h -1.4745 v 3.4433 h -0.289 c 0,-1.6977 -1.1537,-3.4433 -2.7717,-3.4433 v -0.287 z"
       inkscape:connector-curvature="0"
       style="fill:#ab1727" />
    <path
       id="path13740"
       d="m 676.4726,196.4156 h 0.6716 l 3.0738,-7.124 -0.0947,-0.6397 c -0.0647,-0.4653 -0.3856,-2.2915 -0.9136,-2.45 v 0.0469 c 0.0638,0.225 0.0807,0.3995 0.0807,0.544 0,0.545 -0.3837,0.9614 -1.058,0.9614 -0.7036,0 -1.0553,-0.4812 -1.0553,-1.089 0,-0.6566 0.6087,-1.1218 1.3113,-1.1218 1.2663,0 1.5861,1.3948 1.7296,2.0664 l 0.4334,1.9529 0.833,2.0814 1.5842,3.5718 c 0.3536,0.8142 0.6725,1.1997 1.0252,1.1997 h 0.1285 v 0.2889 h -2.497 v -0.289 h 0.3359 c 0.5112,0 0.7363,-0.2888 0.7363,-0.5608 0,-0.318 -0.2092,-0.848 -0.4643,-1.4558 l -0.9286,-2.194 -1.8741,4.2107 h 1.0571 v 0.2889 h -4.115 v -0.289 z"
       inkscape:connector-curvature="0"
       style="fill:#ab1727" />
  </g>
</svg>
