<?xml version="1.0" encoding="UTF-8"?>
<svg xmlns="http://www.w3.org/2000/svg" xmlns:xlink="http://www.w3.org/1999/xlink" width="144pt" height="144pt" viewBox="0 0 144 144" version="1.1">
<g id="surface1">
<path style=" stroke:none;fill-rule:nonzero;fill:rgb(25.881958%,40.391541%,69.802856%);fill-opacity:1;" d="M 136.050781 0 L 8 0 C 3.582031 0 0 3.582031 0 8 L 0 136.101562 C 0.0546875 140.480469 3.621094 144 8 144 L 77 144 L 77 88.308594 L 58.21875 88.308594 L 58.21875 66.519531 L 76.921875 66.519531 L 76.921875 50.519531 C 76.921875 31.921875 88.28125 21.789062 104.921875 21.789062 C 110.519531 21.773438 116.121094 22.054688 121.691406 22.640625 L 121.691406 42 L 110.199219 42 C 101.199219 42 99.421875 46.289062 99.421875 52.578125 L 99.421875 66.519531 L 121 66.519531 L 118.199219 88.308594 L 99.421875 88.308594 L 99.421875 144 L 136.050781 144 C 140.429688 143.972656 143.972656 140.429688 144 136.050781 L 144 8 C 144 3.601562 140.449219 0.0273438 136.050781 0 Z M 136.050781 0 "/>
<path style=" stroke:none;fill-rule:nonzero;fill:rgb(100%,100%,100%);fill-opacity:1;" d="M 99.421875 144 L 99.421875 88.308594 L 118.199219 88.308594 L 121 66.519531 L 99.421875 66.519531 L 99.421875 52.628906 C 99.421875 46.339844 101.171875 42.050781 110.199219 42.050781 L 121.640625 42.050781 L 121.640625 22.601562 C 116.070312 22.015625 110.472656 21.730469 104.871094 21.75 C 88.28125 21.75 76.921875 31.878906 76.921875 50.480469 L 76.921875 66.480469 L 58.21875 66.480469 L 58.21875 88.308594 L 76.921875 88.308594 L 76.921875 144 Z M 99.421875 144 "/>
</g>
</svg>
