<?xml version="1.0" encoding="UTF-8"?>
<svg xmlns="http://www.w3.org/2000/svg" xmlns:xlink="http://www.w3.org/1999/xlink" width="365pt" height="366pt" viewBox="0 0 365 366" version="1.1">
<g id="surface1">
<path style=" stroke:none;fill-rule:nonzero;fill:rgb(45.66803%,10.848999%,11.250305%);fill-opacity:1;" d="M 365 183.5 C 365 284.289062 283.289062 366 182.496094 366 C 81.707031 366 0 284.289062 0 183.5 C 0 82.707031 81.707031 1 182.496094 1 C 283.289062 1 365 82.707031 365 183.496094 "/>
<path style=" stroke:none;fill-rule:nonzero;fill:rgb(82.507324%,63.186646%,22.579956%);fill-opacity:1;" d="M 323.335938 183.5 C 323.335938 261.28125 260.28125 324.335938 182.5 324.335938 C 104.71875 324.335938 41.664062 261.28125 41.664062 183.5 C 41.664062 105.71875 104.71875 42.660156 182.5 42.660156 C 260.28125 42.660156 323.335938 105.71875 323.335938 183.5 "/>
<path style=" stroke:none;fill-rule:nonzero;fill:rgb(100%,100%,100%);fill-opacity:1;" d="M 323.335938 183.5 L 322.878906 183.5 C 322.878906 222.265625 307.167969 257.359375 281.765625 282.765625 C 256.359375 308.167969 221.265625 323.878906 182.5 323.878906 C 143.734375 323.878906 108.640625 308.167969 83.234375 282.765625 C 57.832031 257.359375 42.121094 222.265625 42.117188 183.5 C 42.121094 144.734375 57.832031 109.640625 83.234375 84.234375 C 108.640625 58.828125 143.734375 43.117188 182.5 43.117188 C 221.265625 43.117188 256.359375 58.828125 281.765625 84.234375 C 307.167969 109.640625 322.878906 144.730469 322.878906 183.5 L 323.792969 183.5 C 323.792969 105.464844 260.535156 42.207031 182.5 42.203125 C 104.464844 42.207031 41.207031 105.464844 41.207031 183.5 C 41.207031 261.535156 104.464844 324.792969 182.5 324.792969 C 260.535156 324.792969 323.792969 261.535156 323.792969 183.5 L 323.335938 183.5 "/>
<path style=" stroke:none;fill-rule:nonzero;fill:rgb(100%,100%,100%);fill-opacity:1;" d="M 60.527344 304.730469 L 75.671875 289.242188 L 79.164062 292.65625 L 64.019531 308.140625 L 60.527344 304.730469 "/>
<path style=" stroke:none;fill-rule:nonzero;fill:rgb(100%,100%,100%);fill-opacity:1;" d="M 71.238281 284.933594 L 54.402344 298.5625 L 50.800781 294.109375 L 54.144531 285.621094 C 55.109375 283.183594 56.417969 280.511719 57.6875 278.203125 L 57.648438 278.152344 C 55.605469 280.175781 53.398438 282.09375 50.847656 284.152344 L 45.949219 288.117188 L 43.121094 284.617188 L 59.957031 270.992188 L 63.191406 274.988281 L 59.605469 283.84375 C 58.59375 286.320312 57.355469 289.183594 56.027344 291.578125 L 56.105469 291.679688 C 58.257812 289.734375 60.589844 287.765625 63.335938 285.539062 L 68.40625 281.433594 L 71.238281 284.933594 "/>
<path style=" stroke:none;fill-rule:nonzero;fill:rgb(100%,100%,100%);fill-opacity:1;" d="M 37.929688 276.472656 C 36.753906 275.070312 35.449219 273.113281 34.238281 270.996094 C 32.179688 267.394531 31.425781 264.71875 31.769531 262.152344 C 32.105469 259.367188 33.746094 256.804688 37.09375 254.886719 C 40.691406 252.828125 43.921875 252.71875 46.480469 253.625 C 49.257812 254.664062 51.78125 257.257812 53.886719 260.941406 C 55.148438 263.144531 55.917969 264.8125 56.367188 265.929688 L 37.929688 276.472656 M 50.816406 263.472656 C 50.691406 263.066406 50.34375 262.449219 50.054688 261.949219 C 47.863281 258.054688 44.292969 256.726562 39.804688 259.296875 C 35.753906 261.613281 35.140625 264.996094 37.246094 268.683594 C 37.773438 269.601562 38.222656 270.199219 38.515625 270.511719 L 50.816406 263.472656 "/>
<path style=" stroke:none;fill-rule:nonzero;fill:rgb(100%,100%,100%);fill-opacity:1;" d="M 23.1875 248.355469 L 43.125 239.894531 L 45.035156 244.390625 L 25.09375 252.851562 L 23.1875 248.355469 "/>
<path style=" stroke:none;fill-rule:nonzero;fill:rgb(100%,100%,100%);fill-opacity:1;" d="M 33.960938 230.929688 L 39.71875 230.808594 L 41.15625 235.675781 L 18.507812 235.453125 L 16.699219 229.320312 L 35.566406 216.71875 L 37.054688 221.773438 L 32.199219 224.949219 L 33.960938 230.929688 M 28.890625 226.695312 L 24.867188 229.289062 C 23.730469 229.992188 22.269531 230.824219 21.15625 231.488281 L 21.1875 231.582031 C 22.5 231.492188 24.171875 231.371094 25.46875 231.328125 L 30.246094 231.289062 L 28.890625 226.695312 "/>
<path style=" stroke:none;fill-rule:nonzero;fill:rgb(100%,100%,100%);fill-opacity:1;" d="M 34.632812 212 L 13.15625 214.800781 L 12.417969 209.128906 L 19.707031 203.640625 C 21.804688 202.070312 24.316406 200.480469 26.609375 199.175781 L 26.605469 199.113281 C 23.808594 199.765625 20.917969 200.238281 17.667969 200.664062 L 11.421875 201.480469 L 10.839844 197.019531 L 32.320312 194.222656 L 32.984375 199.320312 L 25.296875 204.988281 C 23.136719 206.566406 20.582031 208.355469 18.199219 209.703125 L 18.21875 209.828125 C 21.0625 209.296875 24.082031 208.839844 27.589844 208.382812 L 34.054688 207.539062 L 34.636719 212 "/>
<path style=" stroke:none;fill-rule:nonzero;fill:rgb(100%,100%,100%);fill-opacity:1;" d="M 10.800781 173.792969 L 32.445312 174.695312 L 32.242188 179.574219 L 10.597656 178.671875 L 10.800781 173.792969 "/>
<path style=" stroke:none;fill-rule:nonzero;fill:rgb(100%,100%,100%);fill-opacity:1;" d="M 32.683594 168.472656 L 11.292969 165.058594 L 12.195312 159.410156 L 20.742188 156.21875 C 23.195312 155.308594 26.0625 154.496094 28.628906 153.898438 L 28.644531 153.835938 C 25.773438 153.671875 22.871094 153.304688 19.632812 152.785156 L 13.410156 151.792969 L 14.125 147.351562 L 35.511719 150.765625 L 34.703125 155.84375 L 25.722656 159.09375 C 23.203125 159.996094 20.242188 160.988281 17.574219 161.601562 L 17.554688 161.730469 C 20.4375 162.027344 23.460938 162.445312 26.949219 163.003906 L 33.394531 164.03125 L 32.683594 168.472656 "/>
<path style=" stroke:none;fill-rule:nonzero;fill:rgb(100%,100%,100%);fill-opacity:1;" d="M 32.355469 143.136719 C 33.386719 142.113281 34.644531 140.351562 35.269531 138.359375 C 35.941406 136.210938 35.40625 134.800781 34.027344 134.367188 C 32.769531 133.972656 31.695312 134.714844 30.058594 136.929688 C 27.757812 139.980469 25.144531 141.652344 22.109375 140.703125 C 18.582031 139.597656 16.84375 135.785156 18.363281 130.941406 C 19.101562 128.578125 20.089844 127.039062 21.058594 125.992188 L 24.46875 128.207031 C 23.824219 128.882812 22.769531 130.203125 22.144531 132.191406 C 21.511719 134.21875 22.15625 135.496094 23.195312 135.824219 C 24.515625 136.238281 25.453125 135.285156 27.339844 132.914062 C 29.835938 129.683594 32.265625 128.59375 35.210938 129.519531 C 38.675781 130.601562 40.792969 134.160156 39.015625 139.835938 C 38.277344 142.195312 36.902344 144.324219 35.894531 145.289062 L 32.355469 143.136719 "/>
<path style=" stroke:none;fill-rule:nonzero;fill:rgb(100%,100%,100%);fill-opacity:1;" d="M 29.070312 115.332031 L 26.609375 120.640625 L 22.878906 118.914062 L 29.871094 103.804688 L 33.601562 105.53125 L 31.121094 110.898438 L 47.042969 118.269531 L 44.996094 122.703125 L 29.070312 115.332031 "/>
<path style=" stroke:none;fill-rule:nonzero;fill:rgb(100%,100%,100%);fill-opacity:1;" d="M 35.808594 93.710938 L 54.433594 104.765625 L 51.941406 108.96875 L 33.3125 97.910156 L 35.808594 93.710938 "/>
<path style=" stroke:none;fill-rule:nonzero;fill:rgb(100%,100%,100%);fill-opacity:1;" d="M 46.089844 85.664062 L 42.609375 90.363281 L 39.304688 87.914062 L 49.214844 74.539062 L 52.519531 76.988281 L 49 81.742188 L 63.101562 92.1875 L 60.191406 96.109375 L 46.089844 85.664062 "/>
<path style=" stroke:none;fill-rule:nonzero;fill:rgb(100%,100%,100%);fill-opacity:1;" d="M 57.582031 65.265625 L 66.417969 74.023438 C 69.085938 76.667969 71.453125 76.976562 73.195312 75.21875 C 75.003906 73.394531 74.722656 71.121094 71.980469 68.40625 L 63.148438 59.652344 L 66.589844 56.183594 L 75.214844 64.734375 C 79.964844 69.4375 79.851562 74.074219 75.867188 78.09375 C 72.019531 81.972656 67.613281 82.085938 62.726562 77.242188 L 54.144531 68.738281 L 57.582031 65.265625 "/>
<path style=" stroke:none;fill-rule:nonzero;fill:rgb(100%,100%,100%);fill-opacity:1;" d="M 79.539062 50.921875 L 74.871094 54.445312 L 72.394531 51.160156 L 85.679688 41.136719 L 88.160156 44.417969 L 83.441406 47.980469 L 94.003906 61.988281 L 90.105469 64.929688 L 79.539062 50.921875 "/>
<path style=" stroke:none;fill-rule:nonzero;fill:rgb(100%,100%,100%);fill-opacity:1;" d="M 109.238281 41.699219 L 102.308594 45.644531 L 104.855469 50.113281 L 112.589844 45.707031 L 114.578125 49.195312 L 102.601562 56.023438 L 91.875 37.203125 L 103.460938 30.601562 L 105.449219 34.089844 L 98.109375 38.277344 L 100.335938 42.183594 L 107.261719 38.238281 L 109.238281 41.699219 "/>
<path style=" stroke:none;fill-rule:nonzero;fill:rgb(100%,100%,100%);fill-opacity:1;" d="M 135.90625 40.945312 C 129.820312 42.921875 124.714844 39.480469 122.804688 33.613281 C 120.800781 27.4375 123.273438 21.53125 129.324219 19.5625 C 135.648438 17.507812 140.644531 21.121094 142.492188 26.808594 C 144.699219 33.59375 141.953125 38.980469 135.933594 40.933594 L 135.90625 40.945312 M 134.914062 37.179688 C 138.0625 36.15625 138.902344 32.601562 137.589844 28.570312 C 136.386719 24.871094 133.613281 22.257812 130.402344 23.304688 C 127.191406 24.34375 126.40625 28.050781 127.65625 31.898438 C 128.921875 35.78125 131.765625 38.199219 134.886719 37.1875 L 134.910156 37.179688 L 134.914062 37.179688 "/>
<path style=" stroke:none;fill-rule:nonzero;fill:rgb(100%,100%,100%);fill-opacity:1;" d="M 147.449219 15.007812 L 160.476562 12.8125 L 161.144531 16.773438 L 152.933594 18.15625 L 153.761719 23.039062 L 161.429688 21.742188 L 162.089844 25.671875 L 154.421875 26.96875 L 155.871094 35.554688 L 151.058594 36.367188 L 147.449219 15.007812 "/>
<path style=" stroke:none;fill-rule:nonzero;fill:rgb(100%,100%,100%);fill-opacity:1;" d="M 182.613281 15.644531 L 176.769531 15.546875 L 176.835938 11.433594 L 193.480469 11.703125 L 193.410156 15.816406 L 187.5 15.722656 L 187.214844 33.269531 L 182.332031 33.1875 L 182.613281 15.644531 "/>
<path style=" stroke:none;fill-rule:nonzero;fill:rgb(100%,100%,100%);fill-opacity:1;" d="M 211.710938 26.59375 L 203.820312 25.457031 L 203.089844 30.546875 L 211.902344 31.8125 L 211.328125 35.789062 L 197.683594 33.828125 L 200.761719 12.390625 L 213.964844 14.285156 L 213.390625 18.261719 L 205.027344 17.058594 L 204.386719 21.515625 L 212.273438 22.644531 L 211.710938 26.59375 "/>
<path style=" stroke:none;fill-rule:nonzero;fill:rgb(100%,100%,100%);fill-opacity:1;" d="M 231.914062 40.660156 C 230.96875 40.824219 228.847656 40.757812 226.34375 40.046875 C 219.140625 38 216.714844 32.433594 218.40625 26.46875 C 220.429688 19.355469 226.613281 16.867188 232.917969 18.660156 C 235.359375 19.355469 237.078125 20.378906 237.785156 21.046875 L 235.742188 24.476562 C 234.929688 23.808594 233.707031 23.0625 232.007812 22.578125 C 228.300781 21.523438 224.75 22.953125 223.421875 27.625 C 222.238281 31.796875 223.964844 35.128906 228.140625 36.3125 C 229.59375 36.726562 231.21875 36.886719 232.289062 36.757812 L 231.914062 40.660156 "/>
<path style=" stroke:none;fill-rule:nonzero;fill:rgb(100%,100%,100%);fill-opacity:1;" d="M 250.136719 25.320312 L 246.671875 32.917969 L 254.007812 36.269531 L 257.476562 28.667969 L 261.921875 30.695312 L 252.929688 50.402344 L 248.488281 48.371094 L 252.234375 40.15625 L 244.894531 36.808594 L 241.148438 45.023438 L 236.699219 42.996094 L 245.695312 23.289062 L 250.136719 25.320312 "/>
<path style=" stroke:none;fill-rule:nonzero;fill:rgb(100%,100%,100%);fill-opacity:1;" d="M 258.367188 53.429688 L 270.394531 35.410156 L 275.148438 38.585938 L 274.488281 47.6875 C 274.285156 50.296875 273.832031 53.238281 273.304688 55.824219 L 273.359375 55.863281 C 274.707031 53.324219 276.25 50.835938 278.066406 48.109375 L 281.566406 42.871094 L 285.308594 45.367188 L 273.28125 63.382812 L 269.007812 60.53125 L 269.796875 51.011719 C 270.03125 48.347656 270.359375 45.242188 270.914062 42.5625 L 270.808594 42.492188 C 269.335938 44.984375 267.695312 47.5625 265.730469 50.5 L 262.109375 55.925781 L 258.367188 53.429688 "/>
<path style=" stroke:none;fill-rule:nonzero;fill:rgb(100%,100%,100%);fill-opacity:1;" d="M 284.648438 73.746094 C 279.976562 69.378906 280.511719 63.246094 284.726562 58.734375 C 289.15625 53.988281 295.519531 53.292969 300.175781 57.636719 C 305.035156 62.175781 304.289062 68.296875 300.210938 72.664062 C 295.34375 77.878906 289.304688 78.085938 284.671875 73.769531 L 284.652344 73.746094 M 287.46875 71.058594 C 289.890625 73.316406 293.398438 72.328125 296.296875 69.230469 C 298.949219 66.386719 299.890625 62.695312 297.425781 60.390625 C 294.960938 58.089844 291.335938 59.191406 288.574219 62.152344 C 285.785156 65.132812 285.046875 68.796875 287.441406 71.035156 L 287.46875 71.058594 "/>
<path style=" stroke:none;fill-rule:nonzero;fill:rgb(100%,100%,100%);fill-opacity:1;" d="M 312.851562 71.191406 L 315.90625 75.003906 L 302.222656 85.984375 L 307.617188 92.703125 L 304.410156 95.277344 L 295.960938 84.753906 L 312.851562 71.191406 "/>
<path style=" stroke:none;fill-rule:nonzero;fill:rgb(100%,100%,100%);fill-opacity:1;" d="M 311.03125 106.253906 C 307.742188 100.769531 309.949219 95.019531 315.234375 91.84375 C 320.804688 88.503906 327.113281 89.585938 330.390625 95.039062 C 333.816406 100.746094 331.414062 106.421875 326.289062 109.496094 C 320.171875 113.171875 314.308594 111.707031 311.050781 106.28125 L 311.03125 106.253906 M 314.484375 104.441406 C 316.1875 107.28125 319.832031 107.300781 323.472656 105.117188 C 326.804688 103.113281 328.726562 99.824219 326.992188 96.933594 C 325.253906 94.039062 321.464844 94.101562 317.996094 96.1875 C 314.496094 98.285156 312.777344 101.605469 314.464844 104.414062 L 314.480469 104.445312 L 314.484375 104.441406 "/>
<path style=" stroke:none;fill-rule:nonzero;fill:rgb(100%,100%,100%);fill-opacity:1;" d="M 326.582031 136.308594 C 325.546875 135.09375 323.835938 132.699219 322.777344 130.039062 C 321.316406 126.363281 321.1875 123.339844 322.21875 120.785156 C 323.257812 118.265625 325.480469 116.203125 328.4375 115.03125 C 335.140625 112.40625 340.898438 115.757812 343.519531 122.355469 C 344.550781 124.957031 344.835938 127.160156 344.777344 128.320312 L 340.726562 128.824219 C 340.796875 127.519531 340.617188 126.03125 339.742188 123.824219 C 338.238281 120.027344 334.9375 117.984375 330.574219 119.714844 C 326.394531 121.378906 325.015625 124.964844 326.5 128.699219 C 326.902344 129.714844 327.351562 130.503906 327.644531 130.800781 L 331.890625 129.117188 L 330.65625 126.011719 L 334.207031 124.601562 L 337.183594 132.101562 L 326.582031 136.308594 "/>
<path style=" stroke:none;fill-rule:nonzero;fill:rgb(100%,100%,100%);fill-opacity:1;" d="M 328.382812 147.128906 L 337.023438 145.136719 L 347.953125 135.59375 L 349.214844 141.070312 L 344.632812 144.371094 C 343.25 145.382812 342.234375 146.109375 340.96875 146.929688 L 340.980469 146.996094 C 342.40625 147.160156 343.738281 147.378906 345.390625 147.660156 L 350.953125 148.621094 L 352.183594 153.972656 L 338.277344 149.859375 L 329.476562 151.886719 L 328.378906 147.128906 "/>
<path style=" stroke:none;fill-rule:nonzero;fill:rgb(100%,100%,100%);fill-opacity:1;" d="M 341.195312 189.664062 C 343.792969 189.527344 346.910156 189.375 350.089844 189.328125 L 350.089844 189.261719 C 347.316406 188.597656 344.214844 187.75 341.664062 186.957031 L 333.167969 184.457031 L 333.105469 180.632812 L 341.421875 178.183594 C 343.988281 177.4375 347.023438 176.679688 349.875 176.085938 L 349.875 176.023438 C 346.949219 175.972656 343.605469 175.898438 340.902344 175.816406 L 332.671875 175.53125 L 332.601562 170.996094 L 354.277344 172.03125 L 354.382812 178.554688 L 347.15625 180.792969 C 344.691406 181.539062 342.003906 182.226562 339.472656 182.75 L 339.472656 182.875 C 341.988281 183.414062 344.828125 184.109375 347.285156 184.808594 L 354.519531 186.972656 L 354.621094 193.398438 L 332.984375 194.90625 L 332.910156 190.148438 L 341.195312 189.664062 "/>
<path style=" stroke:none;fill-rule:nonzero;fill:rgb(100%,100%,100%);fill-opacity:1;" d="M 336.703125 206.460938 L 331.480469 204.039062 L 332.328125 199.035156 L 352.574219 209.195312 L 351.503906 215.496094 L 329.011719 218.515625 L 329.898438 213.320312 L 335.660156 212.605469 L 336.703125 206.460938 M 339.394531 212.492188 L 344.152344 211.9375 C 345.476562 211.800781 347.160156 211.695312 348.449219 211.589844 L 348.464844 211.492188 C 347.246094 210.992188 345.691406 210.367188 344.511719 209.84375 L 340.199219 207.773438 L 339.394531 212.492188 "/>
<path style=" stroke:none;fill-rule:nonzero;fill:rgb(100%,100%,100%);fill-opacity:1;" d="M 347.976562 230.085938 C 347.703125 231.890625 347.101562 234.164062 346.316406 236.476562 C 344.984375 240.40625 343.476562 242.742188 341.324219 244.183594 C 339.019531 245.78125 336.007812 246.25 332.355469 245.015625 C 328.429688 243.679688 326.210938 241.332031 325.191406 238.816406 C 324.132812 236.046875 324.40625 232.4375 325.769531 228.421875 C 326.585938 226.015625 327.324219 224.332031 327.855469 223.261719 L 347.976562 230.085938 M 329.699219 229.042969 C 329.472656 229.40625 329.242188 230.078125 329.058594 230.625 C 327.59375 234.847656 328.964844 238.402344 333.867188 240.0625 C 338.28125 241.558594 341.226562 239.773438 342.589844 235.757812 C 342.929688 234.753906 343.078125 234.023438 343.117188 233.597656 L 329.699219 229.042969 "/>
<path style=" stroke:none;fill-rule:nonzero;fill:rgb(100%,100%,100%);fill-opacity:1;" d="M 338.332031 255.886719 C 337.867188 257.414062 336.972656 259.558594 335.757812 261.894531 C 334.277344 264.753906 332.8125 266.523438 330.992188 267.316406 C 329.472656 268.011719 327.804688 267.945312 326.039062 267.023438 C 323.609375 265.769531 322.832031 263.152344 323.089844 261.191406 L 323.007812 261.144531 C 321.769531 262.203125 320.125 262.292969 318.105469 261.859375 C 315.597656 261.316406 312.796875 260.589844 311.863281 260.574219 L 314.167969 256.121094 C 314.859375 256.117188 316.679688 256.449219 319.328125 257.136719 C 322.035156 257.851562 323.089844 257.347656 324.050781 255.566406 L 324.71875 254.285156 L 317.160156 250.359375 L 319.394531 246.050781 L 338.332031 255.886719 M 327.855469 255.910156 L 326.964844 257.625 C 325.84375 259.789062 326.261719 261.636719 327.945312 262.511719 C 329.683594 263.410156 331.21875 262.691406 332.257812 260.691406 C 332.800781 259.636719 333.054688 259.007812 333.132812 258.648438 L 327.855469 255.910156 "/>
<path style=" stroke:none;fill-rule:nonzero;fill:rgb(100%,100%,100%);fill-opacity:1;" d="M 310.804688 272.058594 L 307.1875 267.578125 L 310.167969 263.464844 L 323.828125 281.53125 L 320.078125 286.710938 L 298.574219 279.472656 L 301.664062 275.203125 L 307.148438 277.109375 L 310.804688 272.058594 M 310.550781 278.660156 L 315.066406 280.261719 C 316.3125 280.730469 317.867188 281.378906 319.070312 281.851562 L 319.125 281.773438 C 318.253906 280.785156 317.140625 279.539062 316.308594 278.546875 L 313.359375 274.78125 L 310.550781 278.660156 "/>
<path style=" stroke:none;fill-rule:nonzero;fill:rgb(100%,100%,100%);fill-opacity:1;" d="M 298.796875 286.632812 C 297.414062 287.089844 295.5 288.105469 294.054688 289.609375 C 292.492188 291.226562 292.339844 292.730469 293.382812 293.734375 C 294.328125 294.648438 295.621094 294.464844 298.074219 293.21875 C 301.5 291.511719 304.582031 291.183594 306.875 293.394531 C 309.535156 295.957031 309.386719 300.140625 305.863281 303.796875 C 304.148438 305.578125 302.574219 306.515625 301.242188 307.019531 L 299.179688 303.515625 C 300.058594 303.203125 301.589844 302.492188 303.035156 300.988281 C 304.511719 299.457031 304.507812 298.027344 303.71875 297.269531 C 302.722656 296.308594 301.460938 296.742188 298.710938 298.019531 C 295.039062 299.796875 292.375 299.683594 290.15625 297.542969 C 287.539062 295.023438 287.234375 290.894531 291.363281 286.609375 C 293.074219 284.832031 295.257812 283.539062 296.59375 283.128906 L 298.796875 286.632812 "/>
<path style=" stroke:none;fill-rule:nonzero;fill:rgb(100%,100%,100%);fill-opacity:1;" d="M 284.464844 312.492188 C 284.464844 314.261719 283.03125 315.695312 281.261719 315.695312 C 279.488281 315.695312 278.058594 314.261719 278.058594 312.492188 C 278.058594 310.722656 279.488281 309.289062 281.261719 309.289062 C 283.03125 309.289062 284.464844 310.722656 284.464844 312.492188 "/>
<path style=" stroke:none;fill-rule:nonzero;fill:rgb(100%,100%,100%);fill-opacity:1;" d="M 86.941406 312.492188 C 86.941406 314.261719 85.507812 315.691406 83.738281 315.691406 C 81.96875 315.691406 80.535156 314.261719 80.535156 312.492188 C 80.535156 310.722656 81.96875 309.285156 83.738281 309.285156 C 85.507812 309.285156 86.941406 310.722656 86.941406 312.492188 "/>
<path style=" stroke:none;fill-rule:nonzero;fill:rgb(100%,100%,100%);fill-opacity:1;" d="M 105.914062 269.726562 L 157.070312 278.855469 L 151.589844 285.25 L 201.832031 289.628906 L 196.800781 293.742188 L 246.378906 295.917969 L 180.820312 302.417969 L 189.042969 295.113281 L 136.976562 289.816406 L 145.652344 283.425781 L 105.914062 269.726562 "/>
<path style=" stroke:none;fill-rule:nonzero;fill:rgb(100%,100%,100%);fill-opacity:1;" d="M 100.019531 314.203125 L 104.519531 316.84375 C 104.535156 315.984375 104.644531 315.160156 104.851562 314.367188 C 105.058594 313.582031 105.363281 312.84375 105.765625 312.152344 C 106.394531 311.074219 107.355469 310.414062 108.644531 310.160156 C 109.9375 309.90625 111.183594 310.128906 112.390625 310.839844 C 113.875 311.707031 115.101562 313.273438 116.070312 315.535156 C 117.042969 317.792969 117.652344 320.484375 117.898438 323.605469 L 116.972656 323.714844 C 116.777344 321.433594 116.210938 319.402344 115.273438 317.621094 C 114.335938 315.84375 113.113281 314.515625 111.605469 313.632812 C 110.765625 313.140625 109.824219 313.09375 108.78125 313.488281 C 107.734375 313.886719 106.898438 314.628906 106.269531 315.699219 C 105.816406 316.472656 105.554688 317.039062 105.480469 317.410156 L 107.253906 318.445312 L 107.578125 321.222656 L 105.15625 319.800781 L 96.84375 333.964844 L 95.222656 330.855469 L 102.59375 318.292969 L 100.324219 316.964844 L 100.019531 314.203125 "/>
<path style=" stroke:none;fill-rule:nonzero;fill:rgb(100%,100%,100%);fill-opacity:1;" d="M 112.324219 339.878906 L 114.921875 334.511719 C 114.734375 334.558594 114.472656 334.539062 114.132812 334.4375 C 113.796875 334.34375 113.390625 334.183594 112.921875 333.957031 C 112.210938 333.609375 111.589844 333.054688 111.0625 332.289062 C 110.539062 331.523438 110.144531 330.621094 109.878906 329.582031 C 109.25 330.1875 108.570312 330.644531 107.835938 330.953125 C 107.101562 331.261719 106.394531 331.375 105.714844 331.292969 C 106.171875 333.886719 107.179688 336.515625 108.738281 339.175781 L 106.917969 339.949219 C 104.253906 332.308594 103.304688 327.707031 104.0625 326.140625 C 104.269531 325.710938 104.558594 325.414062 104.9375 325.238281 C 105.3125 325.0625 105.65625 325.046875 105.972656 325.203125 C 106.328125 325.378906 106.605469 325.671875 106.796875 326.097656 C 106.996094 326.523438 107.089844 327.027344 107.085938 327.605469 C 107.722656 327.609375 108.304688 327.441406 108.84375 327.105469 C 109.378906 326.769531 109.789062 326.308594 110.074219 325.726562 C 110.324219 325.210938 110.496094 324.710938 110.589844 324.230469 C 110.6875 323.746094 110.699219 323.296875 110.625 322.871094 L 105.640625 320.460938 L 105.101562 317.714844 L 123.339844 326.550781 L 123.875 329.296875 L 121.355469 328.070312 L 114.191406 342.855469 L 112.324219 339.882812 M 111.734375 325.964844 C 111.515625 326.847656 111.171875 327.769531 110.703125 328.734375 C 111.007812 329.410156 111.363281 329.988281 111.761719 330.476562 C 112.160156 330.957031 112.59375 331.3125 113.058594 331.539062 C 113.550781 331.777344 114.089844 331.890625 114.671875 331.882812 C 115.25 331.871094 115.824219 331.738281 116.390625 331.488281 L 118.675781 326.777344 L 111.976562 323.523438 C 112.03125 324.273438 111.949219 325.085938 111.734375 325.964844 "/>
<path style=" stroke:none;fill-rule:nonzero;fill:rgb(100%,100%,100%);fill-opacity:1;" d="M 121.402344 325.570312 L 126.300781 327.480469 C 126.171875 326.636719 126.148438 325.804688 126.222656 324.996094 C 126.296875 324.191406 126.472656 323.414062 126.761719 322.675781 C 127.214844 321.523438 128.054688 320.71875 129.285156 320.265625 C 130.515625 319.820312 131.78125 319.84375 133.082031 320.355469 C 134.683594 320.980469 136.140625 322.324219 137.457031 324.394531 C 138.773438 326.464844 139.804688 329.011719 140.542969 332.042969 L 139.648438 332.292969 C 139.09375 330.082031 138.21875 328.171875 137.011719 326.570312 C 135.808594 324.972656 134.394531 323.855469 132.773438 323.222656 C 131.867188 322.871094 130.9375 322.96875 129.972656 323.527344 C 129.007812 324.082031 128.300781 324.9375 127.851562 326.089844 C 127.523438 326.921875 127.359375 327.523438 127.339844 327.890625 L 129.238281 328.628906 L 129.988281 331.339844 L 127.375 330.320312 L 121.402344 345.625 L 119.3125 342.804688 L 124.605469 329.242188 L 122.144531 328.28125 L 121.402344 325.570312 "/>
<path style=" stroke:none;fill-rule:nonzero;fill:rgb(100%,100%,100%);fill-opacity:1;" d="M 146.554688 334.15625 L 147.511719 336.792969 L 144.304688 335.832031 L 142.808594 340.816406 L 135.847656 338.726562 C 135.300781 338.5625 134.773438 338.632812 134.269531 338.933594 C 133.761719 339.234375 133.421875 339.6875 133.242188 340.277344 C 133.046875 340.921875 133.164062 341.554688 133.585938 342.175781 C 134.007812 342.800781 134.613281 343.226562 135.398438 343.460938 L 137.589844 343.925781 C 137.558594 343.761719 137.546875 343.601562 137.539062 343.441406 C 137.535156 343.285156 137.550781 343.148438 137.585938 343.03125 C 137.722656 342.574219 138.054688 342.25 138.582031 342.046875 C 139.113281 341.835938 139.683594 341.828125 140.304688 342.011719 C 140.949219 342.207031 141.421875 342.613281 141.726562 343.238281 C 142.03125 343.867188 142.082031 344.519531 141.871094 345.214844 C 141.738281 345.667969 141.449219 346.042969 141.011719 346.339844 C 140.566406 346.636719 140.046875 346.796875 139.4375 346.824219 L 142.253906 352.332031 L 140.507812 352.976562 L 139.027344 348.839844 C 138.136719 349.558594 137.167969 350.023438 136.121094 350.257812 C 135.074219 350.488281 134.089844 350.460938 133.15625 350.183594 C 132.015625 349.839844 130.984375 349.113281 130.066406 348.011719 C 129.140625 346.90625 128.789062 345.984375 129.011719 345.246094 C 129.089844 344.984375 129.195312 344.746094 129.328125 344.527344 C 129.457031 344.304688 129.613281 344.109375 129.789062 343.921875 C 128.605469 343.46875 127.699219 342.785156 127.074219 341.882812 C 126.449219 340.980469 126.265625 340.097656 126.527344 339.238281 C 126.617188 338.929688 126.863281 338.578125 127.25 338.1875 C 127.640625 337.796875 128.144531 337.394531 128.761719 336.984375 L 130.625 339.882812 C 130.203125 340.070312 129.851562 340.273438 129.574219 340.503906 C 129.296875 340.730469 129.128906 340.953125 129.0625 341.167969 C 128.960938 341.5 129.050781 341.847656 129.320312 342.195312 C 129.585938 342.554688 129.976562 342.804688 130.476562 342.957031 L 132.242188 342.320312 C 131.808594 341.667969 131.535156 340.964844 131.417969 340.21875 C 131.304688 339.46875 131.351562 338.734375 131.5625 338.019531 C 131.816406 337.183594 132.433594 336.589844 133.40625 336.230469 C 134.386719 335.875 135.449219 335.867188 136.589844 336.210938 L 140.699219 337.445312 L 141.445312 334.96875 L 127.96875 330.917969 L 127.007812 328.277344 L 146.550781 334.152344 M 131.105469 347.601562 C 131.304688 347.9375 131.605469 348.164062 132.003906 348.285156 C 132.816406 348.523438 133.675781 348.484375 134.585938 348.164062 C 135.496094 347.84375 136.308594 347.285156 137.015625 346.488281 C 135.371094 345.992188 134.296875 345.476562 133.785156 344.933594 C 133.097656 344.910156 132.488281 345.054688 131.96875 345.363281 C 131.453125 345.671875 131.117188 346.085938 130.957031 346.605469 C 130.859375 346.9375 130.902344 347.273438 131.105469 347.601562 "/>
<path style=" stroke:none;fill-rule:nonzero;fill:rgb(100%,100%,100%);fill-opacity:1;" d="M 154 335.5 L 162.984375 337.132812 L 164.230469 339.648438 L 161.480469 339.148438 L 158.550781 355.300781 L 155.941406 352.925781 L 156.808594 348.148438 L 151.503906 347.183594 L 151.171875 349.023438 C 151.09375 349.4375 150.917969 349.765625 150.652344 350.007812 C 150.378906 350.25 150.101562 350.339844 149.800781 350.289062 C 148.925781 350.132812 148.042969 349.363281 147.171875 347.992188 C 146.296875 346.617188 145.945312 345.457031 146.117188 344.503906 C 146.164062 344.257812 146.324219 344.070312 146.617188 343.933594 C 146.90625 343.796875 147.21875 343.757812 147.5625 343.820312 L 149.023438 344.089844 L 149.65625 340.605469 C 148.269531 339.941406 147.199219 339.054688 146.460938 337.9375 C 145.722656 336.8125 145.457031 335.695312 145.664062 334.566406 C 145.789062 333.855469 146.191406 333.304688 146.851562 332.902344 C 147.515625 332.507812 148.253906 332.378906 149.058594 332.527344 C 150.15625 332.722656 151.148438 333.519531 152.03125 334.90625 C 152.910156 336.292969 153.246094 337.570312 153.035156 338.746094 L 151.96875 344.617188 L 157.273438 345.582031 L 158.539062 338.613281 L 155.0625 337.984375 L 154 335.5 M 148.113281 337.988281 C 148.550781 338.535156 149.15625 338.917969 149.925781 339.132812 L 150.488281 336.011719 C 150.550781 335.671875 150.53125 335.355469 150.433594 335.070312 C 150.335938 334.789062 150.1875 334.628906 149.988281 334.59375 C 149.433594 334.492188 148.921875 334.605469 148.460938 334.925781 C 148 335.246094 147.71875 335.6875 147.613281 336.246094 C 147.503906 336.863281 147.671875 337.441406 148.113281 337.988281 "/>
<path style=" stroke:none;fill-rule:nonzero;fill:rgb(100%,100%,100%);fill-opacity:1;" d="M 158.550781 327.960938 C 159.324219 327.390625 160.191406 327.164062 161.152344 327.285156 C 162.136719 327.410156 163.015625 327.785156 163.785156 328.417969 C 164.558594 329.054688 165.097656 329.859375 165.402344 330.820312 L 164.78125 331.304688 C 164.484375 330.84375 164.140625 330.476562 163.75 330.195312 C 163.363281 329.921875 162.957031 329.761719 162.539062 329.707031 C 161.683594 329.601562 160.902344 329.820312 160.214844 330.359375 C 159.519531 330.90625 159.121094 331.605469 159.011719 332.46875 C 158.953125 332.941406 159.035156 333.46875 159.246094 334.046875 C 159.460938 334.625 159.808594 335.222656 160.277344 335.832031 L 159.464844 336.335938 C 158.628906 335.429688 158.011719 334.433594 157.621094 333.355469 C 157.226562 332.28125 157.097656 331.21875 157.226562 330.183594 C 157.339844 329.269531 157.78125 328.53125 158.550781 327.960938 "/>
<path style=" stroke:none;fill-rule:nonzero;fill:rgb(100%,100%,100%);fill-opacity:1;" d="M 178.242188 338.253906 L 179.746094 340.621094 L 176.957031 340.414062 L 175.734375 356.800781 L 172.898438 354.710938 L 173.179688 350.976562 C 172.414062 351.519531 171.636719 351.925781 170.839844 352.191406 C 170.050781 352.460938 169.292969 352.566406 168.574219 352.511719 C 167.1875 352.410156 165.835938 351.660156 164.519531 350.265625 C 163.199219 348.867188 162.589844 347.539062 162.683594 346.273438 C 162.761719 345.207031 163.28125 344.320312 164.242188 343.621094 C 165.207031 342.914062 166.335938 342.617188 167.621094 342.710938 C 168.765625 342.792969 169.855469 343.191406 170.898438 343.890625 C 171.941406 344.59375 172.808594 345.527344 173.496094 346.703125 L 173.980469 340.191406 L 162.042969 339.304688 L 160.535156 336.9375 L 178.242188 338.253906 M 165.589844 349.4375 C 166.03125 349.867188 166.585938 350.105469 167.257812 350.15625 C 168.171875 350.230469 169.164062 350.078125 170.226562 349.707031 C 171.289062 349.335938 172.34375 348.769531 173.398438 348 C 172.8125 347.1875 172.160156 346.539062 171.449219 346.0625 C 170.734375 345.585938 170.023438 345.320312 169.300781 345.265625 C 168.164062 345.183594 167.175781 345.402344 166.339844 345.925781 C 165.5 346.449219 165.050781 347.117188 164.992188 347.9375 C 164.949219 348.507812 165.148438 349.003906 165.589844 349.4375 "/>
<path style=" stroke:none;fill-rule:nonzero;fill:rgb(100%,100%,100%);fill-opacity:1;" d="M 176.441406 338.078125 L 181.6875 338.160156 C 181.273438 337.410156 180.960938 336.640625 180.75 335.855469 C 180.539062 335.070312 180.4375 334.28125 180.453125 333.484375 C 180.472656 332.242188 180.980469 331.195312 181.976562 330.34375 C 182.972656 329.492188 184.171875 329.074219 185.566406 329.097656 C 187.289062 329.128906 189.121094 329.878906 191.078125 331.363281 C 193.03125 332.851562 194.886719 334.886719 196.640625 337.472656 L 195.882812 338.019531 C 194.59375 336.140625 193.101562 334.65625 191.417969 333.570312 C 189.726562 332.488281 188.019531 331.9375 186.269531 331.902344 C 185.300781 331.894531 184.460938 332.3125 183.746094 333.167969 C 183.035156 334.03125 182.667969 335.074219 182.648438 336.316406 C 182.632812 337.210938 182.683594 337.832031 182.804688 338.179688 L 184.847656 338.214844 L 186.496094 340.488281 L 183.691406 340.4375 L 183.425781 356.855469 L 180.480469 354.9375 L 180.71875 340.390625 L 178.074219 340.351562 L 176.441406 338.078125 "/>
<path style=" stroke:none;fill-rule:nonzero;fill:rgb(100%,100%,100%);fill-opacity:1;" d="M 200.089844 337.34375 L 201.917969 339.476562 L 199.125 339.664062 L 200.21875 356.050781 L 197.121094 354.378906 L 196.574219 346.1875 L 190.800781 346.570312 C 190.273438 346.605469 189.851562 346.875 189.523438 347.367188 C 189.195312 347.867188 189.050781 348.445312 189.097656 349.117188 C 189.164062 350.136719 189.5625 351.179688 190.28125 352.238281 C 190.996094 353.296875 191.988281 354.289062 193.242188 355.203125 L 192.1875 356.207031 C 190.339844 354.585938 188.890625 353.050781 187.855469 351.601562 C 186.824219 350.144531 186.269531 348.882812 186.199219 347.820312 C 186.132812 346.75 186.398438 345.8125 187.007812 344.996094 C 187.609375 344.183594 188.375 343.746094 189.292969 343.6875 L 196.378906 343.214844 L 196.152344 339.859375 L 184.410156 340.644531 L 182.589844 338.511719 L 200.089844 337.34375 "/>
<path style=" stroke:none;fill-rule:nonzero;fill:rgb(100%,100%,100%);fill-opacity:1;" d="M 225.222656 332.664062 L 227.3125 334.515625 L 218.542969 336.304688 L 219.546875 341.246094 C 219.808594 340.757812 220.152344 340.351562 220.585938 340.027344 C 221.015625 339.710938 221.5 339.492188 222.039062 339.386719 C 223.039062 339.179688 224.207031 339.710938 225.539062 340.980469 C 226.867188 342.246094 227.679688 343.601562 227.96875 345.039062 C 228.105469 345.699219 228.105469 346.433594 227.976562 347.25 C 227.847656 348.066406 227.597656 348.90625 227.210938 349.769531 L 224.371094 348.058594 C 224.945312 347.207031 225.335938 346.382812 225.570312 345.570312 C 225.800781 344.765625 225.855469 344.042969 225.722656 343.40625 C 225.597656 342.800781 225.296875 342.324219 224.816406 341.972656 C 224.339844 341.628906 223.816406 341.511719 223.253906 341.625 C 222.738281 341.730469 222.214844 342.035156 221.679688 342.539062 C 221.144531 343.039062 220.660156 343.703125 220.214844 344.53125 L 221.8125 352.394531 L 218.523438 351.152344 L 217.710938 347.132812 C 217.378906 347.632812 216.964844 348.042969 216.472656 348.371094 C 215.976562 348.699219 215.445312 348.921875 214.859375 349.042969 C 213.761719 349.265625 212.53125 348.859375 211.179688 347.808594 C 209.824219 346.765625 209.023438 345.621094 208.769531 344.378906 C 208.59375 343.527344 208.808594 342.722656 209.398438 341.964844 C 210 341.210938 210.789062 340.734375 211.796875 340.527344 C 212.574219 340.367188 213.398438 340.457031 214.261719 340.785156 C 215.136719 341.121094 215.957031 341.65625 216.742188 342.390625 L 215.621094 336.894531 L 206.445312 338.765625 L 204.351562 336.910156 L 225.21875 332.664062 M 211.738281 346.847656 C 212.160156 347.132812 212.628906 347.21875 213.144531 347.113281 C 213.898438 346.960938 214.613281 346.601562 215.296875 346.027344 C 215.980469 345.457031 216.5625 344.730469 217.039062 343.84375 C 216.609375 343.351562 216.113281 342.992188 215.546875 342.765625 C 214.980469 342.539062 214.445312 342.476562 213.933594 342.585938 C 212.980469 342.777344 212.210938 343.167969 211.625 343.773438 C 211.035156 344.375 210.808594 345 210.941406 345.65625 C 211.046875 346.171875 211.308594 346.566406 211.738281 346.847656 "/>
<path style=" stroke:none;fill-rule:nonzero;fill:rgb(100%,100%,100%);fill-opacity:1;" d="M 224.132812 351.785156 L 224.164062 351.78125 L 224.179688 351.816406 L 224.144531 351.820312 L 224.132812 351.785156 "/>
<path style=" stroke:none;fill-rule:nonzero;fill:rgb(100%,100%,100%);fill-opacity:1;" d="M 239.460938 327.503906 L 241.777344 329.089844 L 239.136719 329.988281 L 244.453125 345.527344 L 241.023438 344.730469 L 239.574219 340.488281 L 234.265625 342.308594 L 234.867188 344.074219 C 235.007812 344.472656 235.019531 344.84375 234.894531 345.191406 C 234.777344 345.53125 234.574219 345.75 234.296875 345.847656 C 233.398438 346.15625 232.203125 345.902344 230.722656 345.097656 C 229.230469 344.289062 228.328125 343.417969 228.007812 342.476562 C 227.910156 342.195312 227.949219 341.902344 228.125 341.605469 C 228.296875 341.308594 228.550781 341.105469 228.882812 340.992188 L 230.46875 340.449219 L 228.175781 333.742188 L 224.464844 335.015625 L 222.144531 333.429688 L 239.460938 327.503906 M 233.296875 339.480469 L 238.609375 337.660156 L 236.3125 330.957031 L 231 332.773438 L 233.296875 339.480469 "/>
<path style=" stroke:none;fill-rule:nonzero;fill:rgb(100%,100%,100%);fill-opacity:1;" d="M 231.175781 321.65625 C 231.574219 320.789062 232.226562 320.171875 233.128906 319.808594 C 234.050781 319.441406 235.007812 319.34375 235.992188 319.523438 C 236.972656 319.703125 237.832031 320.140625 238.566406 320.835938 L 238.257812 321.566406 C 237.777344 321.300781 237.296875 321.144531 236.824219 321.09375 C 236.34375 321.042969 235.90625 321.097656 235.515625 321.257812 C 234.703125 321.582031 234.128906 322.148438 233.777344 322.957031 C 233.433594 323.773438 233.421875 324.582031 233.742188 325.390625 C 233.925781 325.828125 234.246094 326.25 234.71875 326.652344 C 235.183594 327.054688 235.777344 327.40625 236.492188 327.710938 L 236.019531 328.542969 C 234.847656 328.15625 233.832031 327.585938 232.964844 326.832031 C 232.105469 326.078125 231.476562 325.222656 231.085938 324.25 C 230.746094 323.394531 230.773438 322.53125 231.171875 321.65625 "/>
<path style=" stroke:none;fill-rule:nonzero;fill:rgb(100%,100%,100%);fill-opacity:1;" d="M 256.164062 319.78125 L 258.632812 321.074219 L 256.113281 322.265625 L 263.125 337.101562 L 259.621094 336.707031 L 256.269531 329.605469 L 251.539062 331.84375 C 252.582031 332.125 253.492188 332.546875 254.273438 333.117188 C 255.050781 333.691406 255.625 334.359375 255.988281 335.121094 C 256.378906 335.957031 256.402344 336.816406 256.054688 337.714844 C 255.699219 338.605469 255.085938 339.261719 254.210938 339.675781 C 252.742188 340.367188 250.914062 340.1875 248.730469 339.144531 C 246.539062 338.097656 244.445312 336.402344 242.464844 334.0625 L 243.3125 333.246094 C 244.71875 334.898438 246.214844 336.085938 247.78125 336.808594 C 249.351562 337.527344 250.675781 337.636719 251.761719 337.125 C 252.230469 336.898438 252.546875 336.53125 252.703125 336.015625 C 252.859375 335.496094 252.8125 334.980469 252.570312 334.460938 C 252.195312 333.671875 251.449219 332.976562 250.320312 332.371094 C 249.195312 331.769531 247.824219 331.332031 246.203125 331.042969 L 254.988281 326.894531 L 253.402344 323.542969 L 239.585938 330.074219 L 237.113281 328.777344 L 256.164062 319.78125 "/>
<path style=" stroke:none;fill-rule:nonzero;fill:rgb(100%,100%,100%);fill-opacity:1;" d="M 261.410156 316.464844 L 263.992188 317.578125 L 261.574219 318.972656 L 269.777344 333.199219 L 266.25 333.078125 L 258.980469 320.46875 L 256.675781 321.792969 L 254.09375 320.683594 L 261.410156 316.464844 "/>
<path style=" stroke:none;fill-rule:nonzero;fill:rgb(100%,100%,100%);fill-opacity:1;" d="M 211.1875 187.144531 C 206.601562 197.15625 200.203125 205.996094 193.589844 214.800781 C 204.84375 217.742188 219.109375 219.652344 230.835938 218.835938 C 243.484375 217.960938 256.308594 216.441406 268.621094 213.292969 C 271.496094 212.554688 282.511719 210.148438 282.511719 205.421875 C 282.511719 198.296875 252.953125 189.898438 211.1875 187.144531 M 82.488281 205.515625 C 82.488281 210.242188 93.5 212.648438 96.378906 213.382812 C 108.691406 216.535156 121.515625 218.054688 134.164062 218.929688 C 145.890625 219.746094 160.152344 217.835938 171.410156 214.894531 C 164.796875 206.089844 158.398438 197.246094 153.8125 187.238281 C 112.046875 189.992188 82.488281 198.386719 82.488281 205.515625 "/>
<path style=" stroke:none;fill-rule:nonzero;fill:rgb(11.813354%,9.735107%,9.002686%);fill-opacity:1;" d="M 211.1875 187.144531 L 210.769531 186.957031 C 206.210938 196.910156 199.835938 205.726562 193.222656 214.527344 L 192.816406 215.070312 L 193.472656 215.242188 C 202.996094 217.730469 214.644531 219.480469 225.132812 219.480469 C 227.089844 219.480469 229.007812 219.421875 230.863281 219.289062 C 243.53125 218.414062 256.382812 216.894531 268.734375 213.734375 C 270.160156 213.367188 273.660156 212.578125 276.816406 211.273438 C 278.398438 210.621094 279.902344 209.839844 281.035156 208.890625 C 282.167969 207.949219 282.964844 206.792969 282.964844 205.421875 C 282.964844 204.367188 282.421875 203.351562 281.484375 202.386719 C 279.839844 200.695312 276.933594 199.066406 272.902344 197.480469 C 260.832031 192.734375 238.660156 188.503906 211.214844 186.691406 L 210.902344 186.671875 L 210.769531 186.957031 L 211.1875 187.144531 L 211.15625 187.601562 C 232.015625 188.976562 249.824219 191.761719 262.394531 195.085938 C 268.679688 196.746094 273.652344 198.542969 277.023438 200.347656 C 278.710938 201.25 279.992188 202.15625 280.832031 203.019531 C 281.675781 203.890625 282.054688 204.695312 282.054688 205.421875 C 282.054688 206.414062 281.476562 207.332031 280.453125 208.191406 C 278.921875 209.476562 276.46875 210.523438 274.136719 211.289062 C 271.800781 212.0625 269.597656 212.570312 268.507812 212.851562 C 256.238281 215.992188 243.4375 217.507812 230.800781 218.382812 C 228.96875 218.507812 227.070312 218.570312 225.132812 218.570312 C 214.746094 218.570312 203.152344 216.828125 193.703125 214.359375 L 193.589844 214.800781 L 193.953125 215.074219 C 200.570312 206.265625 206.988281 197.398438 211.601562 187.335938 L 211.1875 187.144531 L 211.15625 187.601562 Z M 82.488281 205.515625 L 82.035156 205.515625 C 82.035156 206.886719 82.832031 208.042969 83.960938 208.984375 C 85.667969 210.40625 88.195312 211.460938 90.578125 212.25 C 92.957031 213.039062 95.199219 213.554688 96.265625 213.824219 C 108.617188 216.988281 121.46875 218.507812 134.132812 219.386719 C 135.992188 219.515625 137.910156 219.574219 139.867188 219.574219 C 150.355469 219.574219 162.003906 217.824219 171.527344 215.335938 L 172.183594 215.164062 L 171.777344 214.621094 C 165.164062 205.820312 158.789062 197.003906 154.230469 187.050781 L 154.097656 186.761719 L 153.785156 186.785156 C 132.875 188.160156 115.023438 190.949219 102.371094 194.296875 C 96.046875 195.96875 91.019531 197.777344 87.546875 199.636719 C 85.808594 200.566406 84.453125 201.511719 83.515625 202.480469 C 82.578125 203.441406 82.035156 204.460938 82.035156 205.515625 L 82.945312 205.515625 C 82.945312 204.789062 83.324219 203.984375 84.167969 203.113281 C 85.636719 201.59375 88.464844 199.976562 92.429688 198.421875 C 104.335938 193.738281 126.46875 189.496094 153.84375 187.695312 L 153.8125 187.238281 L 153.398438 187.429688 C 158.011719 197.492188 164.429688 206.359375 171.046875 215.171875 L 171.410156 214.894531 L 171.296875 214.453125 C 161.847656 216.921875 150.253906 218.664062 139.867188 218.660156 C 137.929688 218.660156 136.03125 218.601562 134.199219 218.472656 C 121.5625 217.597656 108.765625 216.085938 96.492188 212.941406 C 95.042969 212.570312 91.597656 211.789062 88.53125 210.523438 C 87 209.894531 85.566406 209.140625 84.546875 208.285156 C 83.523438 207.425781 82.945312 206.507812 82.945312 205.515625 L 82.488281 205.515625 "/>
<path style=" stroke:none;fill-rule:nonzero;fill:rgb(100%,100%,100%);fill-opacity:1;" d="M 171.425781 214.851562 C 164.859375 206.09375 158.507812 197.132812 153.945312 187.160156 C 153.597656 186.394531 153.230469 185.632812 152.902344 184.855469 C 150.609375 179.402344 148.765625 173.820312 147.699219 168.414062 C 142.890625 144.128906 150.554688 119.480469 163.988281 99.296875 C 171.835938 87.503906 180.199219 75.496094 182.335938 61.160156 L 182.796875 61.160156 C 184.929688 75.496094 193.292969 87.503906 201.136719 99.296875 C 214.570312 119.480469 222.238281 144.128906 217.433594 168.414062 C 216.359375 173.820312 214.519531 179.402344 212.222656 184.855469 C 211.898438 185.628906 211.53125 186.382812 211.1875 187.144531 C 206.601562 197.15625 200.203125 205.996094 193.589844 214.800781 C 189.460938 213.726562 185.722656 212.511719 182.683594 211.238281 C 179.636719 212.515625 175.894531 213.726562 171.753906 214.808594 L 171.425781 214.847656 "/>
<path style=" stroke:none;fill-rule:nonzero;fill:rgb(11.813354%,9.735107%,9.002686%);fill-opacity:1;" d="M 171.425781 214.851562 L 171.789062 214.574219 C 165.226562 205.828125 158.898438 196.890625 154.359375 186.972656 C 154.007812 186.199219 153.644531 185.441406 153.324219 184.679688 C 151.039062 179.246094 149.207031 173.691406 148.148438 168.328125 C 147.171875 163.402344 146.714844 158.464844 146.714844 153.550781 C 146.710938 134.371094 153.714844 115.554688 164.367188 99.550781 C 172.210938 87.761719 180.625 75.699219 182.785156 61.226562 L 182.335938 61.160156 L 182.335938 61.617188 L 182.796875 61.617188 L 182.796875 61.160156 L 182.34375 61.226562 C 184.503906 75.699219 192.921875 87.761719 200.757812 99.550781 C 211.414062 115.558594 218.417969 134.378906 218.417969 153.558594 C 218.417969 158.46875 217.960938 163.40625 216.984375 168.328125 C 215.917969 173.691406 214.089844 179.246094 211.804688 184.679688 C 211.480469 185.4375 211.121094 186.1875 210.769531 186.957031 C 206.210938 196.910156 199.835938 205.726562 193.222656 214.527344 L 193.589844 214.800781 L 193.703125 214.359375 C 189.589844 213.289062 185.871094 212.078125 182.859375 210.816406 L 182.683594 210.742188 L 182.507812 210.816406 C 179.488281 212.082031 175.761719 213.289062 171.640625 214.363281 L 171.753906 214.808594 L 171.699219 214.355469 L 171.367188 214.394531 L 170.96875 214.445312 L 170.96875 214.851562 L 171.425781 214.851562 L 171.789062 214.574219 L 171.425781 214.851562 L 171.882812 214.851562 L 171.882812 214.847656 L 171.425781 214.847656 L 171.480469 215.300781 L 171.8125 215.261719 L 171.839844 215.257812 L 171.871094 215.25 C 176.023438 214.164062 179.785156 212.945312 182.859375 211.660156 L 182.683594 211.238281 L 182.507812 211.660156 C 185.574219 212.945312 189.328125 214.164062 193.472656 215.242188 L 193.769531 215.320312 L 193.953125 215.074219 C 200.570312 206.265625 206.988281 197.398438 211.601562 187.335938 C 211.945312 186.578125 212.3125 185.820312 212.644531 185.03125 C 214.949219 179.558594 216.796875 173.949219 217.878906 168.503906 C 218.867188 163.523438 219.328125 158.527344 219.328125 153.558594 C 219.328125 134.152344 212.25 115.171875 201.519531 99.042969 C 193.664062 87.242188 185.355469 75.289062 183.246094 61.09375 L 183.1875 60.703125 L 181.941406 60.703125 L 181.882812 61.09375 C 179.773438 75.289062 171.464844 87.242188 163.609375 99.042969 C 152.875 115.171875 145.800781 134.144531 145.800781 153.550781 C 145.800781 158.519531 146.265625 163.519531 147.253906 168.503906 C 148.328125 173.949219 150.179688 179.558594 152.480469 185.03125 C 152.816406 185.824219 153.183594 186.589844 153.527344 187.351562 C 158.113281 197.375 164.488281 206.359375 171.058594 215.125 L 171.882812 216.21875 L 171.882812 214.851562 L 171.425781 214.851562 "/>
<path style=" stroke:none;fill-rule:nonzero;fill:rgb(45.66803%,10.848999%,11.250305%);fill-opacity:1;" d="M 171.410156 214.894531 C 160.152344 217.835938 145.890625 219.746094 134.164062 218.929688 C 121.515625 218.054688 108.691406 216.535156 96.378906 213.382812 C 93.773438 212.71875 84.511719 210.683594 82.773438 206.800781 C 92.324219 241.828125 133.347656 268.164062 182.523438 268.164062 C 231.691406 268.164062 272.722656 241.828125 282.265625 206.804688 L 282.175781 206.804688 C 280.328125 210.625 271.203125 212.632812 268.621094 213.292969 C 256.308594 216.441406 243.484375 217.960938 230.835938 218.835938 C 219.109375 219.652344 204.84375 217.742188 193.589844 214.800781 C 189.460938 213.726562 185.722656 212.511719 182.683594 211.238281 C 179.636719 212.515625 175.890625 213.726562 171.753906 214.808594 L 171.425781 214.847656 L 171.410156 214.894531 "/>
<path style=" stroke:none;fill-rule:nonzero;fill:rgb(11.813354%,9.735107%,9.002686%);fill-opacity:1;" d="M 171.296875 214.453125 C 161.847656 216.921875 150.253906 218.664062 139.867188 218.660156 C 137.929688 218.660156 136.03125 218.601562 134.199219 218.472656 C 121.5625 217.597656 108.765625 216.085938 96.492188 212.941406 C 95.179688 212.605469 92.234375 211.9375 89.414062 210.871094 C 88.003906 210.339844 86.628906 209.710938 85.515625 208.992188 C 84.402344 208.273438 83.566406 207.460938 83.191406 206.613281 L 83.070312 206.34375 L 82.175781 206.34375 L 82.332031 206.921875 C 91.976562 242.21875 133.195312 268.617188 182.523438 268.621094 C 231.847656 268.617188 273.070312 242.21875 282.707031 206.925781 L 282.863281 206.347656 L 281.890625 206.347656 L 281.765625 206.605469 C 281.363281 207.441406 280.515625 208.242188 279.398438 208.949219 C 277.722656 210.019531 275.480469 210.878906 273.421875 211.519531 C 271.359375 212.164062 269.484375 212.601562 268.507812 212.851562 C 256.238281 215.992188 243.4375 217.507812 230.800781 218.382812 C 228.96875 218.507812 227.070312 218.570312 225.132812 218.570312 C 214.746094 218.570312 203.152344 216.828125 193.703125 214.359375 C 189.589844 213.289062 185.871094 212.078125 182.859375 210.816406 L 182.683594 210.742188 L 182.507812 210.816406 C 179.488281 212.082031 175.761719 213.289062 171.640625 214.363281 L 171.753906 214.808594 L 171.699219 214.355469 L 171.367188 214.394531 L 171.480469 215.300781 L 171.8125 215.261719 L 171.839844 215.257812 L 171.871094 215.25 C 176.023438 214.164062 179.785156 212.945312 182.859375 211.660156 L 182.683594 211.238281 L 182.507812 211.660156 C 185.574219 212.945312 189.328125 214.164062 193.472656 215.242188 C 202.996094 217.730469 214.644531 219.480469 225.132812 219.480469 C 227.089844 219.480469 229.007812 219.421875 230.863281 219.289062 C 243.53125 218.414062 256.382812 216.894531 268.734375 213.734375 C 270.015625 213.40625 272.964844 212.734375 275.835938 211.660156 C 277.269531 211.121094 278.691406 210.480469 279.886719 209.722656 C 281.082031 208.960938 282.0625 208.078125 282.585938 207.003906 L 282.175781 206.804688 L 282.175781 207.261719 L 282.265625 207.261719 L 282.265625 206.804688 L 281.824219 206.683594 C 272.371094 241.4375 231.539062 267.714844 182.523438 267.710938 C 133.5 267.714844 92.671875 241.4375 83.214844 206.679688 L 82.773438 206.800781 L 82.773438 207.257812 L 82.773438 206.800781 L 82.359375 206.988281 C 82.851562 208.085938 83.828125 208.980469 85.019531 209.757812 C 86.8125 210.917969 89.128906 211.800781 91.253906 212.46875 C 93.371094 213.132812 95.300781 213.578125 96.265625 213.824219 C 108.617188 216.988281 121.46875 218.507812 134.132812 219.386719 C 135.992188 219.515625 137.910156 219.574219 139.867188 219.574219 C 150.355469 219.574219 162.003906 217.824219 171.527344 215.335938 L 171.296875 214.453125 "/>
<path style=" stroke:none;fill-rule:nonzero;fill:rgb(71.427917%,63.188171%,18.72406%);fill-opacity:1;" d="M 184.328125 185.484375 C 183.542969 186.285156 182.839844 187.171875 182.8125 187.894531 L 182.714844 187.894531 C 182.6875 187.132812 181.90625 186.191406 181.070312 185.359375 L 181.070312 211.507812 L 182.015625 211.507812 C 182.238281 211.417969 182.46875 211.328125 182.683594 211.238281 C 182.898438 211.328125 183.125 211.417969 183.347656 211.507812 L 184.328125 211.507812 L 184.328125 185.484375 "/>
<path style=" stroke:none;fill-rule:nonzero;fill:rgb(11.813354%,9.735107%,9.002686%);fill-opacity:1;" d="M 184.328125 185.484375 L 184.003906 185.164062 C 183.597656 185.578125 183.210938 186.015625 182.90625 186.464844 C 182.609375 186.914062 182.382812 187.375 182.359375 187.878906 L 182.8125 187.894531 L 182.8125 187.4375 L 182.714844 187.4375 L 182.714844 187.894531 L 183.171875 187.878906 C 183.148438 187.347656 182.894531 186.863281 182.570312 186.390625 C 182.242188 185.921875 181.820312 185.460938 181.390625 185.035156 L 180.613281 184.257812 L 180.613281 211.964844 L 182.105469 211.964844 L 182.1875 211.933594 C 182.40625 211.84375 182.636719 211.753906 182.859375 211.660156 L 182.683594 211.238281 L 182.503906 211.660156 C 182.726562 211.753906 182.957031 211.84375 183.175781 211.929688 L 183.257812 211.964844 L 184.785156 211.964844 L 184.785156 184.371094 L 184.003906 185.164062 L 184.328125 185.484375 L 183.871094 185.484375 L 183.871094 211.050781 L 183.347656 211.050781 L 183.347656 211.507812 L 183.519531 211.085938 C 183.292969 210.992188 183.066406 210.90625 182.859375 210.816406 L 182.683594 210.742188 L 182.507812 210.816406 C 182.296875 210.90625 182.070312 210.992188 181.84375 211.085938 L 182.015625 211.507812 L 182.015625 211.050781 L 181.527344 211.050781 L 181.527344 185.359375 L 181.070312 185.359375 L 180.746094 185.679688 C 181.15625 186.085938 181.542969 186.515625 181.820312 186.914062 C 182.101562 187.3125 182.257812 187.679688 182.257812 187.910156 L 182.273438 188.351562 L 183.253906 188.351562 L 183.269531 187.910156 C 183.273438 187.691406 183.410156 187.347656 183.664062 186.972656 C 183.917969 186.597656 184.273438 186.195312 184.652344 185.804688 L 184.328125 185.484375 L 183.871094 185.484375 L 184.328125 185.484375 "/>
<path style=" stroke:none;fill-rule:nonzero;fill:rgb(85.662842%,13.630676%,14.414978%);fill-opacity:1;" d="M 183.109375 166.753906 L 182.398438 166.753906 C 178.800781 166.753906 175.796875 169.34375 174.992188 172.976562 C 173.949219 177.679688 176.101562 180.6875 179.296875 183.71875 C 180.136719 184.515625 182.664062 186.515625 182.714844 187.894531 L 182.8125 187.894531 C 182.863281 186.515625 185.390625 184.515625 186.230469 183.71875 C 189.425781 180.6875 191.578125 177.679688 190.535156 172.976562 C 189.730469 169.34375 186.722656 166.753906 183.128906 166.753906 L 182.417969 166.753906 L 183.109375 166.753906 "/>
<path style=" stroke:none;fill-rule:nonzero;fill:rgb(11.813354%,9.735107%,9.002686%);fill-opacity:1;" d="M 183.109375 166.296875 L 182.398438 166.296875 C 178.574219 166.296875 175.390625 169.054688 174.546875 172.878906 C 174.359375 173.722656 174.269531 174.523438 174.269531 175.28125 C 174.269531 177.089844 174.78125 178.664062 175.628906 180.085938 C 176.476562 181.507812 177.648438 182.78125 178.980469 184.050781 C 179.425781 184.46875 180.25 185.152344 180.972656 185.902344 C 181.332031 186.277344 181.664062 186.664062 181.894531 187.019531 C 182.132812 187.378906 182.253906 187.703125 182.257812 187.910156 C 182.265625 188.15625 182.46875 188.351562 182.714844 188.351562 L 182.8125 188.351562 C 183.058594 188.351562 183.261719 188.15625 183.269531 187.910156 C 183.273438 187.703125 183.398438 187.378906 183.632812 187.019531 C 183.980469 186.484375 184.550781 185.886719 185.109375 185.355469 C 185.667969 184.824219 186.210938 184.367188 186.546875 184.050781 C 187.882812 182.78125 189.054688 181.507812 189.898438 180.085938 C 190.746094 178.664062 191.261719 177.085938 191.257812 175.277344 C 191.257812 174.523438 191.171875 173.722656 190.984375 172.878906 C 190.136719 169.054688 186.953125 166.296875 183.128906 166.296875 L 182.417969 166.296875 L 182.417969 167.210938 L 183.128906 167.210938 C 186.496094 167.210938 189.320312 169.628906 190.09375 173.078125 C 190.265625 173.863281 190.347656 174.59375 190.347656 175.277344 C 190.34375 176.914062 189.894531 178.304688 189.117188 179.617188 C 188.335938 180.925781 187.226562 182.148438 185.917969 183.390625 C 185.519531 183.765625 184.660156 184.476562 183.898438 185.269531 C 183.515625 185.671875 183.152344 186.089844 182.867188 186.523438 C 182.589844 186.953125 182.378906 187.394531 182.359375 187.878906 L 182.8125 187.894531 L 182.8125 187.4375 L 182.714844 187.4375 L 182.714844 187.894531 L 183.171875 187.878906 C 183.148438 187.398438 182.9375 186.953125 182.660156 186.523438 C 182.238281 185.878906 181.628906 185.246094 181.046875 184.695312 C 180.46875 184.144531 179.90625 183.671875 179.609375 183.386719 C 178.304688 182.148438 177.191406 180.925781 176.414062 179.617188 C 175.636719 178.308594 175.183594 176.914062 175.183594 175.28125 C 175.183594 174.59375 175.265625 173.863281 175.4375 173.078125 C 176.207031 169.628906 179.03125 167.210938 182.398438 167.210938 L 183.109375 167.210938 L 183.109375 166.296875 "/>
<path style=" stroke:none;fill-rule:nonzero;fill:rgb(85.662842%,13.630676%,14.414978%);fill-opacity:1;" d="M 174.992188 172.976562 C 175.53125 170.53125 177.082031 168.585938 179.125 167.558594 L 179.402344 167.121094 C 179.402344 167.121094 170.453125 159.871094 159.261719 168.578125 C 159.796875 168.332031 164.125 172.070312 164.699219 172.484375 C 167.667969 174.605469 170.804688 175.464844 174.496094 174.796875 L 174.792969 174.328125 C 174.839844 173.890625 174.886719 173.449219 174.992188 172.976562 "/>
<path style=" stroke:none;fill-rule:nonzero;fill:rgb(11.813354%,9.735107%,9.002686%);fill-opacity:1;" d="M 174.992188 172.976562 L 175.4375 173.078125 C 175.949219 170.761719 177.410156 168.933594 179.332031 167.964844 L 179.511719 167.800781 L 179.785156 167.367188 C 179.910156 167.171875 179.867188 166.914062 179.6875 166.769531 C 179.644531 166.738281 176.074219 163.839844 170.554688 163.835938 C 167.242188 163.832031 163.246094 164.894531 158.980469 168.214844 C 158.796875 168.359375 158.75 168.613281 158.871094 168.8125 C 158.988281 169.011719 159.238281 169.089844 159.449219 168.992188 L 159.320312 168.710938 L 159.320312 169.019531 L 159.449219 168.992188 L 159.320312 168.710938 L 159.320312 169.019531 L 159.320312 168.925781 L 159.300781 169.019531 L 159.320312 169.019531 L 159.320312 168.925781 L 159.300781 169.019531 C 159.324219 169.023438 159.46875 169.082031 159.644531 169.183594 C 160.265625 169.539062 161.359375 170.378906 162.332031 171.15625 C 162.816406 171.546875 163.277344 171.921875 163.648438 172.226562 C 164.019531 172.527344 164.289062 172.746094 164.4375 172.855469 C 166.796875 174.546875 169.308594 175.476562 172.101562 175.476562 C 172.902344 175.476562 173.726562 175.398438 174.578125 175.242188 C 174.703125 175.222656 174.8125 175.148438 174.882812 175.039062 L 175.179688 174.574219 L 175.246094 174.375 C 175.292969 173.941406 175.339844 173.515625 175.4375 173.078125 L 174.992188 172.976562 L 174.671875 173.300781 C 174.785156 173.417969 174.960938 173.464844 175.121094 173.417969 C 175.28125 173.371094 175.402344 173.238281 175.4375 173.078125 L 174.992188 172.976562 L 175.316406 172.65625 C 175.199219 172.539062 175.023438 172.492188 174.867188 172.539062 C 174.707031 172.585938 174.585938 172.714844 174.546875 172.878906 C 174.433594 173.378906 174.386719 173.84375 174.339844 174.28125 L 174.792969 174.328125 L 174.410156 174.082031 L 174.113281 174.550781 L 174.496094 174.796875 L 174.414062 174.347656 C 173.613281 174.492188 172.84375 174.5625 172.101562 174.5625 C 169.511719 174.558594 167.214844 173.71875 164.96875 172.109375 C 164.859375 172.035156 164.488281 171.730469 164.019531 171.347656 C 163.308594 170.769531 162.34375 169.980469 161.476562 169.335938 C 161.042969 169.011719 160.636719 168.71875 160.285156 168.503906 C 160.113281 168.394531 159.953125 168.308594 159.804688 168.238281 C 159.652344 168.171875 159.523438 168.113281 159.320312 168.109375 L 159.070312 168.160156 L 159.261719 168.578125 L 159.539062 168.9375 C 163.671875 165.730469 167.4375 164.75 170.554688 164.746094 C 173.148438 164.746094 175.296875 165.433594 176.796875 166.121094 C 177.542969 166.464844 178.128906 166.808594 178.523438 167.0625 C 178.722656 167.191406 178.871094 167.296875 178.972656 167.371094 L 179.113281 167.476562 L 179.402344 167.121094 L 179.015625 166.878906 L 178.742188 167.3125 L 179.125 167.558594 L 178.921875 167.148438 C 176.753906 168.242188 175.117188 170.304688 174.546875 172.878906 L 174.992188 172.976562 L 175.316406 172.65625 L 174.992188 172.976562 "/>
<path style=" stroke:none;fill-rule:nonzero;fill:rgb(85.662842%,13.630676%,14.414978%);fill-opacity:1;" d="M 185.585938 167.042969 L 185.695312 167.21875 C 188.089844 168.117188 189.933594 170.25 190.535156 172.976562 C 190.679688 173.636719 190.753906 174.253906 190.777344 174.851562 C 194.300781 175.386719 197.320312 174.527344 200.179688 172.484375 C 200.753906 172.070312 205.085938 168.332031 205.617188 168.578125 C 194.425781 159.871094 185.585938 167.042969 185.585938 167.042969 "/>
<path style=" stroke:none;fill-rule:nonzero;fill:rgb(11.813354%,9.735107%,9.002686%);fill-opacity:1;" d="M 185.585938 167.042969 L 185.199219 167.289062 L 185.308594 167.460938 L 185.535156 167.644531 C 187.777344 168.488281 189.515625 170.492188 190.09375 173.078125 L 190.089844 173.074219 C 190.230469 173.703125 190.296875 174.296875 190.324219 174.867188 C 190.332031 175.085938 190.492188 175.269531 190.710938 175.300781 C 191.421875 175.410156 192.113281 175.464844 192.789062 175.464844 C 195.578125 175.464844 198.089844 174.542969 200.445312 172.855469 C 200.613281 172.730469 200.964844 172.441406 201.4375 172.054688 C 202.144531 171.476562 203.105469 170.695312 203.949219 170.066406 C 204.371094 169.75 204.761719 169.472656 205.070312 169.28125 C 205.226562 169.183594 205.359375 169.109375 205.457031 169.066406 L 205.5625 169.023438 L 205.578125 169.019531 L 205.554688 168.890625 L 205.558594 169.019531 L 205.578125 169.019531 L 205.554688 168.890625 L 205.558594 169.019531 L 205.558594 168.710938 L 205.429688 168.992188 L 205.558594 169.019531 L 205.558594 168.710938 L 205.429688 168.992188 C 205.636719 169.089844 205.886719 169.011719 206.007812 168.8125 C 206.128906 168.617188 206.082031 168.359375 205.898438 168.214844 C 201.601562 164.871094 197.597656 163.808594 194.292969 163.808594 C 188.84375 163.8125 185.339844 166.65625 185.296875 166.6875 L 185.585938 167.042969 L 185.585938 166.585938 C 185.417969 166.585938 185.265625 166.679688 185.183594 166.824219 C 185.105469 166.96875 185.109375 167.148438 185.199219 167.289062 L 185.585938 167.042969 L 185.585938 167.5 L 185.871094 167.398438 L 185.902344 167.375 C 186.253906 167.101562 189.492188 164.71875 194.292969 164.722656 C 197.402344 164.722656 201.179688 165.707031 205.339844 168.9375 L 205.617188 168.578125 L 205.808594 168.160156 L 205.558594 168.109375 C 205.296875 168.121094 205.136719 168.207031 204.921875 168.3125 C 204.207031 168.691406 203.101562 169.546875 202.070312 170.367188 C 201.5625 170.773438 201.074219 171.171875 200.6875 171.488281 C 200.304688 171.804688 200.007812 172.046875 199.914062 172.113281 C 197.671875 173.714844 195.375 174.546875 192.789062 174.550781 C 192.160156 174.550781 191.515625 174.5 190.847656 174.398438 L 190.777344 174.851562 L 191.234375 174.828125 C 191.207031 174.210938 191.132812 173.566406 190.984375 172.882812 L 190.984375 172.878906 C 190.347656 170.011719 188.402344 167.746094 185.855469 166.789062 L 185.695312 167.21875 L 186.078125 166.972656 L 185.96875 166.800781 L 185.585938 167.042969 L 185.585938 167.5 L 185.585938 167.042969 "/>
<path style=" stroke:none;fill-rule:nonzero;fill:rgb(85.662842%,13.630676%,14.414978%);fill-opacity:1;" d="M 182.300781 115.722656 C 182.300781 115.722656 159.289062 150.855469 179.5 166.402344 L 185.09375 166.402344 C 205.300781 150.855469 182.292969 115.722656 182.292969 115.722656 L 182.300781 115.722656 "/>
<path style=" stroke:none;fill-rule:nonzero;fill:rgb(11.813354%,9.735107%,9.002686%);fill-opacity:1;" d="M 181.917969 115.472656 C 181.90625 115.488281 179.121094 119.746094 176.328125 125.964844 C 173.539062 132.183594 170.734375 140.359375 170.734375 148.253906 C 170.726562 155.179688 172.921875 161.925781 179.222656 166.761719 L 179.5 166.859375 L 185.09375 166.859375 L 185.371094 166.761719 C 191.671875 161.925781 193.867188 155.179688 193.859375 148.253906 C 193.855469 140.359375 191.054688 132.183594 188.265625 125.964844 C 185.472656 119.746094 182.683594 115.488281 182.675781 115.472656 C 182.539062 115.261719 182.253906 115.203125 182.042969 115.34375 C 181.832031 115.480469 181.773438 115.761719 181.910156 115.972656 C 181.914062 115.972656 182.082031 116.230469 182.382812 116.722656 C 184.496094 120.144531 192.957031 134.8125 192.945312 148.253906 C 192.941406 155 190.851562 161.390625 184.816406 166.039062 L 185.09375 166.402344 L 185.09375 165.945312 L 179.5 165.945312 L 179.5 166.402344 L 179.777344 166.039062 C 173.742188 161.390625 171.652344 155 171.644531 148.253906 C 171.644531 140.578125 174.398438 132.488281 177.160156 126.335938 C 178.542969 123.261719 179.925781 120.664062 180.960938 118.84375 C 181.476562 117.929688 181.910156 117.210938 182.210938 116.722656 C 182.511719 116.230469 182.679688 115.972656 182.679688 115.972656 C 182.820312 115.761719 182.761719 115.480469 182.550781 115.34375 C 182.339844 115.203125 182.054688 115.261719 181.917969 115.472656 "/>
<path style=" stroke:none;fill-rule:nonzero;fill:rgb(85.662842%,13.630676%,14.414978%);fill-opacity:1;" d="M 177.300781 124.941406 L 167.632812 116.425781 C 168.484375 117.175781 168.125 122.132812 168.144531 123.257812 C 168.183594 125.953125 168.03125 128.65625 167.765625 131.339844 C 167.410156 134.890625 166.652344 138.335938 166.097656 141.851562 C 165.226562 147.402344 165.890625 153.210938 168.960938 158.019531 C 171.210938 161.554688 175.421875 164.605469 179.28125 166.214844 C 165.921875 155.667969 171.953125 136.382812 177.300781 124.941406 "/>
<path style=" stroke:none;fill-rule:nonzero;fill:rgb(11.813354%,9.735107%,9.002686%);fill-opacity:1;" d="M 177.300781 124.941406 L 177.605469 124.597656 L 167.933594 116.082031 C 167.746094 115.914062 167.457031 115.933594 167.289062 116.121094 C 167.121094 116.3125 167.140625 116.597656 167.332031 116.765625 C 167.34375 116.769531 167.425781 116.886719 167.484375 117.089844 C 167.679688 117.703125 167.75 118.953125 167.746094 120.148438 C 167.746094 121.386719 167.6875 122.582031 167.6875 123.164062 L 167.6875 123.269531 L 167.6875 123.265625 C 167.691406 123.554688 167.695312 123.84375 167.695312 124.132812 C 167.695312 126.519531 167.550781 128.910156 167.3125 131.292969 C 166.960938 134.8125 166.207031 138.246094 165.648438 141.78125 C 165.414062 143.269531 165.289062 144.777344 165.289062 146.28125 C 165.289062 150.472656 166.261719 154.640625 168.574219 158.265625 C 170.90625 161.910156 175.167969 164.988281 179.105469 166.636719 C 179.316406 166.722656 179.558594 166.644531 179.675781 166.445312 C 179.792969 166.25 179.746094 165.996094 179.566406 165.855469 C 173.699219 161.21875 171.660156 154.902344 171.652344 148.238281 C 171.648438 140.058594 174.78125 131.410156 177.714844 125.136719 C 177.804688 124.945312 177.753906 124.71875 177.585938 124.585938 L 177.300781 124.941406 L 177.605469 124.597656 L 177.300781 124.941406 L 177.015625 125.296875 L 177.300781 124.941406 L 176.890625 124.75 C 173.925781 131.089844 170.742188 139.828125 170.742188 148.238281 C 170.734375 155.078125 172.875 161.742188 179 166.574219 L 179.28125 166.214844 L 179.457031 165.792969 C 175.675781 164.222656 171.515625 161.195312 169.34375 157.773438 C 167.140625 154.320312 166.203125 150.332031 166.199219 146.28125 C 166.199219 144.828125 166.324219 143.367188 166.550781 141.925781 C 167.101562 138.425781 167.859375 134.972656 168.21875 131.386719 C 168.460938 128.980469 168.605469 126.558594 168.605469 124.132812 C 168.605469 123.839844 168.605469 123.546875 168.601562 123.253906 L 168.601562 123.25 L 168.597656 123.164062 C 168.597656 122.632812 168.660156 121.410156 168.660156 120.148438 C 168.660156 119.328125 168.636719 118.488281 168.546875 117.777344 C 168.503906 117.421875 168.441406 117.097656 168.355469 116.816406 C 168.265625 116.535156 168.15625 116.285156 167.933594 116.082031 C 167.84375 116.003906 167.722656 115.960938 167.605469 115.96875 C 167.484375 115.976562 167.367188 116.03125 167.289062 116.121094 C 167.210938 116.210938 167.167969 116.332031 167.175781 116.453125 C 167.183594 116.570312 167.238281 116.6875 167.332031 116.765625 L 177 125.285156 L 177.015625 125.296875 L 177.300781 124.941406 "/>
<path style=" stroke:none;fill-rule:nonzero;fill:rgb(85.662842%,13.630676%,14.414978%);fill-opacity:1;" d="M 198.601562 141.851562 C 198.046875 138.335938 197.289062 134.890625 196.933594 131.339844 C 196.664062 128.65625 196.511719 125.953125 196.558594 123.257812 C 196.570312 122.132812 196.214844 117.175781 197.066406 116.425781 L 187.324219 125.007812 C 192.675781 136.492188 198.6875 155.804688 185.195312 166.3125 C 189.117188 164.730469 193.445312 161.621094 195.742188 158.019531 C 198.808594 153.210938 199.476562 147.402344 198.601562 141.851562 "/>
<path style=" stroke:none;fill-rule:nonzero;fill:rgb(11.813354%,9.735107%,9.002686%);fill-opacity:1;" d="M 198.601562 141.851562 L 199.054688 141.78125 C 198.492188 138.246094 197.738281 134.8125 197.390625 131.292969 C 197.152344 128.9375 197.003906 126.570312 197.003906 124.210938 C 197.003906 123.894531 197.007812 123.582031 197.011719 123.265625 L 197.011719 123.183594 C 197.011719 122.605469 196.949219 121.390625 196.949219 120.140625 C 196.949219 119.339844 196.976562 118.527344 197.058594 117.886719 C 197.097656 117.566406 197.152344 117.289062 197.214844 117.085938 C 197.273438 116.886719 197.355469 116.769531 197.367188 116.765625 C 197.554688 116.597656 197.574219 116.3125 197.40625 116.121094 C 197.242188 115.933594 196.953125 115.914062 196.761719 116.082031 L 187.019531 124.664062 C 186.867188 124.800781 186.824219 125.015625 186.910156 125.199219 C 189.835938 131.472656 192.945312 140.089844 192.941406 148.246094 C 192.9375 154.953125 190.871094 161.308594 184.914062 165.953125 C 184.734375 166.09375 184.6875 166.34375 184.800781 166.539062 C 184.914062 166.738281 185.15625 166.820312 185.367188 166.738281 C 189.367188 165.113281 193.75 161.980469 196.128906 158.265625 C 198.4375 154.640625 199.414062 150.46875 199.414062 146.28125 C 199.414062 144.777344 199.289062 143.269531 199.054688 141.78125 L 198.601562 141.851562 L 198.152344 141.925781 C 198.378906 143.367188 198.5 144.828125 198.5 146.28125 C 198.5 150.332031 197.558594 154.320312 195.355469 157.773438 C 193.140625 161.261719 188.863281 164.34375 185.023438 165.890625 L 185.195312 166.3125 L 185.476562 166.675781 C 191.691406 161.839844 193.863281 155.132812 193.855469 148.246094 C 193.851562 139.863281 190.6875 131.152344 187.734375 124.816406 L 187.324219 125.007812 L 187.625 125.351562 L 197.367188 116.765625 C 197.457031 116.683594 197.511719 116.574219 197.519531 116.453125 C 197.527344 116.332031 197.488281 116.214844 197.40625 116.121094 C 197.328125 116.03125 197.214844 115.976562 197.09375 115.96875 C 196.972656 115.960938 196.855469 116 196.761719 116.082031 C 196.539062 116.285156 196.433594 116.535156 196.34375 116.8125 C 196.085938 117.648438 196.039062 118.902344 196.039062 120.140625 C 196.039062 121.414062 196.101562 122.65625 196.101562 123.183594 L 196.101562 123.253906 L 196.101562 123.25 C 196.09375 123.570312 196.09375 123.890625 196.09375 124.210938 C 196.09375 126.609375 196.242188 129.003906 196.480469 131.386719 C 196.839844 134.972656 197.597656 138.425781 198.152344 141.925781 L 198.601562 141.851562 "/>
<path style=" stroke:none;fill-rule:nonzero;fill:rgb(85.662842%,13.630676%,14.414978%);fill-opacity:1;" d="M 186.574219 165.695312 L 187.097656 166.085938 C 189.363281 164.859375 194.015625 163.15625 199.832031 165.296875 L 200.199219 165.179688 C 200.199219 165.179688 202.199219 159.71875 205.617188 159.71875 C 205.617188 159.71875 201.078125 157.3125 195.089844 158.929688 C 192.992188 161.726562 189.753906 164.160156 186.574219 165.695312 "/>
<path style=" stroke:none;fill-rule:nonzero;fill:rgb(11.813354%,9.735107%,9.002686%);fill-opacity:1;" d="M 186.574219 165.695312 L 186.300781 166.0625 L 186.820312 166.449219 C 186.964844 166.558594 187.15625 166.570312 187.3125 166.488281 C 188.75 165.710938 191.183594 164.730469 194.273438 164.730469 C 195.902344 164.730469 197.71875 165.003906 199.675781 165.722656 L 199.972656 165.730469 L 200.335938 165.613281 C 200.472656 165.570312 200.578125 165.46875 200.628906 165.335938 C 200.628906 165.335938 200.652344 165.261719 200.714844 165.117188 C 200.917969 164.617188 201.492188 163.339844 202.355469 162.21875 C 202.785156 161.65625 203.289062 161.136719 203.839844 160.765625 C 204.390625 160.394531 204.980469 160.175781 205.617188 160.175781 C 205.828125 160.175781 206.011719 160.03125 206.0625 159.828125 C 206.113281 159.625 206.015625 159.414062 205.832031 159.316406 C 205.789062 159.292969 203.183594 157.914062 199.285156 157.914062 C 197.976562 157.914062 196.519531 158.070312 194.972656 158.488281 L 194.726562 158.65625 C 192.691406 161.378906 189.496094 163.78125 186.378906 165.285156 L 186.574219 165.695312 L 186.898438 165.371094 L 186.574219 165.695312 L 186.300781 166.0625 L 186.574219 165.695312 L 186.253906 166.019531 C 186.390625 166.15625 186.597656 166.191406 186.773438 166.105469 C 190.011719 164.539062 193.300781 162.078125 195.457031 159.203125 L 195.089844 158.929688 L 195.210938 159.367188 C 196.675781 158.972656 198.046875 158.824219 199.285156 158.824219 C 201.125 158.824219 202.664062 159.152344 203.738281 159.480469 C 204.277344 159.644531 204.699219 159.804688 204.984375 159.925781 C 205.125 159.988281 205.234375 160.035156 205.304688 160.070312 L 205.382812 160.109375 L 205.402344 160.121094 L 205.617188 159.71875 L 205.617188 159.261719 C 204.636719 159.261719 203.773438 159.65625 203.050781 160.210938 C 200.898438 161.878906 199.789062 164.992188 199.769531 165.023438 L 200.199219 165.179688 L 200.058594 164.746094 L 199.695312 164.859375 L 199.832031 165.296875 L 199.992188 164.867188 C 197.929688 164.109375 196.003906 163.820312 194.273438 163.820312 C 190.988281 163.820312 188.410156 164.855469 186.878906 165.683594 L 187.097656 166.085938 L 187.367188 165.71875 L 186.847656 165.328125 C 186.65625 165.1875 186.386719 165.214844 186.230469 165.398438 C 186.074219 165.578125 186.082031 165.847656 186.253906 166.019531 L 186.574219 165.695312 "/>
<path style=" stroke:none;fill-rule:nonzero;fill:rgb(85.662842%,13.630676%,14.414978%);fill-opacity:1;" d="M 177.632812 166.027344 L 177.9375 165.890625 L 177.808594 165.535156 C 174.738281 164 171.644531 161.644531 169.617188 158.941406 L 169.589844 158.9375 C 163.578125 157.296875 159.019531 159.71875 159.019531 159.71875 C 162.4375 159.71875 164.4375 165.179688 164.4375 165.179688 L 164.863281 165.382812 C 170.59375 163.222656 175.242188 164.785156 177.636719 166.027344 "/>
<path style=" stroke:none;fill-rule:nonzero;fill:rgb(11.813354%,9.735107%,9.002686%);fill-opacity:1;" d="M 177.632812 166.027344 L 177.824219 166.445312 L 178.128906 166.304688 C 178.34375 166.207031 178.449219 165.957031 178.367188 165.730469 L 178.234375 165.378906 L 178.011719 165.128906 C 174.996094 163.621094 171.953125 161.296875 169.984375 158.667969 C 169.90625 158.566406 169.789062 158.5 169.664062 158.488281 L 169.632812 158.484375 L 169.589844 158.9375 L 169.707031 158.496094 C 168.144531 158.070312 166.675781 157.910156 165.351562 157.910156 C 161.453125 157.914062 158.847656 159.292969 158.804688 159.316406 C 158.621094 159.414062 158.527344 159.625 158.578125 159.828125 C 158.628906 160.03125 158.8125 160.175781 159.019531 160.175781 C 159.75 160.175781 160.414062 160.464844 161.03125 160.933594 C 161.949219 161.636719 162.710938 162.742188 163.222656 163.671875 C 163.480469 164.136719 163.679688 164.558594 163.8125 164.859375 C 163.878906 165.011719 163.925781 165.132812 163.960938 165.214844 L 164.007812 165.335938 C 164.046875 165.449219 164.132812 165.539062 164.238281 165.589844 L 164.664062 165.796875 C 164.777344 165.847656 164.90625 165.855469 165.023438 165.8125 C 167.039062 165.050781 168.910156 164.765625 170.589844 164.765625 C 173.5625 164.765625 175.941406 165.664062 177.425781 166.433594 L 177.636719 166.027344 L 177.621094 165.574219 L 177.632812 166.027344 L 177.824219 166.445312 L 177.632812 166.027344 L 177.648438 166.484375 C 177.859375 166.480469 178.035156 166.332031 178.082031 166.128906 C 178.128906 165.929688 178.03125 165.71875 177.847656 165.625 C 176.269531 164.804688 173.75 163.851562 170.589844 163.851562 C 168.804688 163.851562 166.820312 164.15625 164.703125 164.957031 L 164.863281 165.382812 L 165.058594 164.972656 L 164.632812 164.769531 L 164.4375 165.179688 L 164.863281 165.023438 C 164.855469 165.003906 164.347656 163.609375 163.386719 162.191406 C 162.90625 161.484375 162.308594 160.765625 161.585938 160.210938 C 160.863281 159.65625 160 159.261719 159.019531 159.261719 L 159.019531 159.71875 L 159.234375 160.121094 L 159.257812 160.109375 C 159.507812 159.980469 161.902344 158.824219 165.351562 158.824219 C 166.601562 158.824219 167.988281 158.976562 169.46875 159.378906 L 169.542969 159.394531 L 169.574219 159.394531 L 169.617188 158.941406 L 169.253906 159.214844 C 171.339844 161.992188 174.476562 164.378906 177.605469 165.945312 L 177.808594 165.535156 L 177.378906 165.695312 L 177.507812 166.046875 L 177.9375 165.890625 L 177.746094 165.476562 L 177.445312 165.613281 C 177.246094 165.703125 177.140625 165.921875 177.1875 166.132812 C 177.238281 166.34375 177.429688 166.492188 177.648438 166.484375 L 177.632812 166.027344 "/>
<path style=" stroke:none;fill-rule:nonzero;fill:rgb(85.662842%,13.630676%,14.414978%);fill-opacity:1;" d="M 177.246094 125.058594 C 178.253906 122.898438 179.230469 121.019531 180.058594 119.523438 L 176.082031 114.015625 L 172.972656 120.855469 L 172.972656 121.128906 L 177.300781 124.941406 L 177.246094 125.058594 "/>
<path style=" stroke:none;fill-rule:nonzero;fill:rgb(11.813354%,9.735107%,9.002686%);fill-opacity:1;" d="M 177.246094 125.058594 L 177.660156 125.25 C 178.660156 123.101562 179.636719 121.234375 180.457031 119.742188 L 180.597656 119.492188 L 175.992188 113.109375 L 172.515625 120.753906 L 172.515625 121.335938 L 177 125.285156 L 177.300781 124.941406 L 176.890625 124.746094 L 176.835938 124.859375 L 176.523438 125.511719 L 177.539062 125.511719 L 177.660156 125.25 L 177.246094 125.058594 L 177.246094 124.601562 L 177.246094 125.058594 L 177.660156 125.253906 L 177.714844 125.136719 L 177.863281 124.828125 L 173.429688 120.921875 L 173.429688 120.855469 L 172.972656 120.855469 L 173.386719 121.042969 L 176.171875 114.917969 L 179.6875 119.789062 L 180.058594 119.523438 L 179.660156 119.300781 C 178.828125 120.808594 177.84375 122.695312 176.835938 124.863281 L 177.246094 125.058594 L 177.246094 124.601562 L 177.246094 125.058594 "/>
<path style=" stroke:none;fill-rule:nonzero;fill:rgb(85.662842%,13.630676%,14.414978%);fill-opacity:1;" d="M 187.324219 125.007812 L 192.074219 120.820312 L 188.984375 114.015625 L 184.941406 119.609375 L 184.941406 120.269531 C 185.695312 121.65625 186.542969 123.328125 187.40625 125.191406 L 187.324219 125.007812 "/>
<path style=" stroke:none;fill-rule:nonzero;fill:rgb(11.813354%,9.735107%,9.002686%);fill-opacity:1;" d="M 187.324219 125.007812 L 187.625 125.351562 L 192.632812 120.9375 L 189.074219 113.109375 L 184.484375 119.464844 L 184.484375 120.382812 L 184.539062 120.484375 C 185.289062 121.867188 186.132812 123.527344 186.992188 125.382812 L 187.820312 125.003906 L 187.738281 124.820312 L 187.324219 125.007812 L 187.777344 125.007812 L 187.324219 125.007812 L 187.625 125.351562 L 187.324219 125.007812 L 186.867188 125.007812 L 186.867188 125.105469 L 186.988281 125.378906 L 187.820312 125 C 186.953125 123.128906 186.101562 121.449219 185.34375 120.050781 L 184.941406 120.269531 L 185.398438 120.269531 L 185.398438 119.757812 L 188.894531 114.917969 L 191.519531 120.699219 L 186.867188 124.800781 L 186.867188 125.007812 L 187.324219 125.007812 "/>
</g>
</svg>
