<?xml version="1.0" encoding="UTF-8"?>
<svg xmlns="http://www.w3.org/2000/svg" xmlns:xlink="http://www.w3.org/1999/xlink" width="1639pt" height="350pt" viewBox="0 0 1639 350" version="1.1">
<g id="surface1">
<path style=" stroke:none;fill-rule:nonzero;fill:rgb(94.921875%,31.396484%,13.305664%);fill-opacity:1;" d="M 0 0 L 166.5 0 C 166.488281 55.5 166.5 111 166.488281 166.5 C 111 166.5 55.5 166.5 0 166.5 L 0 0 "/>
<path style=" stroke:none;fill-rule:nonzero;fill:rgb(99.609375%,99.609375%,99.609375%);fill-opacity:1;" d="M 166.5 0 L 183.5 0 C 183.5 55.5 183.488281 111 183.511719 166.5 C 239 166.5 294.5 166.488281 349.988281 166.5 C 350.011719 111 350 55.5 350 0 L 1639 0 L 1639 129.488281 C 1627.121094 129.53125 1615.238281 129.398438 1603.371094 129.570312 C 1603.101562 114.539062 1603.339844 99.511719 1603.238281 84.488281 C 1591.359375 88.070312 1579.550781 91.878906 1567.609375 95.28125 C 1567.320312 106.679688 1567.589844 118.089844 1567.460938 129.488281 C 1549.898438 129.480469 1532.339844 129.511719 1514.78125 129.46875 C 1515 120.488281 1514.160156 111.441406 1515.449219 102.511719 C 1516.519531 95.46875 1520.601562 88.429688 1527.460938 85.710938 C 1536.109375 82.160156 1545.78125 84.519531 1554 88.140625 C 1553.949219 77.851562 1554.078125 67.558594 1553.929688 57.28125 C 1536.628906 52.519531 1516.800781 53.449219 1501.449219 63.441406 C 1491.550781 69.78125 1484.371094 79.921875 1481.140625 91.160156 C 1477.320312 103.609375 1479.269531 116.761719 1478.660156 129.539062 C 1470.328125 129.480469 1462.011719 129.398438 1453.699219 129.589844 C 1453.789062 139.210938 1453.75 148.828125 1453.71875 158.441406 C 1462.070312 158.609375 1470.429688 158.410156 1478.78125 158.570312 C 1478.710938 199.050781 1478.761719 239.519531 1478.761719 280 C 1490.761719 280 1502.769531 280 1514.769531 280 C 1514.769531 239.511719 1514.761719 199.019531 1514.78125 158.53125 C 1532.339844 158.5 1549.910156 158.511719 1567.480469 158.519531 C 1567.53125 184.328125 1567.429688 210.128906 1567.519531 235.929688 C 1567.679688 247.949219 1569.730469 260.800781 1577.691406 270.289062 C 1584.578125 278.691406 1595.519531 282.53125 1606.078125 283.308594 C 1617.210938 284.101562 1628.710938 282.738281 1639 278.269531 L 1639 350 L 350 350 C 350 294.5 350 239 350 183.5 C 294.5 183.5 239 183.488281 183.511719 183.511719 C 183.488281 239 183.511719 294.5 183.5 350 L 166.5 350 C 166.5 294.5 166.511719 239.011719 166.5 183.511719 C 111 183.480469 55.5 183.511719 0 183.488281 L 0 166.5 C 55.5 166.5 111 166.5 166.488281 166.5 C 166.5 111 166.488281 55.5 166.5 0 "/>
<path style=" stroke:none;fill-rule:nonzero;fill:rgb(50.193787%,72.851562%,0.39978%);fill-opacity:1;" d="M 183.5 0 L 350 0 C 350 55.5 350.011719 111 349.988281 166.5 C 294.5 166.488281 239 166.5 183.511719 166.5 C 183.488281 111 183.5 55.5 183.5 0 "/>
<path style=" stroke:none;fill-rule:nonzero;fill:rgb(46.702576%,46.702576%,46.702576%);fill-opacity:1;" d="M 1501.449219 63.441406 C 1516.800781 53.449219 1536.628906 52.519531 1553.929688 57.28125 C 1554.078125 67.558594 1553.949219 77.851562 1554 88.140625 C 1545.78125 84.519531 1536.109375 82.160156 1527.460938 85.710938 C 1520.601562 88.429688 1516.519531 95.46875 1515.449219 102.511719 C 1514.160156 111.441406 1515 120.488281 1514.78125 129.46875 C 1532.339844 129.511719 1549.898438 129.480469 1567.460938 129.488281 C 1567.589844 118.089844 1567.320312 106.679688 1567.609375 95.28125 C 1579.550781 91.878906 1591.359375 88.070312 1603.238281 84.488281 C 1603.339844 99.511719 1603.101562 114.539062 1603.371094 129.570312 C 1615.238281 129.398438 1627.121094 129.53125 1639 129.488281 L 1639 158.730469 C 1627.078125 158.238281 1615.148438 158.601562 1603.230469 158.558594 C 1603.28125 175.371094 1603.238281 192.179688 1603.25 209 C 1603.441406 218.308594 1602.75 227.671875 1603.839844 236.949219 C 1604.5 242.421875 1606.488281 248.480469 1611.621094 251.308594 C 1620.210938 256.121094 1631.109375 254.019531 1639 248.738281 L 1639 278.269531 C 1628.710938 282.738281 1617.210938 284.101562 1606.078125 283.308594 C 1595.519531 282.53125 1584.578125 278.691406 1577.691406 270.289062 C 1569.730469 260.800781 1567.679688 247.949219 1567.519531 235.929688 C 1567.429688 210.128906 1567.53125 184.328125 1567.480469 158.519531 C 1549.910156 158.511719 1532.339844 158.5 1514.78125 158.53125 C 1514.761719 199.019531 1514.769531 239.511719 1514.769531 280 C 1502.769531 280 1490.761719 280 1478.761719 280 C 1478.761719 239.519531 1478.710938 199.050781 1478.78125 158.570312 C 1470.429688 158.410156 1462.070312 158.609375 1453.71875 158.441406 C 1453.75 148.828125 1453.789062 139.210938 1453.699219 129.589844 C 1462.011719 129.398438 1470.328125 129.480469 1478.660156 129.539062 C 1479.269531 116.761719 1477.320312 103.609375 1481.140625 91.160156 C 1484.371094 79.921875 1491.550781 69.78125 1501.449219 63.441406 "/>
<path style=" stroke:none;fill-rule:nonzero;fill:rgb(46.702576%,46.702576%,46.702576%);fill-opacity:1;" d="M 730.46875 65.539062 C 737.730469 64.441406 745.589844 66.921875 750.398438 72.601562 C 756.039062 78.820312 757.078125 88.71875 752.898438 95.988281 C 748.28125 104.191406 737.941406 108 728.929688 106.03125 C 719.578125 104.351562 711.789062 95.660156 712.210938 85.96875 C 711.941406 75.769531 720.46875 66.679688 730.46875 65.539062 "/>
<path style=" stroke:none;fill-rule:nonzero;fill:rgb(46.702576%,46.702576%,46.702576%);fill-opacity:1;" d="M 454.5 70 C 471.960938 70 489.410156 70 506.871094 70 C 523.171875 111.390625 539.589844 152.738281 555.910156 194.128906 C 560.078125 204.480469 563.980469 214.949219 568.351562 225.21875 C 589.320312 173.5 610.589844 121.910156 631.398438 70.121094 C 648.191406 69.851562 664.988281 70.058594 681.789062 70.019531 C 681.75 140.011719 681.769531 210 681.78125 279.988281 C 669.660156 279.960938 657.550781 280.089844 645.441406 279.917969 C 645.570312 228.269531 645.429688 176.621094 645.5 124.960938 C 645.519531 122.640625 645.441406 120.320312 645.28125 118 C 644.570312 119.078125 643.941406 120.199219 643.390625 121.359375 C 622.578125 174.230469 601.371094 226.949219 580.679688 279.871094 C 572.058594 280.179688 563.429688 279.890625 554.800781 280.03125 C 533.328125 227.160156 512.128906 174.171875 490.769531 121.261719 C 490.210938 120.160156 489.609375 119.089844 488.960938 118.058594 C 488.519531 140.691406 488.890625 163.339844 488.769531 185.96875 C 488.78125 217.308594 488.75 248.648438 488.78125 279.988281 C 477.351562 280.019531 465.921875 279.988281 454.5 280 C 454.488281 210 454.480469 140 454.5 70 "/>
<path style=" stroke:none;fill-rule:nonzero;fill:rgb(46.702576%,46.702576%,46.702576%);fill-opacity:1;" d="M 829.570312 129.351562 C 846.949219 124.398438 865.691406 124.601562 883.058594 129.511719 C 886.640625 130.511719 890.109375 131.898438 893.328125 133.789062 C 893.128906 145.261719 893.328125 156.738281 893.21875 168.21875 C 881.609375 159.351562 866.878906 153.730469 852.121094 155.589844 C 840.398438 156.648438 829.21875 162.730469 822.210938 172.199219 C 813.199219 183.941406 811.121094 199.53125 812.671875 213.890625 C 813.828125 225.128906 818.480469 236.359375 827.21875 243.808594 C 836.300781 251.878906 849.03125 254.738281 860.910156 253.839844 C 872.648438 252.488281 883.730469 247.519531 893.21875 240.578125 C 893.320312 251.449219 893.171875 262.320312 893.300781 273.191406 C 878.578125 281.949219 860.929688 284.210938 844.078125 283.378906 C 826.839844 282.46875 809.648438 275.941406 797.171875 263.820312 C 783.609375 250.75 776.25 232.109375 775.378906 213.441406 C 774.5 194.03125 778.449219 173.78125 789.621094 157.570312 C 798.980469 143.738281 813.621094 133.949219 829.570312 129.351562 "/>
<path style=" stroke:none;fill-rule:nonzero;fill:rgb(46.702576%,46.702576%,46.702576%);fill-opacity:1;" d="M 1073.539062 126.761719 C 1090.820312 124.558594 1109.050781 125.539062 1125.089844 132.839844 C 1139.011719 139.121094 1150.289062 150.730469 1156.539062 164.628906 C 1163.210938 179.429688 1164.828125 196.050781 1163.699219 212.101562 C 1162.589844 227.769531 1157.671875 243.46875 1147.871094 255.917969 C 1137.839844 269.140625 1122.71875 278.101562 1106.53125 281.429688 C 1092.691406 284.308594 1078.210938 284.300781 1064.371094 281.390625 C 1047.808594 277.851562 1032.480469 268.238281 1022.769531 254.261719 C 1011.371094 238.058594 1008.128906 217.460938 1009.578125 198.050781 C 1010.558594 181.578125 1015.679688 164.980469 1026.199219 152.058594 C 1037.71875 137.589844 1055.390625 129.050781 1073.539062 126.761719 "/>
<path style=" stroke:none;fill-rule:nonzero;fill:rgb(46.702576%,46.702576%,46.702576%);fill-opacity:1;" d="M 1222.921875 127.058594 C 1239.570312 124.128906 1257 126.28125 1272.761719 132.25 C 1272.78125 143.289062 1272.761719 154.320312 1272.769531 165.351562 C 1261.761719 157.78125 1248.308594 153.710938 1234.949219 154.179688 C 1228.21875 154.441406 1220.820312 157.289062 1217.75 163.691406 C 1215.308594 170.019531 1217 178.320312 1222.96875 182.109375 C 1233.179688 188.941406 1245.359375 191.839844 1255.941406 197.960938 C 1264.269531 202.640625 1272.351562 208.761719 1276.570312 217.578125 C 1284.5 234.101562 1281.140625 255.929688 1267.199219 268.25 C 1253.890625 280.691406 1234.71875 284.128906 1217.089844 283.46875 C 1204.570312 282.660156 1191.988281 280.191406 1180.480469 275.070312 C 1180.53125 263.460938 1180.410156 251.859375 1180.539062 240.261719 C 1190.21875 247.289062 1201.390625 252.320312 1213.210938 254.359375 C 1221.441406 255.699219 1230.390625 255.761719 1238.058594 252.082031 C 1245.398438 248.429688 1246.71875 238 1242.359375 231.621094 C 1238.28125 226.699219 1232.289062 223.988281 1226.640625 221.328125 C 1216.03125 216.558594 1204.878906 212.570312 1195.558594 205.421875 C 1189.011719 200.308594 1184.050781 193.109375 1182.109375 184.988281 C 1179.230469 173.019531 1180.128906 159.53125 1187.089844 149.070312 C 1195.039062 136.878906 1208.851562 129.570312 1222.921875 127.058594 "/>
<path style=" stroke:none;fill-rule:nonzero;fill:rgb(46.702576%,46.702576%,46.702576%);fill-opacity:1;" d="M 1360.550781 126.710938 C 1378.519531 124.480469 1397.601562 125.691406 1414 133.96875 C 1428.300781 141.121094 1439.390625 154.039062 1444.929688 168.980469 C 1449.261719 180.410156 1450.78125 192.75 1450.53125 204.921875 C 1450.558594 223.101562 1445.648438 241.761719 1434.238281 256.179688 C 1423.558594 270.140625 1407.21875 279.210938 1389.96875 282.058594 C 1373.101562 284.789062 1355.28125 284.082031 1339.25 277.769531 C 1323.011719 271.378906 1309.511719 258.339844 1302.671875 242.28125 C 1295.539062 225.910156 1294.789062 207.488281 1297.011719 190 C 1299.339844 172.511719 1307.261719 155.410156 1320.761719 143.78125 C 1331.820312 134.070312 1346.058594 128.570312 1360.550781 126.710938 "/>
<path style=" stroke:none;fill-rule:nonzero;fill:rgb(46.702576%,46.702576%,46.702576%);fill-opacity:1;" d="M 973.851562 131.800781 C 983.789062 125.828125 996.421875 125.328125 1007.269531 128.980469 C 1007.21875 140.988281 1007.269531 153 1007.238281 165.011719 C 1000.140625 160.410156 991.28125 158.441406 982.898438 159.289062 C 972.679688 160.449219 964.578125 168.300781 960.378906 177.300781 C 955.820312 186.828125 954.960938 197.609375 955.25 208.03125 C 955.25 232.019531 955.261719 256.011719 955.25 280 C 943.410156 280 931.578125 280 919.75 280 C 919.71875 229.859375 919.789062 179.710938 919.71875 129.570312 C 931.570312 129.421875 943.421875 129.480469 955.269531 129.539062 C 955.21875 138.148438 955.269531 146.761719 955.238281 155.378906 C 959.089844 146.011719 964.820312 136.910156 973.851562 131.800781 "/>
<path style=" stroke:none;fill-rule:nonzero;fill:rgb(46.702576%,46.702576%,46.702576%);fill-opacity:1;" d="M 715.480469 129.539062 C 727.421875 129.488281 739.371094 129.371094 751.308594 129.601562 C 751.171875 179.730469 751.300781 229.871094 751.25 280 C 739.328125 280 727.410156 280 715.5 280 C 715.46875 229.851562 715.511719 179.699219 715.480469 129.539062 "/>
<path style=" stroke:none;fill-rule:nonzero;fill:rgb(99.609375%,99.609375%,99.609375%);fill-opacity:1;" d="M 1084.28125 155.339844 C 1095.101562 154.628906 1106.621094 157.691406 1114.398438 165.558594 C 1122.71875 173.738281 1125.941406 185.609375 1126.828125 196.929688 C 1127.46875 209.320312 1126.960938 222.230469 1121.761719 233.710938 C 1118.320312 241.449219 1112.019531 247.988281 1104.070312 251.089844 C 1094.769531 254.660156 1084.320312 254.871094 1074.71875 252.378906 C 1064.949219 249.808594 1056.660156 242.75 1052.148438 233.761719 C 1046.351562 222.179688 1045.480469 208.789062 1046.679688 196.089844 C 1047.769531 184.539062 1051.789062 172.660156 1060.589844 164.691406 C 1066.96875 158.730469 1075.671875 155.820312 1084.28125 155.339844 "/>
<path style=" stroke:none;fill-rule:nonzero;fill:rgb(99.609375%,99.609375%,99.609375%);fill-opacity:1;" d="M 1370.269531 155.371094 C 1380.441406 154.660156 1391.300781 157.011719 1399.121094 163.878906 C 1406.328125 169.859375 1410.320312 178.820312 1412.148438 187.839844 C 1414.210938 198.421875 1414.191406 209.371094 1412.449219 220 C 1411.070312 227.921875 1408.328125 235.820312 1403.140625 242.089844 C 1397.910156 248.390625 1390.128906 252.230469 1382.101562 253.410156 C 1373.480469 254.699219 1364.398438 254.082031 1356.339844 250.609375 C 1347.640625 246.929688 1340.898438 239.398438 1337.351562 230.738281 C 1333.078125 220.421875 1332.230469 208.988281 1333.078125 197.949219 C 1333.898438 187.261719 1336.929688 176.289062 1343.988281 167.980469 C 1350.429688 160.21875 1360.308594 155.929688 1370.269531 155.371094 "/>
<path style=" stroke:none;fill-rule:nonzero;fill:rgb(99.609375%,99.609375%,99.609375%);fill-opacity:1;" d="M 1603.230469 158.558594 C 1615.148438 158.601562 1627.078125 158.238281 1639 158.730469 L 1639 248.738281 C 1631.109375 254.019531 1620.210938 256.121094 1611.621094 251.308594 C 1606.488281 248.480469 1604.5 242.421875 1603.839844 236.949219 C 1602.75 227.671875 1603.441406 218.308594 1603.25 209 C 1603.238281 192.179688 1603.28125 175.371094 1603.230469 158.558594 "/>
<path style=" stroke:none;fill-rule:nonzero;fill:rgb(0.799561%,64.256287%,93.75%);fill-opacity:1;" d="M 0 183.488281 C 55.5 183.511719 111 183.480469 166.5 183.511719 C 166.511719 239.011719 166.5 294.5 166.5 350 L 0 350 L 0 183.488281 "/>
<path style=" stroke:none;fill-rule:nonzero;fill:rgb(100%,72.459412%,0.799561%);fill-opacity:1;" d="M 183.511719 183.511719 C 239 183.488281 294.5 183.5 350 183.5 C 350 239 350 294.5 350 350 L 183.5 350 C 183.511719 294.5 183.488281 239 183.511719 183.511719 "/>
</g>
</svg>
